ISO-10303-21;
HEADER;
FILE_DESCRIPTION(('wonky-kernel Rust planar B-rep; exact source-frame geometry, world coordinates correctly rounded, export budget 5.684341886080802E-14 mm'),'2;1');
FILE_NAME('tea-box.step','',(''),(''),'wonky-kernel','Rust wonky-ops::step','');
FILE_SCHEMA(('AUTOMOTIVE_DESIGN'));
ENDSEC;
DATA;
#1=APPLICATION_CONTEXT('automotive_design');
#2=APPLICATION_PROTOCOL_DEFINITION('international standard','automotive_design',2000,#1);
#3=PRODUCT_CONTEXT('',#1,'mechanical');
#4=PRODUCT('tea-box','tea-box','',(#3));
#5=PRODUCT_DEFINITION_FORMATION('','',#4);
#6=PRODUCT_DEFINITION_CONTEXT('part definition',#1,'design');
#7=PRODUCT_DEFINITION('design','',#5,#6);
#8=PRODUCT_DEFINITION_SHAPE('','',#7);
#9=(LENGTH_UNIT() NAMED_UNIT(*) SI_UNIT(.MILLI.,.METRE.));
#10=(NAMED_UNIT(*) PLANE_ANGLE_UNIT() SI_UNIT($,.RADIAN.));
#11=(NAMED_UNIT(*) SI_UNIT($,.STERADIAN.) SOLID_ANGLE_UNIT());
#12=UNCERTAINTY_MEASURE_WITH_UNIT(LENGTH_MEASURE(5.684341886080802E-14),#9,'distance_accuracy_value','export rounding of exact source-frame geometry');
#13=(GEOMETRIC_REPRESENTATION_CONTEXT(3) GLOBAL_UNCERTAINTY_ASSIGNED_CONTEXT((#12)) GLOBAL_UNIT_ASSIGNED_CONTEXT((#9,#10,#11)) REPRESENTATION_CONTEXT('','3D'));
#14=CARTESIAN_POINT('',(0.0,0.0,0.0));
#15=DIRECTION('',(0.0,0.0,1.0));
#16=DIRECTION('',(1.0,0.0,0.0));
#17=AXIS2_PLACEMENT_3D('',#14,#15,#16);
#18=CARTESIAN_POINT('',(0.0,0.0,45.0));
#19=CARTESIAN_POINT('',(0.0,45.0,45.0));
#20=CARTESIAN_POINT('',(0.0,45.0,0.0));
#21=CARTESIAN_POINT('',(0.0,0.0,0.0));
#22=CARTESIAN_POINT('',(2.0,2.0,2.0));
#23=CARTESIAN_POINT('',(2.0,43.0,2.0));
#24=CARTESIAN_POINT('',(2.0,43.0,45.0));
#25=CARTESIAN_POINT('',(2.0,2.0,45.0));
#26=CARTESIAN_POINT('',(158.0,2.0,45.0));
#27=CARTESIAN_POINT('',(158.0,43.0,45.0));
#28=CARTESIAN_POINT('',(158.0,43.0,2.0));
#29=CARTESIAN_POINT('',(158.0,2.0,2.0));
#30=CARTESIAN_POINT('',(160.0,0.0,0.0));
#31=CARTESIAN_POINT('',(160.0,45.0,0.0));
#32=CARTESIAN_POINT('',(160.0,45.0,45.0));
#33=CARTESIAN_POINT('',(160.0,0.0,45.0));
#34=VERTEX_POINT('',#18);
#35=VERTEX_POINT('',#19);
#36=VERTEX_POINT('',#20);
#37=VERTEX_POINT('',#21);
#38=VERTEX_POINT('',#22);
#39=VERTEX_POINT('',#23);
#40=VERTEX_POINT('',#24);
#41=VERTEX_POINT('',#25);
#42=VERTEX_POINT('',#26);
#43=VERTEX_POINT('',#27);
#44=VERTEX_POINT('',#28);
#45=VERTEX_POINT('',#29);
#46=VERTEX_POINT('',#30);
#47=VERTEX_POINT('',#31);
#48=VERTEX_POINT('',#32);
#49=VERTEX_POINT('',#33);
#50=DIRECTION('',(0.0,1.0,0.0));
#51=VECTOR('',#50,1.);
#52=LINE('',#18,#51);
#53=EDGE_CURVE('',#34,#35,#52,.T.);
#54=DIRECTION('',(0.0,0.0,-1.0));
#55=VECTOR('',#54,1.);
#56=LINE('',#19,#55);
#57=EDGE_CURVE('',#35,#36,#56,.T.);
#58=DIRECTION('',(0.0,-1.0,0.0));
#59=VECTOR('',#58,1.);
#60=LINE('',#20,#59);
#61=EDGE_CURVE('',#36,#37,#60,.T.);
#62=DIRECTION('',(0.0,0.0,-1.0));
#63=VECTOR('',#62,1.);
#64=LINE('',#18,#63);
#65=EDGE_CURVE('',#34,#37,#64,.T.);
#66=DIRECTION('',(0.0,1.0,0.0));
#67=VECTOR('',#66,1.);
#68=LINE('',#22,#67);
#69=EDGE_CURVE('',#38,#39,#68,.T.);
#70=DIRECTION('',(0.0,0.0,1.0));
#71=VECTOR('',#70,1.);
#72=LINE('',#23,#71);
#73=EDGE_CURVE('',#39,#40,#72,.T.);
#74=DIRECTION('',(0.0,-1.0,0.0));
#75=VECTOR('',#74,1.);
#76=LINE('',#24,#75);
#77=EDGE_CURVE('',#40,#41,#76,.T.);
#78=DIRECTION('',(0.0,0.0,1.0));
#79=VECTOR('',#78,1.);
#80=LINE('',#22,#79);
#81=EDGE_CURVE('',#38,#41,#80,.T.);
#82=DIRECTION('',(0.0,1.0,0.0));
#83=VECTOR('',#82,1.);
#84=LINE('',#26,#83);
#85=EDGE_CURVE('',#42,#43,#84,.T.);
#86=DIRECTION('',(0.0,0.0,-1.0));
#87=VECTOR('',#86,1.);
#88=LINE('',#27,#87);
#89=EDGE_CURVE('',#43,#44,#88,.T.);
#90=DIRECTION('',(0.0,-1.0,0.0));
#91=VECTOR('',#90,1.);
#92=LINE('',#28,#91);
#93=EDGE_CURVE('',#44,#45,#92,.T.);
#94=DIRECTION('',(0.0,0.0,-1.0));
#95=VECTOR('',#94,1.);
#96=LINE('',#26,#95);
#97=EDGE_CURVE('',#42,#45,#96,.T.);
#98=DIRECTION('',(0.0,1.0,0.0));
#99=VECTOR('',#98,1.);
#100=LINE('',#30,#99);
#101=EDGE_CURVE('',#46,#47,#100,.T.);
#102=DIRECTION('',(0.0,0.0,1.0));
#103=VECTOR('',#102,1.);
#104=LINE('',#31,#103);
#105=EDGE_CURVE('',#47,#48,#104,.T.);
#106=DIRECTION('',(0.0,-1.0,0.0));
#107=VECTOR('',#106,1.);
#108=LINE('',#32,#107);
#109=EDGE_CURVE('',#48,#49,#108,.T.);
#110=DIRECTION('',(0.0,0.0,1.0));
#111=VECTOR('',#110,1.);
#112=LINE('',#30,#111);
#113=EDGE_CURVE('',#46,#49,#112,.T.);
#114=DIRECTION('',(1.0,0.0,0.0));
#115=VECTOR('',#114,1.);
#116=LINE('',#18,#115);
#117=EDGE_CURVE('',#34,#49,#116,.T.);
#118=DIRECTION('',(1.0,0.0,0.0));
#119=VECTOR('',#118,1.);
#120=LINE('',#21,#119);
#121=EDGE_CURVE('',#37,#46,#120,.T.);
#122=DIRECTION('',(1.0,0.0,0.0));
#123=VECTOR('',#122,1.);
#124=LINE('',#25,#123);
#125=EDGE_CURVE('',#41,#42,#124,.T.);
#126=DIRECTION('',(1.0,0.0,0.0));
#127=VECTOR('',#126,1.);
#128=LINE('',#22,#127);
#129=EDGE_CURVE('',#38,#45,#128,.T.);
#130=DIRECTION('',(1.0,0.0,0.0));
#131=VECTOR('',#130,1.);
#132=LINE('',#24,#131);
#133=EDGE_CURVE('',#40,#43,#132,.T.);
#134=DIRECTION('',(1.0,0.0,0.0));
#135=VECTOR('',#134,1.);
#136=LINE('',#23,#135);
#137=EDGE_CURVE('',#39,#44,#136,.T.);
#138=DIRECTION('',(1.0,0.0,0.0));
#139=VECTOR('',#138,1.);
#140=LINE('',#19,#139);
#141=EDGE_CURVE('',#35,#48,#140,.T.);
#142=DIRECTION('',(1.0,0.0,0.0));
#143=VECTOR('',#142,1.);
#144=LINE('',#20,#143);
#145=EDGE_CURVE('',#36,#47,#144,.T.);
#146=CARTESIAN_POINT('',(0.0,0.0,0.0));
#147=DIRECTION('',(-1.0,0.0,0.0));
#148=DIRECTION('',(0.0,1.0,0.0));
#149=AXIS2_PLACEMENT_3D('',#146,#147,#148);
#150=PLANE('',#149);
#151=ORIENTED_EDGE('',*,*,#53,.T.);
#152=ORIENTED_EDGE('',*,*,#57,.T.);
#153=ORIENTED_EDGE('',*,*,#61,.T.);
#154=ORIENTED_EDGE('',*,*,#65,.F.);
#155=EDGE_LOOP('',(#151,#152,#153,#154));
#156=FACE_OUTER_BOUND('',#155,.T.);
#157=ADVANCED_FACE('',(#156),#150,.T.);
#158=CARTESIAN_POINT('',(2.0,0.0,0.0));
#159=DIRECTION('',(1.0,0.0,0.0));
#160=DIRECTION('',(0.0,1.0,0.0));
#161=AXIS2_PLACEMENT_3D('',#158,#159,#160);
#162=PLANE('',#161);
#163=ORIENTED_EDGE('',*,*,#69,.T.);
#164=ORIENTED_EDGE('',*,*,#73,.T.);
#165=ORIENTED_EDGE('',*,*,#77,.T.);
#166=ORIENTED_EDGE('',*,*,#81,.F.);
#167=EDGE_LOOP('',(#163,#164,#165,#166));
#168=FACE_OUTER_BOUND('',#167,.T.);
#169=ADVANCED_FACE('',(#168),#162,.T.);
#170=CARTESIAN_POINT('',(158.0,0.0,0.0));
#171=DIRECTION('',(-1.0,0.0,0.0));
#172=DIRECTION('',(0.0,1.0,0.0));
#173=AXIS2_PLACEMENT_3D('',#170,#171,#172);
#174=PLANE('',#173);
#175=ORIENTED_EDGE('',*,*,#85,.T.);
#176=ORIENTED_EDGE('',*,*,#89,.T.);
#177=ORIENTED_EDGE('',*,*,#93,.T.);
#178=ORIENTED_EDGE('',*,*,#97,.F.);
#179=EDGE_LOOP('',(#175,#176,#177,#178));
#180=FACE_OUTER_BOUND('',#179,.T.);
#181=ADVANCED_FACE('',(#180),#174,.T.);
#182=CARTESIAN_POINT('',(160.0,0.0,0.0));
#183=DIRECTION('',(1.0,0.0,0.0));
#184=DIRECTION('',(0.0,1.0,0.0));
#185=AXIS2_PLACEMENT_3D('',#182,#183,#184);
#186=PLANE('',#185);
#187=ORIENTED_EDGE('',*,*,#101,.T.);
#188=ORIENTED_EDGE('',*,*,#105,.T.);
#189=ORIENTED_EDGE('',*,*,#109,.T.);
#190=ORIENTED_EDGE('',*,*,#113,.F.);
#191=EDGE_LOOP('',(#187,#188,#189,#190));
#192=FACE_OUTER_BOUND('',#191,.T.);
#193=ADVANCED_FACE('',(#192),#186,.T.);
#194=CARTESIAN_POINT('',(0.0,0.0,0.0));
#195=DIRECTION('',(0.0,-1.0,0.0));
#196=DIRECTION('',(0.0,0.0,1.0));
#197=AXIS2_PLACEMENT_3D('',#194,#195,#196);
#198=PLANE('',#197);
#199=ORIENTED_EDGE('',*,*,#113,.T.);
#200=ORIENTED_EDGE('',*,*,#117,.F.);
#201=ORIENTED_EDGE('',*,*,#65,.T.);
#202=ORIENTED_EDGE('',*,*,#121,.T.);
#203=EDGE_LOOP('',(#199,#200,#201,#202));
#204=FACE_OUTER_BOUND('',#203,.T.);
#205=ADVANCED_FACE('',(#204),#198,.T.);
#206=CARTESIAN_POINT('',(0.0,2.0,0.0));
#207=DIRECTION('',(0.0,1.0,0.0));
#208=DIRECTION('',(0.0,0.0,1.0));
#209=AXIS2_PLACEMENT_3D('',#206,#207,#208);
#210=PLANE('',#209);
#211=ORIENTED_EDGE('',*,*,#81,.T.);
#212=ORIENTED_EDGE('',*,*,#125,.T.);
#213=ORIENTED_EDGE('',*,*,#97,.T.);
#214=ORIENTED_EDGE('',*,*,#129,.F.);
#215=EDGE_LOOP('',(#211,#212,#213,#214));
#216=FACE_OUTER_BOUND('',#215,.T.);
#217=ADVANCED_FACE('',(#216),#210,.T.);
#218=CARTESIAN_POINT('',(0.0,43.0,0.0));
#219=DIRECTION('',(0.0,-1.0,0.0));
#220=DIRECTION('',(0.0,0.0,1.0));
#221=AXIS2_PLACEMENT_3D('',#218,#219,#220);
#222=PLANE('',#221);
#223=ORIENTED_EDGE('',*,*,#89,.F.);
#224=ORIENTED_EDGE('',*,*,#133,.F.);
#225=ORIENTED_EDGE('',*,*,#73,.F.);
#226=ORIENTED_EDGE('',*,*,#137,.T.);
#227=EDGE_LOOP('',(#223,#224,#225,#226));
#228=FACE_OUTER_BOUND('',#227,.T.);
#229=ADVANCED_FACE('',(#228),#222,.T.);
#230=CARTESIAN_POINT('',(0.0,45.0,0.0));
#231=DIRECTION('',(0.0,1.0,0.0));
#232=DIRECTION('',(0.0,0.0,1.0));
#233=AXIS2_PLACEMENT_3D('',#230,#231,#232);
#234=PLANE('',#233);
#235=ORIENTED_EDGE('',*,*,#57,.F.);
#236=ORIENTED_EDGE('',*,*,#141,.T.);
#237=ORIENTED_EDGE('',*,*,#105,.F.);
#238=ORIENTED_EDGE('',*,*,#145,.F.);
#239=EDGE_LOOP('',(#235,#236,#237,#238));
#240=FACE_OUTER_BOUND('',#239,.T.);
#241=ADVANCED_FACE('',(#240),#234,.T.);
#242=CARTESIAN_POINT('',(0.0,0.0,0.0));
#243=DIRECTION('',(0.0,0.0,-1.0));
#244=DIRECTION('',(1.0,0.0,0.0));
#245=AXIS2_PLACEMENT_3D('',#242,#243,#244);
#246=PLANE('',#245);
#247=ORIENTED_EDGE('',*,*,#145,.T.);
#248=ORIENTED_EDGE('',*,*,#101,.F.);
#249=ORIENTED_EDGE('',*,*,#121,.F.);
#250=ORIENTED_EDGE('',*,*,#61,.F.);
#251=EDGE_LOOP('',(#247,#248,#249,#250));
#252=FACE_OUTER_BOUND('',#251,.T.);
#253=ADVANCED_FACE('',(#252),#246,.T.);
#254=CARTESIAN_POINT('',(0.0,0.0,2.0));
#255=DIRECTION('',(0.0,0.0,1.0));
#256=DIRECTION('',(1.0,0.0,0.0));
#257=AXIS2_PLACEMENT_3D('',#254,#255,#256);
#258=PLANE('',#257);
#259=ORIENTED_EDGE('',*,*,#129,.T.);
#260=ORIENTED_EDGE('',*,*,#93,.F.);
#261=ORIENTED_EDGE('',*,*,#137,.F.);
#262=ORIENTED_EDGE('',*,*,#69,.F.);
#263=EDGE_LOOP('',(#259,#260,#261,#262));
#264=FACE_OUTER_BOUND('',#263,.T.);
#265=ADVANCED_FACE('',(#264),#258,.T.);
#266=CARTESIAN_POINT('',(0.0,0.0,45.0));
#267=DIRECTION('',(0.0,0.0,1.0));
#268=DIRECTION('',(1.0,0.0,0.0));
#269=AXIS2_PLACEMENT_3D('',#266,#267,#268);
#270=PLANE('',#269);
#271=ORIENTED_EDGE('',*,*,#117,.T.);
#272=ORIENTED_EDGE('',*,*,#109,.F.);
#273=ORIENTED_EDGE('',*,*,#141,.F.);
#274=ORIENTED_EDGE('',*,*,#53,.F.);
#275=EDGE_LOOP('',(#271,#272,#273,#274));
#276=FACE_OUTER_BOUND('',#275,.T.);
#277=ORIENTED_EDGE('',*,*,#77,.F.);
#278=ORIENTED_EDGE('',*,*,#133,.T.);
#279=ORIENTED_EDGE('',*,*,#85,.F.);
#280=ORIENTED_EDGE('',*,*,#125,.F.);
#281=EDGE_LOOP('',(#277,#278,#279,#280));
#282=FACE_BOUND('',#281,.T.);
#283=ADVANCED_FACE('',(#276,#282),#270,.T.);
#284=CLOSED_SHELL('',(#157,#283,#241,#253,#205,#193,#169,#181,#217,#229,#265));
#285=MANIFOLD_SOLID_BREP('model/open/0',#284);
#286=ADVANCED_BREP_SHAPE_REPRESENTATION('',(#17,#285),#13);
#287=SHAPE_DEFINITION_REPRESENTATION(#8,#286);
ENDSEC;
END-ISO-10303-21;
