ISO-10303-21;
HEADER;
FILE_DESCRIPTION(('Open CASCADE Model'),'2;1');
FILE_NAME('Open CASCADE Shape Model','2026-09-26T15:32:23',('Author'),(
    'Open CASCADE'),'Open CASCADE STEP processor 7.8','Open CASCADE 7.8'
  ,'Unknown');
FILE_SCHEMA(('AUTOMOTIVE_DESIGN { 1 0 10303 214 1 1 1 1 }'));
ENDSEC;
DATA;
#1 = APPLICATION_PROTOCOL_DEFINITION('international standard',
  'automotive_design',2000,#2);
#2 = APPLICATION_CONTEXT(
  'core data for automotive mechanical design processes');
#3 = SHAPE_DEFINITION_REPRESENTATION(#4,#10);
#4 = PRODUCT_DEFINITION_SHAPE('','',#5);
#5 = PRODUCT_DEFINITION('design','',#6,#9);
#6 = PRODUCT_DEFINITION_FORMATION('','',#7);
#7 = PRODUCT('Open CASCADE STEP translator 7.8 1',
  'Open CASCADE STEP translator 7.8 1','',(#8));
#8 = PRODUCT_CONTEXT('',#2,'mechanical');
#9 = PRODUCT_DEFINITION_CONTEXT('part definition',#2,'design');
#10 = ADVANCED_BREP_SHAPE_REPRESENTATION('',(#11,#15),#561);
#11 = AXIS2_PLACEMENT_3D('',#12,#13,#14);
#12 = CARTESIAN_POINT('',(0.,0.,0.));
#13 = DIRECTION('',(0.,0.,1.));
#14 = DIRECTION('',(1.,0.,-0.));
#15 = MANIFOLD_SOLID_BREP('',#16);
#16 = CLOSED_SHELL('',(#17,#492,#549,#553,#557));
#17 = ADVANCED_FACE('',(#18),#32,.T.);
#18 = FACE_BOUND('',#19,.T.);
#19 = EDGE_LOOP('',(#20,#50,#77,#78,#178,#273,#296,#323,#324));
#20 = ORIENTED_EDGE('',*,*,#21,.T.);
#21 = EDGE_CURVE('',#22,#24,#26,.T.);
#22 = VERTEX_POINT('',#23);
#23 = CARTESIAN_POINT('',(257.76370907507,500.42119612128,3.797966227454
    ));
#24 = VERTEX_POINT('',#25);
#25 = CARTESIAN_POINT('',(258.19917900984,500.22487187413,
    11.783692413963));
#26 = SEAM_CURVE('',#27,(#31,#43),.PCURVE_S1.);
#27 = LINE('',#28,#29);
#28 = CARTESIAN_POINT('',(256.89276920552,500.81384461558,
    -12.17348614556));
#29 = VECTOR('',#30,1.);
#30 = DIRECTION('',(5.443374184664E-02,-2.454053089369E-02,
    0.998215773314));
#31 = PCURVE('',#32,#37);
#32 = CYLINDRICAL_SURFACE('',#33,8.);
#33 = AXIS2_PLACEMENT_3D('',#34,#35,#36);
#34 = CARTESIAN_POINT('',(248.9298811206,500.16777662016,-11.75514478698
    ));
#35 = DIRECTION('',(5.443374184664E-02,-2.454053089369E-02,
    0.998215773314));
#36 = DIRECTION('',(0.995361010615,8.075849942674E-02,
    -5.229266982293E-02));
#37 = DEFINITIONAL_REPRESENTATION('',(#38),#42);
#38 = LINE('',#39,#40);
#39 = CARTESIAN_POINT('',(6.28318530718,-0.));
#40 = VECTOR('',#41,1.);
#41 = DIRECTION('',(0.,1.));
#42 = ( GEOMETRIC_REPRESENTATION_CONTEXT(2) 
PARAMETRIC_REPRESENTATION_CONTEXT() REPRESENTATION_CONTEXT('2D SPACE',''
  ) );
#43 = PCURVE('',#32,#44);
#44 = DEFINITIONAL_REPRESENTATION('',(#45),#49);
#45 = LINE('',#46,#47);
#46 = CARTESIAN_POINT('',(0.,-0.));
#47 = VECTOR('',#48,1.);
#48 = DIRECTION('',(0.,1.));
#49 = ( GEOMETRIC_REPRESENTATION_CONTEXT(2) 
PARAMETRIC_REPRESENTATION_CONTEXT() REPRESENTATION_CONTEXT('2D SPACE',''
  ) );
#50 = ORIENTED_EDGE('',*,*,#51,.F.);
#51 = EDGE_CURVE('',#24,#24,#52,.T.);
#52 = SURFACE_CURVE('',#53,(#58,#65),.PCURVE_S1.);
#53 = CIRCLE('',#54,8.);
#54 = AXIS2_PLACEMENT_3D('',#55,#56,#57);
#55 = CARTESIAN_POINT('',(250.23629092492,499.57880387871,
    12.202033772546));
#56 = DIRECTION('',(5.443374184664E-02,-2.454053089369E-02,
    0.998215773314));
#57 = DIRECTION('',(0.995361010615,8.075849942674E-02,
    -5.229266982293E-02));
#58 = PCURVE('',#32,#59);
#59 = DEFINITIONAL_REPRESENTATION('',(#60),#64);
#60 = LINE('',#61,#62);
#61 = CARTESIAN_POINT('',(0.,24.));
#62 = VECTOR('',#63,1.);
#63 = DIRECTION('',(1.,0.));
#64 = ( GEOMETRIC_REPRESENTATION_CONTEXT(2) 
PARAMETRIC_REPRESENTATION_CONTEXT() REPRESENTATION_CONTEXT('2D SPACE',''
  ) );
#65 = PCURVE('',#66,#71);
#66 = PLANE('',#67);
#67 = AXIS2_PLACEMENT_3D('',#68,#69,#70);
#68 = CARTESIAN_POINT('',(250.23629092492,499.57880387871,
    12.202033772546));
#69 = DIRECTION('',(5.443374184664E-02,-2.454053089369E-02,
    0.998215773314));
#70 = DIRECTION('',(0.995361010615,8.075849942674E-02,
    -5.229266982293E-02));
#71 = DEFINITIONAL_REPRESENTATION('',(#72),#76);
#72 = CIRCLE('',#73,8.);
#73 = AXIS2_PLACEMENT_2D('',#74,#75);
#74 = CARTESIAN_POINT('',(0.,0.));
#75 = DIRECTION('',(1.,0.));
#76 = ( GEOMETRIC_REPRESENTATION_CONTEXT(2) 
PARAMETRIC_REPRESENTATION_CONTEXT() REPRESENTATION_CONTEXT('2D SPACE',''
  ) );
#77 = ORIENTED_EDGE('',*,*,#21,.F.);
#78 = ORIENTED_EDGE('',*,*,#79,.F.);
#79 = EDGE_CURVE('',#80,#22,#82,.T.);
#80 = VERTEX_POINT('',#81);
#81 = CARTESIAN_POINT('',(256.16182491949,504.41852773255,
    -2.355905143951E-02));
#82 = SURFACE_CURVE('',#83,(#111,#142),.PCURVE_S1.);
#83 = B_SPLINE_CURVE_WITH_KNOTS('',6,(#84,#85,#86,#87,#88,#89,#90,#91,
    #92,#93,#94,#95,#96,#97,#98,#99,#100,#101,#102,#103,#104,#105,#106,
    #107,#108,#109,#110),.UNSPECIFIED.,.F.,.F.,(7,5,5,5,5,7),(0.,
    0.328303837562,0.514557566528,0.658808539361,0.859099422903,1.),
  .UNSPECIFIED.);
#84 = CARTESIAN_POINT('',(256.16182491949,504.41852773255,
    -2.355905143951E-02));
#85 = CARTESIAN_POINT('',(256.17843827077,504.4110378844,0.281099580145)
  );
#86 = CARTESIAN_POINT('',(256.21329704953,504.37702003743,0.583556898421
    ));
#87 = CARTESIAN_POINT('',(256.26616268622,504.31670422843,0.881680902874
    ));
#88 = CARTESIAN_POINT('',(256.3357612175,504.23009786224,1.173322220258)
  );
#89 = CARTESIAN_POINT('',(256.41977667015,504.11706762078,1.456126363593
    ));
#90 = CARTESIAN_POINT('',(256.56917023688,503.89864235346,1.881241716987
    ));
#91 = CARTESIAN_POINT('',(256.62693651497,503.81102715196,2.031547623668
    ));
#92 = CARTESIAN_POINT('',(256.68791862187,503.71472685523,2.178001447771
    ));
#93 = CARTESIAN_POINT('',(256.75159309881,503.60954443254,2.320250499542
    ));
#94 = CARTESIAN_POINT('',(256.81737019264,503.49523634179,2.457841397128
    ));
#95 = CARTESIAN_POINT('',(256.9366266285,503.27572120881,2.692696665109)
  );
#96 = CARTESIAN_POINT('',(256.98954232595,503.17425993184,2.792074444625
    ));
#97 = CARTESIAN_POINT('',(257.04303061116,503.06697940501,2.888090811319
    ));
#98 = CARTESIAN_POINT('',(257.09675797655,502.95371109891,2.980437672431
    ));
#99 = CARTESIAN_POINT('',(257.15034684955,502.83428519494,3.068734178103
    ));
#100 = CARTESIAN_POINT('',(257.27699728819,502.53392272305,
    3.268872424282));
#101 = CARTESIAN_POINT('',(257.3497310137,502.34665125663,3.37684270487)
  );
#102 = CARTESIAN_POINT('',(257.42016418385,502.1467542232,3.474723191931
    ));
#103 = CARTESIAN_POINT('',(257.48674833886,501.93443304985,
    3.560747930403));
#104 = CARTESIAN_POINT('',(257.54784800823,501.71009008227,
    3.633060470717));
#105 = CARTESIAN_POINT('',(257.63978641126,501.30856225748,
    3.729474985791));
#106 = CARTESIAN_POINT('',(257.67420533838,501.13720949693,
    3.761492633852));
#107 = CARTESIAN_POINT('',(257.70429344207,500.96150865221,
    3.784802871333));
#108 = CARTESIAN_POINT('',(257.72944937712,500.78272493934,
    3.798808177085));
#109 = CARTESIAN_POINT('',(257.74930038891,500.60217515934,
    3.803201208224));
#110 = CARTESIAN_POINT('',(257.76370907507,500.42119612128,
    3.797966227454));
#111 = PCURVE('',#32,#112);
#112 = DEFINITIONAL_REPRESENTATION('',(#113),#141);
#113 = B_SPLINE_CURVE_WITH_KNOTS('',6,(#114,#115,#116,#117,#118,#119,
    #120,#121,#122,#123,#124,#125,#126,#127,#128,#129,#130,#131,#132,
    #133,#134,#135,#136,#137,#138,#139,#140),.UNSPECIFIED.,.F.,.F.,(7,5,
    5,5,5,7),(0.,0.328303837562,0.514557566528,0.658808539361,
    0.859099422903,1.),.UNSPECIFIED.);
#114 = CARTESIAN_POINT('',(0.523598775598,12.));
#115 = CARTESIAN_POINT('',(0.523598775598,12.305203183249));
#116 = CARTESIAN_POINT('',(0.519565415828,12.609853158894));
#117 = CARTESIAN_POINT('',(0.511525375935,12.911803098937));
#118 = CARTESIAN_POINT('',(0.499556678933,13.208837936789));
#119 = CARTESIAN_POINT('',(0.483792623567,13.498484591018));
#120 = CARTESIAN_POINT('',(0.453420144347,13.93633376512));
#121 = CARTESIAN_POINT('',(0.44125221599,14.091666050218));
#122 = CARTESIAN_POINT('',(0.427922510755,14.243541312172));
#123 = CARTESIAN_POINT('',(0.413436816088,14.391583831921));
#124 = CARTESIAN_POINT('',(0.397795182503,14.535314910734));
#125 = CARTESIAN_POINT('',(0.367979342796,14.781629735624));
#126 = CARTESIAN_POINT('',(0.354267633043,14.88620051567));
#127 = CARTESIAN_POINT('',(0.339849764254,14.987589855992));
#128 = CARTESIAN_POINT('',(0.324717563761,15.085476195273));
#129 = CARTESIAN_POINT('',(0.308861717839,15.179462977928));
#130 = CARTESIAN_POINT('',(0.269235049551,15.39350924391));
#131 = CARTESIAN_POINT('',(0.244721293221,15.509841791088));
#132 = CARTESIAN_POINT('',(0.218766861327,15.616287157496));
#133 = CARTESIAN_POINT('',(0.191419970337,15.710993307353));
#134 = CARTESIAN_POINT('',(0.162736781276,15.792008204859));
#135 = CARTESIAN_POINT('',(0.111711412775,15.903108951868));
#136 = CARTESIAN_POINT('',(9.002240943843E-02,15.941148111894));
#137 = CARTESIAN_POINT('',(6.786086941289E-02,15.970366358705));
#138 = CARTESIAN_POINT('',(4.537260949366E-02,15.99010345472));
#139 = CARTESIAN_POINT('',(2.270339576738E-02,16.));
#140 = CARTESIAN_POINT('',(0.,16.));
#141 = ( GEOMETRIC_REPRESENTATION_CONTEXT(2) 
PARAMETRIC_REPRESENTATION_CONTEXT() REPRESENTATION_CONTEXT('2D SPACE',''
  ) );
#142 = PCURVE('',#143,#148);
#143 = CYLINDRICAL_SURFACE('',#144,4.);
#144 = AXIS2_PLACEMENT_3D('',#145,#146,#147);
#145 = CARTESIAN_POINT('',(249.58308602276,499.87329024944,
    0.223444492783));
#146 = DIRECTION('',(0.995361010615,8.075849942674E-02,
    -5.229266982293E-02));
#147 = DIRECTION('',(-7.933111807761E-02,0.996431546627,
    2.88226749411E-02));
#148 = DEFINITIONAL_REPRESENTATION('',(#149),#177);
#149 = B_SPLINE_CURVE_WITH_KNOTS('',6,(#150,#151,#152,#153,#154,#155,
    #156,#157,#158,#159,#160,#161,#162,#163,#164,#165,#166,#167,#168,
    #169,#170,#171,#172,#173,#174,#175,#176),.UNSPECIFIED.,.F.,.F.,(7,5,
    5,5,5,7),(0.,0.328303837562,0.514557566528,0.658808539361,
    0.859099422903,1.),.UNSPECIFIED.);
#150 = CARTESIAN_POINT('',(0.,6.928203230276));
#151 = CARTESIAN_POINT('',(7.630079581223E-02,6.928203230276));
#152 = CARTESIAN_POINT('',(0.15246323101,6.944336768568));
#153 = CARTESIAN_POINT('',(0.228750545384,6.97649644778));
#154 = CARTESIAN_POINT('',(0.305392989291,7.023527208915));
#155 = CARTESIAN_POINT('',(0.382608627849,7.083236178388));
#156 = CARTESIAN_POINT('',(0.504803922104,7.192066596311));
#157 = CARTESIAN_POINT('',(0.549318936924,7.234629327901));
#158 = CARTESIAN_POINT('',(0.594217997535,7.279893010528));
#159 = CARTESIAN_POINT('',(0.639600611905,7.327339144924));
#160 = CARTESIAN_POINT('',(0.685569087849,7.376384754255));
#161 = CARTESIAN_POINT('',(0.768371303944,7.465079039057));
#162 = CARTESIAN_POINT('',(0.804933047893,7.504358671251));
#163 = CARTESIAN_POINT('',(0.841981274511,7.543914058351));
#164 = CARTESIAN_POINT('',(0.879575975532,7.583415740714));
#165 = CARTESIAN_POINT('',(0.91777845164,7.622494098686));
#166 = CARTESIAN_POINT('',(1.010639305588,7.713834421541));
#167 = CARTESIAN_POINT('',(1.066068015668,7.76546091923));
#168 = CARTESIAN_POINT('',(1.12294790377,7.814305534197));
#169 = CARTESIAN_POINT('',(1.181316013796,7.858935603414));
#170 = CARTESIAN_POINT('',(1.241235894958,7.897852814855));
#171 = CARTESIAN_POINT('',(1.346132373581,7.951896159602));
#172 = CARTESIAN_POINT('',(1.390247977755,7.970642937566));
#173 = CARTESIAN_POINT('',(1.43494816081,7.985183171746));
#174 = CARTESIAN_POINT('',(1.480051118187,7.995051729475));
#175 = CARTESIAN_POINT('',(1.52538953526,8.));
#176 = CARTESIAN_POINT('',(1.570796326795,8.));
#177 = ( GEOMETRIC_REPRESENTATION_CONTEXT(2) 
PARAMETRIC_REPRESENTATION_CONTEXT() REPRESENTATION_CONTEXT('2D SPACE',''
  ) );
#178 = ORIENTED_EDGE('',*,*,#179,.F.);
#179 = EDGE_CURVE('',#180,#80,#182,.T.);
#180 = VERTEX_POINT('',#181);
#181 = CARTESIAN_POINT('',(257.3282391403,500.61752036843,
    -4.187759959055));
#182 = SURFACE_CURVE('',#183,(#211,#242),.PCURVE_S1.);
#183 = B_SPLINE_CURVE_WITH_KNOTS('',6,(#184,#185,#186,#187,#188,#189,
    #190,#191,#192,#193,#194,#195,#196,#197,#198,#199,#200,#201,#202,
    #203,#204,#205,#206,#207,#208,#209,#210),.UNSPECIFIED.,.F.,.F.,(7,5,
    5,5,5,7),(0.,0.236611568136,0.343228057703,0.488628670444,
    0.67207581518,1.),.UNSPECIFIED.);
#184 = CARTESIAN_POINT('',(257.3282391403,500.61752036843,
    -4.187759959055));
#185 = CARTESIAN_POINT('',(257.30393941653,500.92273491628,
    -4.178931354892));
#186 = CARTESIAN_POINT('',(257.26738117596,501.22338592682,
    -4.141348610509));
#187 = CARTESIAN_POINT('',(257.21937306858,501.51465992731,
    -4.076123726271));
#188 = CARTESIAN_POINT('',(257.16192352372,501.7920568272,
    -3.985920036446));
#189 = CARTESIAN_POINT('',(257.0980963944,502.0516715896,-3.874927373442
    ));
#190 = CARTESIAN_POINT('',(257.00121939972,502.3979810101,
    -3.692357673474));
#191 = CARTESIAN_POINT('',(256.97038107539,502.50183417947,
    -3.632354485947));
#192 = CARTESIAN_POINT('',(256.93899287339,502.60198695416,
    -3.569345864817));
#193 = CARTESIAN_POINT('',(256.907240318,502.69846980582,-3.503596225139
    ));
#194 = CARTESIAN_POINT('',(256.87529739373,502.79132303266,
    -3.435348566452));
#195 = CARTESIAN_POINT('',(256.79972229469,503.0023444699,
    -3.268646927784));
#196 = CARTESIAN_POINT('',(256.75605498169,503.1174620995,-3.16821435489
    ));
#197 = CARTESIAN_POINT('',(256.71270318276,503.22614825299,
    -3.064021570231));
#198 = CARTESIAN_POINT('',(256.67000667949,503.32859656931,
    -2.956484177824));
#199 = CARTESIAN_POINT('',(256.62826868509,503.42499482134,
    -2.845939199554));
#200 = CARTESIAN_POINT('',(256.53665031981,503.62974297254,
    -2.589705845456));
#201 = CARTESIAN_POINT('',(256.48748765836,503.73464113613,
    -2.442363242104));
#202 = CARTESIAN_POINT('',(256.44084752617,503.83050463871,
    -2.291218938889));
#203 = CARTESIAN_POINT('',(256.39724145286,503.9175853092,
    -2.136749444684));
#204 = CARTESIAN_POINT('',(256.35712941525,503.99608656609,
    -1.979333755669));
#205 = CARTESIAN_POINT('',(256.25622890498,504.19138964609,
    -1.533175618013));
#206 = CARTESIAN_POINT('',(256.20392445311,504.28988068572,
    -1.238147938637));
#207 = CARTESIAN_POINT('',(256.16680278252,504.36167082671,
    -0.937236213386));
#208 = CARTESIAN_POINT('',(256.14689845219,504.40701238012,
    -0.633011559395));
#209 = CARTESIAN_POINT('',(256.14523775882,504.4260057731,
    -0.327737394743));
#210 = CARTESIAN_POINT('',(256.16182491949,504.41852773255,
    -2.355905143951E-02));
#211 = PCURVE('',#32,#212);
#212 = DEFINITIONAL_REPRESENTATION('',(#213),#241);
#213 = B_SPLINE_CURVE_WITH_KNOTS('',6,(#214,#215,#216,#217,#218,#219,
    #220,#221,#222,#223,#224,#225,#226,#227,#228,#229,#230,#231,#232,
    #233,#234,#235,#236,#237,#238,#239,#240),.UNSPECIFIED.,.F.,.F.,(7,5,
    5,5,5,7),(0.,0.236611568136,0.343228057703,0.488628670444,
    0.67207581518,1.),.UNSPECIFIED.);
#214 = CARTESIAN_POINT('',(0.,8.));
#215 = CARTESIAN_POINT('',(3.828844902658E-02,8.));
#216 = CARTESIAN_POINT('',(7.623371254301E-02,8.028147551006));
#217 = CARTESIAN_POINT('',(0.113324815953,8.083494779734));
#218 = CARTESIAN_POINT('',(0.149065308681,8.163602864842));
#219 = CARTESIAN_POINT('',(0.182956449056,8.264552058198));
#220 = CARTESIAN_POINT('',(0.228759058988,8.433024018083));
#221 = CARTESIAN_POINT('',(0.242585023043,8.488692889024));
#222 = CARTESIAN_POINT('',(0.256008445293,8.547422708946));
#223 = CARTESIAN_POINT('',(0.269028678803,8.608958885556));
#224 = CARTESIAN_POINT('',(0.281645551631,8.673067334574));
#225 = CARTESIAN_POINT('',(0.310516753718,8.830179126199));
#226 = CARTESIAN_POINT('',(0.326428504586,8.925230481628));
#227 = CARTESIAN_POINT('',(0.341606347466,9.0242103462));
#228 = CARTESIAN_POINT('',(0.356059774408,9.126717601014));
#229 = CARTESIAN_POINT('',(0.369797029365,9.232427722489));
#230 = CARTESIAN_POINT('',(0.399263937021,9.478192139425));
#231 = CARTESIAN_POINT('',(0.414577417261,9.620021485926));
#232 = CARTESIAN_POINT('',(0.428770605957,9.76600477528));
#233 = CARTESIAN_POINT('',(0.441843083613,9.915688013268));
#234 = CARTESIAN_POINT('',(0.453789068368,10.068712926191));
#235 = CARTESIAN_POINT('',(0.483916251511,10.503789782994));
#236 = CARTESIAN_POINT('',(0.499631753878,10.79302691668));
#237 = CARTESIAN_POINT('',(0.51156325359,11.089619307594));
#238 = CARTESIAN_POINT('',(0.519578122006,11.391104982868));
#239 = CARTESIAN_POINT('',(0.523598775598,11.695277963507));
#240 = CARTESIAN_POINT('',(0.523598775598,12.));
#241 = ( GEOMETRIC_REPRESENTATION_CONTEXT(2) 
PARAMETRIC_REPRESENTATION_CONTEXT() REPRESENTATION_CONTEXT('2D SPACE',''
  ) );
#242 = PCURVE('',#143,#243);
#243 = DEFINITIONAL_REPRESENTATION('',(#244),#272);
#244 = B_SPLINE_CURVE_WITH_KNOTS('',6,(#245,#246,#247,#248,#249,#250,
    #251,#252,#253,#254,#255,#256,#257,#258,#259,#260,#261,#262,#263,
    #264,#265,#266,#267,#268,#269,#270,#271),.UNSPECIFIED.,.F.,.F.,(7,5,
    5,5,5,7),(0.,0.236611568136,0.343228057703,0.488628670444,
    0.67207581518,1.),.UNSPECIFIED.);
#245 = CARTESIAN_POINT('',(4.712388980385,8.));
#246 = CARTESIAN_POINT('',(4.788965878438,8.));
#247 = CARTESIAN_POINT('',(4.864856212726,7.98592617514));
#248 = CARTESIAN_POINT('',(4.939645634196,7.958252844721));
#249 = CARTESIAN_POINT('',(5.012887933585,7.918754973306));
#250 = CARTESIAN_POINT('',(5.084019502044,7.87038593332));
#251 = CARTESIAN_POINT('',(5.182939272933,7.792378722085));
#252 = CARTESIAN_POINT('',(5.213218016962,7.766932755659));
#253 = CARTESIAN_POINT('',(5.243070167999,7.740483461975));
#254 = CARTESIAN_POINT('',(5.272515124729,7.713231792476));
#255 = CARTESIAN_POINT('',(5.301570844227,7.685366886073));
#256 = CARTESIAN_POINT('',(5.369373622605,7.618466879984));
#257 = CARTESIAN_POINT('',(5.40781006793,7.579046978841));
#258 = CARTESIAN_POINT('',(5.44563414514,7.539225100218));
#259 = CARTESIAN_POINT('',(5.482908472981,7.499376820517));
#260 = CARTESIAN_POINT('',(5.519694287855,7.45983673436));
#261 = CARTESIAN_POINT('',(5.601935233473,7.371779412979));
#262 = CARTESIAN_POINT('',(5.647148812405,7.323611296762));
#263 = CARTESIAN_POINT('',(5.691800725398,7.27702558113));
#264 = CARTESIAN_POINT('',(5.735988127854,7.232576677945));
#265 = CARTESIAN_POINT('',(5.779805567581,7.190758676718));
#266 = CARTESIAN_POINT('',(5.901182888893,7.082767826331));
#267 = CARTESIAN_POINT('',(5.978273480016,7.023232217798));
#268 = CARTESIAN_POINT('',(6.054794139633,6.976344940816));
#269 = CARTESIAN_POINT('',(6.130961611334,6.944285942893));
#270 = CARTESIAN_POINT('',(6.207004798056,6.928203230276));
#271 = CARTESIAN_POINT('',(6.28318530718,6.928203230276));
#272 = ( GEOMETRIC_REPRESENTATION_CONTEXT(2) 
PARAMETRIC_REPRESENTATION_CONTEXT() REPRESENTATION_CONTEXT('2D SPACE',''
  ) );
#273 = ORIENTED_EDGE('',*,*,#274,.F.);
#274 = EDGE_CURVE('',#275,#180,#277,.T.);
#275 = VERTEX_POINT('',#276);
#276 = CARTESIAN_POINT('',(256.89276920552,500.81384461558,
    -12.17348614556));
#277 = SEAM_CURVE('',#278,(#282,#289),.PCURVE_S1.);
#278 = LINE('',#279,#280);
#279 = CARTESIAN_POINT('',(256.89276920552,500.81384461558,
    -12.17348614556));
#280 = VECTOR('',#281,1.);
#281 = DIRECTION('',(5.443374184664E-02,-2.454053089369E-02,
    0.998215773314));
#282 = PCURVE('',#32,#283);
#283 = DEFINITIONAL_REPRESENTATION('',(#284),#288);
#284 = LINE('',#285,#286);
#285 = CARTESIAN_POINT('',(6.28318530718,-0.));
#286 = VECTOR('',#287,1.);
#287 = DIRECTION('',(0.,1.));
#288 = ( GEOMETRIC_REPRESENTATION_CONTEXT(2) 
PARAMETRIC_REPRESENTATION_CONTEXT() REPRESENTATION_CONTEXT('2D SPACE',''
  ) );
#289 = PCURVE('',#32,#290);
#290 = DEFINITIONAL_REPRESENTATION('',(#291),#295);
#291 = LINE('',#292,#293);
#292 = CARTESIAN_POINT('',(0.,-0.));
#293 = VECTOR('',#294,1.);
#294 = DIRECTION('',(0.,1.));
#295 = ( GEOMETRIC_REPRESENTATION_CONTEXT(2) 
PARAMETRIC_REPRESENTATION_CONTEXT() REPRESENTATION_CONTEXT('2D SPACE',''
  ) );
#296 = ORIENTED_EDGE('',*,*,#297,.T.);
#297 = EDGE_CURVE('',#275,#275,#298,.T.);
#298 = SURFACE_CURVE('',#299,(#304,#311),.PCURVE_S1.);
#299 = CIRCLE('',#300,8.);
#300 = AXIS2_PLACEMENT_3D('',#301,#302,#303);
#301 = CARTESIAN_POINT('',(248.9298811206,500.16777662016,
    -11.75514478698));
#302 = DIRECTION('',(5.443374184664E-02,-2.454053089369E-02,
    0.998215773314));
#303 = DIRECTION('',(0.995361010615,8.075849942674E-02,
    -5.229266982293E-02));
#304 = PCURVE('',#32,#305);
#305 = DEFINITIONAL_REPRESENTATION('',(#306),#310);
#306 = LINE('',#307,#308);
#307 = CARTESIAN_POINT('',(0.,0.));
#308 = VECTOR('',#309,1.);
#309 = DIRECTION('',(1.,0.));
#310 = ( GEOMETRIC_REPRESENTATION_CONTEXT(2) 
PARAMETRIC_REPRESENTATION_CONTEXT() REPRESENTATION_CONTEXT('2D SPACE',''
  ) );
#311 = PCURVE('',#312,#317);
#312 = PLANE('',#313);
#313 = AXIS2_PLACEMENT_3D('',#314,#315,#316);
#314 = CARTESIAN_POINT('',(248.9298811206,500.16777662016,
    -11.75514478698));
#315 = DIRECTION('',(5.443374184664E-02,-2.454053089369E-02,
    0.998215773314));
#316 = DIRECTION('',(0.995361010615,8.075849942674E-02,
    -5.229266982293E-02));
#317 = DEFINITIONAL_REPRESENTATION('',(#318),#322);
#318 = CIRCLE('',#319,8.);
#319 = AXIS2_PLACEMENT_2D('',#320,#321);
#320 = CARTESIAN_POINT('',(0.,0.));
#321 = DIRECTION('',(1.,0.));
#322 = ( GEOMETRIC_REPRESENTATION_CONTEXT(2) 
PARAMETRIC_REPRESENTATION_CONTEXT() REPRESENTATION_CONTEXT('2D SPACE',''
  ) );
#323 = ORIENTED_EDGE('',*,*,#274,.T.);
#324 = ORIENTED_EDGE('',*,*,#325,.F.);
#325 = EDGE_CURVE('',#22,#180,#326,.T.);
#326 = SURFACE_CURVE('',#327,(#380,#436),.PCURVE_S1.);
#327 = B_SPLINE_CURVE_WITH_KNOTS('',6,(#328,#329,#330,#331,#332,#333,
    #334,#335,#336,#337,#338,#339,#340,#341,#342,#343,#344,#345,#346,
    #347,#348,#349,#350,#351,#352,#353,#354,#355,#356,#357,#358,#359,
    #360,#361,#362,#363,#364,#365,#366,#367,#368,#369,#370,#371,#372,
    #373,#374,#375,#376,#377,#378,#379),.UNSPECIFIED.,.F.,.F.,(7,5,5,5,5
    ,5,5,5,5,5,7),(0.,0.118322562645,0.171638367803,0.244348984796,
    0.336085563055,0.50007090892,0.586836922982,0.664204993619,
    0.829397695507,0.929546996531,1.),.UNSPECIFIED.);
#328 = CARTESIAN_POINT('',(257.76370907507,500.42119612128,
    3.797966227454));
#329 = CARTESIAN_POINT('',(257.78800879884,500.11598157343,
    3.789137623292));
#330 = CARTESIAN_POINT('',(257.79654996633,499.81305740093,
    3.753026794661));
#331 = CARTESIAN_POINT('',(257.78946816545,499.51731368717,
    3.690696135084));
#332 = CARTESIAN_POINT('',(257.76828842789,499.23353720962,
    3.604623343556));
#333 = CARTESIAN_POINT('',(257.73582624417,498.96611002504,
    3.498689373028));
#334 = CARTESIAN_POINT('',(257.67741256563,498.6072011139,3.324278083746
    ));
#335 = CARTESIAN_POINT('',(257.65759504424,498.4992379884,3.266936171256
    ));
#336 = CARTESIAN_POINT('',(257.63633005486,498.39481320316,
    3.206693758484));
#337 = CARTESIAN_POINT('',(257.61383211166,498.29392874364,3.14379424392
    ));
#338 = CARTESIAN_POINT('',(257.59030375314,498.19657486075,
    3.078460845941));
#339 = CARTESIAN_POINT('',(257.53269953684,497.97474793529,
    2.918755967126));
#340 = CARTESIAN_POINT('',(257.49789278455,497.85326332157,
    2.822446137982));
#341 = CARTESIAN_POINT('',(257.46197029278,497.73814525775,
    2.722418138024));
#342 = CARTESIAN_POINT('',(257.42533994814,497.62926076689,
    2.619048291484));
#343 = CARTESIAN_POINT('',(257.38836462231,497.5264761188,2.512638626555
    ));
#344 = CARTESIAN_POINT('',(257.30468534014,497.3075052169,2.26561478135)
  );
#345 = CARTESIAN_POINT('',(257.25795866853,497.19482707547,
    2.123309846083));
#346 = CARTESIAN_POINT('',(257.21185959265,497.09143919193,1.97703773257
    ));
#347 = CARTESIAN_POINT('',(257.16698025767,496.99717927304,
    1.827216948607));
#348 = CARTESIAN_POINT('',(257.12384427623,496.91192369162,
    1.674174798395));
#349 = CARTESIAN_POINT('',(257.00976502369,496.69917825567,1.23931092483
    ));
#350 = CARTESIAN_POINT('',(256.9435506286,496.59107120322,0.950509797294
    ));
#351 = CARTESIAN_POINT('',(256.88733276438,496.51170796998,
    0.654501793829));
#352 = CARTESIAN_POINT('',(256.84341654157,496.46118834343,
    0.353630041027));
#353 = CARTESIAN_POINT('',(256.81306102478,496.43959731898,
    5.003789233538E-02));
#354 = CARTESIAN_POINT('',(256.78769745907,496.45103205315,
    -0.415083749124));
#355 = CARTESIAN_POINT('',(256.78278541266,496.46312238579,
    -0.576008002672));
#356 = CARTESIAN_POINT('',(256.78175625038,496.48333193167,
    -0.736545768542));
#357 = CARTESIAN_POINT('',(256.78453591549,496.51163328517,
    -0.896314360224));
#358 = CARTESIAN_POINT('',(256.79096299321,496.54798103304,
    -1.054915776227));
#359 = CARTESIAN_POINT('',(256.80956005177,496.63183134277,
    -1.351949979655));
#360 = CARTESIAN_POINT('',(256.82103225301,496.67769703546,
    -1.490698937903));
#361 = CARTESIAN_POINT('',(256.835043545,496.72987808456,-1.627974213234
    ));
#362 = CARTESIAN_POINT('',(256.85138672456,496.78835651665,
    -1.763544835223));
#363 = CARTESIAN_POINT('',(256.86981823723,496.85311893966,
    -1.897158023701));
#364 = CARTESIAN_POINT('',(256.9332856504,497.07582280114,
    -2.309057729273));
#365 = CARTESIAN_POINT('',(256.984708704,497.25586285345,-2.57898823315)
  );
#366 = CARTESIAN_POINT('',(257.04178122457,497.4646583245,
    -2.836917808546));
#367 = CARTESIAN_POINT('',(257.10154554305,497.7033101026,
    -3.080452530803));
#368 = CARTESIAN_POINT('',(257.16028230122,497.97323211579,
    -3.305771076942));
#369 = CARTESIAN_POINT('',(257.24527480845,498.45857316138,
    -3.628737431751));
#370 = CARTESIAN_POINT('',(257.27531508872,498.65418318459,
    -3.742107086995));
#371 = CARTESIAN_POINT('',(257.30211796921,498.86196945353,
    -3.845096004693));
#372 = CARTESIAN_POINT('',(257.32437987582,499.08149914185,
    -3.935788394195));
#373 = CARTESIAN_POINT('',(257.34075355627,499.31212790082,
    -4.012171104308));
#374 = CARTESIAN_POINT('',(257.35640042972,499.72238464421,
    -4.114237760884));
#375 = CARTESIAN_POINT('',(257.35930112633,499.89676532818,
    -4.148216047122));
#376 = CARTESIAN_POINT('',(257.358158587,500.07481466795,-4.173046979928
    ));
#377 = CARTESIAN_POINT('',(257.35264820714,500.25519232058,
    -4.188084392122));
#378 = CARTESIAN_POINT('',(257.34264782647,500.43654133028,
    -4.192994939827));
#379 = CARTESIAN_POINT('',(257.3282391403,500.61752036843,
    -4.187759959055));
#380 = PCURVE('',#32,#381);
#381 = DEFINITIONAL_REPRESENTATION('',(#382),#435);
#382 = B_SPLINE_CURVE_WITH_KNOTS('',6,(#383,#384,#385,#386,#387,#388,
    #389,#390,#391,#392,#393,#394,#395,#396,#397,#398,#399,#400,#401,
    #402,#403,#404,#405,#406,#407,#408,#409,#410,#411,#412,#413,#414,
    #415,#416,#417,#418,#419,#420,#421,#422,#423,#424,#425,#426,#427,
    #428,#429,#430,#431,#432,#433,#434),.UNSPECIFIED.,.F.,.F.,(7,5,5,5,5
    ,5,5,5,5,5,7),(0.,0.118322562645,0.171638367803,0.244348984796,
    0.336085563055,0.50007090892,0.586836922982,0.664204993619,
    0.829397695507,0.929546996531,1.),.UNSPECIFIED.);
#383 = CARTESIAN_POINT('',(6.28318530718,16.));
#384 = CARTESIAN_POINT('',(6.244896858153,16.));
#385 = CARTESIAN_POINT('',(6.206951594637,15.971852448994));
#386 = CARTESIAN_POINT('',(6.169860491227,15.916505220266));
#387 = CARTESIAN_POINT('',(6.134119998498,15.836397135158));
#388 = CARTESIAN_POINT('',(6.100228858124,15.735447941802));
#389 = CARTESIAN_POINT('',(6.054426248192,15.566975981922));
#390 = CARTESIAN_POINT('',(6.040600284137,15.511307110975));
#391 = CARTESIAN_POINT('',(6.027176861886,15.45257729105));
#392 = CARTESIAN_POINT('',(6.014156628377,15.391041114442));
#393 = CARTESIAN_POINT('',(6.00153975555,15.326932665431));
#394 = CARTESIAN_POINT('',(5.972668553461,15.169820873801));
#395 = CARTESIAN_POINT('',(5.956756802593,15.074769518372));
#396 = CARTESIAN_POINT('',(5.941578959713,14.9757896538));
#397 = CARTESIAN_POINT('',(5.927125532772,14.873282398986));
#398 = CARTESIAN_POINT('',(5.913388277815,14.767572277511));
#399 = CARTESIAN_POINT('',(5.88392137064,14.521807864583));
#400 = CARTESIAN_POINT('',(5.868607889276,14.37997850741));
#401 = CARTESIAN_POINT('',(5.854414701138,14.233995224859));
#402 = CARTESIAN_POINT('',(5.841342224168,14.084311993455));
#403 = CARTESIAN_POINT('',(5.829396238512,13.931287069483));
#404 = CARTESIAN_POINT('',(5.799269055669,13.496210217006));
#405 = CARTESIAN_POINT('',(5.783553553301,13.206973083321));
#406 = CARTESIAN_POINT('',(5.77162205359,12.910380692404));
#407 = CARTESIAN_POINT('',(5.763607185173,12.608895017133));
#408 = CARTESIAN_POINT('',(5.759586531581,12.304722036493));
#409 = CARTESIAN_POINT('',(5.759586531581,11.838769029244));
#410 = CARTESIAN_POINT('',(5.760712137492,11.677567816795));
#411 = CARTESIAN_POINT('',(5.762962711779,11.516764512553));
#412 = CARTESIAN_POINT('',(5.766331026727,11.356737761589));
#413 = CARTESIAN_POINT('',(5.770803354852,11.197877183325));
#414 = CARTESIAN_POINT('',(5.781313950993,10.900327532617));
#415 = CARTESIAN_POINT('',(5.787129871984,10.761325040356));
#416 = CARTESIAN_POINT('',(5.79379598657,10.623776831638));
#417 = CARTESIAN_POINT('',(5.80130009595,10.487902627019));
#418 = CARTESIAN_POINT('',(5.809629486206,10.353941826717));
#419 = CARTESIAN_POINT('',(5.838290400764,9.940766541384));
#420 = CARTESIAN_POINT('',(5.861484571612,9.669698525473));
#421 = CARTESIAN_POINT('',(5.888292526899,9.410211874053));
#422 = CARTESIAN_POINT('',(5.918743120338,9.164508227096));
#423 = CARTESIAN_POINT('',(5.952917241399,8.936164932348));
#424 = CARTESIAN_POINT('',(6.013950257645,8.606490756002));
#425 = CARTESIAN_POINT('',(6.038464013952,8.490158208967));
#426 = CARTESIAN_POINT('',(6.064418445834,8.383712842569));
#427 = CARTESIAN_POINT('',(6.091765336839,8.289006692628));
#428 = CARTESIAN_POINT('',(6.120448525925,8.207991795095));
#429 = CARTESIAN_POINT('',(6.171473894394,8.096891048155));
#430 = CARTESIAN_POINT('',(6.193162897744,8.05885188809));
#431 = CARTESIAN_POINT('',(6.215324437777,8.029633641284));
#432 = CARTESIAN_POINT('',(6.237812697689,8.00989654529));
#433 = CARTESIAN_POINT('',(6.260481911402,8.));
#434 = CARTESIAN_POINT('',(6.28318530718,8.));
#435 = ( GEOMETRIC_REPRESENTATION_CONTEXT(2) 
PARAMETRIC_REPRESENTATION_CONTEXT() REPRESENTATION_CONTEXT('2D SPACE',''
  ) );
#436 = PCURVE('',#143,#437);
#437 = DEFINITIONAL_REPRESENTATION('',(#438),#491);
#438 = B_SPLINE_CURVE_WITH_KNOTS('',6,(#439,#440,#441,#442,#443,#444,
    #445,#446,#447,#448,#449,#450,#451,#452,#453,#454,#455,#456,#457,
    #458,#459,#460,#461,#462,#463,#464,#465,#466,#467,#468,#469,#470,
    #471,#472,#473,#474,#475,#476,#477,#478,#479,#480,#481,#482,#483,
    #484,#485,#486,#487,#488,#489,#490),.UNSPECIFIED.,.F.,.F.,(7,5,5,5,5
    ,5,5,5,5,5,7),(0.,0.118322562645,0.171638367803,0.244348984796,
    0.336085563055,0.50007090892,0.586836922982,0.664204993619,
    0.829397695507,0.929546996531,1.),.UNSPECIFIED.);
#439 = CARTESIAN_POINT('',(1.570796326795,8.));
#440 = CARTESIAN_POINT('',(1.647373224848,8.));
#441 = CARTESIAN_POINT('',(1.723263559136,7.98592617514));
#442 = CARTESIAN_POINT('',(1.798052980607,7.958252844721));
#443 = CARTESIAN_POINT('',(1.871295279996,7.918754973306));
#444 = CARTESIAN_POINT('',(1.942426848454,7.87038593332));
#445 = CARTESIAN_POINT('',(2.041346619341,7.792378722087));
#446 = CARTESIAN_POINT('',(2.071625363373,7.766932755659));
#447 = CARTESIAN_POINT('',(2.101477514412,7.740483461973));
#448 = CARTESIAN_POINT('',(2.13092247114,7.713231792475));
#449 = CARTESIAN_POINT('',(2.159978190635,7.685366886075));
#450 = CARTESIAN_POINT('',(2.227780969016,7.618466879984));
#451 = CARTESIAN_POINT('',(2.26621741434,7.579046978842));
#452 = CARTESIAN_POINT('',(2.30404149155,7.539225100218));
#453 = CARTESIAN_POINT('',(2.341315819391,7.499376820517));
#454 = CARTESIAN_POINT('',(2.378101634265,7.45983673436));
#455 = CARTESIAN_POINT('',(2.460342578542,7.371779414415));
#456 = CARTESIAN_POINT('',(2.505556160869,7.323611294706));
#457 = CARTESIAN_POINT('',(2.550208071873,7.27702558096));
#458 = CARTESIAN_POINT('',(2.594395472242,7.232576679918));
#459 = CARTESIAN_POINT('',(2.638212915198,7.190758675645));
#460 = CARTESIAN_POINT('',(2.759590235304,7.082767826331));
#461 = CARTESIAN_POINT('',(2.836680826426,7.023232217798));
#462 = CARTESIAN_POINT('',(2.913201486044,6.976344940816));
#463 = CARTESIAN_POINT('',(2.989368957744,6.944285942893));
#464 = CARTESIAN_POINT('',(3.065412144467,6.928203230276));
#465 = CARTESIAN_POINT('',(3.181900396279,6.928203230276));
#466 = CARTESIAN_POINT('',(3.222200712105,6.932705526774));
#467 = CARTESIAN_POINT('',(3.262519380585,6.941708179758));
#468 = CARTESIAN_POINT('',(3.302879531955,6.955115251077));
#469 = CARTESIAN_POINT('',(3.343302412559,6.972741594709));
#470 = CARTESIAN_POINT('',(3.419926563742,7.013556718429));
#471 = CARTESIAN_POINT('',(3.456108861615,7.035935298226));
#472 = CARTESIAN_POINT('',(3.492390812034,7.061274145852));
#473 = CARTESIAN_POINT('',(3.528805749706,7.089353489779));
#474 = CARTESIAN_POINT('',(3.565386233646,7.119916605307));
#475 = CARTESIAN_POINT('',(3.680695519484,7.222614158798));
#476 = CARTESIAN_POINT('',(3.76001747291,7.302453812568));
#477 = CARTESIAN_POINT('',(3.840787807584,7.38961140938));
#478 = CARTESIAN_POINT('',(3.923637126753,7.481106722125));
#479 = CARTESIAN_POINT('',(4.009207620998,7.573152006184));
#480 = CARTESIAN_POINT('',(4.152231959216,7.713834421579));
#481 = CARTESIAN_POINT('',(4.207660669241,7.765460919209));
#482 = CARTESIAN_POINT('',(4.264540557322,7.814305534164));
#483 = CARTESIAN_POINT('',(4.32290866738,7.858935603422));
#484 = CARTESIAN_POINT('',(4.382828548592,7.897852814878));
#485 = CARTESIAN_POINT('',(4.487725027149,7.951896159591));
#486 = CARTESIAN_POINT('',(4.531840631351,7.970642937573));
#487 = CARTESIAN_POINT('',(4.576540814421,7.985183171752));
#488 = CARTESIAN_POINT('',(4.621643771782,7.99505172947));
#489 = CARTESIAN_POINT('',(4.666982188829,8.));
#490 = CARTESIAN_POINT('',(4.712388980385,8.));
#491 = ( GEOMETRIC_REPRESENTATION_CONTEXT(2) 
PARAMETRIC_REPRESENTATION_CONTEXT() REPRESENTATION_CONTEXT('2D SPACE',''
  ) );
#492 = ADVANCED_FACE('',(#493),#143,.T.);
#493 = FACE_BOUND('',#494,.T.);
#494 = EDGE_LOOP('',(#495,#518,#545,#546,#547,#548));
#495 = ORIENTED_EDGE('',*,*,#496,.T.);
#496 = EDGE_CURVE('',#80,#497,#499,.T.);
#497 = VERTEX_POINT('',#498);
#498 = CARTESIAN_POINT('',(265.1915377203,505.15115242677,
    -0.497947524619));
#499 = SEAM_CURVE('',#500,(#504,#511),.PCURVE_S1.);
#500 = LINE('',#501,#502);
#501 = CARTESIAN_POINT('',(249.26576155045,503.85901643595,
    0.338735192547));
#502 = VECTOR('',#503,1.);
#503 = DIRECTION('',(0.995361010615,8.075849942674E-02,
    -5.229266982293E-02));
#504 = PCURVE('',#143,#505);
#505 = DEFINITIONAL_REPRESENTATION('',(#506),#510);
#506 = LINE('',#507,#508);
#507 = CARTESIAN_POINT('',(6.28318530718,-0.));
#508 = VECTOR('',#509,1.);
#509 = DIRECTION('',(0.,1.));
#510 = ( GEOMETRIC_REPRESENTATION_CONTEXT(2) 
PARAMETRIC_REPRESENTATION_CONTEXT() REPRESENTATION_CONTEXT('2D SPACE',''
  ) );
#511 = PCURVE('',#143,#512);
#512 = DEFINITIONAL_REPRESENTATION('',(#513),#517);
#513 = LINE('',#514,#515);
#514 = CARTESIAN_POINT('',(0.,-0.));
#515 = VECTOR('',#516,1.);
#516 = DIRECTION('',(0.,1.));
#517 = ( GEOMETRIC_REPRESENTATION_CONTEXT(2) 
PARAMETRIC_REPRESENTATION_CONTEXT() REPRESENTATION_CONTEXT('2D SPACE',''
  ) );
#518 = ORIENTED_EDGE('',*,*,#519,.F.);
#519 = EDGE_CURVE('',#497,#497,#520,.T.);
#520 = SURFACE_CURVE('',#521,(#526,#533),.PCURVE_S1.);
#521 = CIRCLE('',#522,4.);
#522 = AXIS2_PLACEMENT_3D('',#523,#524,#525);
#523 = CARTESIAN_POINT('',(265.50886219261,501.16542624027,
    -0.613238224384));
#524 = DIRECTION('',(0.995361010615,8.075849942674E-02,
    -5.229266982293E-02));
#525 = DIRECTION('',(-7.933111807761E-02,0.996431546627,
    2.88226749411E-02));
#526 = PCURVE('',#143,#527);
#527 = DEFINITIONAL_REPRESENTATION('',(#528),#532);
#528 = LINE('',#529,#530);
#529 = CARTESIAN_POINT('',(0.,16.));
#530 = VECTOR('',#531,1.);
#531 = DIRECTION('',(1.,0.));
#532 = ( GEOMETRIC_REPRESENTATION_CONTEXT(2) 
PARAMETRIC_REPRESENTATION_CONTEXT() REPRESENTATION_CONTEXT('2D SPACE',''
  ) );
#533 = PCURVE('',#534,#539);
#534 = PLANE('',#535);
#535 = AXIS2_PLACEMENT_3D('',#536,#537,#538);
#536 = CARTESIAN_POINT('',(265.50886219261,501.16542624027,
    -0.613238224384));
#537 = DIRECTION('',(0.995361010615,8.075849942674E-02,
    -5.229266982293E-02));
#538 = DIRECTION('',(-7.933111807761E-02,0.996431546627,
    2.88226749411E-02));
#539 = DEFINITIONAL_REPRESENTATION('',(#540),#544);
#540 = CIRCLE('',#541,4.);
#541 = AXIS2_PLACEMENT_2D('',#542,#543);
#542 = CARTESIAN_POINT('',(0.,0.));
#543 = DIRECTION('',(1.,0.));
#544 = ( GEOMETRIC_REPRESENTATION_CONTEXT(2) 
PARAMETRIC_REPRESENTATION_CONTEXT() REPRESENTATION_CONTEXT('2D SPACE',''
  ) );
#545 = ORIENTED_EDGE('',*,*,#496,.F.);
#546 = ORIENTED_EDGE('',*,*,#79,.T.);
#547 = ORIENTED_EDGE('',*,*,#325,.T.);
#548 = ORIENTED_EDGE('',*,*,#179,.T.);
#549 = ADVANCED_FACE('',(#550),#312,.F.);
#550 = FACE_BOUND('',#551,.T.);
#551 = EDGE_LOOP('',(#552));
#552 = ORIENTED_EDGE('',*,*,#297,.F.);
#553 = ADVANCED_FACE('',(#554),#66,.T.);
#554 = FACE_BOUND('',#555,.T.);
#555 = EDGE_LOOP('',(#556));
#556 = ORIENTED_EDGE('',*,*,#51,.T.);
#557 = ADVANCED_FACE('',(#558),#534,.T.);
#558 = FACE_BOUND('',#559,.T.);
#559 = EDGE_LOOP('',(#560));
#560 = ORIENTED_EDGE('',*,*,#519,.T.);
#561 = ( GEOMETRIC_REPRESENTATION_CONTEXT(3) 
GLOBAL_UNCERTAINTY_ASSIGNED_CONTEXT((#565)) GLOBAL_UNIT_ASSIGNED_CONTEXT
((#562,#563,#564)) REPRESENTATION_CONTEXT('Context #1',
  '3D Context with UNIT and UNCERTAINTY') );
#562 = ( LENGTH_UNIT() NAMED_UNIT(*) SI_UNIT(.MILLI.,.METRE.) );
#563 = ( NAMED_UNIT(*) PLANE_ANGLE_UNIT() SI_UNIT($,.RADIAN.) );
#564 = ( NAMED_UNIT(*) SI_UNIT($,.STERADIAN.) SOLID_ANGLE_UNIT() );
#565 = UNCERTAINTY_MEASURE_WITH_UNIT(LENGTH_MEASURE(1.E-07),#562,
  'distance_accuracy_value','confusion accuracy');
#566 = PRODUCT_RELATED_PRODUCT_CATEGORY('part',$,(#7));
ENDSEC;
END-ISO-10303-21;
