ISO-10303-21;
HEADER;
FILE_DESCRIPTION(('Open CASCADE Model'),'2;1');
FILE_NAME('Open CASCADE Shape Model','2026-09-26T15:32:10',('Author'),(
    'Open CASCADE'),'Open CASCADE STEP processor 7.8','Open CASCADE 7.8'
  ,'Unknown');
FILE_SCHEMA(('AUTOMOTIVE_DESIGN { 1 0 10303 214 1 1 1 1 }'));
ENDSEC;
DATA;
#1 = APPLICATION_PROTOCOL_DEFINITION('international standard',
  'automotive_design',2000,#2);
#2 = APPLICATION_CONTEXT(
  'core data for automotive mechanical design processes');
#3 = SHAPE_DEFINITION_REPRESENTATION(#4,#10);
#4 = PRODUCT_DEFINITION_SHAPE('','',#5);
#5 = PRODUCT_DEFINITION('design','',#6,#9);
#6 = PRODUCT_DEFINITION_FORMATION('','',#7);
#7 = PRODUCT('Open CASCADE STEP translator 7.8 1',
  'Open CASCADE STEP translator 7.8 1','',(#8));
#8 = PRODUCT_CONTEXT('',#2,'mechanical');
#9 = PRODUCT_DEFINITION_CONTEXT('part definition',#2,'design');
#10 = ADVANCED_BREP_SHAPE_REPRESENTATION('',(#11,#15),#561);
#11 = AXIS2_PLACEMENT_3D('',#12,#13,#14);
#12 = CARTESIAN_POINT('',(0.,0.,0.));
#13 = DIRECTION('',(0.,0.,1.));
#14 = DIRECTION('',(1.,0.,-0.));
#15 = MANIFOLD_SOLID_BREP('',#16);
#16 = CLOSED_SHELL('',(#17,#492,#549,#553,#557));
#17 = ADVANCED_FACE('',(#18),#32,.T.);
#18 = FACE_BOUND('',#19,.T.);
#19 = EDGE_LOOP('',(#20,#50,#77,#78,#178,#273,#296,#323,#324));
#20 = ORIENTED_EDGE('',*,*,#21,.T.);
#21 = EDGE_CURVE('',#22,#24,#26,.T.);
#22 = VERTEX_POINT('',#23);
#23 = CARTESIAN_POINT('',(250.,496.,8.));
#24 = VERTEX_POINT('',#25);
#25 = CARTESIAN_POINT('',(250.,488.,8.));
#26 = SEAM_CURVE('',#27,(#31,#43),.PCURVE_S1.);
#27 = LINE('',#28,#29);
#28 = CARTESIAN_POINT('',(250.,512.,8.));
#29 = VECTOR('',#30,1.);
#30 = DIRECTION('',(0.,-1.,0.));
#31 = PCURVE('',#32,#37);
#32 = CYLINDRICAL_SURFACE('',#33,8.);
#33 = AXIS2_PLACEMENT_3D('',#34,#35,#36);
#34 = CARTESIAN_POINT('',(250.,512.,0.));
#35 = DIRECTION('',(0.,-1.,0.));
#36 = DIRECTION('',(0.,0.,1.));
#37 = DEFINITIONAL_REPRESENTATION('',(#38),#42);
#38 = LINE('',#39,#40);
#39 = CARTESIAN_POINT('',(6.28318530718,-0.));
#40 = VECTOR('',#41,1.);
#41 = DIRECTION('',(0.,1.));
#42 = ( GEOMETRIC_REPRESENTATION_CONTEXT(2) 
PARAMETRIC_REPRESENTATION_CONTEXT() REPRESENTATION_CONTEXT('2D SPACE',''
  ) );
#43 = PCURVE('',#32,#44);
#44 = DEFINITIONAL_REPRESENTATION('',(#45),#49);
#45 = LINE('',#46,#47);
#46 = CARTESIAN_POINT('',(0.,-0.));
#47 = VECTOR('',#48,1.);
#48 = DIRECTION('',(0.,1.));
#49 = ( GEOMETRIC_REPRESENTATION_CONTEXT(2) 
PARAMETRIC_REPRESENTATION_CONTEXT() REPRESENTATION_CONTEXT('2D SPACE',''
  ) );
#50 = ORIENTED_EDGE('',*,*,#51,.F.);
#51 = EDGE_CURVE('',#24,#24,#52,.T.);
#52 = SURFACE_CURVE('',#53,(#58,#65),.PCURVE_S1.);
#53 = CIRCLE('',#54,8.);
#54 = AXIS2_PLACEMENT_3D('',#55,#56,#57);
#55 = CARTESIAN_POINT('',(250.,488.,0.));
#56 = DIRECTION('',(0.,-1.,0.));
#57 = DIRECTION('',(0.,0.,1.));
#58 = PCURVE('',#32,#59);
#59 = DEFINITIONAL_REPRESENTATION('',(#60),#64);
#60 = LINE('',#61,#62);
#61 = CARTESIAN_POINT('',(0.,24.));
#62 = VECTOR('',#63,1.);
#63 = DIRECTION('',(1.,0.));
#64 = ( GEOMETRIC_REPRESENTATION_CONTEXT(2) 
PARAMETRIC_REPRESENTATION_CONTEXT() REPRESENTATION_CONTEXT('2D SPACE',''
  ) );
#65 = PCURVE('',#66,#71);
#66 = PLANE('',#67);
#67 = AXIS2_PLACEMENT_3D('',#68,#69,#70);
#68 = CARTESIAN_POINT('',(250.,488.,0.));
#69 = DIRECTION('',(0.,-1.,0.));
#70 = DIRECTION('',(0.,0.,1.));
#71 = DEFINITIONAL_REPRESENTATION('',(#72),#76);
#72 = CIRCLE('',#73,8.);
#73 = AXIS2_PLACEMENT_2D('',#74,#75);
#74 = CARTESIAN_POINT('',(0.,0.));
#75 = DIRECTION('',(1.,0.));
#76 = ( GEOMETRIC_REPRESENTATION_CONTEXT(2) 
PARAMETRIC_REPRESENTATION_CONTEXT() REPRESENTATION_CONTEXT('2D SPACE',''
  ) );
#77 = ORIENTED_EDGE('',*,*,#21,.F.);
#78 = ORIENTED_EDGE('',*,*,#79,.F.);
#79 = EDGE_CURVE('',#80,#22,#82,.T.);
#80 = VERTEX_POINT('',#81);
#81 = CARTESIAN_POINT('',(246.,500.,6.928203230276));
#82 = SURFACE_CURVE('',#83,(#111,#142),.PCURVE_S1.);
#83 = B_SPLINE_CURVE_WITH_KNOTS('',6,(#84,#85,#86,#87,#88,#89,#90,#91,
    #92,#93,#94,#95,#96,#97,#98,#99,#100,#101,#102,#103,#104,#105,#106,
    #107,#108,#109,#110),.UNSPECIFIED.,.F.,.F.,(7,5,5,5,5,7),(0.,
    0.328303835884,0.514557569447,0.658808541311,0.85909942365,1.),
  .UNSPECIFIED.);
#84 = CARTESIAN_POINT('',(246.,500.,6.928203230276));
#85 = CARTESIAN_POINT('',(246.,499.69479681675,6.928203230276));
#86 = CARTESIAN_POINT('',(246.02794421279,499.3901468411,6.944336768568)
  );
#87 = CARTESIAN_POINT('',(246.08364594643,499.08819690106,6.97649644778)
  );
#88 = CARTESIAN_POINT('',(246.16705870826,498.79116206321,7.023527208915
    ));
#89 = CARTESIAN_POINT('',(246.27819947447,498.50151540898,7.083236178388
    ));
#90 = CARTESIAN_POINT('',(246.49544390079,498.06366623015,7.192066597485
    ));
#91 = CARTESIAN_POINT('',(246.58299688951,497.90833395711,7.234629325743
    ));
#92 = CARTESIAN_POINT('',(246.67957013643,497.75645868798,7.279893010714
    ));
#93 = CARTESIAN_POINT('',(246.78532859424,497.60841616081,7.327339147172
    ));
#94 = CARTESIAN_POINT('',(246.9004812055,497.46468509362,7.376384752685)
  );
#95 = CARTESIAN_POINT('',(247.12190460222,497.21837026437,7.465079039057
    ));
#96 = CARTESIAN_POINT('',(247.22433734737,497.11379948433,7.504358671251
    ));
#97 = CARTESIAN_POINT('',(247.33271088558,497.012410144,7.543914058351)
  );
#98 = CARTESIAN_POINT('',(247.44717556743,496.91452380472,7.583415740714
    ));
#99 = CARTESIAN_POINT('',(247.56788162936,496.82053702207,7.622494098686
    ));
#100 = CARTESIAN_POINT('',(247.87145107319,496.606490756,7.713834421579)
  );
#101 = CARTESIAN_POINT('',(248.06071232541,496.49015820896,
    7.765460919209));
#102 = CARTESIAN_POINT('',(248.26266240016,496.38371284256,
    7.814305534164));
#103 = CARTESIAN_POINT('',(248.47702864782,496.28900669262,
    7.858935603422));
#104 = CARTESIAN_POINT('',(248.70333392242,496.20799179509,
    7.897852814878));
#105 = CARTESIAN_POINT('',(249.1079435658,496.09689104813,7.951896159602
    ));
#106 = CARTESIAN_POINT('',(249.28049251972,496.0588518881,7.970642937566
    ));
#107 = CARTESIAN_POINT('',(249.45728144368,496.02963364129,
    7.985183171746));
#108 = CARTESIAN_POINT('',(249.63701915328,496.00989654528,
    7.995051729475));
#109 = CARTESIAN_POINT('',(249.81837283386,496.,8.));
#110 = CARTESIAN_POINT('',(250.,496.,8.));
#111 = PCURVE('',#32,#112);
#112 = DEFINITIONAL_REPRESENTATION('',(#113),#141);
#113 = B_SPLINE_CURVE_WITH_KNOTS('',6,(#114,#115,#116,#117,#118,#119,
    #120,#121,#122,#123,#124,#125,#126,#127,#128,#129,#130,#131,#132,
    #133,#134,#135,#136,#137,#138,#139,#140),.UNSPECIFIED.,.F.,.F.,(7,5,
    5,5,5,7),(0.,0.328303835884,0.514557569447,0.658808541311,
    0.85909942365,1.),.UNSPECIFIED.);
#114 = CARTESIAN_POINT('',(0.523598775598,12.));
#115 = CARTESIAN_POINT('',(0.523598775598,12.305203183249));
#116 = CARTESIAN_POINT('',(0.519565415828,12.609853158894));
#117 = CARTESIAN_POINT('',(0.511525375935,12.911803098938));
#118 = CARTESIAN_POINT('',(0.499556678933,13.208837936789));
#119 = CARTESIAN_POINT('',(0.483792623567,13.498484591018));
#120 = CARTESIAN_POINT('',(0.453420144019,13.936333769842));
#121 = CARTESIAN_POINT('',(0.44125221665,14.09166604289));
#122 = CARTESIAN_POINT('',(0.427922510661,14.243541312012));
#123 = CARTESIAN_POINT('',(0.413436815384,14.391583839182));
#124 = CARTESIAN_POINT('',(0.397795183031,14.535314906374));
#125 = CARTESIAN_POINT('',(0.367979342796,14.781629735624));
#126 = CARTESIAN_POINT('',(0.354267633043,14.88620051567));
#127 = CARTESIAN_POINT('',(0.339849764254,14.987589855992));
#128 = CARTESIAN_POINT('',(0.324717563761,15.085476195273));
#129 = CARTESIAN_POINT('',(0.308861717839,15.179462977928));
#130 = CARTESIAN_POINT('',(0.269235049535,15.393509243998));
#131 = CARTESIAN_POINT('',(0.244721293227,15.509841791034));
#132 = CARTESIAN_POINT('',(0.218766861345,15.616287157431));
#133 = CARTESIAN_POINT('',(0.19141997034,15.710993307372));
#134 = CARTESIAN_POINT('',(0.162736781255,15.792008204905));
#135 = CARTESIAN_POINT('',(0.111711412775,15.903108951868));
#136 = CARTESIAN_POINT('',(9.002240943843E-02,15.941148111894));
#137 = CARTESIAN_POINT('',(6.786086941294E-02,15.970366358705));
#138 = CARTESIAN_POINT('',(4.537260949361E-02,15.99010345472));
#139 = CARTESIAN_POINT('',(2.27033957674E-02,16.));
#140 = CARTESIAN_POINT('',(0.,16.));
#141 = ( GEOMETRIC_REPRESENTATION_CONTEXT(2) 
PARAMETRIC_REPRESENTATION_CONTEXT() REPRESENTATION_CONTEXT('2D SPACE',''
  ) );
#142 = PCURVE('',#143,#148);
#143 = CYLINDRICAL_SURFACE('',#144,4.);
#144 = AXIS2_PLACEMENT_3D('',#145,#146,#147);
#145 = CARTESIAN_POINT('',(250.,500.,0.));
#146 = DIRECTION('',(0.,0.,1.));
#147 = DIRECTION('',(-1.,0.,0.));
#148 = DEFINITIONAL_REPRESENTATION('',(#149),#177);
#149 = B_SPLINE_CURVE_WITH_KNOTS('',6,(#150,#151,#152,#153,#154,#155,
    #156,#157,#158,#159,#160,#161,#162,#163,#164,#165,#166,#167,#168,
    #169,#170,#171,#172,#173,#174,#175,#176),.UNSPECIFIED.,.F.,.F.,(7,5,
    5,5,5,7),(0.,0.328303835884,0.514557569447,0.658808541311,
    0.85909942365,1.),.UNSPECIFIED.);
#150 = CARTESIAN_POINT('',(0.,6.928203230276));
#151 = CARTESIAN_POINT('',(7.630079581221E-02,6.928203230276));
#152 = CARTESIAN_POINT('',(0.15246323101,6.944336768568));
#153 = CARTESIAN_POINT('',(0.228750545384,6.97649644778));
#154 = CARTESIAN_POINT('',(0.305392989291,7.023527208915));
#155 = CARTESIAN_POINT('',(0.382608627849,7.083236178388));
#156 = CARTESIAN_POINT('',(0.504803923422,7.192066597485));
#157 = CARTESIAN_POINT('',(0.549318934715,7.234629325743));
#158 = CARTESIAN_POINT('',(0.594217997606,7.279893010714));
#159 = CARTESIAN_POINT('',(0.63960061415,7.327339147172));
#160 = CARTESIAN_POINT('',(0.685569086384,7.376384752685));
#161 = CARTESIAN_POINT('',(0.768371303944,7.465079039057));
#162 = CARTESIAN_POINT('',(0.804933047893,7.504358671251));
#163 = CARTESIAN_POINT('',(0.84198127451,7.543914058351));
#164 = CARTESIAN_POINT('',(0.879575975532,7.583415740714));
#165 = CARTESIAN_POINT('',(0.91777845164,7.622494098686));
#166 = CARTESIAN_POINT('',(1.010639305626,7.713834421579));
#167 = CARTESIAN_POINT('',(1.066068015652,7.765460919209));
#168 = CARTESIAN_POINT('',(1.122947903732,7.814305534164));
#169 = CARTESIAN_POINT('',(1.18131601379,7.858935603422));
#170 = CARTESIAN_POINT('',(1.241235895002,7.897852814878));
#171 = CARTESIAN_POINT('',(1.346132373581,7.951896159602));
#172 = CARTESIAN_POINT('',(1.390247977755,7.970642937566));
#173 = CARTESIAN_POINT('',(1.43494816081,7.985183171746));
#174 = CARTESIAN_POINT('',(1.480051118187,7.995051729475));
#175 = CARTESIAN_POINT('',(1.52538953526,8.));
#176 = CARTESIAN_POINT('',(1.570796326795,8.));
#177 = ( GEOMETRIC_REPRESENTATION_CONTEXT(2) 
PARAMETRIC_REPRESENTATION_CONTEXT() REPRESENTATION_CONTEXT('2D SPACE',''
  ) );
#178 = ORIENTED_EDGE('',*,*,#179,.F.);
#179 = EDGE_CURVE('',#180,#80,#182,.T.);
#180 = VERTEX_POINT('',#181);
#181 = CARTESIAN_POINT('',(250.,504.,8.));
#182 = SURFACE_CURVE('',#183,(#211,#242),.PCURVE_S1.);
#183 = B_SPLINE_CURVE_WITH_KNOTS('',6,(#184,#185,#186,#187,#188,#189,
    #190,#191,#192,#193,#194,#195,#196,#197,#198,#199,#200,#201,#202,
    #203,#204,#205,#206,#207,#208,#209,#210),.UNSPECIFIED.,.F.,.F.,(7,5,
    5,5,5,7),(0.,0.236611568136,0.343228057704,0.488628670445,
    0.672075815181,1.),.UNSPECIFIED.);
#184 = CARTESIAN_POINT('',(250.,504.,8.));
#185 = CARTESIAN_POINT('',(249.69369240778,504.,8.));
#186 = CARTESIAN_POINT('',(249.39013081503,503.97185244899,7.98592617514
    ));
#187 = CARTESIAN_POINT('',(249.09420771976,503.91650522026,
    7.958252844721));
#188 = CARTESIAN_POINT('',(248.81064324951,503.83639713515,
    7.918754973306));
#189 = CARTESIAN_POINT('',(248.54369232731,503.7354479418,7.87038593332)
  );
#190 = CARTESIAN_POINT('',(248.18567118841,503.56697598191,
    7.792378722085));
#191 = CARTESIAN_POINT('',(248.07801272312,503.51130711097,
    7.766932755659));
#192 = CARTESIAN_POINT('',(247.97391120077,503.45257729105,
    7.740483461975));
#193 = CARTESIAN_POINT('',(247.87335859745,503.39104111444,
    7.713231792476));
#194 = CARTESIAN_POINT('',(247.77633556505,503.32693266542,
    7.685366886073));
#195 = CARTESIAN_POINT('',(247.55526690371,503.1698208738,7.618466879984
    ));
#196 = CARTESIAN_POINT('',(247.43420115384,503.07476951837,
    7.579046978842));
#197 = CARTESIAN_POINT('',(247.31946058038,502.9757896538,7.539225100218
    ));
#198 = CARTESIAN_POINT('',(247.21089116945,502.87328239898,
    7.499376820517));
#199 = CARTESIAN_POINT('',(247.10833958635,502.76757227751,7.45983673436
    ));
#200 = CARTESIAN_POINT('',(246.88966855135,502.52180786057,
    7.371779412979));
#201 = CARTESIAN_POINT('',(246.7769977751,502.37997851407,7.323611296762
    ));
#202 = CARTESIAN_POINT('',(246.67341996001,502.23399522472,7.27702558113
    ));
#203 = CARTESIAN_POINT('',(246.57873849026,502.08431198673,
    7.232576677944));
#204 = CARTESIAN_POINT('',(246.49279808742,501.9312870738,7.190758676719
    ));
#205 = CARTESIAN_POINT('',(246.27732791608,501.496210217,7.082767826331)
  );
#206 = CARTESIAN_POINT('',(246.16653547959,501.20697308332,
    7.023232217798));
#207 = CARTESIAN_POINT('',(246.0833835339,500.9103806924,6.976344940816)
  );
#208 = CARTESIAN_POINT('',(246.02785617861,500.60889501713,
    6.944285942893));
#209 = CARTESIAN_POINT('',(246.,500.30472203649,6.928203230276));
#210 = CARTESIAN_POINT('',(246.,500.,6.928203230276));
#211 = PCURVE('',#32,#212);
#212 = DEFINITIONAL_REPRESENTATION('',(#213),#241);
#213 = B_SPLINE_CURVE_WITH_KNOTS('',6,(#214,#215,#216,#217,#218,#219,
    #220,#221,#222,#223,#224,#225,#226,#227,#228,#229,#230,#231,#232,
    #233,#234,#235,#236,#237,#238,#239,#240),.UNSPECIFIED.,.F.,.F.,(7,5,
    5,5,5,7),(0.,0.236611568136,0.343228057704,0.488628670445,
    0.672075815181,1.),.UNSPECIFIED.);
#214 = CARTESIAN_POINT('',(0.,8.));
#215 = CARTESIAN_POINT('',(3.828844902657E-02,8.));
#216 = CARTESIAN_POINT('',(7.623371254303E-02,8.028147551006));
#217 = CARTESIAN_POINT('',(0.113324815953,8.083494779734));
#218 = CARTESIAN_POINT('',(0.149065308681,8.163602864842));
#219 = CARTESIAN_POINT('',(0.182956449056,8.264552058198));
#220 = CARTESIAN_POINT('',(0.228759058988,8.433024018083));
#221 = CARTESIAN_POINT('',(0.242585023043,8.488692889024));
#222 = CARTESIAN_POINT('',(0.256008445293,8.547422708946));
#223 = CARTESIAN_POINT('',(0.269028678803,8.608958885556));
#224 = CARTESIAN_POINT('',(0.281645551631,8.673067334574));
#225 = CARTESIAN_POINT('',(0.310516753718,8.830179126199));
#226 = CARTESIAN_POINT('',(0.326428504586,8.925230481628));
#227 = CARTESIAN_POINT('',(0.341606347466,9.0242103462));
#228 = CARTESIAN_POINT('',(0.356059774408,9.126717601014));
#229 = CARTESIAN_POINT('',(0.369797029365,9.232427722489));
#230 = CARTESIAN_POINT('',(0.399263937021,9.478192139425));
#231 = CARTESIAN_POINT('',(0.414577417261,9.620021485926));
#232 = CARTESIAN_POINT('',(0.428770605957,9.76600477528));
#233 = CARTESIAN_POINT('',(0.441843083613,9.915688013268));
#234 = CARTESIAN_POINT('',(0.453789068368,10.068712926191));
#235 = CARTESIAN_POINT('',(0.483916251511,10.503789782994));
#236 = CARTESIAN_POINT('',(0.499631753879,10.793026916679));
#237 = CARTESIAN_POINT('',(0.51156325359,11.089619307595));
#238 = CARTESIAN_POINT('',(0.519578122006,11.391104982867));
#239 = CARTESIAN_POINT('',(0.523598775598,11.695277963507));
#240 = CARTESIAN_POINT('',(0.523598775598,12.));
#241 = ( GEOMETRIC_REPRESENTATION_CONTEXT(2) 
PARAMETRIC_REPRESENTATION_CONTEXT() REPRESENTATION_CONTEXT('2D SPACE',''
  ) );
#242 = PCURVE('',#143,#243);
#243 = DEFINITIONAL_REPRESENTATION('',(#244),#272);
#244 = B_SPLINE_CURVE_WITH_KNOTS('',6,(#245,#246,#247,#248,#249,#250,
    #251,#252,#253,#254,#255,#256,#257,#258,#259,#260,#261,#262,#263,
    #264,#265,#266,#267,#268,#269,#270,#271),.UNSPECIFIED.,.F.,.F.,(7,5,
    5,5,5,7),(0.,0.236611568136,0.343228057704,0.488628670445,
    0.672075815181,1.),.UNSPECIFIED.);
#245 = CARTESIAN_POINT('',(4.712388980385,8.));
#246 = CARTESIAN_POINT('',(4.788965878438,8.));
#247 = CARTESIAN_POINT('',(4.864856212726,7.98592617514));
#248 = CARTESIAN_POINT('',(4.939645634196,7.958252844721));
#249 = CARTESIAN_POINT('',(5.012887933585,7.918754973306));
#250 = CARTESIAN_POINT('',(5.084019502043,7.87038593332));
#251 = CARTESIAN_POINT('',(5.182939272933,7.792378722085));
#252 = CARTESIAN_POINT('',(5.213218016962,7.766932755659));
#253 = CARTESIAN_POINT('',(5.243070167999,7.740483461975));
#254 = CARTESIAN_POINT('',(5.272515124729,7.713231792476));
#255 = CARTESIAN_POINT('',(5.301570844227,7.685366886073));
#256 = CARTESIAN_POINT('',(5.369373622605,7.618466879984));
#257 = CARTESIAN_POINT('',(5.40781006793,7.579046978842));
#258 = CARTESIAN_POINT('',(5.44563414514,7.539225100218));
#259 = CARTESIAN_POINT('',(5.482908472981,7.499376820517));
#260 = CARTESIAN_POINT('',(5.519694287855,7.45983673436));
#261 = CARTESIAN_POINT('',(5.601935233473,7.371779412979));
#262 = CARTESIAN_POINT('',(5.647148812405,7.323611296762));
#263 = CARTESIAN_POINT('',(5.691800725399,7.27702558113));
#264 = CARTESIAN_POINT('',(5.735988127854,7.232576677944));
#265 = CARTESIAN_POINT('',(5.779805567581,7.190758676719));
#266 = CARTESIAN_POINT('',(5.901182888893,7.082767826331));
#267 = CARTESIAN_POINT('',(5.978273480016,7.023232217798));
#268 = CARTESIAN_POINT('',(6.054794139634,6.976344940816));
#269 = CARTESIAN_POINT('',(6.130961611334,6.944285942893));
#270 = CARTESIAN_POINT('',(6.207004798056,6.928203230276));
#271 = CARTESIAN_POINT('',(6.28318530718,6.928203230276));
#272 = ( GEOMETRIC_REPRESENTATION_CONTEXT(2) 
PARAMETRIC_REPRESENTATION_CONTEXT() REPRESENTATION_CONTEXT('2D SPACE',''
  ) );
#273 = ORIENTED_EDGE('',*,*,#274,.F.);
#274 = EDGE_CURVE('',#275,#180,#277,.T.);
#275 = VERTEX_POINT('',#276);
#276 = CARTESIAN_POINT('',(250.,512.,8.));
#277 = SEAM_CURVE('',#278,(#282,#289),.PCURVE_S1.);
#278 = LINE('',#279,#280);
#279 = CARTESIAN_POINT('',(250.,512.,8.));
#280 = VECTOR('',#281,1.);
#281 = DIRECTION('',(0.,-1.,0.));
#282 = PCURVE('',#32,#283);
#283 = DEFINITIONAL_REPRESENTATION('',(#284),#288);
#284 = LINE('',#285,#286);
#285 = CARTESIAN_POINT('',(6.28318530718,-0.));
#286 = VECTOR('',#287,1.);
#287 = DIRECTION('',(0.,1.));
#288 = ( GEOMETRIC_REPRESENTATION_CONTEXT(2) 
PARAMETRIC_REPRESENTATION_CONTEXT() REPRESENTATION_CONTEXT('2D SPACE',''
  ) );
#289 = PCURVE('',#32,#290);
#290 = DEFINITIONAL_REPRESENTATION('',(#291),#295);
#291 = LINE('',#292,#293);
#292 = CARTESIAN_POINT('',(0.,-0.));
#293 = VECTOR('',#294,1.);
#294 = DIRECTION('',(0.,1.));
#295 = ( GEOMETRIC_REPRESENTATION_CONTEXT(2) 
PARAMETRIC_REPRESENTATION_CONTEXT() REPRESENTATION_CONTEXT('2D SPACE',''
  ) );
#296 = ORIENTED_EDGE('',*,*,#297,.T.);
#297 = EDGE_CURVE('',#275,#275,#298,.T.);
#298 = SURFACE_CURVE('',#299,(#304,#311),.PCURVE_S1.);
#299 = CIRCLE('',#300,8.);
#300 = AXIS2_PLACEMENT_3D('',#301,#302,#303);
#301 = CARTESIAN_POINT('',(250.,512.,0.));
#302 = DIRECTION('',(0.,-1.,0.));
#303 = DIRECTION('',(0.,0.,1.));
#304 = PCURVE('',#32,#305);
#305 = DEFINITIONAL_REPRESENTATION('',(#306),#310);
#306 = LINE('',#307,#308);
#307 = CARTESIAN_POINT('',(0.,0.));
#308 = VECTOR('',#309,1.);
#309 = DIRECTION('',(1.,0.));
#310 = ( GEOMETRIC_REPRESENTATION_CONTEXT(2) 
PARAMETRIC_REPRESENTATION_CONTEXT() REPRESENTATION_CONTEXT('2D SPACE',''
  ) );
#311 = PCURVE('',#312,#317);
#312 = PLANE('',#313);
#313 = AXIS2_PLACEMENT_3D('',#314,#315,#316);
#314 = CARTESIAN_POINT('',(250.,512.,0.));
#315 = DIRECTION('',(0.,-1.,0.));
#316 = DIRECTION('',(0.,0.,1.));
#317 = DEFINITIONAL_REPRESENTATION('',(#318),#322);
#318 = CIRCLE('',#319,8.);
#319 = AXIS2_PLACEMENT_2D('',#320,#321);
#320 = CARTESIAN_POINT('',(0.,0.));
#321 = DIRECTION('',(1.,0.));
#322 = ( GEOMETRIC_REPRESENTATION_CONTEXT(2) 
PARAMETRIC_REPRESENTATION_CONTEXT() REPRESENTATION_CONTEXT('2D SPACE',''
  ) );
#323 = ORIENTED_EDGE('',*,*,#274,.T.);
#324 = ORIENTED_EDGE('',*,*,#325,.F.);
#325 = EDGE_CURVE('',#22,#180,#326,.T.);
#326 = SURFACE_CURVE('',#327,(#380,#436),.PCURVE_S1.);
#327 = B_SPLINE_CURVE_WITH_KNOTS('',6,(#328,#329,#330,#331,#332,#333,
    #334,#335,#336,#337,#338,#339,#340,#341,#342,#343,#344,#345,#346,
    #347,#348,#349,#350,#351,#352,#353,#354,#355,#356,#357,#358,#359,
    #360,#361,#362,#363,#364,#365,#366,#367,#368,#369,#370,#371,#372,
    #373,#374,#375,#376,#377,#378,#379),.UNSPECIFIED.,.F.,.F.,(7,5,5,5,5
    ,5,5,5,5,5,7),(0.,0.118322562192,0.171638367151,0.244348983878,
    0.336085564482,0.500070909994,0.58683692387,0.664204994341,
    0.829397695873,0.929546996682,1.),.UNSPECIFIED.);
#328 = CARTESIAN_POINT('',(250.,496.,8.));
#329 = CARTESIAN_POINT('',(250.30630759221,496.,8.));
#330 = CARTESIAN_POINT('',(250.60986918496,496.028147551,7.98592617514)
  );
#331 = CARTESIAN_POINT('',(250.90579228023,496.08349477973,
    7.958252844721));
#332 = CARTESIAN_POINT('',(251.18935675048,496.16360286484,
    7.918754973306));
#333 = CARTESIAN_POINT('',(251.45630767269,496.26455205819,7.87038593332
    ));
#334 = CARTESIAN_POINT('',(251.81432881159,496.43302401808,
    7.792378722085));
#335 = CARTESIAN_POINT('',(251.92198727687,496.48869288902,
    7.766932755659));
#336 = CARTESIAN_POINT('',(252.02608879923,496.54742270894,
    7.740483461975));
#337 = CARTESIAN_POINT('',(252.12664140254,496.60895888555,
    7.713231792476));
#338 = CARTESIAN_POINT('',(252.22366443495,496.67306733457,
    7.685366886073));
#339 = CARTESIAN_POINT('',(252.44473309628,496.83017912619,
    7.618466879984));
#340 = CARTESIAN_POINT('',(252.56579884615,496.92523048162,
    7.579046978841));
#341 = CARTESIAN_POINT('',(252.68053941961,497.0242103462,7.539225100218
    ));
#342 = CARTESIAN_POINT('',(252.78910883054,497.12671760101,
    7.499376820517));
#343 = CARTESIAN_POINT('',(252.89166041364,497.23242772248,7.45983673436
    ));
#344 = CARTESIAN_POINT('',(253.11033144864,497.47819213942,
    7.371779412979));
#345 = CARTESIAN_POINT('',(253.22300222489,497.62002148592,
    7.323611296762));
#346 = CARTESIAN_POINT('',(253.32658003998,497.76600477528,7.27702558113
    ));
#347 = CARTESIAN_POINT('',(253.42126150973,497.91568801326,
    7.232576677944));
#348 = CARTESIAN_POINT('',(253.50720191257,498.06871292619,
    7.190758676719));
#349 = CARTESIAN_POINT('',(253.72267208391,498.50378978299,
    7.082767826331));
#350 = CARTESIAN_POINT('',(253.8334645204,498.79302691667,7.023232217798
    ));
#351 = CARTESIAN_POINT('',(253.91661646609,499.08961930759,
    6.976344940816));
#352 = CARTESIAN_POINT('',(253.97214382138,499.39110498286,
    6.944285942893));
#353 = CARTESIAN_POINT('',(254.,499.6952779635,6.928203230276));
#354 = CARTESIAN_POINT('',(254.,500.16123097075,6.928203230276));
#355 = CARTESIAN_POINT('',(253.99220140046,500.3224321832,6.932705526774
    ));
#356 = CARTESIAN_POINT('',(253.97660945465,500.48323548744,
    6.941708179758));
#357 = CARTESIAN_POINT('',(253.95323456534,500.64326223841,
    6.955115251077));
#358 = CARTESIAN_POINT('',(253.92209770703,500.80212281667,
    6.972741594709));
#359 = CARTESIAN_POINT('',(253.84858325896,501.09967246738,
    7.013556718429));
#360 = CARTESIAN_POINT('',(253.80779045453,501.23867495964,
    7.035935298226));
#361 = CARTESIAN_POINT('',(253.76086378317,501.37622316836,
    7.061274145852));
#362 = CARTESIAN_POINT('',(253.70779805931,501.51209737298,
    7.089353489779));
#363 = CARTESIAN_POINT('',(253.64858001999,501.64605817328,
    7.119916605307));
#364 = CARTESIAN_POINT('',(253.44357785903,502.05923345861,
    7.222614158798));
#365 = CARTESIAN_POINT('',(253.27603983876,502.33030147452,
    7.302453812568));
#366 = CARTESIAN_POINT('',(253.07995129179,502.58978812594,
    7.389611409381));
#367 = CARTESIAN_POINT('',(252.85391162377,502.8354917729,7.481106722125
    ));
#368 = CARTESIAN_POINT('',(252.59610675062,503.06383506765,
    7.573152006184));
#369 = CARTESIAN_POINT('',(252.1285489268,503.39350924399,7.713834421579
    ));
#370 = CARTESIAN_POINT('',(251.93928767458,503.50984179103,
    7.765460919209));
#371 = CARTESIAN_POINT('',(251.73733759983,503.61628715743,
    7.814305534164));
#372 = CARTESIAN_POINT('',(251.52297135217,503.71099330737,
    7.858935603422));
#373 = CARTESIAN_POINT('',(251.29666607757,503.7920082049,7.897852814878
    ));
#374 = CARTESIAN_POINT('',(250.89205643428,503.90310895184,
    7.951896159591));
#375 = CARTESIAN_POINT('',(250.71950748025,503.94114811191,
    7.970642937573));
#376 = CARTESIAN_POINT('',(250.54271855623,503.97036635871,
    7.985183171752));
#377 = CARTESIAN_POINT('',(250.36298084669,503.99010345471,7.99505172947
    ));
#378 = CARTESIAN_POINT('',(250.18162716622,504.,8.));
#379 = CARTESIAN_POINT('',(250.,504.,8.));
#380 = PCURVE('',#32,#381);
#381 = DEFINITIONAL_REPRESENTATION('',(#382),#435);
#382 = B_SPLINE_CURVE_WITH_KNOTS('',6,(#383,#384,#385,#386,#387,#388,
    #389,#390,#391,#392,#393,#394,#395,#396,#397,#398,#399,#400,#401,
    #402,#403,#404,#405,#406,#407,#408,#409,#410,#411,#412,#413,#414,
    #415,#416,#417,#418,#419,#420,#421,#422,#423,#424,#425,#426,#427,
    #428,#429,#430,#431,#432,#433,#434),.UNSPECIFIED.,.F.,.F.,(7,5,5,5,5
    ,5,5,5,5,5,7),(0.,0.118322562192,0.171638367151,0.244348983878,
    0.336085564482,0.500070909994,0.58683692387,0.664204994341,
    0.829397695873,0.929546996682,1.),.UNSPECIFIED.);
#383 = CARTESIAN_POINT('',(6.28318530718,16.));
#384 = CARTESIAN_POINT('',(6.244896858153,16.));
#385 = CARTESIAN_POINT('',(6.206951594637,15.971852448994));
#386 = CARTESIAN_POINT('',(6.169860491227,15.916505220266));
#387 = CARTESIAN_POINT('',(6.134119998498,15.836397135158));
#388 = CARTESIAN_POINT('',(6.100228858124,15.735447941802));
#389 = CARTESIAN_POINT('',(6.054426248191,15.566975981917));
#390 = CARTESIAN_POINT('',(6.040600284137,15.511307110976));
#391 = CARTESIAN_POINT('',(6.027176861887,15.452577291054));
#392 = CARTESIAN_POINT('',(6.014156628377,15.391041114444));
#393 = CARTESIAN_POINT('',(6.001539755549,15.326932665426));
#394 = CARTESIAN_POINT('',(5.972668553461,15.169820873801));
#395 = CARTESIAN_POINT('',(5.956756802593,15.074769518372));
#396 = CARTESIAN_POINT('',(5.941578959713,14.9757896538));
#397 = CARTESIAN_POINT('',(5.927125532772,14.873282398986));
#398 = CARTESIAN_POINT('',(5.913388277815,14.767572277511));
#399 = CARTESIAN_POINT('',(5.883921370159,14.521807860575));
#400 = CARTESIAN_POINT('',(5.868607889919,14.379978514075));
#401 = CARTESIAN_POINT('',(5.854414701223,14.23399522472));
#402 = CARTESIAN_POINT('',(5.841342223566,14.084311986732));
#403 = CARTESIAN_POINT('',(5.829396238812,13.931287073809));
#404 = CARTESIAN_POINT('',(5.799269055669,13.496210217006));
#405 = CARTESIAN_POINT('',(5.783553553301,13.206973083321));
#406 = CARTESIAN_POINT('',(5.77162205359,12.910380692404));
#407 = CARTESIAN_POINT('',(5.763607185173,12.608895017133));
#408 = CARTESIAN_POINT('',(5.759586531581,12.304722036493));
#409 = CARTESIAN_POINT('',(5.759586531581,11.838769029244));
#410 = CARTESIAN_POINT('',(5.760712137492,11.677567816795));
#411 = CARTESIAN_POINT('',(5.762962711779,11.516764512553));
#412 = CARTESIAN_POINT('',(5.766331026727,11.356737761589));
#413 = CARTESIAN_POINT('',(5.770803354852,11.197877183325));
#414 = CARTESIAN_POINT('',(5.781313950993,10.900327532617));
#415 = CARTESIAN_POINT('',(5.787129871984,10.761325040356));
#416 = CARTESIAN_POINT('',(5.79379598657,10.623776831638));
#417 = CARTESIAN_POINT('',(5.80130009595,10.487902627019));
#418 = CARTESIAN_POINT('',(5.809629486206,10.353941826717));
#419 = CARTESIAN_POINT('',(5.838290400764,9.940766541384));
#420 = CARTESIAN_POINT('',(5.861484571612,9.669698525473));
#421 = CARTESIAN_POINT('',(5.888292526899,9.410211874052));
#422 = CARTESIAN_POINT('',(5.918743120338,9.164508227097));
#423 = CARTESIAN_POINT('',(5.952917241399,8.936164932348));
#424 = CARTESIAN_POINT('',(6.013950257645,8.606490756002));
#425 = CARTESIAN_POINT('',(6.038464013952,8.490158208967));
#426 = CARTESIAN_POINT('',(6.064418445834,8.383712842568));
#427 = CARTESIAN_POINT('',(6.091765336839,8.289006692628));
#428 = CARTESIAN_POINT('',(6.120448525925,8.207991795094));
#429 = CARTESIAN_POINT('',(6.171473894394,8.096891048155));
#430 = CARTESIAN_POINT('',(6.193162897744,8.05885188809));
#431 = CARTESIAN_POINT('',(6.215324437777,8.029633641284));
#432 = CARTESIAN_POINT('',(6.237812697689,8.00989654529));
#433 = CARTESIAN_POINT('',(6.260481911402,8.));
#434 = CARTESIAN_POINT('',(6.28318530718,8.));
#435 = ( GEOMETRIC_REPRESENTATION_CONTEXT(2) 
PARAMETRIC_REPRESENTATION_CONTEXT() REPRESENTATION_CONTEXT('2D SPACE',''
  ) );
#436 = PCURVE('',#143,#437);
#437 = DEFINITIONAL_REPRESENTATION('',(#438),#491);
#438 = B_SPLINE_CURVE_WITH_KNOTS('',6,(#439,#440,#441,#442,#443,#444,
    #445,#446,#447,#448,#449,#450,#451,#452,#453,#454,#455,#456,#457,
    #458,#459,#460,#461,#462,#463,#464,#465,#466,#467,#468,#469,#470,
    #471,#472,#473,#474,#475,#476,#477,#478,#479,#480,#481,#482,#483,
    #484,#485,#486,#487,#488,#489,#490),.UNSPECIFIED.,.F.,.F.,(7,5,5,5,5
    ,5,5,5,5,5,7),(0.,0.118322562192,0.171638367151,0.244348983878,
    0.336085564482,0.500070909994,0.58683692387,0.664204994341,
    0.829397695873,0.929546996682,1.),.UNSPECIFIED.);
#439 = CARTESIAN_POINT('',(1.570796326795,8.));
#440 = CARTESIAN_POINT('',(1.647373224848,8.));
#441 = CARTESIAN_POINT('',(1.723263559136,7.98592617514));
#442 = CARTESIAN_POINT('',(1.798052980607,7.958252844721));
#443 = CARTESIAN_POINT('',(1.871295279995,7.918754973306));
#444 = CARTESIAN_POINT('',(1.942426848454,7.87038593332));
#445 = CARTESIAN_POINT('',(2.041346619344,7.792378722085));
#446 = CARTESIAN_POINT('',(2.071625363372,7.766932755659));
#447 = CARTESIAN_POINT('',(2.101477514409,7.740483461975));
#448 = CARTESIAN_POINT('',(2.13092247114,7.713231792476));
#449 = CARTESIAN_POINT('',(2.159978190637,7.685366886073));
#450 = CARTESIAN_POINT('',(2.227780969016,7.618466879984));
#451 = CARTESIAN_POINT('',(2.266217414341,7.579046978841));
#452 = CARTESIAN_POINT('',(2.30404149155,7.539225100218));
#453 = CARTESIAN_POINT('',(2.341315819391,7.499376820517));
#454 = CARTESIAN_POINT('',(2.378101634265,7.45983673436));
#455 = CARTESIAN_POINT('',(2.460342579883,7.371779412979));
#456 = CARTESIAN_POINT('',(2.505556158815,7.323611296762));
#457 = CARTESIAN_POINT('',(2.550208071809,7.27702558113));
#458 = CARTESIAN_POINT('',(2.594395474264,7.232576677944));
#459 = CARTESIAN_POINT('',(2.638212913991,7.190758676719));
#460 = CARTESIAN_POINT('',(2.759590235304,7.082767826331));
#461 = CARTESIAN_POINT('',(2.836680826426,7.023232217798));
#462 = CARTESIAN_POINT('',(2.913201486044,6.976344940816));
#463 = CARTESIAN_POINT('',(2.989368957744,6.944285942893));
#464 = CARTESIAN_POINT('',(3.065412144467,6.928203230276));
#465 = CARTESIAN_POINT('',(3.181900396279,6.928203230276));
#466 = CARTESIAN_POINT('',(3.222200712105,6.932705526774));
#467 = CARTESIAN_POINT('',(3.262519380585,6.941708179758));
#468 = CARTESIAN_POINT('',(3.302879531955,6.955115251077));
#469 = CARTESIAN_POINT('',(3.343302412559,6.972741594709));
#470 = CARTESIAN_POINT('',(3.419926563742,7.013556718429));
#471 = CARTESIAN_POINT('',(3.456108861615,7.035935298226));
#472 = CARTESIAN_POINT('',(3.492390812034,7.061274145852));
#473 = CARTESIAN_POINT('',(3.528805749706,7.089353489779));
#474 = CARTESIAN_POINT('',(3.565386233646,7.119916605307));
#475 = CARTESIAN_POINT('',(3.680695519484,7.222614158798));
#476 = CARTESIAN_POINT('',(3.76001747291,7.302453812568));
#477 = CARTESIAN_POINT('',(3.840787807584,7.389611409381));
#478 = CARTESIAN_POINT('',(3.923637126753,7.481106722125));
#479 = CARTESIAN_POINT('',(4.009207620999,7.573152006184));
#480 = CARTESIAN_POINT('',(4.152231959216,7.713834421579));
#481 = CARTESIAN_POINT('',(4.207660669241,7.765460919209));
#482 = CARTESIAN_POINT('',(4.264540557322,7.814305534164));
#483 = CARTESIAN_POINT('',(4.32290866738,7.858935603422));
#484 = CARTESIAN_POINT('',(4.382828548592,7.897852814878));
#485 = CARTESIAN_POINT('',(4.48772502715,7.951896159591));
#486 = CARTESIAN_POINT('',(4.531840631351,7.970642937573));
#487 = CARTESIAN_POINT('',(4.576540814421,7.985183171752));
#488 = CARTESIAN_POINT('',(4.621643771782,7.99505172947));
#489 = CARTESIAN_POINT('',(4.666982188829,8.));
#490 = CARTESIAN_POINT('',(4.712388980385,8.));
#491 = ( GEOMETRIC_REPRESENTATION_CONTEXT(2) 
PARAMETRIC_REPRESENTATION_CONTEXT() REPRESENTATION_CONTEXT('2D SPACE',''
  ) );
#492 = ADVANCED_FACE('',(#493),#143,.T.);
#493 = FACE_BOUND('',#494,.T.);
#494 = EDGE_LOOP('',(#495,#518,#545,#546,#547,#548));
#495 = ORIENTED_EDGE('',*,*,#496,.T.);
#496 = EDGE_CURVE('',#80,#497,#499,.T.);
#497 = VERTEX_POINT('',#498);
#498 = CARTESIAN_POINT('',(246.,500.,16.));
#499 = SEAM_CURVE('',#500,(#504,#511),.PCURVE_S1.);
#500 = LINE('',#501,#502);
#501 = CARTESIAN_POINT('',(246.,500.,0.));
#502 = VECTOR('',#503,1.);
#503 = DIRECTION('',(0.,0.,1.));
#504 = PCURVE('',#143,#505);
#505 = DEFINITIONAL_REPRESENTATION('',(#506),#510);
#506 = LINE('',#507,#508);
#507 = CARTESIAN_POINT('',(6.28318530718,-0.));
#508 = VECTOR('',#509,1.);
#509 = DIRECTION('',(0.,1.));
#510 = ( GEOMETRIC_REPRESENTATION_CONTEXT(2) 
PARAMETRIC_REPRESENTATION_CONTEXT() REPRESENTATION_CONTEXT('2D SPACE',''
  ) );
#511 = PCURVE('',#143,#512);
#512 = DEFINITIONAL_REPRESENTATION('',(#513),#517);
#513 = LINE('',#514,#515);
#514 = CARTESIAN_POINT('',(0.,-0.));
#515 = VECTOR('',#516,1.);
#516 = DIRECTION('',(0.,1.));
#517 = ( GEOMETRIC_REPRESENTATION_CONTEXT(2) 
PARAMETRIC_REPRESENTATION_CONTEXT() REPRESENTATION_CONTEXT('2D SPACE',''
  ) );
#518 = ORIENTED_EDGE('',*,*,#519,.F.);
#519 = EDGE_CURVE('',#497,#497,#520,.T.);
#520 = SURFACE_CURVE('',#521,(#526,#533),.PCURVE_S1.);
#521 = CIRCLE('',#522,4.);
#522 = AXIS2_PLACEMENT_3D('',#523,#524,#525);
#523 = CARTESIAN_POINT('',(250.,500.,16.));
#524 = DIRECTION('',(0.,0.,1.));
#525 = DIRECTION('',(-1.,0.,0.));
#526 = PCURVE('',#143,#527);
#527 = DEFINITIONAL_REPRESENTATION('',(#528),#532);
#528 = LINE('',#529,#530);
#529 = CARTESIAN_POINT('',(0.,16.));
#530 = VECTOR('',#531,1.);
#531 = DIRECTION('',(1.,0.));
#532 = ( GEOMETRIC_REPRESENTATION_CONTEXT(2) 
PARAMETRIC_REPRESENTATION_CONTEXT() REPRESENTATION_CONTEXT('2D SPACE',''
  ) );
#533 = PCURVE('',#534,#539);
#534 = PLANE('',#535);
#535 = AXIS2_PLACEMENT_3D('',#536,#537,#538);
#536 = CARTESIAN_POINT('',(250.,500.,16.));
#537 = DIRECTION('',(0.,0.,1.));
#538 = DIRECTION('',(-1.,0.,0.));
#539 = DEFINITIONAL_REPRESENTATION('',(#540),#544);
#540 = CIRCLE('',#541,4.);
#541 = AXIS2_PLACEMENT_2D('',#542,#543);
#542 = CARTESIAN_POINT('',(0.,0.));
#543 = DIRECTION('',(1.,0.));
#544 = ( GEOMETRIC_REPRESENTATION_CONTEXT(2) 
PARAMETRIC_REPRESENTATION_CONTEXT() REPRESENTATION_CONTEXT('2D SPACE',''
  ) );
#545 = ORIENTED_EDGE('',*,*,#496,.F.);
#546 = ORIENTED_EDGE('',*,*,#79,.T.);
#547 = ORIENTED_EDGE('',*,*,#325,.T.);
#548 = ORIENTED_EDGE('',*,*,#179,.T.);
#549 = ADVANCED_FACE('',(#550),#312,.F.);
#550 = FACE_BOUND('',#551,.T.);
#551 = EDGE_LOOP('',(#552));
#552 = ORIENTED_EDGE('',*,*,#297,.F.);
#553 = ADVANCED_FACE('',(#554),#66,.T.);
#554 = FACE_BOUND('',#555,.T.);
#555 = EDGE_LOOP('',(#556));
#556 = ORIENTED_EDGE('',*,*,#51,.T.);
#557 = ADVANCED_FACE('',(#558),#534,.T.);
#558 = FACE_BOUND('',#559,.T.);
#559 = EDGE_LOOP('',(#560));
#560 = ORIENTED_EDGE('',*,*,#519,.T.);
#561 = ( GEOMETRIC_REPRESENTATION_CONTEXT(3) 
GLOBAL_UNCERTAINTY_ASSIGNED_CONTEXT((#565)) GLOBAL_UNIT_ASSIGNED_CONTEXT
((#562,#563,#564)) REPRESENTATION_CONTEXT('Context #1',
  '3D Context with UNIT and UNCERTAINTY') );
#562 = ( LENGTH_UNIT() NAMED_UNIT(*) SI_UNIT(.MILLI.,.METRE.) );
#563 = ( NAMED_UNIT(*) PLANE_ANGLE_UNIT() SI_UNIT($,.RADIAN.) );
#564 = ( NAMED_UNIT(*) SI_UNIT($,.STERADIAN.) SOLID_ANGLE_UNIT() );
#565 = UNCERTAINTY_MEASURE_WITH_UNIT(LENGTH_MEASURE(1.E-07),#562,
  'distance_accuracy_value','confusion accuracy');
#566 = PRODUCT_RELATED_PRODUCT_CATEGORY('part',$,(#7));
ENDSEC;
END-ISO-10303-21;
