ISO-10303-21;
HEADER;
FILE_DESCRIPTION(('Open CASCADE Model'),'2;1');
FILE_NAME('Open CASCADE Shape Model','2026-09-26T15:31:58',('Author'),(
    'Open CASCADE'),'Open CASCADE STEP processor 7.8','Open CASCADE 7.8'
  ,'Unknown');
FILE_SCHEMA(('AUTOMOTIVE_DESIGN { 1 0 10303 214 1 1 1 1 }'));
ENDSEC;
DATA;
#1 = APPLICATION_PROTOCOL_DEFINITION('international standard',
  'automotive_design',2000,#2);
#2 = APPLICATION_CONTEXT(
  'core data for automotive mechanical design processes');
#3 = SHAPE_DEFINITION_REPRESENTATION(#4,#10);
#4 = PRODUCT_DEFINITION_SHAPE('','',#5);
#5 = PRODUCT_DEFINITION('design','',#6,#9);
#6 = PRODUCT_DEFINITION_FORMATION('','',#7);
#7 = PRODUCT('Open CASCADE STEP translator 7.8 1',
  'Open CASCADE STEP translator 7.8 1','',(#8));
#8 = PRODUCT_CONTEXT('',#2,'mechanical');
#9 = PRODUCT_DEFINITION_CONTEXT('part definition',#2,'design');
#10 = ADVANCED_BREP_SHAPE_REPRESENTATION('',(#11,#15),#561);
#11 = AXIS2_PLACEMENT_3D('',#12,#13,#14);
#12 = CARTESIAN_POINT('',(0.,0.,0.));
#13 = DIRECTION('',(0.,0.,1.));
#14 = DIRECTION('',(1.,0.,-0.));
#15 = MANIFOLD_SOLID_BREP('',#16);
#16 = CLOSED_SHELL('',(#17,#492,#549,#553,#557));
#17 = ADVANCED_FACE('',(#18),#32,.T.);
#18 = FACE_BOUND('',#19,.T.);
#19 = EDGE_LOOP('',(#20,#50,#77,#78,#178,#273,#296,#323,#324));
#20 = ORIENTED_EDGE('',*,*,#21,.T.);
#21 = EDGE_CURVE('',#22,#24,#26,.T.);
#22 = VERTEX_POINT('',#23);
#23 = CARTESIAN_POINT('',(6.579425E+04,-3.22685E+04,1.6388125E+04));
#24 = VERTEX_POINT('',#25);
#25 = CARTESIAN_POINT('',(6.579425E+04,-3.22685E+04,1.6396125E+04));
#26 = SEAM_CURVE('',#27,(#31,#43),.PCURVE_S1.);
#27 = LINE('',#28,#29);
#28 = CARTESIAN_POINT('',(6.579425E+04,-3.22685E+04,1.6372125E+04));
#29 = VECTOR('',#30,1.);
#30 = DIRECTION('',(0.,0.,1.));
#31 = PCURVE('',#32,#37);
#32 = CYLINDRICAL_SURFACE('',#33,8.);
#33 = AXIS2_PLACEMENT_3D('',#34,#35,#36);
#34 = CARTESIAN_POINT('',(6.578625E+04,-3.22685E+04,1.6372125E+04));
#35 = DIRECTION('',(0.,0.,1.));
#36 = DIRECTION('',(1.,0.,0.));
#37 = DEFINITIONAL_REPRESENTATION('',(#38),#42);
#38 = LINE('',#39,#40);
#39 = CARTESIAN_POINT('',(6.28318530718,-0.));
#40 = VECTOR('',#41,1.);
#41 = DIRECTION('',(0.,1.));
#42 = ( GEOMETRIC_REPRESENTATION_CONTEXT(2) 
PARAMETRIC_REPRESENTATION_CONTEXT() REPRESENTATION_CONTEXT('2D SPACE',''
  ) );
#43 = PCURVE('',#32,#44);
#44 = DEFINITIONAL_REPRESENTATION('',(#45),#49);
#45 = LINE('',#46,#47);
#46 = CARTESIAN_POINT('',(0.,-0.));
#47 = VECTOR('',#48,1.);
#48 = DIRECTION('',(0.,1.));
#49 = ( GEOMETRIC_REPRESENTATION_CONTEXT(2) 
PARAMETRIC_REPRESENTATION_CONTEXT() REPRESENTATION_CONTEXT('2D SPACE',''
  ) );
#50 = ORIENTED_EDGE('',*,*,#51,.F.);
#51 = EDGE_CURVE('',#24,#24,#52,.T.);
#52 = SURFACE_CURVE('',#53,(#58,#65),.PCURVE_S1.);
#53 = CIRCLE('',#54,8.);
#54 = AXIS2_PLACEMENT_3D('',#55,#56,#57);
#55 = CARTESIAN_POINT('',(6.578625E+04,-3.22685E+04,1.6396125E+04));
#56 = DIRECTION('',(0.,0.,1.));
#57 = DIRECTION('',(1.,0.,0.));
#58 = PCURVE('',#32,#59);
#59 = DEFINITIONAL_REPRESENTATION('',(#60),#64);
#60 = LINE('',#61,#62);
#61 = CARTESIAN_POINT('',(0.,24.));
#62 = VECTOR('',#63,1.);
#63 = DIRECTION('',(1.,0.));
#64 = ( GEOMETRIC_REPRESENTATION_CONTEXT(2) 
PARAMETRIC_REPRESENTATION_CONTEXT() REPRESENTATION_CONTEXT('2D SPACE',''
  ) );
#65 = PCURVE('',#66,#71);
#66 = PLANE('',#67);
#67 = AXIS2_PLACEMENT_3D('',#68,#69,#70);
#68 = CARTESIAN_POINT('',(6.578625E+04,-3.22685E+04,1.6396125E+04));
#69 = DIRECTION('',(0.,0.,1.));
#70 = DIRECTION('',(1.,0.,0.));
#71 = DEFINITIONAL_REPRESENTATION('',(#72),#76);
#72 = CIRCLE('',#73,8.);
#73 = AXIS2_PLACEMENT_2D('',#74,#75);
#74 = CARTESIAN_POINT('',(0.,0.));
#75 = DIRECTION('',(1.,0.));
#76 = ( GEOMETRIC_REPRESENTATION_CONTEXT(2) 
PARAMETRIC_REPRESENTATION_CONTEXT() REPRESENTATION_CONTEXT('2D SPACE',''
  ) );
#77 = ORIENTED_EDGE('',*,*,#21,.F.);
#78 = ORIENTED_EDGE('',*,*,#79,.F.);
#79 = EDGE_CURVE('',#80,#22,#82,.T.);
#80 = VERTEX_POINT('',#81);
#81 = CARTESIAN_POINT('',(6.579317820323E+04,-3.22645E+04,1.6384125E+04)
  );
#82 = SURFACE_CURVE('',#83,(#111,#142),.PCURVE_S1.);
#83 = B_SPLINE_CURVE_WITH_KNOTS('',6,(#84,#85,#86,#87,#88,#89,#90,#91,
    #92,#93,#94,#95,#96,#97,#98,#99,#100,#101,#102,#103,#104,#105,#106,
    #107,#108,#109,#110),.UNSPECIFIED.,.F.,.F.,(7,5,5,5,5,7),(0.,
    0.328303837569,0.514557566536,0.658808539364,0.859099422896,1.),
  .UNSPECIFIED.);
#84 = CARTESIAN_POINT('',(6.579317820323E+04,-3.22645E+04,1.6384125E+04)
  );
#85 = CARTESIAN_POINT('',(6.579317820323E+04,-3.22645E+04,
    1.638443020318E+04));
#86 = CARTESIAN_POINT('',(6.579319433677E+04,-3.226452794421E+04,
    1.638473485316E+04));
#87 = CARTESIAN_POINT('',(6.579322649645E+04,-3.226458364595E+04,
    1.63850368031E+04));
#88 = CARTESIAN_POINT('',(6.579327352721E+04,-3.226466705871E+04,
    1.638533383794E+04));
#89 = CARTESIAN_POINT('',(6.579333323618E+04,-3.226477819947E+04,
    1.638562348459E+04));
#90 = CARTESIAN_POINT('',(6.57934420666E+04,-3.22649954439E+04,
    1.638606133377E+04));
#91 = CARTESIAN_POINT('',(6.579348462933E+04,-3.226508299689E+04,
    1.638621666605E+04));
#92 = CARTESIAN_POINT('',(6.579352989301E+04,-3.226517957014E+04,
    1.638636854131E+04));
#93 = CARTESIAN_POINT('',(6.579357733914E+04,-3.226528532859E+04,
    1.638651658383E+04));
#94 = CARTESIAN_POINT('',(6.579362638475E+04,-3.226540048121E+04,
    1.638666031491E+04));
#95 = CARTESIAN_POINT('',(6.579371507904E+04,-3.22656219046E+04,
    1.638690662974E+04));
#96 = CARTESIAN_POINT('',(6.579375435867E+04,-3.226572433735E+04,
    1.638701120052E+04));
#97 = CARTESIAN_POINT('',(6.579379391406E+04,-3.226583271089E+04,
    1.638711258986E+04));
#98 = CARTESIAN_POINT('',(6.579383341574E+04,-3.226594717557E+04,
    1.63872104762E+04));
#99 = CARTESIAN_POINT('',(6.57938724941E+04,-3.226606788163E+04,
    1.638730446298E+04));
#100 = CARTESIAN_POINT('',(6.579396383442E+04,-3.226637145107E+04,
    1.638751850924E+04));
#101 = CARTESIAN_POINT('',(6.579401546092E+04,-3.226656071233E+04,
    1.638763484179E+04));
#102 = CARTESIAN_POINT('',(6.579406430553E+04,-3.22667626624E+04,
    1.638774128716E+04));
#103 = CARTESIAN_POINT('',(6.57941089356E+04,-3.226697702865E+04,
    1.638783599331E+04));
#104 = CARTESIAN_POINT('',(6.579414785281E+04,-3.226720333392E+04,
    1.63879170082E+04));
#105 = CARTESIAN_POINT('',(6.579420189616E+04,-3.226760794357E+04,
    1.638802810895E+04));
#106 = CARTESIAN_POINT('',(6.579422064294E+04,-3.226778049252E+04,
    1.638806614811E+04));
#107 = CARTESIAN_POINT('',(6.579423518317E+04,-3.226795728144E+04,
    1.638809536636E+04));
#108 = CARTESIAN_POINT('',(6.579424505173E+04,-3.226813701915E+04,
    1.638811510345E+04));
#109 = CARTESIAN_POINT('',(6.579425E+04,-3.226831837283E+04,
    1.6388125E+04));
#110 = CARTESIAN_POINT('',(6.579425E+04,-3.22685E+04,1.6388125E+04));
#111 = PCURVE('',#32,#112);
#112 = DEFINITIONAL_REPRESENTATION('',(#113),#141);
#113 = B_SPLINE_CURVE_WITH_KNOTS('',6,(#114,#115,#116,#117,#118,#119,
    #120,#121,#122,#123,#124,#125,#126,#127,#128,#129,#130,#131,#132,
    #133,#134,#135,#136,#137,#138,#139,#140),.UNSPECIFIED.,.F.,.F.,(7,5,
    5,5,5,7),(0.,0.328303837569,0.514557566536,0.658808539364,
    0.859099422896,1.),.UNSPECIFIED.);
#114 = CARTESIAN_POINT('',(0.523598775598,12.));
#115 = CARTESIAN_POINT('',(0.523598775598,12.305203183234));
#116 = CARTESIAN_POINT('',(0.519565415828,12.609853158926));
#117 = CARTESIAN_POINT('',(0.511525375934,12.911803098929));
#118 = CARTESIAN_POINT('',(0.499556678936,13.208837936759));
#119 = CARTESIAN_POINT('',(0.483792623565,13.498484591041));
#120 = CARTESIAN_POINT('',(0.453420144348,13.936333765094));
#121 = CARTESIAN_POINT('',(0.441252215988,14.091666050249));
#122 = CARTESIAN_POINT('',(0.427922510755,14.243541312178));
#123 = CARTESIAN_POINT('',(0.413436816091,14.391583831893));
#124 = CARTESIAN_POINT('',(0.397795182502,14.535314910744));
#125 = CARTESIAN_POINT('',(0.367979342796,14.78162973562));
#126 = CARTESIAN_POINT('',(0.354267633043,14.886200515669));
#127 = CARTESIAN_POINT('',(0.339849764254,14.987589855994));
#128 = CARTESIAN_POINT('',(0.324717563761,15.085476195275));
#129 = CARTESIAN_POINT('',(0.308861717839,15.179462977926));
#130 = CARTESIAN_POINT('',(0.269235049551,15.39350924391));
#131 = CARTESIAN_POINT('',(0.244721293221,15.509841791087));
#132 = CARTESIAN_POINT('',(0.218766861328,15.616287157495));
#133 = CARTESIAN_POINT('',(0.191419970335,15.710993307358));
#134 = CARTESIAN_POINT('',(0.162736781277,15.792008204857));
#135 = CARTESIAN_POINT('',(0.111711412772,15.903108951875));
#136 = CARTESIAN_POINT('',(9.002240944002E-02,15.941148111887));
#137 = CARTESIAN_POINT('',(6.786086941643E-02,15.970366358705));
#138 = CARTESIAN_POINT('',(4.537260949089E-02,15.990103454721));
#139 = CARTESIAN_POINT('',(2.270339576657E-02,16.));
#140 = CARTESIAN_POINT('',(0.,16.));
#141 = ( GEOMETRIC_REPRESENTATION_CONTEXT(2) 
PARAMETRIC_REPRESENTATION_CONTEXT() REPRESENTATION_CONTEXT('2D SPACE',''
  ) );
#142 = PCURVE('',#143,#148);
#143 = CYLINDRICAL_SURFACE('',#144,4.);
#144 = AXIS2_PLACEMENT_3D('',#145,#146,#147);
#145 = CARTESIAN_POINT('',(6.578625E+04,-3.22685E+04,1.6384125E+04));
#146 = DIRECTION('',(1.,0.,0.));
#147 = DIRECTION('',(0.,1.,0.));
#148 = DEFINITIONAL_REPRESENTATION('',(#149),#177);
#149 = B_SPLINE_CURVE_WITH_KNOTS('',6,(#150,#151,#152,#153,#154,#155,
    #156,#157,#158,#159,#160,#161,#162,#163,#164,#165,#166,#167,#168,
    #169,#170,#171,#172,#173,#174,#175,#176),.UNSPECIFIED.,.F.,.F.,(7,5,
    5,5,5,7),(0.,0.328303837569,0.514557566536,0.658808539364,
    0.859099422896,1.),.UNSPECIFIED.);
#150 = CARTESIAN_POINT('',(0.,6.928203230276));
#151 = CARTESIAN_POINT('',(7.630079580861E-02,6.928203230276));
#152 = CARTESIAN_POINT('',(0.152463231017,6.944336768567));
#153 = CARTESIAN_POINT('',(0.228750545383,6.976496447786));
#154 = CARTESIAN_POINT('',(0.305392989282,7.023527208905));
#155 = CARTESIAN_POINT('',(0.382608627855,7.083236178394));
#156 = CARTESIAN_POINT('',(0.504803922097,7.192066596305));
#157 = CARTESIAN_POINT('',(0.549318936933,7.23462932791));
#158 = CARTESIAN_POINT('',(0.594217997536,7.279893010528));
#159 = CARTESIAN_POINT('',(0.639600611897,7.327339144916));
#160 = CARTESIAN_POINT('',(0.685569087853,7.376384754259));
#161 = CARTESIAN_POINT('',(0.768371303942,7.465079039056));
#162 = CARTESIAN_POINT('',(0.804933047892,7.50435867125));
#163 = CARTESIAN_POINT('',(0.841981274511,7.543914058352));
#164 = CARTESIAN_POINT('',(0.879575975533,7.583415740715));
#165 = CARTESIAN_POINT('',(0.917778451639,7.622494098685));
#166 = CARTESIAN_POINT('',(1.010639305588,7.713834421542));
#167 = CARTESIAN_POINT('',(1.066068015669,7.76546091923));
#168 = CARTESIAN_POINT('',(1.122947903768,7.814305534196));
#169 = CARTESIAN_POINT('',(1.1813160138,7.858935603416));
#170 = CARTESIAN_POINT('',(1.241235894956,7.897852814854));
#171 = CARTESIAN_POINT('',(1.346132373587,7.951896159605));
#172 = CARTESIAN_POINT('',(1.390247977752,7.970642937562));
#173 = CARTESIAN_POINT('',(1.434948160803,7.985183171746));
#174 = CARTESIAN_POINT('',(1.480051118192,7.995051729476));
#175 = CARTESIAN_POINT('',(1.525389535262,8.));
#176 = CARTESIAN_POINT('',(1.570796326795,8.));
#177 = ( GEOMETRIC_REPRESENTATION_CONTEXT(2) 
PARAMETRIC_REPRESENTATION_CONTEXT() REPRESENTATION_CONTEXT('2D SPACE',''
  ) );
#178 = ORIENTED_EDGE('',*,*,#179,.F.);
#179 = EDGE_CURVE('',#180,#80,#182,.T.);
#180 = VERTEX_POINT('',#181);
#181 = CARTESIAN_POINT('',(6.579425E+04,-3.22685E+04,1.6380125E+04));
#182 = SURFACE_CURVE('',#183,(#211,#242),.PCURVE_S1.);
#183 = B_SPLINE_CURVE_WITH_KNOTS('',6,(#184,#185,#186,#187,#188,#189,
    #190,#191,#192,#193,#194,#195,#196,#197,#198,#199,#200,#201,#202,
    #203,#204,#205,#206,#207,#208,#209,#210),.UNSPECIFIED.,.F.,.F.,(7,5,
    5,5,5,7),(0.,0.236611568157,0.343228057719,0.488628670443,
    0.672075815186,1.),.UNSPECIFIED.);
#184 = CARTESIAN_POINT('',(6.579425E+04,-3.22685E+04,1.6380125E+04));
#185 = CARTESIAN_POINT('',(6.579425E+04,-3.226819369241E+04,
    1.6380125E+04));
#186 = CARTESIAN_POINT('',(6.579423592618E+04,-3.226789013082E+04,
    1.638015314755E+04));
#187 = CARTESIAN_POINT('',(6.579420825284E+04,-3.226759420772E+04,
    1.638020849478E+04));
#188 = CARTESIAN_POINT('',(6.579416875497E+04,-3.226731064325E+04,
    1.638028860286E+04));
#189 = CARTESIAN_POINT('',(6.579412038593E+04,-3.226704369233E+04,
    1.638038955206E+04));
#190 = CARTESIAN_POINT('',(6.579404237872E+04,-3.226668567119E+04,
    1.638055802402E+04));
#191 = CARTESIAN_POINT('',(6.579401693276E+04,-3.226657801272E+04,
    1.638061369289E+04));
#192 = CARTESIAN_POINT('',(6.579399048346E+04,-3.22664739112E+04,
    1.638067242271E+04));
#193 = CARTESIAN_POINT('',(6.579396323179E+04,-3.22663733586E+04,
    1.638073395889E+04));
#194 = CARTESIAN_POINT('',(6.579393536689E+04,-3.226627633557E+04,
    1.638079806733E+04));
#195 = CARTESIAN_POINT('',(6.579386846688E+04,-3.22660552669E+04,
    1.638095517913E+04));
#196 = CARTESIAN_POINT('',(6.579382904698E+04,-3.226593420115E+04,
    1.638105023048E+04));
#197 = CARTESIAN_POINT('',(6.57937892251E+04,-3.226581946058E+04,
    1.638114921035E+04));
#198 = CARTESIAN_POINT('',(6.579374937682E+04,-3.226571089117E+04,
    1.63812517176E+04));
#199 = CARTESIAN_POINT('',(6.579370983673E+04,-3.226560833959E+04,
    1.638135742772E+04));
#200 = CARTESIAN_POINT('',(6.579362177941E+04,-3.226538966855E+04,
    1.638160319214E+04));
#201 = CARTESIAN_POINT('',(6.57935736113E+04,-3.226527699778E+04,
    1.638174502149E+04));
#202 = CARTESIAN_POINT('',(6.579352702558E+04,-3.226517341996E+04,
    1.638189100478E+04));
#203 = CARTESIAN_POINT('',(6.579348257668E+04,-3.226507873849E+04,
    1.638204068801E+04));
#204 = CARTESIAN_POINT('',(6.579344075868E+04,-3.226499279809E+04,
    1.638219371293E+04));
#205 = CARTESIAN_POINT('',(6.579333276783E+04,-3.226477732792E+04,
    1.638262878978E+04));
#206 = CARTESIAN_POINT('',(6.579327323222E+04,-3.226466653548E+04,
    1.638291802692E+04));
#207 = CARTESIAN_POINT('',(6.579322634494E+04,-3.226458338353E+04,
    1.638321461931E+04));
#208 = CARTESIAN_POINT('',(6.579319428594E+04,-3.226452785618E+04,
    1.638351610498E+04));
#209 = CARTESIAN_POINT('',(6.579317820323E+04,-3.22645E+04,
    1.638382027796E+04));
#210 = CARTESIAN_POINT('',(6.579317820323E+04,-3.22645E+04,1.6384125E+04
    ));
#211 = PCURVE('',#32,#212);
#212 = DEFINITIONAL_REPRESENTATION('',(#213),#241);
#213 = B_SPLINE_CURVE_WITH_KNOTS('',6,(#214,#215,#216,#217,#218,#219,
    #220,#221,#222,#223,#224,#225,#226,#227,#228,#229,#230,#231,#232,
    #233,#234,#235,#236,#237,#238,#239,#240),.UNSPECIFIED.,.F.,.F.,(7,5,
    5,5,5,7),(0.,0.236611568157,0.343228057719,0.488628670443,
    0.672075815186,1.),.UNSPECIFIED.);
#214 = CARTESIAN_POINT('',(0.,8.));
#215 = CARTESIAN_POINT('',(3.828844902572E-02,8.));
#216 = CARTESIAN_POINT('',(7.623371254342E-02,8.028147551006));
#217 = CARTESIAN_POINT('',(0.113324815953,8.083494779731));
#218 = CARTESIAN_POINT('',(0.149065308683,8.163602864848));
#219 = CARTESIAN_POINT('',(0.182956449055,8.264552058194));
#220 = CARTESIAN_POINT('',(0.228759058987,8.433024018078));
#221 = CARTESIAN_POINT('',(0.242585023043,8.488692889025));
#222 = CARTESIAN_POINT('',(0.256008445294,8.547422708951));
#223 = CARTESIAN_POINT('',(0.269028678803,8.608958885559));
#224 = CARTESIAN_POINT('',(0.281645551629,8.673067334568));
#225 = CARTESIAN_POINT('',(0.310516753718,8.830179126198));
#226 = CARTESIAN_POINT('',(0.326428504586,8.925230481629));
#227 = CARTESIAN_POINT('',(0.341606347466,9.024210346201));
#228 = CARTESIAN_POINT('',(0.356059774407,9.126717601013));
#229 = CARTESIAN_POINT('',(0.369797029364,9.232427722486));
#230 = CARTESIAN_POINT('',(0.399263937023,9.478192139448));
#231 = CARTESIAN_POINT('',(0.414577417258,9.6200214859));
#232 = CARTESIAN_POINT('',(0.428770605955,9.76600477527));
#233 = CARTESIAN_POINT('',(0.441843083615,9.915688013288));
#234 = CARTESIAN_POINT('',(0.453789068368,10.068712926188));
#235 = CARTESIAN_POINT('',(0.48391625151,10.503789782985));
#236 = CARTESIAN_POINT('',(0.49963175388,10.793026916697));
#237 = CARTESIAN_POINT('',(0.511563253589,11.089619307592));
#238 = CARTESIAN_POINT('',(0.519578122007,11.391104982851));
#239 = CARTESIAN_POINT('',(0.523598775598,11.695277963519));
#240 = CARTESIAN_POINT('',(0.523598775598,12.));
#241 = ( GEOMETRIC_REPRESENTATION_CONTEXT(2) 
PARAMETRIC_REPRESENTATION_CONTEXT() REPRESENTATION_CONTEXT('2D SPACE',''
  ) );
#242 = PCURVE('',#143,#243);
#243 = DEFINITIONAL_REPRESENTATION('',(#244),#272);
#244 = B_SPLINE_CURVE_WITH_KNOTS('',6,(#245,#246,#247,#248,#249,#250,
    #251,#252,#253,#254,#255,#256,#257,#258,#259,#260,#261,#262,#263,
    #264,#265,#266,#267,#268,#269,#270,#271),.UNSPECIFIED.,.F.,.F.,(7,5,
    5,5,5,7),(0.,0.236611568157,0.343228057719,0.488628670443,
    0.672075815186,1.),.UNSPECIFIED.);
#245 = CARTESIAN_POINT('',(4.712388980385,8.));
#246 = CARTESIAN_POINT('',(4.788965878436,8.));
#247 = CARTESIAN_POINT('',(4.864856212726,7.98592617514));
#248 = CARTESIAN_POINT('',(4.939645634196,7.958252844722));
#249 = CARTESIAN_POINT('',(5.012887933588,7.918754973304));
#250 = CARTESIAN_POINT('',(5.084019502042,7.870385933322));
#251 = CARTESIAN_POINT('',(5.182939272931,7.792378722087));
#252 = CARTESIAN_POINT('',(5.213218016963,7.766932755659));
#253 = CARTESIAN_POINT('',(5.243070168002,7.740483461973));
#254 = CARTESIAN_POINT('',(5.27251512473,7.713231792475));
#255 = CARTESIAN_POINT('',(5.301570844225,7.685366886076));
#256 = CARTESIAN_POINT('',(5.369373622605,7.618466879984));
#257 = CARTESIAN_POINT('',(5.407810067931,7.579046978841));
#258 = CARTESIAN_POINT('',(5.44563414514,7.539225100218));
#259 = CARTESIAN_POINT('',(5.48290847298,7.499376820518));
#260 = CARTESIAN_POINT('',(5.519694287854,7.459836734361));
#261 = CARTESIAN_POINT('',(5.601935233481,7.371779412971));
#262 = CARTESIAN_POINT('',(5.647148812397,7.323611296771));
#263 = CARTESIAN_POINT('',(5.691800725395,7.277025581134));
#264 = CARTESIAN_POINT('',(5.73598812786,7.232576677938));
#265 = CARTESIAN_POINT('',(5.77980556758,7.190758676719));
#266 = CARTESIAN_POINT('',(5.901182888891,7.082767826333));
#267 = CARTESIAN_POINT('',(5.978273480021,7.023232217793));
#268 = CARTESIAN_POINT('',(6.054794139632,6.97634494082));
#269 = CARTESIAN_POINT('',(6.13096161133,6.944285942892));
#270 = CARTESIAN_POINT('',(6.207004798059,6.928203230276));
#271 = CARTESIAN_POINT('',(6.28318530718,6.928203230276));
#272 = ( GEOMETRIC_REPRESENTATION_CONTEXT(2) 
PARAMETRIC_REPRESENTATION_CONTEXT() REPRESENTATION_CONTEXT('2D SPACE',''
  ) );
#273 = ORIENTED_EDGE('',*,*,#274,.F.);
#274 = EDGE_CURVE('',#275,#180,#277,.T.);
#275 = VERTEX_POINT('',#276);
#276 = CARTESIAN_POINT('',(6.579425E+04,-3.22685E+04,1.6372125E+04));
#277 = SEAM_CURVE('',#278,(#282,#289),.PCURVE_S1.);
#278 = LINE('',#279,#280);
#279 = CARTESIAN_POINT('',(6.579425E+04,-3.22685E+04,1.6372125E+04));
#280 = VECTOR('',#281,1.);
#281 = DIRECTION('',(0.,0.,1.));
#282 = PCURVE('',#32,#283);
#283 = DEFINITIONAL_REPRESENTATION('',(#284),#288);
#284 = LINE('',#285,#286);
#285 = CARTESIAN_POINT('',(6.28318530718,-0.));
#286 = VECTOR('',#287,1.);
#287 = DIRECTION('',(0.,1.));
#288 = ( GEOMETRIC_REPRESENTATION_CONTEXT(2) 
PARAMETRIC_REPRESENTATION_CONTEXT() REPRESENTATION_CONTEXT('2D SPACE',''
  ) );
#289 = PCURVE('',#32,#290);
#290 = DEFINITIONAL_REPRESENTATION('',(#291),#295);
#291 = LINE('',#292,#293);
#292 = CARTESIAN_POINT('',(0.,-0.));
#293 = VECTOR('',#294,1.);
#294 = DIRECTION('',(0.,1.));
#295 = ( GEOMETRIC_REPRESENTATION_CONTEXT(2) 
PARAMETRIC_REPRESENTATION_CONTEXT() REPRESENTATION_CONTEXT('2D SPACE',''
  ) );
#296 = ORIENTED_EDGE('',*,*,#297,.T.);
#297 = EDGE_CURVE('',#275,#275,#298,.T.);
#298 = SURFACE_CURVE('',#299,(#304,#311),.PCURVE_S1.);
#299 = CIRCLE('',#300,8.);
#300 = AXIS2_PLACEMENT_3D('',#301,#302,#303);
#301 = CARTESIAN_POINT('',(6.578625E+04,-3.22685E+04,1.6372125E+04));
#302 = DIRECTION('',(0.,0.,1.));
#303 = DIRECTION('',(1.,0.,0.));
#304 = PCURVE('',#32,#305);
#305 = DEFINITIONAL_REPRESENTATION('',(#306),#310);
#306 = LINE('',#307,#308);
#307 = CARTESIAN_POINT('',(0.,0.));
#308 = VECTOR('',#309,1.);
#309 = DIRECTION('',(1.,0.));
#310 = ( GEOMETRIC_REPRESENTATION_CONTEXT(2) 
PARAMETRIC_REPRESENTATION_CONTEXT() REPRESENTATION_CONTEXT('2D SPACE',''
  ) );
#311 = PCURVE('',#312,#317);
#312 = PLANE('',#313);
#313 = AXIS2_PLACEMENT_3D('',#314,#315,#316);
#314 = CARTESIAN_POINT('',(6.578625E+04,-3.22685E+04,1.6372125E+04));
#315 = DIRECTION('',(0.,0.,1.));
#316 = DIRECTION('',(1.,0.,0.));
#317 = DEFINITIONAL_REPRESENTATION('',(#318),#322);
#318 = CIRCLE('',#319,8.);
#319 = AXIS2_PLACEMENT_2D('',#320,#321);
#320 = CARTESIAN_POINT('',(0.,0.));
#321 = DIRECTION('',(1.,0.));
#322 = ( GEOMETRIC_REPRESENTATION_CONTEXT(2) 
PARAMETRIC_REPRESENTATION_CONTEXT() REPRESENTATION_CONTEXT('2D SPACE',''
  ) );
#323 = ORIENTED_EDGE('',*,*,#274,.T.);
#324 = ORIENTED_EDGE('',*,*,#325,.F.);
#325 = EDGE_CURVE('',#22,#180,#326,.T.);
#326 = SURFACE_CURVE('',#327,(#380,#436),.PCURVE_S1.);
#327 = B_SPLINE_CURVE_WITH_KNOTS('',6,(#328,#329,#330,#331,#332,#333,
    #334,#335,#336,#337,#338,#339,#340,#341,#342,#343,#344,#345,#346,
    #347,#348,#349,#350,#351,#352,#353,#354,#355,#356,#357,#358,#359,
    #360,#361,#362,#363,#364,#365,#366,#367,#368,#369,#370,#371,#372,
    #373,#374,#375,#376,#377,#378,#379),.UNSPECIFIED.,.F.,.F.,(7,5,5,5,5
    ,5,5,5,5,5,7),(0.,0.118322562196,0.171638367151,0.244348983871,
    0.336085564475,0.500070909989,0.586836923863,0.66420499433,
    0.82939769585,0.929546996647,1.),.UNSPECIFIED.);
#328 = CARTESIAN_POINT('',(6.579425E+04,-3.22685E+04,1.6388125E+04));
#329 = CARTESIAN_POINT('',(6.579425E+04,-3.226880630759E+04,
    1.6388125E+04));
#330 = CARTESIAN_POINT('',(6.579423592618E+04,-3.226910986918E+04,
    1.638809685245E+04));
#331 = CARTESIAN_POINT('',(6.579420825284E+04,-3.226940579228E+04,
    1.638804150522E+04));
#332 = CARTESIAN_POINT('',(6.579416875497E+04,-3.226968935675E+04,
    1.638796139714E+04));
#333 = CARTESIAN_POINT('',(6.579412038593E+04,-3.226995630767E+04,
    1.638786044794E+04));
#334 = CARTESIAN_POINT('',(6.579404237872E+04,-3.227031432881E+04,
    1.638769197598E+04));
#335 = CARTESIAN_POINT('',(6.579401693276E+04,-3.227042198728E+04,
    1.638763630711E+04));
#336 = CARTESIAN_POINT('',(6.579399048346E+04,-3.22705260888E+04,
    1.638757757729E+04));
#337 = CARTESIAN_POINT('',(6.579396323179E+04,-3.22706266414E+04,
    1.638751604111E+04));
#338 = CARTESIAN_POINT('',(6.579393536689E+04,-3.227072366443E+04,
    1.638745193267E+04));
#339 = CARTESIAN_POINT('',(6.579386846688E+04,-3.22709447331E+04,
    1.638729482087E+04));
#340 = CARTESIAN_POINT('',(6.579382904698E+04,-3.227106579885E+04,
    1.638719976952E+04));
#341 = CARTESIAN_POINT('',(6.57937892251E+04,-3.227118053942E+04,
    1.638710078965E+04));
#342 = CARTESIAN_POINT('',(6.579374937682E+04,-3.227128910883E+04,
    1.63869982824E+04));
#343 = CARTESIAN_POINT('',(6.579370983673E+04,-3.227139166041E+04,
    1.638689257228E+04));
#344 = CARTESIAN_POINT('',(6.579362177941E+04,-3.227161033145E+04,
    1.638664680786E+04));
#345 = CARTESIAN_POINT('',(6.57935736113E+04,-3.227172300222E+04,
    1.638650497851E+04));
#346 = CARTESIAN_POINT('',(6.579352702558E+04,-3.227182658004E+04,
    1.638635899522E+04));
#347 = CARTESIAN_POINT('',(6.579348257668E+04,-3.227192126151E+04,
    1.638620931199E+04));
#348 = CARTESIAN_POINT('',(6.579344075868E+04,-3.227200720191E+04,
    1.638605628707E+04));
#349 = CARTESIAN_POINT('',(6.579333276783E+04,-3.227222267208E+04,
    1.638562121022E+04));
#350 = CARTESIAN_POINT('',(6.579327323222E+04,-3.227233346452E+04,
    1.638533197308E+04));
#351 = CARTESIAN_POINT('',(6.579322634494E+04,-3.227241661647E+04,
    1.638503538069E+04));
#352 = CARTESIAN_POINT('',(6.579319428594E+04,-3.227247214382E+04,
    1.638473389502E+04));
#353 = CARTESIAN_POINT('',(6.579317820323E+04,-3.22725E+04,
    1.638442972204E+04));
#354 = CARTESIAN_POINT('',(6.579317820323E+04,-3.22725E+04,
    1.638396376903E+04));
#355 = CARTESIAN_POINT('',(6.579318270553E+04,-3.22724922014E+04,
    1.638380256782E+04));
#356 = CARTESIAN_POINT('',(6.579319170818E+04,-3.227247660945E+04,
    1.638364176451E+04));
#357 = CARTESIAN_POINT('',(6.579320511525E+04,-3.227245323457E+04,
    1.638348173776E+04));
#358 = CARTESIAN_POINT('',(6.579322274159E+04,-3.227242209771E+04,
    1.638332287718E+04));
#359 = CARTESIAN_POINT('',(6.579326355672E+04,-3.227234858326E+04,
    1.638302532753E+04));
#360 = CARTESIAN_POINT('',(6.57932859353E+04,-3.227230779045E+04,
    1.638288632504E+04));
#361 = CARTESIAN_POINT('',(6.579331127415E+04,-3.227226086378E+04,
    1.638274877683E+04));
#362 = CARTESIAN_POINT('',(6.579333935349E+04,-3.227220779806E+04,
    1.638261290263E+04));
#363 = CARTESIAN_POINT('',(6.579336991661E+04,-3.227214858002E+04,
    1.638247894183E+04));
#364 = CARTESIAN_POINT('',(6.579347261416E+04,-3.227194357786E+04,
    1.638206576654E+04));
#365 = CARTESIAN_POINT('',(6.579355245381E+04,-3.227177603984E+04,
    1.638179469853E+04));
#366 = CARTESIAN_POINT('',(6.579363961141E+04,-3.227157995129E+04,
    1.638153521187E+04));
#367 = CARTESIAN_POINT('',(6.579373110672E+04,-3.227135391162E+04,
    1.638128950823E+04));
#368 = CARTESIAN_POINT('',(6.579382315201E+04,-3.227109610675E+04,
    1.638106116493E+04));
#369 = CARTESIAN_POINT('',(6.579396383442E+04,-3.227062854893E+04,
    1.638073149076E+04));
#370 = CARTESIAN_POINT('',(6.579401546092E+04,-3.227043928767E+04,
    1.638061515821E+04));
#371 = CARTESIAN_POINT('',(6.579406430553E+04,-3.22702373376E+04,
    1.638050871284E+04));
#372 = CARTESIAN_POINT('',(6.57941089356E+04,-3.227002297135E+04,
    1.638041400669E+04));
#373 = CARTESIAN_POINT('',(6.579414785281E+04,-3.226979666608E+04,
    1.63803329918E+04));
#374 = CARTESIAN_POINT('',(6.579420189616E+04,-3.226939205643E+04,
    1.638022189105E+04));
#375 = CARTESIAN_POINT('',(6.579422064294E+04,-3.226921950748E+04,
    1.638018385189E+04));
#376 = CARTESIAN_POINT('',(6.579423518317E+04,-3.226904271856E+04,
    1.638015463364E+04));
#377 = CARTESIAN_POINT('',(6.579424505173E+04,-3.226886298085E+04,
    1.638013489655E+04));
#378 = CARTESIAN_POINT('',(6.579425E+04,-3.226868162717E+04,
    1.6380125E+04));
#379 = CARTESIAN_POINT('',(6.579425E+04,-3.22685E+04,1.6380125E+04));
#380 = PCURVE('',#32,#381);
#381 = DEFINITIONAL_REPRESENTATION('',(#382),#435);
#382 = B_SPLINE_CURVE_WITH_KNOTS('',6,(#383,#384,#385,#386,#387,#388,
    #389,#390,#391,#392,#393,#394,#395,#396,#397,#398,#399,#400,#401,
    #402,#403,#404,#405,#406,#407,#408,#409,#410,#411,#412,#413,#414,
    #415,#416,#417,#418,#419,#420,#421,#422,#423,#424,#425,#426,#427,
    #428,#429,#430,#431,#432,#433,#434),.UNSPECIFIED.,.F.,.F.,(7,5,5,5,5
    ,5,5,5,5,5,7),(0.,0.118322562196,0.171638367151,0.244348983871,
    0.336085564475,0.500070909989,0.586836923863,0.66420499433,
    0.82939769585,0.929546996647,1.),.UNSPECIFIED.);
#383 = CARTESIAN_POINT('',(6.28318530718,16.));
#384 = CARTESIAN_POINT('',(6.244896858154,16.));
#385 = CARTESIAN_POINT('',(6.206951594637,15.971852448994));
#386 = CARTESIAN_POINT('',(6.169860491226,15.916505220266));
#387 = CARTESIAN_POINT('',(6.134119998498,15.836397135155));
#388 = CARTESIAN_POINT('',(6.100228858124,15.735447941804));
#389 = CARTESIAN_POINT('',(6.054426248192,15.566975981918));
#390 = CARTESIAN_POINT('',(6.040600284137,15.511307110976));
#391 = CARTESIAN_POINT('',(6.027176861887,15.452577291054));
#392 = CARTESIAN_POINT('',(6.014156628377,15.391041114443));
#393 = CARTESIAN_POINT('',(6.001539755549,15.326932665427));
#394 = CARTESIAN_POINT('',(5.972668553462,15.169820873803));
#395 = CARTESIAN_POINT('',(5.956756802593,15.074769518371));
#396 = CARTESIAN_POINT('',(5.941578959713,14.975789653798));
#397 = CARTESIAN_POINT('',(5.927125532772,14.873282398987));
#398 = CARTESIAN_POINT('',(5.913388277815,14.767572277515));
#399 = CARTESIAN_POINT('',(5.883921370157,14.521807860561));
#400 = CARTESIAN_POINT('',(5.86860788992,14.379978514086));
#401 = CARTESIAN_POINT('',(5.854414701224,14.233995224732));
#402 = CARTESIAN_POINT('',(5.841342223566,14.084311986728));
#403 = CARTESIAN_POINT('',(5.829396238811,13.931287073801));
#404 = CARTESIAN_POINT('',(5.799269055669,13.496210217016));
#405 = CARTESIAN_POINT('',(5.7835535533,13.206973083304));
#406 = CARTESIAN_POINT('',(5.771622053591,12.910380692405));
#407 = CARTESIAN_POINT('',(5.763607185173,12.608895017151));
#408 = CARTESIAN_POINT('',(5.759586531581,12.304722036481));
#409 = CARTESIAN_POINT('',(5.759586531581,11.838769029256));
#410 = CARTESIAN_POINT('',(5.760712137492,11.677567816791));
#411 = CARTESIAN_POINT('',(5.762962711779,11.516764512541));
#412 = CARTESIAN_POINT('',(5.766331026728,11.356737761586));
#413 = CARTESIAN_POINT('',(5.770803354851,11.197877183335));
#414 = CARTESIAN_POINT('',(5.781313950993,10.900327532612));
#415 = CARTESIAN_POINT('',(5.787129871984,10.761325040356));
#416 = CARTESIAN_POINT('',(5.79379598657,10.623776831644));
#417 = CARTESIAN_POINT('',(5.801300095949,10.487902627023));
#418 = CARTESIAN_POINT('',(5.809629486206,10.35394182671));
#419 = CARTESIAN_POINT('',(5.838290400763,9.940766541398));
#420 = CARTESIAN_POINT('',(5.861484571614,9.669698525446));
#421 = CARTESIAN_POINT('',(5.888292526897,9.410211874077));
#422 = CARTESIAN_POINT('',(5.918743120339,9.164508227086));
#423 = CARTESIAN_POINT('',(5.952917241399,8.936164932349));
#424 = CARTESIAN_POINT('',(6.013950257644,8.606490756008));
#425 = CARTESIAN_POINT('',(6.038464013954,8.490158208957));
#426 = CARTESIAN_POINT('',(6.064418445833,8.383712842573));
#427 = CARTESIAN_POINT('',(6.091765336841,8.289006692624));
#428 = CARTESIAN_POINT('',(6.120448525923,8.207991795098));
#429 = CARTESIAN_POINT('',(6.171473894408,8.096891048124));
#430 = CARTESIAN_POINT('',(6.193162897739,8.058851888115));
#431 = CARTESIAN_POINT('',(6.215324437763,8.029633641293));
#432 = CARTESIAN_POINT('',(6.237812697689,8.009896545279));
#433 = CARTESIAN_POINT('',(6.260481911413,8.));
#434 = CARTESIAN_POINT('',(6.28318530718,8.));
#435 = ( GEOMETRIC_REPRESENTATION_CONTEXT(2) 
PARAMETRIC_REPRESENTATION_CONTEXT() REPRESENTATION_CONTEXT('2D SPACE',''
  ) );
#436 = PCURVE('',#143,#437);
#437 = DEFINITIONAL_REPRESENTATION('',(#438),#491);
#438 = B_SPLINE_CURVE_WITH_KNOTS('',6,(#439,#440,#441,#442,#443,#444,
    #445,#446,#447,#448,#449,#450,#451,#452,#453,#454,#455,#456,#457,
    #458,#459,#460,#461,#462,#463,#464,#465,#466,#467,#468,#469,#470,
    #471,#472,#473,#474,#475,#476,#477,#478,#479,#480,#481,#482,#483,
    #484,#485,#486,#487,#488,#489,#490),.UNSPECIFIED.,.F.,.F.,(7,5,5,5,5
    ,5,5,5,5,5,7),(0.,0.118322562196,0.171638367151,0.244348983871,
    0.336085564475,0.500070909989,0.586836923863,0.66420499433,
    0.82939769585,0.929546996647,1.),.UNSPECIFIED.);
#439 = CARTESIAN_POINT('',(1.570796326795,8.));
#440 = CARTESIAN_POINT('',(1.647373224847,8.));
#441 = CARTESIAN_POINT('',(1.723263559136,7.98592617514));
#442 = CARTESIAN_POINT('',(1.798052980608,7.958252844721));
#443 = CARTESIAN_POINT('',(1.871295279996,7.918754973305));
#444 = CARTESIAN_POINT('',(1.942426848453,7.870385933321));
#445 = CARTESIAN_POINT('',(2.041346619343,7.792378722085));
#446 = CARTESIAN_POINT('',(2.071625363372,7.766932755659));
#447 = CARTESIAN_POINT('',(2.10147751441,7.740483461975));
#448 = CARTESIAN_POINT('',(2.13092247114,7.713231792476));
#449 = CARTESIAN_POINT('',(2.159978190637,7.685366886074));
#450 = CARTESIAN_POINT('',(2.227780969015,7.618466879985));
#451 = CARTESIAN_POINT('',(2.266217414341,7.579046978841));
#452 = CARTESIAN_POINT('',(2.304041491551,7.539225100218));
#453 = CARTESIAN_POINT('',(2.34131581939,7.499376820518));
#454 = CARTESIAN_POINT('',(2.378101634264,7.459836734361));
#455 = CARTESIAN_POINT('',(2.460342579888,7.371779412974));
#456 = CARTESIAN_POINT('',(2.505556158811,7.323611296767));
#457 = CARTESIAN_POINT('',(2.550208071805,7.277025581134));
#458 = CARTESIAN_POINT('',(2.594395474265,7.232576677943));
#459 = CARTESIAN_POINT('',(2.638212913993,7.190758676717));
#460 = CARTESIAN_POINT('',(2.759590235301,7.082767826334));
#461 = CARTESIAN_POINT('',(2.836680826431,7.023232217793));
#462 = CARTESIAN_POINT('',(2.913201486043,6.97634494082));
#463 = CARTESIAN_POINT('',(2.98936895774,6.944285942892));
#464 = CARTESIAN_POINT('',(3.06541214447,6.928203230276));
#465 = CARTESIAN_POINT('',(3.181900396276,6.928203230276));
#466 = CARTESIAN_POINT('',(3.222200712106,6.932705526773));
#467 = CARTESIAN_POINT('',(3.262519380588,6.941708179759));
#468 = CARTESIAN_POINT('',(3.302879531956,6.955115251079));
#469 = CARTESIAN_POINT('',(3.343302412556,6.972741594707));
#470 = CARTESIAN_POINT('',(3.419926563743,7.01355671843));
#471 = CARTESIAN_POINT('',(3.456108861615,7.035935298226));
#472 = CARTESIAN_POINT('',(3.492390812032,7.061274145851));
#473 = CARTESIAN_POINT('',(3.528805749704,7.089353489778));
#474 = CARTESIAN_POINT('',(3.565386233647,7.119916605309));
#475 = CARTESIAN_POINT('',(3.68069551948,7.222614158795));
#476 = CARTESIAN_POINT('',(3.760017472918,7.302453812575));
#477 = CARTESIAN_POINT('',(3.840787807576,7.389611409374));
#478 = CARTESIAN_POINT('',(3.923637126757,7.481106722128));
#479 = CARTESIAN_POINT('',(4.009207620998,7.573152006183));
#480 = CARTESIAN_POINT('',(4.152231959213,7.713834421577));
#481 = CARTESIAN_POINT('',(4.207660669246,7.765460919214));
#482 = CARTESIAN_POINT('',(4.26454055732,7.814305534162));
#483 = CARTESIAN_POINT('',(4.322908667384,7.858935603424));
#484 = CARTESIAN_POINT('',(4.382828548589,7.897852814876));
#485 = CARTESIAN_POINT('',(4.487725027178,7.951896159605));
#486 = CARTESIAN_POINT('',(4.53184063134,7.970642937561));
#487 = CARTESIAN_POINT('',(4.576540814393,7.985183171747));
#488 = CARTESIAN_POINT('',(4.621643771783,7.995051729475));
#489 = CARTESIAN_POINT('',(4.666982188851,8.));
#490 = CARTESIAN_POINT('',(4.712388980385,8.));
#491 = ( GEOMETRIC_REPRESENTATION_CONTEXT(2) 
PARAMETRIC_REPRESENTATION_CONTEXT() REPRESENTATION_CONTEXT('2D SPACE',''
  ) );
#492 = ADVANCED_FACE('',(#493),#143,.T.);
#493 = FACE_BOUND('',#494,.T.);
#494 = EDGE_LOOP('',(#495,#518,#545,#546,#547,#548));
#495 = ORIENTED_EDGE('',*,*,#496,.T.);
#496 = EDGE_CURVE('',#80,#497,#499,.T.);
#497 = VERTEX_POINT('',#498);
#498 = CARTESIAN_POINT('',(6.580225E+04,-3.22645E+04,1.6384125E+04));
#499 = SEAM_CURVE('',#500,(#504,#511),.PCURVE_S1.);
#500 = LINE('',#501,#502);
#501 = CARTESIAN_POINT('',(6.578625E+04,-3.22645E+04,1.6384125E+04));
#502 = VECTOR('',#503,1.);
#503 = DIRECTION('',(1.,0.,0.));
#504 = PCURVE('',#143,#505);
#505 = DEFINITIONAL_REPRESENTATION('',(#506),#510);
#506 = LINE('',#507,#508);
#507 = CARTESIAN_POINT('',(6.28318530718,-0.));
#508 = VECTOR('',#509,1.);
#509 = DIRECTION('',(0.,1.));
#510 = ( GEOMETRIC_REPRESENTATION_CONTEXT(2) 
PARAMETRIC_REPRESENTATION_CONTEXT() REPRESENTATION_CONTEXT('2D SPACE',''
  ) );
#511 = PCURVE('',#143,#512);
#512 = DEFINITIONAL_REPRESENTATION('',(#513),#517);
#513 = LINE('',#514,#515);
#514 = CARTESIAN_POINT('',(0.,-0.));
#515 = VECTOR('',#516,1.);
#516 = DIRECTION('',(0.,1.));
#517 = ( GEOMETRIC_REPRESENTATION_CONTEXT(2) 
PARAMETRIC_REPRESENTATION_CONTEXT() REPRESENTATION_CONTEXT('2D SPACE',''
  ) );
#518 = ORIENTED_EDGE('',*,*,#519,.F.);
#519 = EDGE_CURVE('',#497,#497,#520,.T.);
#520 = SURFACE_CURVE('',#521,(#526,#533),.PCURVE_S1.);
#521 = CIRCLE('',#522,4.);
#522 = AXIS2_PLACEMENT_3D('',#523,#524,#525);
#523 = CARTESIAN_POINT('',(6.580225E+04,-3.22685E+04,1.6384125E+04));
#524 = DIRECTION('',(1.,0.,0.));
#525 = DIRECTION('',(0.,1.,0.));
#526 = PCURVE('',#143,#527);
#527 = DEFINITIONAL_REPRESENTATION('',(#528),#532);
#528 = LINE('',#529,#530);
#529 = CARTESIAN_POINT('',(0.,16.));
#530 = VECTOR('',#531,1.);
#531 = DIRECTION('',(1.,0.));
#532 = ( GEOMETRIC_REPRESENTATION_CONTEXT(2) 
PARAMETRIC_REPRESENTATION_CONTEXT() REPRESENTATION_CONTEXT('2D SPACE',''
  ) );
#533 = PCURVE('',#534,#539);
#534 = PLANE('',#535);
#535 = AXIS2_PLACEMENT_3D('',#536,#537,#538);
#536 = CARTESIAN_POINT('',(6.580225E+04,-3.22685E+04,1.6384125E+04));
#537 = DIRECTION('',(1.,0.,0.));
#538 = DIRECTION('',(0.,1.,0.));
#539 = DEFINITIONAL_REPRESENTATION('',(#540),#544);
#540 = CIRCLE('',#541,4.);
#541 = AXIS2_PLACEMENT_2D('',#542,#543);
#542 = CARTESIAN_POINT('',(0.,0.));
#543 = DIRECTION('',(1.,0.));
#544 = ( GEOMETRIC_REPRESENTATION_CONTEXT(2) 
PARAMETRIC_REPRESENTATION_CONTEXT() REPRESENTATION_CONTEXT('2D SPACE',''
  ) );
#545 = ORIENTED_EDGE('',*,*,#496,.F.);
#546 = ORIENTED_EDGE('',*,*,#79,.T.);
#547 = ORIENTED_EDGE('',*,*,#325,.T.);
#548 = ORIENTED_EDGE('',*,*,#179,.T.);
#549 = ADVANCED_FACE('',(#550),#312,.F.);
#550 = FACE_BOUND('',#551,.T.);
#551 = EDGE_LOOP('',(#552));
#552 = ORIENTED_EDGE('',*,*,#297,.F.);
#553 = ADVANCED_FACE('',(#554),#66,.T.);
#554 = FACE_BOUND('',#555,.T.);
#555 = EDGE_LOOP('',(#556));
#556 = ORIENTED_EDGE('',*,*,#51,.T.);
#557 = ADVANCED_FACE('',(#558),#534,.T.);
#558 = FACE_BOUND('',#559,.T.);
#559 = EDGE_LOOP('',(#560));
#560 = ORIENTED_EDGE('',*,*,#519,.T.);
#561 = ( GEOMETRIC_REPRESENTATION_CONTEXT(3) 
GLOBAL_UNCERTAINTY_ASSIGNED_CONTEXT((#565)) GLOBAL_UNIT_ASSIGNED_CONTEXT
((#562,#563,#564)) REPRESENTATION_CONTEXT('Context #1',
  '3D Context with UNIT and UNCERTAINTY') );
#562 = ( LENGTH_UNIT() NAMED_UNIT(*) SI_UNIT(.MILLI.,.METRE.) );
#563 = ( NAMED_UNIT(*) PLANE_ANGLE_UNIT() SI_UNIT($,.RADIAN.) );
#564 = ( NAMED_UNIT(*) SI_UNIT($,.STERADIAN.) SOLID_ANGLE_UNIT() );
#565 = UNCERTAINTY_MEASURE_WITH_UNIT(LENGTH_MEASURE(1.E-07),#562,
  'distance_accuracy_value','confusion accuracy');
#566 = PRODUCT_RELATED_PRODUCT_CATEGORY('part',$,(#7));
ENDSEC;
END-ISO-10303-21;
