ISO-10303-21;
HEADER;
/* Generated by software containing ST-Developer
 * from STEP Tools, Inc. (www.steptools.com) 
 */
/* OPTION: using custom renumber hook */

FILE_DESCRIPTION(
/* description */ ('STEP AP214',
'CAx-IF Rec.Pracs.---User Defined Attributes---1.5---2016-08-15'),
/* implementation_level */ '2;1');

FILE_NAME(
/* name */ '6ac0306fb4d7d497553efcb2',
/* time_stamp */ '2026-10-02T22:30:10Z',
/* author */ (''),
/* organization */ (''),
/* preprocessor_version */ 'ST-DEVELOPER v20',
/* originating_system */ 'ONSHAPE BY PTC INC, 1.221',
/* authorisation */ '  ');

FILE_SCHEMA (('AUTOMOTIVE_DESIGN {1 0 10303 214 3 1 1}'));
ENDSEC;

DATA;
#10=PROPERTY_DEFINITION_REPRESENTATION(#14,#12);
#11=PROPERTY_DEFINITION_REPRESENTATION(#15,#13);
#12=REPRESENTATION('',(#16),#394);
#13=REPRESENTATION('',(#17),#394);
#14=PROPERTY_DEFINITION('pmi validation property','',#404);
#15=PROPERTY_DEFINITION('pmi validation property','',#404);
#16=VALUE_REPRESENTATION_ITEM('number of annotations',COUNT_MEASURE(0.));
#17=VALUE_REPRESENTATION_ITEM('number of views',COUNT_MEASURE(0.));
#18=LINE('',#366,#30);
#19=LINE('',#369,#31);
#20=LINE('',#371,#32);
#21=LINE('',#373,#33);
#22=LINE('',#375,#34);
#23=LINE('',#377,#35);
#24=LINE('',#379,#36);
#25=LINE('',#381,#37);
#26=LINE('',#383,#38);
#27=LINE('',#385,#39);
#28=LINE('',#387,#40);
#29=LINE('',#388,#41);
#30=VECTOR('',#233,1.);
#31=VECTOR('',#234,1.);
#32=VECTOR('',#235,1.);
#33=VECTOR('',#236,1.);
#34=VECTOR('',#239,1.);
#35=VECTOR('',#240,1.);
#36=VECTOR('',#241,1.);
#37=VECTOR('',#244,1.);
#38=VECTOR('',#245,1.);
#39=VECTOR('',#246,1.);
#40=VECTOR('',#249,1.);
#41=VECTOR('',#250,1.);
#42=SHAPE_REPRESENTATION_RELATIONSHIP('','',#193,#44);
#43=SHAPE_REPRESENTATION_RELATIONSHIP('','',#194,#45);
#44=ADVANCED_BREP_SHAPE_REPRESENTATION('',(#189),#393);
#45=ADVANCED_BREP_SHAPE_REPRESENTATION('',(#190),#394);
#46=(
BOUNDED_SURFACE()
B_SPLINE_SURFACE(3,2,((#307,#308,#309),(#310,#311,#312),(#313,#314,#315),
(#316,#317,#318),(#319,#320,#321),(#322,#323,#324),(#325,#326,#327),(#328,
#329,#330),(#331,#332,#333),(#334,#335,#336),(#337,#338,#339),(#340,#341,
#342),(#343,#344,#345),(#346,#347,#348),(#349,#350,#351),(#352,#353,#354),
(#355,#356,#357),(#358,#359,#360),(#361,#362,#363)),.UNSPECIFIED.,.T.,.F.,
 .F.)
B_SPLINE_SURFACE_WITH_KNOTS((1,3,1,1,1,1,1,1,1,1,1,1,1,1,1,1,1,3,1),(3,
3),(-0.00198850109467445,0.,0.00198850109467445,0.0039770021893489,0.00596550328402335,
0.00795400437869781,0.00994250547337226,0.0119310065680467,0.0139195076627212,
0.0159080087573956,0.0178965098520701,0.0198850109467445,0.021873512041419,
0.0238620131360934,0.0258505142307679,0.0278390153254423,0.0298275164201168,
0.0318160175147912,0.0338045186094657),(0.,1.),.UNSPECIFIED.)
GEOMETRIC_REPRESENTATION_ITEM()
RATIONAL_B_SPLINE_SURFACE(((1.,0.736971000592444,1.),(1.,0.719263896809415,
1.),(1.,0.695703359699753,1.),(1.,0.728848799124486,1.),(1.,0.799367453374986,
1.),(1.,0.862955329256689,1.),(1.,0.890852026544593,1.),(1.,0.865079670575143,
1.),(1.,0.802116214355677,1.),(1.,0.731319301594825,1.),(1.,0.695637266061829,
1.),(1.,0.728841784130971,1.),(1.,0.799485641901191,1.),(1.,0.863188511115091,
1.),(1.,0.890798650293697,1.),(1.,0.865060218475707,1.),(1.,0.801945982397927,
1.),(1.,0.754678104375473,1.),(1.,0.736971000592444,1.)))
REPRESENTATION_ITEM('')
SURFACE()
);
#47=PLANE('',#199);
#48=PLANE('',#200);
#49=PLANE('',#203);
#50=PLANE('',#205);
#51=PLANE('',#206);
#52=PLANE('',#207);
#53=PLANE('',#208);
#54=PLANE('',#209);
#55=PLANE('',#210);
#56=CIRCLE('',#197,0.008);
#57=CIRCLE('',#198,0.008);
#58=CIRCLE('',#202,0.004);
#59=ORIENTED_EDGE('',*,*,#93,.T.);
#60=ORIENTED_EDGE('',*,*,#94,.F.);
#61=ORIENTED_EDGE('',*,*,#95,.T.);
#62=ORIENTED_EDGE('',*,*,#94,.T.);
#63=ORIENTED_EDGE('',*,*,#95,.F.);
#64=ORIENTED_EDGE('',*,*,#96,.T.);
#65=ORIENTED_EDGE('',*,*,#97,.F.);
#66=ORIENTED_EDGE('',*,*,#97,.T.);
#67=ORIENTED_EDGE('',*,*,#93,.F.);
#68=ORIENTED_EDGE('',*,*,#96,.F.);
#69=ORIENTED_EDGE('',*,*,#98,.F.);
#70=ORIENTED_EDGE('',*,*,#99,.F.);
#71=ORIENTED_EDGE('',*,*,#100,.T.);
#72=ORIENTED_EDGE('',*,*,#101,.T.);
#73=ORIENTED_EDGE('',*,*,#102,.T.);
#74=ORIENTED_EDGE('',*,*,#103,.F.);
#75=ORIENTED_EDGE('',*,*,#104,.F.);
#76=ORIENTED_EDGE('',*,*,#99,.T.);
#77=ORIENTED_EDGE('',*,*,#105,.T.);
#78=ORIENTED_EDGE('',*,*,#106,.F.);
#79=ORIENTED_EDGE('',*,*,#107,.F.);
#80=ORIENTED_EDGE('',*,*,#103,.T.);
#81=ORIENTED_EDGE('',*,*,#108,.F.);
#82=ORIENTED_EDGE('',*,*,#101,.F.);
#83=ORIENTED_EDGE('',*,*,#109,.T.);
#84=ORIENTED_EDGE('',*,*,#106,.T.);
#85=ORIENTED_EDGE('',*,*,#100,.F.);
#86=ORIENTED_EDGE('',*,*,#104,.T.);
#87=ORIENTED_EDGE('',*,*,#107,.T.);
#88=ORIENTED_EDGE('',*,*,#109,.F.);
#89=ORIENTED_EDGE('',*,*,#98,.T.);
#90=ORIENTED_EDGE('',*,*,#108,.T.);
#91=ORIENTED_EDGE('',*,*,#105,.F.);
#92=ORIENTED_EDGE('',*,*,#102,.F.);
#93=EDGE_CURVE('',#110,#110,#123,.T.);
#94=EDGE_CURVE('',#111,#111,#56,.T.);
#95=EDGE_CURVE('',#112,#112,#57,.T.);
#96=EDGE_CURVE('',#113,#113,#124,.T.);
#97=EDGE_CURVE('',#114,#114,#58,.T.);
#98=EDGE_CURVE('',#115,#116,#18,.T.);
#99=EDGE_CURVE('',#117,#115,#19,.T.);
#100=EDGE_CURVE('',#117,#118,#20,.T.);
#101=EDGE_CURVE('',#118,#116,#21,.T.);
#102=EDGE_CURVE('',#115,#119,#22,.T.);
#103=EDGE_CURVE('',#120,#119,#23,.F.);
#104=EDGE_CURVE('',#117,#120,#24,.T.);
#105=EDGE_CURVE('',#119,#121,#25,.F.);
#106=EDGE_CURVE('',#122,#121,#26,.F.);
#107=EDGE_CURVE('',#120,#122,#27,.F.);
#108=EDGE_CURVE('',#116,#121,#28,.T.);
#109=EDGE_CURVE('',#118,#122,#29,.T.);
#110=VERTEX_POINT('',#276);
#111=VERTEX_POINT('',#278);
#112=VERTEX_POINT('',#280);
#113=VERTEX_POINT('',#303);
#114=VERTEX_POINT('',#305);
#115=VERTEX_POINT('',#367);
#116=VERTEX_POINT('',#368);
#117=VERTEX_POINT('',#370);
#118=VERTEX_POINT('',#372);
#119=VERTEX_POINT('',#376);
#120=VERTEX_POINT('',#378);
#121=VERTEX_POINT('',#382);
#122=VERTEX_POINT('',#384);
#123=B_SPLINE_CURVE_WITH_KNOTS('',3,(#257,#258,#259,#260,#261,#262,#263,
#264,#265,#266,#267,#268,#269,#270,#271,#272,#273,#274,#275),
 .UNSPECIFIED.,.T.,.F.,(1,1,1,1,1,1,1,1,1,1,1,1,1,1,1,1,1,1,1,1,1,1,1),
(-0.00566886884344135,-0.00377924589562757,-0.00188962294781378,0.,0.00188962294781378,
0.00377924589562757,0.00566886884344135,0.00755849179125513,0.00944811473906892,
0.0113377376868827,0.0132273606346965,0.0151169835825103,0.0170066065303241,
0.0188962294781378,0.0207858524259516,0.0226754753737654,0.0245650983215792,
0.026454721269393,0.0283443442172068,0.0302339671650205,0.0321235901128343,
0.0340132130606481,0.0359028360084619),.UNSPECIFIED.);
#124=B_SPLINE_CURVE_WITH_KNOTS('',3,(#284,#285,#286,#287,#288,#289,#290,
#291,#292,#293,#294,#295,#296,#297,#298,#299,#300,#301,#302),
 .UNSPECIFIED.,.T.,.F.,(1,1,1,1,1,1,1,1,1,1,1,1,1,1,1,1,1,1,1,1,1,1,1),
(-0.00493314899606306,-0.00328876599737537,-0.00164438299868768,0.,0.00164438299868769,
0.00328876599737537,0.00493314899606306,0.00657753199475074,0.00822191499343843,
0.00986629799212611,0.0115106809908138,0.0131550639895015,0.0147994469881892,
0.0164438299868769,0.0180882129855645,0.0197325959842522,0.0213769789829399,
0.0230213619816276,0.0246657449803153,0.026310127979003,0.0279545109776906,
0.0295988939763783,0.031243276975066),.UNSPECIFIED.);
#125=EDGE_LOOP('',(#59));
#126=EDGE_LOOP('',(#60));
#127=EDGE_LOOP('',(#61));
#128=EDGE_LOOP('',(#62));
#129=EDGE_LOOP('',(#63));
#130=EDGE_LOOP('',(#64));
#131=EDGE_LOOP('',(#65));
#132=EDGE_LOOP('',(#66));
#133=EDGE_LOOP('',(#67));
#134=EDGE_LOOP('',(#68));
#135=EDGE_LOOP('',(#69,#70,#71,#72));
#136=EDGE_LOOP('',(#73,#74,#75,#76));
#137=EDGE_LOOP('',(#77,#78,#79,#80));
#138=EDGE_LOOP('',(#81,#82,#83,#84));
#139=EDGE_LOOP('',(#85,#86,#87,#88));
#140=EDGE_LOOP('',(#89,#90,#91,#92));
#141=FACE_BOUND('',#125,.T.);
#142=FACE_BOUND('',#126,.T.);
#143=FACE_BOUND('',#127,.T.);
#144=FACE_BOUND('',#128,.T.);
#145=FACE_BOUND('',#129,.T.);
#146=FACE_BOUND('',#130,.T.);
#147=FACE_BOUND('',#131,.T.);
#148=FACE_BOUND('',#132,.T.);
#149=FACE_BOUND('',#133,.T.);
#150=FACE_BOUND('',#134,.T.);
#151=FACE_BOUND('',#135,.T.);
#152=FACE_BOUND('',#136,.T.);
#153=FACE_BOUND('',#137,.T.);
#154=FACE_BOUND('',#138,.T.);
#155=FACE_BOUND('',#139,.T.);
#156=FACE_BOUND('',#140,.T.);
#157=CYLINDRICAL_SURFACE('',#196,0.008);
#158=CYLINDRICAL_SURFACE('',#201,0.004);
#159=ADVANCED_FACE('',(#141,#142,#143),#157,.T.);
#160=ADVANCED_FACE('',(#144),#47,.T.);
#161=ADVANCED_FACE('',(#145),#48,.F.);
#162=ADVANCED_FACE('',(#146,#147),#158,.T.);
#163=ADVANCED_FACE('',(#148),#49,.T.);
#164=ADVANCED_FACE('',(#149,#150),#46,.F.);
#165=ADVANCED_FACE('',(#151),#50,.T.);
#166=ADVANCED_FACE('',(#152),#51,.F.);
#167=ADVANCED_FACE('',(#153),#52,.T.);
#168=ADVANCED_FACE('',(#154),#53,.T.);
#169=ADVANCED_FACE('',(#155),#54,.T.);
#170=ADVANCED_FACE('',(#156),#55,.F.);
#171=CLOSED_SHELL('',(#159,#160,#161,#162,#163,#164));
#172=CLOSED_SHELL('',(#165,#166,#167,#168,#169,#170));
#173=STYLED_ITEM('',(#175),#189);
#174=STYLED_ITEM('',(#176),#190);
#175=PRESENTATION_STYLE_ASSIGNMENT((#177));
#176=PRESENTATION_STYLE_ASSIGNMENT((#178));
#177=SURFACE_STYLE_USAGE(.BOTH.,#179);
#178=SURFACE_STYLE_USAGE(.BOTH.,#180);
#179=SURFACE_SIDE_STYLE('',(#181));
#180=SURFACE_SIDE_STYLE('',(#182));
#181=SURFACE_STYLE_FILL_AREA(#183);
#182=SURFACE_STYLE_FILL_AREA(#184);
#183=FILL_AREA_STYLE('',(#185));
#184=FILL_AREA_STYLE('',(#186));
#185=FILL_AREA_STYLE_COLOUR('',#187);
#186=FILL_AREA_STYLE_COLOUR('',#188);
#187=COLOUR_RGB('',0.615686274509804,0.811764705882353,0.929411764705882);
#188=COLOUR_RGB('',0.647058823529412,0.647058823529412,0.647058823529412);
#189=MANIFOLD_SOLID_BREP('AC36_0_V2',#171);
#190=MANIFOLD_SOLID_BREP('AC38_0_V2',#172);
#191=SHAPE_DEFINITION_REPRESENTATION(#403,#193);
#192=SHAPE_DEFINITION_REPRESENTATION(#404,#194);
#193=SHAPE_REPRESENTATION('AC36_0_V2',(#195),#393);
#194=SHAPE_REPRESENTATION('AC38_0_V2',(#204),#394);
#195=AXIS2_PLACEMENT_3D('',#255,#211,#212);
#196=AXIS2_PLACEMENT_3D('',#256,#213,#214);
#197=AXIS2_PLACEMENT_3D('',#277,#215,#216);
#198=AXIS2_PLACEMENT_3D('',#279,#217,#218);
#199=AXIS2_PLACEMENT_3D('',#281,#219,#220);
#200=AXIS2_PLACEMENT_3D('',#282,#221,#222);
#201=AXIS2_PLACEMENT_3D('',#283,#223,#224);
#202=AXIS2_PLACEMENT_3D('',#304,#225,#226);
#203=AXIS2_PLACEMENT_3D('',#306,#227,#228);
#204=AXIS2_PLACEMENT_3D('',#364,#229,#230);
#205=AXIS2_PLACEMENT_3D('',#365,#231,#232);
#206=AXIS2_PLACEMENT_3D('',#374,#237,#238);
#207=AXIS2_PLACEMENT_3D('',#380,#242,#243);
#208=AXIS2_PLACEMENT_3D('',#386,#247,#248);
#209=AXIS2_PLACEMENT_3D('',#389,#251,#252);
#210=AXIS2_PLACEMENT_3D('',#390,#253,#254);
#211=DIRECTION('',(0.,0.,1.));
#212=DIRECTION('',(1.,0.,0.));
#213=DIRECTION('',(0.,1.,0.));
#214=DIRECTION('',(0.,0.,-1.));
#215=DIRECTION('',(0.,-1.,0.));
#216=DIRECTION('',(0.,0.,1.));
#217=DIRECTION('',(0.,-1.,0.));
#218=DIRECTION('',(0.,0.,1.));
#219=DIRECTION('',(0.,-1.,0.));
#220=DIRECTION('',(0.,0.,1.));
#221=DIRECTION('',(0.,-1.,0.));
#222=DIRECTION('',(0.,0.,1.));
#223=DIRECTION('',(0.,0.,-1.));
#224=DIRECTION('',(0.,-1.,0.));
#225=DIRECTION('',(0.,0.,1.));
#226=DIRECTION('',(0.,1.,0.));
#227=DIRECTION('',(0.,0.,1.));
#228=DIRECTION('',(-1.,0.,0.));
#229=DIRECTION('',(0.,0.,1.));
#230=DIRECTION('',(1.,0.,0.));
#231=DIRECTION('',(0.,0.,-1.));
#232=DIRECTION('',(0.,-1.,0.));
#233=DIRECTION('',(-1.,0.,0.));
#234=DIRECTION('',(0.,1.,0.));
#235=DIRECTION('',(-1.,0.,0.));
#236=DIRECTION('',(0.,1.,0.));
#237=DIRECTION('',(-1.,0.,0.));
#238=DIRECTION('',(0.,-1.,0.));
#239=DIRECTION('',(0.,0.,1.));
#240=DIRECTION('',(0.,-0.992277876713668,-0.124034734589208));
#241=DIRECTION('',(0.,0.,1.));
#242=DIRECTION('',(0.,-0.124034734589208,0.992277876713668));
#243=DIRECTION('',(0.,-0.992277876713668,-0.124034734589208));
#244=DIRECTION('',(1.,0.,0.));
#245=DIRECTION('',(0.,-0.992277876713668,-0.124034734589208));
#246=DIRECTION('',(1.,0.,0.));
#247=DIRECTION('',(-1.,0.,0.));
#248=DIRECTION('',(0.,-1.,0.));
#249=DIRECTION('',(0.,0.,1.));
#250=DIRECTION('',(0.,0.,1.));
#251=DIRECTION('',(0.,-1.,0.));
#252=DIRECTION('',(0.,0.,1.));
#253=DIRECTION('',(0.,-1.,0.));
#254=DIRECTION('',(0.,0.,1.));
#255=CARTESIAN_POINT('',(0.,0.,0.));
#256=CARTESIAN_POINT('',(1.75,0.738,0.));
#257=CARTESIAN_POINT('',(1.75189852053341,0.745321542973584,0.00783687911551884));
#258=CARTESIAN_POINT('',(1.74999707493177,0.744840360872135,0.00808103208607985));
#259=CARTESIAN_POINT('',(1.74811317973953,0.745317013537876,0.00783899254016177));
#260=CARTESIAN_POINT('',(1.74667903514149,0.746497690531324,0.00731572646262711));
#261=CARTESIAN_POINT('',(1.74577265779131,0.748106634547775,0.00680387282727387));
#262=CARTESIAN_POINT('',(1.74544755535962,0.750000090046171,0.00657612826357751));
#263=CARTESIAN_POINT('',(1.74577045457685,0.751887352922901,0.00680262656025433));
#264=CARTESIAN_POINT('',(1.74667971980081,0.753503133142115,0.00731581011022229));
#265=CARTESIAN_POINT('',(1.74810865721184,0.754680948190488,0.00783814245643777));
#266=CARTESIAN_POINT('',(1.74999573897605,0.755157545769068,0.00807998697077338));
#267=CARTESIAN_POINT('',(1.75187614743336,0.754688846808765,0.00784189883356983));
#268=CARTESIAN_POINT('',(1.75331813590646,0.753507356783851,0.00731737063358944));
#269=CARTESIAN_POINT('',(1.75422602454273,0.751895075804422,0.00680467942245287));
#270=CARTESIAN_POINT('',(1.75455192332251,0.750012404141807,0.00657645386417246));
#271=CARTESIAN_POINT('',(1.75423288716312,0.748119827183004,0.00680055845190108));
#272=CARTESIAN_POINT('',(1.75332354203334,0.746501487711147,0.00731403742635134));
#273=CARTESIAN_POINT('',(1.75189852053341,0.745321542973584,0.00783687911551884));
#274=CARTESIAN_POINT('',(1.74999707493177,0.744840360872135,0.00808103208607985));
#275=CARTESIAN_POINT('',(1.74811317973953,0.745317013537876,0.00783899254016177));
#276=CARTESIAN_POINT('',(1.75,0.745,0.008));
#277=CARTESIAN_POINT('',(1.75,0.738,0.));
#278=CARTESIAN_POINT('',(1.75,0.738,0.008));
#279=CARTESIAN_POINT('',(1.75,0.762,0.));
#280=CARTESIAN_POINT('',(1.75,0.762,0.008));
#281=CARTESIAN_POINT('',(1.75,0.738,0.));
#282=CARTESIAN_POINT('',(1.75,0.762,0.));
#283=CARTESIAN_POINT('',(1.75,0.75,0.016));
#284=CARTESIAN_POINT('',(1.74837753067042,0.746228978754838,0.0088365168683335));
#285=CARTESIAN_POINT('',(1.74999914453131,0.7458851879733,0.00908192516091189));
#286=CARTESIAN_POINT('',(1.75162589120433,0.746230269351961,0.00883578248801895));
#287=CARTESIAN_POINT('',(1.75290477885136,0.747114351344694,0.00827900020073097));
#288=CARTESIAN_POINT('',(1.75377497768578,0.748391328413874,0.00768061752023349));
#289=CARTESIAN_POINT('',(1.75411381583576,0.750005201209413,0.00738366536161258));
#290=CARTESIAN_POINT('',(1.7537697375236,0.751619952326078,0.00768462758744162));
#291=CARTESIAN_POINT('',(1.75290008723399,0.752890800868101,0.00828205764661398));
#292=CARTESIAN_POINT('',(1.75161263773328,0.753775236784244,0.0088394812566037));
#293=CARTESIAN_POINT('',(1.74999492125247,0.754113919122051,0.0090812849629932));
#294=CARTESIAN_POINT('',(1.74837351257054,0.753769062410338,0.00883536200447365));
#295=CARTESIAN_POINT('',(1.74709535564586,0.75288572545079,0.00827903859388084));
#296=CARTESIAN_POINT('',(1.74622607545429,0.751610033307013,0.00768141749592289));
#297=CARTESIAN_POINT('',(1.74588592262469,0.749998970110081,0.00738347068083872));
#298=CARTESIAN_POINT('',(1.74623023824809,0.74837988573045,0.00768459193076737));
#299=CARTESIAN_POINT('',(1.74709686012616,0.747113717442047,0.0082798571788917));
#300=CARTESIAN_POINT('',(1.74837753067042,0.746228978754838,0.0088365168683335));
#301=CARTESIAN_POINT('',(1.74999914453131,0.7458851879733,0.00908192516091189));
#302=CARTESIAN_POINT('',(1.75162589120433,0.746230269351961,0.00883578248801895));
#303=CARTESIAN_POINT('',(1.75,0.746,0.009));
#304=CARTESIAN_POINT('',(1.75,0.75,0.016));
#305=CARTESIAN_POINT('',(1.75,0.754,0.016));
#306=CARTESIAN_POINT('',(1.75,0.75,0.016));
#307=CARTESIAN_POINT('',(1.75175121556694,0.745404498179118,0.0078059748935098));
#308=CARTESIAN_POINT('',(1.75140586063701,0.74625061853742,0.0078834528431151));
#309=CARTESIAN_POINT('',(1.75157609401025,0.746323598543294,0.00878172175519848));
#310=CARTESIAN_POINT('',(1.75121618052813,0.745147148928103,0.00792549940038584));
#311=CARTESIAN_POINT('',(1.75093928397714,0.746075299454037,0.00796407826575983));
#312=CARTESIAN_POINT('',(1.75109456247532,0.746117719142483,0.00891618682543402));
#313=CARTESIAN_POINT('',(1.75003539420477,0.744862724579146,0.00806967547614448));
#314=CARTESIAN_POINT('',(1.75002534001062,0.745928304981318,0.00803422761316502));
#315=CARTESIAN_POINT('',(1.75003185478429,0.745890179663317,0.00907838491066256));
#316=CARTESIAN_POINT('',(1.748250980849,0.745260577029241,0.00786747367595402));
#317=CARTESIAN_POINT('',(1.74867467327526,0.746128526118383,0.00793860486687958));
#318=CARTESIAN_POINT('',(1.7484258827641,0.746208461623393,0.00885090788544827));
#319=CARTESIAN_POINT('',(1.74679858140354,0.746358690299642,0.00737238675378062));
#320=CARTESIAN_POINT('',(1.7473251838811,0.746878150158487,0.0075961602473198));
#321=CARTESIAN_POINT('',(1.74711872326319,0.747086952239713,0.0082939350980032));
#322=CARTESIAN_POINT('',(1.74581740827798,0.747958538942374,0.00683476747288501));
#323=CARTESIAN_POINT('',(1.74629261674613,0.748191381023991,0.007125493176651));
#324=CARTESIAN_POINT('',(1.74623566745018,0.748366831153899,0.00768911340699564));
#325=CARTESIAN_POINT('',(1.74543241252937,0.749960319761826,0.00656542217082594));
#326=CARTESIAN_POINT('',(1.74586630513958,0.749964154919057,0.00686767677960604));
#327=CARTESIAN_POINT('',(1.74588917127643,0.749968255809461,0.00738609994217917));
#328=CARTESIAN_POINT('',(1.7457871147589,0.751962091634838,0.00681511708564848));
#329=CARTESIAN_POINT('',(1.74625972148632,0.751740315590722,0.007107177715144));
#330=CARTESIAN_POINT('',(1.74620840328301,0.75156967330787,0.00766700672135455));
#331=CARTESIAN_POINT('',(1.74675229439908,0.753589868424986,0.00735113340336206));
#332=CARTESIAN_POINT('',(1.74727833068018,0.753082782737454,0.00757912976884319));
#333=CARTESIAN_POINT('',(1.74707706495917,0.752871894739989,0.00827002507878232));
#334=CARTESIAN_POINT('',(1.74818471564733,0.754706880212061,0.0078516318259297));
#335=CARTESIAN_POINT('',(1.74861862636493,0.753852484544135,0.00792966323608318));
#336=CARTESIAN_POINT('',(1.74836624408259,0.753765504169648,0.00883308580417091));
#337=CARTESIAN_POINT('',(1.74996555503585,0.755138226468924,0.00807009899440438));
#338=CARTESIAN_POINT('',(1.74997580028334,0.754072336226243,0.00803448729697562));
#339=CARTESIAN_POINT('',(1.74996899953227,0.754110581175139,0.00907886136870493));
#340=CARTESIAN_POINT('',(1.75174833493625,0.754739329774193,0.00786753558951678));
#341=CARTESIAN_POINT('',(1.75132451980202,0.753871358321859,0.00793867836160047));
#342=CARTESIAN_POINT('',(1.75157350144263,0.753791463819354,0.00885097753820639));
#343=CARTESIAN_POINT('',(1.75320394797986,0.753640387464821,0.00737155489347075));
#344=CARTESIAN_POINT('',(1.7526770355836,0.753121631257128,0.00759562866268733));
#345=CARTESIAN_POINT('',(1.75288355318187,0.752912309971857,0.00829299925515459));
#346=CARTESIAN_POINT('',(1.75418585867671,0.752031124435141,0.0068326459407304));
#347=CARTESIAN_POINT('',(1.75371091425868,0.751799683123048,0.00712355743620807));
#348=CARTESIAN_POINT('',(1.75376727280904,0.751624899548113,0.0076867266833217));
#349=CARTESIAN_POINT('',(1.75456687559673,0.750042913069171,0.00656590152985705));
#350=CARTESIAN_POINT('',(1.75413296327382,0.750038432983199,0.00686807722259071));
#351=CARTESIAN_POINT('',(1.75411018803706,0.750034330455337,0.00738663922108917));
#352=CARTESIAN_POINT('',(1.75421246895352,0.748034863681876,0.00681531906272089));
#353=CARTESIAN_POINT('',(1.75373987802677,0.748257023763326,0.00710739376912733));
#354=CARTESIAN_POINT('',(1.75379122205817,0.7484278909455,0.00766723394556099));
#355=CARTESIAN_POINT('',(1.75324560443762,0.746406820085233,0.00735252843488826));
#356=CARTESIAN_POINT('',(1.75271906335193,0.746914465617428,0.00758037604580802));
#357=CARTESIAN_POINT('',(1.75292104399385,0.747125456068186,0.0082715944892493));
#358=CARTESIAN_POINT('',(1.75228625060575,0.745661847430132,0.00768645038663376));
#359=CARTESIAN_POINT('',(1.75185054260749,0.746417710555021,0.00780661086858697));
#360=CARTESIAN_POINT('',(1.75205762554517,0.746529477944106,0.00864725668496294));
#361=CARTESIAN_POINT('',(1.75175121556694,0.745404498179118,0.0078059748935098));
#362=CARTESIAN_POINT('',(1.75140586063701,0.74625061853742,0.0078834528431151));
#363=CARTESIAN_POINT('',(1.75157609401025,0.746323598543294,0.00878172175519848));
#364=CARTESIAN_POINT('',(0.,0.,0.));
#365=CARTESIAN_POINT('',(2.242,0.742,0.));
#366=CARTESIAN_POINT('',(2.242,0.75,0.));
#367=CARTESIAN_POINT('',(2.25,0.75,0.));
#368=CARTESIAN_POINT('',(2.234,0.75,0.));
#369=CARTESIAN_POINT('',(2.25,0.742,0.));
#370=CARTESIAN_POINT('',(2.25,0.742,0.));
#371=CARTESIAN_POINT('',(2.242,0.742,0.));
#372=CARTESIAN_POINT('',(2.234,0.742,0.));
#373=CARTESIAN_POINT('',(2.234,0.742,0.));
#374=CARTESIAN_POINT('',(2.25,0.742,0.008));
#375=CARTESIAN_POINT('',(2.25,0.75,0.008));
#376=CARTESIAN_POINT('',(2.25,0.75,0.016));
#377=CARTESIAN_POINT('',(2.25,0.75,0.016));
#378=CARTESIAN_POINT('',(2.25,0.742,0.015));
#379=CARTESIAN_POINT('',(2.25,0.742,0.008));
#380=CARTESIAN_POINT('',(2.25,0.75,0.016));
#381=CARTESIAN_POINT('',(2.25,0.75,0.016));
#382=CARTESIAN_POINT('',(2.234,0.75,0.016));
#383=CARTESIAN_POINT('',(2.234,0.75,0.016));
#384=CARTESIAN_POINT('',(2.234,0.742,0.015));
#385=CARTESIAN_POINT('',(2.25,0.742,0.015));
#386=CARTESIAN_POINT('',(2.234,0.742,0.008));
#387=CARTESIAN_POINT('',(2.234,0.75,0.008));
#388=CARTESIAN_POINT('',(2.234,0.742,0.008));
#389=CARTESIAN_POINT('',(2.242,0.742,0.008));
#390=CARTESIAN_POINT('',(2.242,0.75,0.008));
#391=MECHANICAL_DESIGN_GEOMETRIC_PRESENTATION_REPRESENTATION('',(#173),
#393);
#392=MECHANICAL_DESIGN_GEOMETRIC_PRESENTATION_REPRESENTATION('',(#174),
#394);
#393=(
GEOMETRIC_REPRESENTATION_CONTEXT(3)
GLOBAL_UNCERTAINTY_ASSIGNED_CONTEXT((#395))
GLOBAL_UNIT_ASSIGNED_CONTEXT((#401,#399,#397))
REPRESENTATION_CONTEXT('AC36_0_V2','TOP_LEVEL_ASSEMBLY_PART')
);
#394=(
GEOMETRIC_REPRESENTATION_CONTEXT(3)
GLOBAL_UNCERTAINTY_ASSIGNED_CONTEXT((#396))
GLOBAL_UNIT_ASSIGNED_CONTEXT((#402,#400,#398))
REPRESENTATION_CONTEXT('AC38_0_V2','TOP_LEVEL_ASSEMBLY_PART')
);
#395=UNCERTAINTY_MEASURE_WITH_UNIT(LENGTH_MEASURE(2.E-5),#401,
'DISTANCE_ACCURACY_VALUE','Maximum Tolerance applied to model');
#396=UNCERTAINTY_MEASURE_WITH_UNIT(LENGTH_MEASURE(1.E-8),#402,
'DISTANCE_ACCURACY_VALUE','Maximum Tolerance applied to model');
#397=(
NAMED_UNIT(*)
SI_UNIT($,.STERADIAN.)
SOLID_ANGLE_UNIT()
);
#398=(
NAMED_UNIT(*)
SI_UNIT($,.STERADIAN.)
SOLID_ANGLE_UNIT()
);
#399=(
NAMED_UNIT(*)
PLANE_ANGLE_UNIT()
SI_UNIT($,.RADIAN.)
);
#400=(
NAMED_UNIT(*)
PLANE_ANGLE_UNIT()
SI_UNIT($,.RADIAN.)
);
#401=(
LENGTH_UNIT()
NAMED_UNIT(*)
SI_UNIT($,.METRE.)
);
#402=(
LENGTH_UNIT()
NAMED_UNIT(*)
SI_UNIT($,.METRE.)
);
#403=PRODUCT_DEFINITION_SHAPE('','',#405);
#404=PRODUCT_DEFINITION_SHAPE('','',#406);
#405=PRODUCT_DEFINITION('','',#409,#407);
#406=PRODUCT_DEFINITION('','',#410,#408);
#407=PRODUCT_DEFINITION_CONTEXT('',#421,'design');
#408=PRODUCT_DEFINITION_CONTEXT('',#422,'design');
#409=PRODUCT_DEFINITION_FORMATION_WITH_SPECIFIED_SOURCE('','',#413,
 .NOT_KNOWN.);
#410=PRODUCT_DEFINITION_FORMATION_WITH_SPECIFIED_SOURCE('','',#414,
 .NOT_KNOWN.);
#411=PRODUCT_RELATED_PRODUCT_CATEGORY('','',(#413));
#412=PRODUCT_RELATED_PRODUCT_CATEGORY('','',(#414));
#413=PRODUCT('AC36_0_V2','AC36_0_V2','AC36_0_V2',(#417));
#414=PRODUCT('AC38_0_V2','AC38_0_V2','AC38_0_V2',(#418));
#415=PRODUCT_CATEGORY('','');
#416=PRODUCT_CATEGORY('','');
#417=PRODUCT_CONTEXT('',#421,'mechanical');
#418=PRODUCT_CONTEXT('',#422,'mechanical');
#419=APPLICATION_PROTOCOL_DEFINITION('international standard',
'automotive_design',2010,#421);
#420=APPLICATION_PROTOCOL_DEFINITION('international standard',
'automotive_design',2010,#422);
#421=APPLICATION_CONTEXT(
'core data for automotive mechanical design processes');
#422=APPLICATION_CONTEXT(
'core data for automotive mechanical design processes');
ENDSEC;
END-ISO-10303-21;
