ISO-10303-21;
HEADER;
/* Generated by software containing ST-Developer
 * from STEP Tools, Inc. (www.steptools.com) 
 */
/* OPTION: using custom renumber hook */

FILE_DESCRIPTION(
/* description */ ('STEP AP214',
'CAx-IF Rec.Pracs.---User Defined Attributes---1.5---2016-08-15'),
/* implementation_level */ '2;1');

FILE_NAME(
/* name */ '6ac03044b4d7d497553efc5a',
/* time_stamp */ '2026-10-02T22:29:31Z',
/* author */ (''),
/* organization */ (''),
/* preprocessor_version */ 'ST-DEVELOPER v20',
/* originating_system */ 'ONSHAPE BY PTC INC, 1.221',
/* authorisation */ '  ');

FILE_SCHEMA (('AUTOMOTIVE_DESIGN {1 0 10303 214 3 1 1}'));
ENDSEC;

DATA;
#10=PROPERTY_DEFINITION_REPRESENTATION(#14,#12);
#11=PROPERTY_DEFINITION_REPRESENTATION(#15,#13);
#12=REPRESENTATION('',(#16),#394);
#13=REPRESENTATION('',(#17),#394);
#14=PROPERTY_DEFINITION('pmi validation property','',#404);
#15=PROPERTY_DEFINITION('pmi validation property','',#404);
#16=VALUE_REPRESENTATION_ITEM('number of annotations',COUNT_MEASURE(0.));
#17=VALUE_REPRESENTATION_ITEM('number of views',COUNT_MEASURE(0.));
#18=LINE('',#366,#30);
#19=LINE('',#369,#31);
#20=LINE('',#371,#32);
#21=LINE('',#373,#33);
#22=LINE('',#375,#34);
#23=LINE('',#377,#35);
#24=LINE('',#379,#36);
#25=LINE('',#381,#37);
#26=LINE('',#383,#38);
#27=LINE('',#385,#39);
#28=LINE('',#387,#40);
#29=LINE('',#388,#41);
#30=VECTOR('',#233,1.);
#31=VECTOR('',#234,1.);
#32=VECTOR('',#235,1.);
#33=VECTOR('',#236,1.);
#34=VECTOR('',#239,1.);
#35=VECTOR('',#240,1.);
#36=VECTOR('',#241,1.);
#37=VECTOR('',#244,1.);
#38=VECTOR('',#245,1.);
#39=VECTOR('',#246,1.);
#40=VECTOR('',#249,1.);
#41=VECTOR('',#250,1.);
#42=SHAPE_REPRESENTATION_RELATIONSHIP('','',#193,#44);
#43=SHAPE_REPRESENTATION_RELATIONSHIP('','',#194,#45);
#44=ADVANCED_BREP_SHAPE_REPRESENTATION('',(#189),#393);
#45=ADVANCED_BREP_SHAPE_REPRESENTATION('',(#190),#394);
#46=(
BOUNDED_SURFACE()
B_SPLINE_SURFACE(3,2,((#307,#308,#309),(#310,#311,#312),(#313,#314,#315),
(#316,#317,#318),(#319,#320,#321),(#322,#323,#324),(#325,#326,#327),(#328,
#329,#330),(#331,#332,#333),(#334,#335,#336),(#337,#338,#339),(#340,#341,
#342),(#343,#344,#345),(#346,#347,#348),(#349,#350,#351),(#352,#353,#354),
(#355,#356,#357),(#358,#359,#360),(#361,#362,#363)),.UNSPECIFIED.,.T.,.F.,
 .F.)
B_SPLINE_SURFACE_WITH_KNOTS((1,3,1,1,1,1,1,1,1,1,1,1,1,1,1,1,1,3,1),(3,
3),(-0.00198850109467424,0.,0.00198850109467424,0.00397700218934848,0.00596550328402272,
0.00795400437869696,0.0099425054733712,0.0119310065680454,0.0139195076627197,
0.0159080087573939,0.0178965098520682,0.0198850109467424,0.0218735120414166,
0.0238620131360909,0.0258505142307651,0.0278390153254394,0.0298275164201136,
0.0318160175147879,0.0338045186094621),(0.,1.),.UNSPECIFIED.)
GEOMETRIC_REPRESENTATION_ITEM()
RATIONAL_B_SPLINE_SURFACE(((1.,0.736971000592319,1.),(1.,0.719263896809295,
1.),(1.,0.695703359699809,1.),(1.,0.728848799124466,1.),(1.,0.79936745337499,
1.),(1.,0.862955329256625,1.),(1.,0.890852026544694,1.),(1.,0.86507967057511,
1.),(1.,0.80211621435566,1.),(1.,0.731319301594908,1.),(1.,0.695637266061738,
1.),(1.,0.728841784131025,1.),(1.,0.799485641901228,1.),(1.,0.863188511115057,
1.),(1.,0.890798650293717,1.),(1.,0.865060218475671,1.),(1.,0.801945982397953,
1.),(1.,0.754678104375343,1.),(1.,0.736971000592319,1.)))
REPRESENTATION_ITEM('')
SURFACE()
);
#47=PLANE('',#199);
#48=PLANE('',#200);
#49=PLANE('',#203);
#50=PLANE('',#205);
#51=PLANE('',#206);
#52=PLANE('',#207);
#53=PLANE('',#208);
#54=PLANE('',#209);
#55=PLANE('',#210);
#56=CIRCLE('',#197,0.008);
#57=CIRCLE('',#198,0.008);
#58=CIRCLE('',#202,0.004);
#59=ORIENTED_EDGE('',*,*,#93,.T.);
#60=ORIENTED_EDGE('',*,*,#94,.F.);
#61=ORIENTED_EDGE('',*,*,#95,.T.);
#62=ORIENTED_EDGE('',*,*,#94,.T.);
#63=ORIENTED_EDGE('',*,*,#95,.F.);
#64=ORIENTED_EDGE('',*,*,#96,.T.);
#65=ORIENTED_EDGE('',*,*,#97,.F.);
#66=ORIENTED_EDGE('',*,*,#97,.T.);
#67=ORIENTED_EDGE('',*,*,#93,.F.);
#68=ORIENTED_EDGE('',*,*,#96,.F.);
#69=ORIENTED_EDGE('',*,*,#98,.F.);
#70=ORIENTED_EDGE('',*,*,#99,.F.);
#71=ORIENTED_EDGE('',*,*,#100,.T.);
#72=ORIENTED_EDGE('',*,*,#101,.T.);
#73=ORIENTED_EDGE('',*,*,#102,.T.);
#74=ORIENTED_EDGE('',*,*,#103,.F.);
#75=ORIENTED_EDGE('',*,*,#104,.F.);
#76=ORIENTED_EDGE('',*,*,#99,.T.);
#77=ORIENTED_EDGE('',*,*,#105,.T.);
#78=ORIENTED_EDGE('',*,*,#106,.F.);
#79=ORIENTED_EDGE('',*,*,#107,.F.);
#80=ORIENTED_EDGE('',*,*,#103,.T.);
#81=ORIENTED_EDGE('',*,*,#108,.F.);
#82=ORIENTED_EDGE('',*,*,#101,.F.);
#83=ORIENTED_EDGE('',*,*,#109,.T.);
#84=ORIENTED_EDGE('',*,*,#106,.T.);
#85=ORIENTED_EDGE('',*,*,#100,.F.);
#86=ORIENTED_EDGE('',*,*,#104,.T.);
#87=ORIENTED_EDGE('',*,*,#107,.T.);
#88=ORIENTED_EDGE('',*,*,#109,.F.);
#89=ORIENTED_EDGE('',*,*,#98,.T.);
#90=ORIENTED_EDGE('',*,*,#108,.T.);
#91=ORIENTED_EDGE('',*,*,#105,.F.);
#92=ORIENTED_EDGE('',*,*,#102,.F.);
#93=EDGE_CURVE('',#110,#110,#123,.T.);
#94=EDGE_CURVE('',#111,#111,#56,.T.);
#95=EDGE_CURVE('',#112,#112,#57,.T.);
#96=EDGE_CURVE('',#113,#113,#124,.T.);
#97=EDGE_CURVE('',#114,#114,#58,.T.);
#98=EDGE_CURVE('',#115,#116,#18,.T.);
#99=EDGE_CURVE('',#117,#115,#19,.T.);
#100=EDGE_CURVE('',#117,#118,#20,.T.);
#101=EDGE_CURVE('',#118,#116,#21,.T.);
#102=EDGE_CURVE('',#115,#119,#22,.T.);
#103=EDGE_CURVE('',#120,#119,#23,.F.);
#104=EDGE_CURVE('',#117,#120,#24,.T.);
#105=EDGE_CURVE('',#119,#121,#25,.F.);
#106=EDGE_CURVE('',#122,#121,#26,.F.);
#107=EDGE_CURVE('',#120,#122,#27,.F.);
#108=EDGE_CURVE('',#116,#121,#28,.T.);
#109=EDGE_CURVE('',#118,#122,#29,.T.);
#110=VERTEX_POINT('',#276);
#111=VERTEX_POINT('',#278);
#112=VERTEX_POINT('',#280);
#113=VERTEX_POINT('',#303);
#114=VERTEX_POINT('',#305);
#115=VERTEX_POINT('',#367);
#116=VERTEX_POINT('',#368);
#117=VERTEX_POINT('',#370);
#118=VERTEX_POINT('',#372);
#119=VERTEX_POINT('',#376);
#120=VERTEX_POINT('',#378);
#121=VERTEX_POINT('',#382);
#122=VERTEX_POINT('',#384);
#123=B_SPLINE_CURVE_WITH_KNOTS('',3,(#257,#258,#259,#260,#261,#262,#263,
#264,#265,#266,#267,#268,#269,#270,#271,#272,#273,#274,#275),
 .UNSPECIFIED.,.T.,.F.,(1,1,1,1,1,1,1,1,1,1,1,1,1,1,1,1,1,1,1,1,1,1,1),
(-0.00566886884344267,-0.00377924589562844,-0.00188962294781422,0.,0.00188962294781422,
0.00377924589562844,0.00566886884344266,0.00755849179125689,0.00944811473907111,
0.0113377376868853,0.0132273606346996,0.0151169835825138,0.017006606530328,
0.0188962294781422,0.0207858524259564,0.0226754753737707,0.0245650983215849,
0.0264547212693991,0.0283443442172133,0.0302339671650275,0.0321235901128418,
0.034013213060656,0.0359028360084702),.UNSPECIFIED.);
#124=B_SPLINE_CURVE_WITH_KNOTS('',3,(#284,#285,#286,#287,#288,#289,#290,
#291,#292,#293,#294,#295,#296,#297,#298,#299,#300,#301,#302),
 .UNSPECIFIED.,.T.,.F.,(1,1,1,1,1,1,1,1,1,1,1,1,1,1,1,1,1,1,1,1,1,1,1),
(-0.00493314899606289,-0.00328876599737526,-0.00164438299868763,0.,0.00164438299868763,
0.00328876599737526,0.00493314899606289,0.00657753199475052,0.00822191499343815,
0.00986629799212578,0.0115106809908134,0.013155063989501,0.0147994469881887,
0.0164438299868763,0.0180882129855639,0.0197325959842516,0.0213769789829392,
0.0230213619816268,0.0246657449803145,0.0263101279790021,0.0279545109776897,
0.0295988939763773,0.031243276975065),.UNSPECIFIED.);
#125=EDGE_LOOP('',(#59));
#126=EDGE_LOOP('',(#60));
#127=EDGE_LOOP('',(#61));
#128=EDGE_LOOP('',(#62));
#129=EDGE_LOOP('',(#63));
#130=EDGE_LOOP('',(#64));
#131=EDGE_LOOP('',(#65));
#132=EDGE_LOOP('',(#66));
#133=EDGE_LOOP('',(#67));
#134=EDGE_LOOP('',(#68));
#135=EDGE_LOOP('',(#69,#70,#71,#72));
#136=EDGE_LOOP('',(#73,#74,#75,#76));
#137=EDGE_LOOP('',(#77,#78,#79,#80));
#138=EDGE_LOOP('',(#81,#82,#83,#84));
#139=EDGE_LOOP('',(#85,#86,#87,#88));
#140=EDGE_LOOP('',(#89,#90,#91,#92));
#141=FACE_BOUND('',#125,.T.);
#142=FACE_BOUND('',#126,.T.);
#143=FACE_BOUND('',#127,.T.);
#144=FACE_BOUND('',#128,.T.);
#145=FACE_BOUND('',#129,.T.);
#146=FACE_BOUND('',#130,.T.);
#147=FACE_BOUND('',#131,.T.);
#148=FACE_BOUND('',#132,.T.);
#149=FACE_BOUND('',#133,.T.);
#150=FACE_BOUND('',#134,.T.);
#151=FACE_BOUND('',#135,.T.);
#152=FACE_BOUND('',#136,.T.);
#153=FACE_BOUND('',#137,.T.);
#154=FACE_BOUND('',#138,.T.);
#155=FACE_BOUND('',#139,.T.);
#156=FACE_BOUND('',#140,.T.);
#157=CYLINDRICAL_SURFACE('',#196,0.008);
#158=CYLINDRICAL_SURFACE('',#201,0.004);
#159=ADVANCED_FACE('',(#141,#142,#143),#157,.T.);
#160=ADVANCED_FACE('',(#144),#47,.T.);
#161=ADVANCED_FACE('',(#145),#48,.F.);
#162=ADVANCED_FACE('',(#146,#147),#158,.T.);
#163=ADVANCED_FACE('',(#148),#49,.T.);
#164=ADVANCED_FACE('',(#149,#150),#46,.F.);
#165=ADVANCED_FACE('',(#151),#50,.T.);
#166=ADVANCED_FACE('',(#152),#51,.F.);
#167=ADVANCED_FACE('',(#153),#52,.T.);
#168=ADVANCED_FACE('',(#154),#53,.T.);
#169=ADVANCED_FACE('',(#155),#54,.T.);
#170=ADVANCED_FACE('',(#156),#55,.F.);
#171=CLOSED_SHELL('',(#159,#160,#161,#162,#163,#164));
#172=CLOSED_SHELL('',(#165,#166,#167,#168,#169,#170));
#173=STYLED_ITEM('',(#175),#189);
#174=STYLED_ITEM('',(#176),#190);
#175=PRESENTATION_STYLE_ASSIGNMENT((#177));
#176=PRESENTATION_STYLE_ASSIGNMENT((#178));
#177=SURFACE_STYLE_USAGE(.BOTH.,#179);
#178=SURFACE_STYLE_USAGE(.BOTH.,#180);
#179=SURFACE_SIDE_STYLE('',(#181));
#180=SURFACE_SIDE_STYLE('',(#182));
#181=SURFACE_STYLE_FILL_AREA(#183);
#182=SURFACE_STYLE_FILL_AREA(#184);
#183=FILL_AREA_STYLE('',(#185));
#184=FILL_AREA_STYLE('',(#186));
#185=FILL_AREA_STYLE_COLOUR('',#187);
#186=FILL_AREA_STYLE_COLOUR('',#188);
#187=COLOUR_RGB('',0.615686274509804,0.811764705882353,0.929411764705882);
#188=COLOUR_RGB('',0.647058823529412,0.647058823529412,0.647058823529412);
#189=MANIFOLD_SOLID_BREP('AC36_0_V0',#171);
#190=MANIFOLD_SOLID_BREP('AC38_0_V0',#172);
#191=SHAPE_DEFINITION_REPRESENTATION(#403,#193);
#192=SHAPE_DEFINITION_REPRESENTATION(#404,#194);
#193=SHAPE_REPRESENTATION('AC36_0_V0',(#195),#393);
#194=SHAPE_REPRESENTATION('AC38_0_V0',(#204),#394);
#195=AXIS2_PLACEMENT_3D('',#255,#211,#212);
#196=AXIS2_PLACEMENT_3D('',#256,#213,#214);
#197=AXIS2_PLACEMENT_3D('',#277,#215,#216);
#198=AXIS2_PLACEMENT_3D('',#279,#217,#218);
#199=AXIS2_PLACEMENT_3D('',#281,#219,#220);
#200=AXIS2_PLACEMENT_3D('',#282,#221,#222);
#201=AXIS2_PLACEMENT_3D('',#283,#223,#224);
#202=AXIS2_PLACEMENT_3D('',#304,#225,#226);
#203=AXIS2_PLACEMENT_3D('',#306,#227,#228);
#204=AXIS2_PLACEMENT_3D('',#364,#229,#230);
#205=AXIS2_PLACEMENT_3D('',#365,#231,#232);
#206=AXIS2_PLACEMENT_3D('',#374,#237,#238);
#207=AXIS2_PLACEMENT_3D('',#380,#242,#243);
#208=AXIS2_PLACEMENT_3D('',#386,#247,#248);
#209=AXIS2_PLACEMENT_3D('',#389,#251,#252);
#210=AXIS2_PLACEMENT_3D('',#390,#253,#254);
#211=DIRECTION('',(0.,0.,1.));
#212=DIRECTION('',(1.,0.,0.));
#213=DIRECTION('',(0.,0.,-1.));
#214=DIRECTION('',(-1.,0.,0.));
#215=DIRECTION('',(0.,0.,1.));
#216=DIRECTION('',(1.,0.,0.));
#217=DIRECTION('',(0.,0.,1.));
#218=DIRECTION('',(1.,0.,0.));
#219=DIRECTION('',(0.,0.,1.));
#220=DIRECTION('',(1.,0.,0.));
#221=DIRECTION('',(0.,0.,1.));
#222=DIRECTION('',(1.,0.,0.));
#223=DIRECTION('',(-1.,0.,0.));
#224=DIRECTION('',(0.,0.,1.));
#225=DIRECTION('',(1.,0.,0.));
#226=DIRECTION('',(0.,0.,-1.));
#227=DIRECTION('',(1.,0.,0.));
#228=DIRECTION('',(0.,1.,0.));
#229=DIRECTION('',(0.,0.,1.));
#230=DIRECTION('',(1.,0.,0.));
#231=DIRECTION('',(-1.,0.,0.));
#232=DIRECTION('',(0.,0.,1.));
#233=DIRECTION('',(0.,1.,0.));
#234=DIRECTION('',(0.,0.,-1.));
#235=DIRECTION('',(0.,1.,0.));
#236=DIRECTION('',(0.,0.,-1.));
#237=DIRECTION('',(0.,1.,0.));
#238=DIRECTION('',(0.,0.,1.));
#239=DIRECTION('',(1.,0.,0.));
#240=DIRECTION('',(-0.124034734589208,0.,0.992277876713668));
#241=DIRECTION('',(1.,0.,0.));
#242=DIRECTION('',(0.992277876713668,0.,0.124034734589208));
#243=DIRECTION('',(-0.124034734589208,0.,0.992277876713668));
#244=DIRECTION('',(0.,-1.,0.));
#245=DIRECTION('',(-0.124034734589208,0.,0.992277876713668));
#246=DIRECTION('',(0.,-1.,0.));
#247=DIRECTION('',(0.,1.,0.));
#248=DIRECTION('',(0.,0.,1.));
#249=DIRECTION('',(1.,0.,0.));
#250=DIRECTION('',(1.,0.,0.));
#251=DIRECTION('',(0.,0.,1.));
#252=DIRECTION('',(1.,0.,0.));
#253=DIRECTION('',(0.,0.,1.));
#254=DIRECTION('',(1.,0.,0.));
#255=CARTESIAN_POINT('',(0.,0.,0.));
#256=CARTESIAN_POINT('',(1.75,0.75,0.012));
#257=CARTESIAN_POINT('',(1.75783687911552,0.748101479466595,0.00467845702641602));
#258=CARTESIAN_POINT('',(1.75808103208608,0.750002925068233,0.00515963912786512));
#259=CARTESIAN_POINT('',(1.75783899254016,0.751886820260476,0.00468298646212349));
#260=CARTESIAN_POINT('',(1.75731572646263,0.753320964858514,0.003502309468675));
#261=CARTESIAN_POINT('',(1.75680387282727,0.754227342208686,0.00189336545222357));
#262=CARTESIAN_POINT('',(1.75657612826358,0.754552444640379,-9.00461723345502E-8));
#263=CARTESIAN_POINT('',(1.75680262656025,0.754229545423146,-0.00188735292290299));
#264=CARTESIAN_POINT('',(1.75731581011022,0.753320280199186,-0.00350313314211667));
#265=CARTESIAN_POINT('',(1.75783814245644,0.751891342788158,-0.00468094819048967));
#266=CARTESIAN_POINT('',(1.75807998697077,0.750004261023949,-0.00515754576906777));
#267=CARTESIAN_POINT('',(1.75784189883357,0.748123852566637,-0.00468884680876349));
#268=CARTESIAN_POINT('',(1.75731737063359,0.746681864093539,-0.00350735678384834));
#269=CARTESIAN_POINT('',(1.75680467942245,0.745773975457266,-0.00189507580441883));
#270=CARTESIAN_POINT('',(1.75657645386417,0.745448076677493,-1.24041418048993E-5));
#271=CARTESIAN_POINT('',(1.7568005584519,0.745767112836879,0.00188017281699831));
#272=CARTESIAN_POINT('',(1.75731403742635,0.746676457966659,0.00349851228885372));
#273=CARTESIAN_POINT('',(1.75783687911552,0.748101479466595,0.00467845702641602));
#274=CARTESIAN_POINT('',(1.75808103208608,0.750002925068233,0.00515963912786512));
#275=CARTESIAN_POINT('',(1.75783899254016,0.751886820260476,0.00468298646212349));
#276=CARTESIAN_POINT('',(1.758,0.75,0.005));
#277=CARTESIAN_POINT('',(1.75,0.75,0.012));
#278=CARTESIAN_POINT('',(1.758,0.75,0.012));
#279=CARTESIAN_POINT('',(1.75,0.75,-0.012));
#280=CARTESIAN_POINT('',(1.758,0.75,-0.012));
#281=CARTESIAN_POINT('',(1.75,0.75,0.012));
#282=CARTESIAN_POINT('',(1.75,0.75,-0.012));
#283=CARTESIAN_POINT('',(1.766,0.75,2.4492935982947E-19));
#284=CARTESIAN_POINT('',(1.75883651686833,0.751622469329583,0.00377102124516189));
#285=CARTESIAN_POINT('',(1.75908192516091,0.750000855468686,0.00411481202669967));
#286=CARTESIAN_POINT('',(1.75883578248802,0.748374108795674,0.00376973064803941));
#287=CARTESIAN_POINT('',(1.75827900020073,0.747095221148645,0.00288564865530559));
#288=CARTESIAN_POINT('',(1.75768061752023,0.746225022314221,0.00160867158612608));
#289=CARTESIAN_POINT('',(1.75738366536161,0.745886184164244,-5.20120941406259E-6));
#290=CARTESIAN_POINT('',(1.75768462758744,0.746230262476401,-0.00161995232607838));
#291=CARTESIAN_POINT('',(1.75828205764661,0.747099912766009,-0.00289080086810167));
#292=CARTESIAN_POINT('',(1.7588394812566,0.748387362266724,-0.00377523678424475));
#293=CARTESIAN_POINT('',(1.75908128496299,0.750005078747536,-0.00411391912205034));
#294=CARTESIAN_POINT('',(1.75883536200447,0.751626487429456,-0.00376906241033757));
#295=CARTESIAN_POINT('',(1.75827903859388,0.752904644354143,-0.00288572545078813));
#296=CARTESIAN_POINT('',(1.75768141749592,0.753773924545712,-0.00161003330701145));
#297=CARTESIAN_POINT('',(1.75738347068084,0.754114077375309,1.02988992058947E-6));
#298=CARTESIAN_POINT('',(1.75768459193077,0.753769761751912,0.00162011426955075));
#299=CARTESIAN_POINT('',(1.75827985717889,0.752903139873843,0.00288628255795342));
#300=CARTESIAN_POINT('',(1.75883651686833,0.751622469329583,0.00377102124516189));
#301=CARTESIAN_POINT('',(1.75908192516091,0.750000855468686,0.00411481202669967));
#302=CARTESIAN_POINT('',(1.75883578248802,0.748374108795674,0.00376973064803941));
#303=CARTESIAN_POINT('',(1.759,0.75,0.004));
#304=CARTESIAN_POINT('',(1.766,0.75,2.4492935982947E-19));
#305=CARTESIAN_POINT('',(1.766,0.75,-0.004));
#306=CARTESIAN_POINT('',(1.766,0.75,0.));
#307=CARTESIAN_POINT('',(1.75780597489351,0.748248784433059,0.00459550182088119));
#308=CARTESIAN_POINT('',(1.75788345284312,0.748594139362992,0.00374938146257892));
#309=CARTESIAN_POINT('',(1.7587817217552,0.748423905989753,0.00367640145670494));
#310=CARTESIAN_POINT('',(1.75792549940039,0.748783819471866,0.00485285107189544));
#311=CARTESIAN_POINT('',(1.75796407826576,0.749060716022858,0.00392470054596228));
#312=CARTESIAN_POINT('',(1.75891618682544,0.74890543752468,0.00388228085751634));
#313=CARTESIAN_POINT('',(1.75806967547614,0.749964605795233,0.00513727542085404));
#314=CARTESIAN_POINT('',(1.75803422761316,0.749974659989381,0.00407169501868299));
#315=CARTESIAN_POINT('',(1.75907838491066,0.74996814521571,0.00410982033668324));
#316=CARTESIAN_POINT('',(1.75786747367595,0.751749019151003,0.00473942297075878));
#317=CARTESIAN_POINT('',(1.75793860486688,0.751325326724743,0.00387147388161603));
#318=CARTESIAN_POINT('',(1.75885090788545,0.751574117235903,0.00379153837660702));
#319=CARTESIAN_POINT('',(1.75737238675378,0.753201418596456,0.00364130970035861));
#320=CARTESIAN_POINT('',(1.75759616024732,0.752674816118902,0.00312184984151295));
#321=CARTESIAN_POINT('',(1.758293935098,0.75288127673681,0.00291304776028689));
#322=CARTESIAN_POINT('',(1.75683476747289,0.754182591722025,0.0020414610576256));
#323=CARTESIAN_POINT('',(1.75712549317665,0.753707383253873,0.00180861897600887));
#324=CARTESIAN_POINT('',(1.757689113407,0.753764332549822,0.00163316884610048));
#325=CARTESIAN_POINT('',(1.75656542217083,0.754567587470628,3.96802381746701E-5));
#326=CARTESIAN_POINT('',(1.75686767677961,0.754133694860423,3.58450809430194E-5));
#327=CARTESIAN_POINT('',(1.75738609994218,0.754110828723565,3.17441905397376E-5));
#328=CARTESIAN_POINT('',(1.75681511708565,0.754212885241099,-0.00196209163483722));
#329=CARTESIAN_POINT('',(1.75710717771514,0.753740278513684,-0.00174031559072159));
#330=CARTESIAN_POINT('',(1.75766700672135,0.753791596716989,-0.00156967330786978));
#331=CARTESIAN_POINT('',(1.75735113340336,0.753247705600921,-0.00358986842498526));
#332=CARTESIAN_POINT('',(1.75757912976884,0.752721669319819,-0.00308278273745293));
#333=CARTESIAN_POINT('',(1.75827002507878,0.752922935040829,-0.0028718947399882));
#334=CARTESIAN_POINT('',(1.75785163182593,0.751815284352675,-0.00470688021206023));
#335=CARTESIAN_POINT('',(1.75792966323608,0.75138137363507,-0.0038524845441353));
#336=CARTESIAN_POINT('',(1.75883308580417,0.751633755917408,-0.00376550416964819));
#337=CARTESIAN_POINT('',(1.7580700989944,0.75003444496415,-0.00513822646892356));
#338=CARTESIAN_POINT('',(1.75803448729698,0.750024199716664,-0.00407233622624319));
#339=CARTESIAN_POINT('',(1.7590788613687,0.750031000467735,-0.00411058117513884));
#340=CARTESIAN_POINT('',(1.75786753558952,0.748251665063746,-0.00473932977419278));
#341=CARTESIAN_POINT('',(1.7579386783616,0.74867548019798,-0.00387135832185916));
#342=CARTESIAN_POINT('',(1.75885097753821,0.748426498557372,-0.00379146381935423));
#343=CARTESIAN_POINT('',(1.75737155489347,0.746796052020143,-0.0036403874648213));
#344=CARTESIAN_POINT('',(1.75759562866269,0.747322964416401,-0.0031216312571292));
#345=CARTESIAN_POINT('',(1.75829299925515,0.747116446818129,-0.00291230997185704));
#346=CARTESIAN_POINT('',(1.75683264594073,0.745814141323292,-0.00203112443514069));
#347=CARTESIAN_POINT('',(1.75712355743621,0.746289085741319,-0.00179968312304788));
#348=CARTESIAN_POINT('',(1.75768672668332,0.746232727190963,-0.00162489954811255));
#349=CARTESIAN_POINT('',(1.75656590152986,0.745433124403271,-4.29130691704607E-5));
#350=CARTESIAN_POINT('',(1.75686807722259,0.74586703672618,-3.84329831988453E-5));
#351=CARTESIAN_POINT('',(1.75738663922109,0.745889811962944,-3.43304553363682E-5));
#352=CARTESIAN_POINT('',(1.75681531906272,0.745787531046479,0.0019651363181247));
#353=CARTESIAN_POINT('',(1.75710739376913,0.746260121973234,0.00174297623667384));
#354=CARTESIAN_POINT('',(1.75766723394556,0.746208777941831,0.00157210905449976));
#355=CARTESIAN_POINT('',(1.75735252843489,0.746754395562386,0.00359317991476852));
#356=CARTESIAN_POINT('',(1.75758037604581,0.747280936648074,0.00308553438257258));
#357=CARTESIAN_POINT('',(1.75827159448925,0.747078956006148,0.00287454393181481));
#358=CARTESIAN_POINT('',(1.75768645038664,0.747713749394251,0.00433815256986694));
#359=CARTESIAN_POINT('',(1.75780661086859,0.748149457392506,0.00358228944497796));
#360=CARTESIAN_POINT('',(1.75864725668496,0.747942374454826,0.00347052205589353));
#361=CARTESIAN_POINT('',(1.75780597489351,0.748248784433059,0.00459550182088119));
#362=CARTESIAN_POINT('',(1.75788345284312,0.748594139362992,0.00374938146257892));
#363=CARTESIAN_POINT('',(1.7587817217552,0.748423905989753,0.00367640145670494));
#364=CARTESIAN_POINT('',(0.,0.,0.));
#365=CARTESIAN_POINT('',(2.25,0.758,0.008));
#366=CARTESIAN_POINT('',(2.25,0.758,0.));
#367=CARTESIAN_POINT('',(2.25,0.75,0.));
#368=CARTESIAN_POINT('',(2.25,0.766,0.));
#369=CARTESIAN_POINT('',(2.25,0.75,0.008));
#370=CARTESIAN_POINT('',(2.25,0.75,0.008));
#371=CARTESIAN_POINT('',(2.25,0.758,0.008));
#372=CARTESIAN_POINT('',(2.25,0.766,0.008));
#373=CARTESIAN_POINT('',(2.25,0.766,0.008));
#374=CARTESIAN_POINT('',(2.258,0.75,0.008));
#375=CARTESIAN_POINT('',(2.258,0.75,0.));
#376=CARTESIAN_POINT('',(2.266,0.75,0.));
#377=CARTESIAN_POINT('',(2.266,0.75,0.));
#378=CARTESIAN_POINT('',(2.265,0.75,0.008));
#379=CARTESIAN_POINT('',(2.258,0.75,0.008));
#380=CARTESIAN_POINT('',(2.266,0.75,0.));
#381=CARTESIAN_POINT('',(2.266,0.75,0.));
#382=CARTESIAN_POINT('',(2.266,0.766,0.));
#383=CARTESIAN_POINT('',(2.266,0.766,0.));
#384=CARTESIAN_POINT('',(2.265,0.766,0.008));
#385=CARTESIAN_POINT('',(2.265,0.75,0.008));
#386=CARTESIAN_POINT('',(2.258,0.766,0.008));
#387=CARTESIAN_POINT('',(2.258,0.766,0.));
#388=CARTESIAN_POINT('',(2.258,0.766,0.008));
#389=CARTESIAN_POINT('',(2.258,0.758,0.008));
#390=CARTESIAN_POINT('',(2.258,0.758,0.));
#391=MECHANICAL_DESIGN_GEOMETRIC_PRESENTATION_REPRESENTATION('',(#173),
#393);
#392=MECHANICAL_DESIGN_GEOMETRIC_PRESENTATION_REPRESENTATION('',(#174),
#394);
#393=(
GEOMETRIC_REPRESENTATION_CONTEXT(3)
GLOBAL_UNCERTAINTY_ASSIGNED_CONTEXT((#395))
GLOBAL_UNIT_ASSIGNED_CONTEXT((#401,#399,#397))
REPRESENTATION_CONTEXT('AC36_0_V0','TOP_LEVEL_ASSEMBLY_PART')
);
#394=(
GEOMETRIC_REPRESENTATION_CONTEXT(3)
GLOBAL_UNCERTAINTY_ASSIGNED_CONTEXT((#396))
GLOBAL_UNIT_ASSIGNED_CONTEXT((#402,#400,#398))
REPRESENTATION_CONTEXT('AC38_0_V0','TOP_LEVEL_ASSEMBLY_PART')
);
#395=UNCERTAINTY_MEASURE_WITH_UNIT(LENGTH_MEASURE(2.E-5),#401,
'DISTANCE_ACCURACY_VALUE','Maximum Tolerance applied to model');
#396=UNCERTAINTY_MEASURE_WITH_UNIT(LENGTH_MEASURE(1.E-8),#402,
'DISTANCE_ACCURACY_VALUE','Maximum Tolerance applied to model');
#397=(
NAMED_UNIT(*)
SI_UNIT($,.STERADIAN.)
SOLID_ANGLE_UNIT()
);
#398=(
NAMED_UNIT(*)
SI_UNIT($,.STERADIAN.)
SOLID_ANGLE_UNIT()
);
#399=(
NAMED_UNIT(*)
PLANE_ANGLE_UNIT()
SI_UNIT($,.RADIAN.)
);
#400=(
NAMED_UNIT(*)
PLANE_ANGLE_UNIT()
SI_UNIT($,.RADIAN.)
);
#401=(
LENGTH_UNIT()
NAMED_UNIT(*)
SI_UNIT($,.METRE.)
);
#402=(
LENGTH_UNIT()
NAMED_UNIT(*)
SI_UNIT($,.METRE.)
);
#403=PRODUCT_DEFINITION_SHAPE('','',#405);
#404=PRODUCT_DEFINITION_SHAPE('','',#406);
#405=PRODUCT_DEFINITION('','',#409,#407);
#406=PRODUCT_DEFINITION('','',#410,#408);
#407=PRODUCT_DEFINITION_CONTEXT('',#421,'design');
#408=PRODUCT_DEFINITION_CONTEXT('',#422,'design');
#409=PRODUCT_DEFINITION_FORMATION_WITH_SPECIFIED_SOURCE('','',#413,
 .NOT_KNOWN.);
#410=PRODUCT_DEFINITION_FORMATION_WITH_SPECIFIED_SOURCE('','',#414,
 .NOT_KNOWN.);
#411=PRODUCT_RELATED_PRODUCT_CATEGORY('','',(#413));
#412=PRODUCT_RELATED_PRODUCT_CATEGORY('','',(#414));
#413=PRODUCT('AC36_0_V0','AC36_0_V0','AC36_0_V0',(#417));
#414=PRODUCT('AC38_0_V0','AC38_0_V0','AC38_0_V0',(#418));
#415=PRODUCT_CATEGORY('','');
#416=PRODUCT_CATEGORY('','');
#417=PRODUCT_CONTEXT('',#421,'mechanical');
#418=PRODUCT_CONTEXT('',#422,'mechanical');
#419=APPLICATION_PROTOCOL_DEFINITION('international standard',
'automotive_design',2010,#421);
#420=APPLICATION_PROTOCOL_DEFINITION('international standard',
'automotive_design',2010,#422);
#421=APPLICATION_CONTEXT(
'core data for automotive mechanical design processes');
#422=APPLICATION_CONTEXT(
'core data for automotive mechanical design processes');
ENDSEC;
END-ISO-10303-21;
