ISO-10303-21;
HEADER;
/* Generated by software containing ST-Developer
 * from STEP Tools, Inc. (www.steptools.com) 
 */
/* OPTION: using custom renumber hook */

FILE_DESCRIPTION(
/* description */ ('STEP AP214',
'CAx-IF Rec.Pracs.---User Defined Attributes---1.5---2016-08-15'),
/* implementation_level */ '2;1');

FILE_NAME(
/* name */ '6ac03082b4d7d497553efcc8',
/* time_stamp */ '2026-10-02T22:30:27Z',
/* author */ (''),
/* organization */ (''),
/* preprocessor_version */ 'ST-DEVELOPER v20',
/* originating_system */ 'ONSHAPE BY PTC INC, 1.221',
/* authorisation */ '  ');

FILE_SCHEMA (('AUTOMOTIVE_DESIGN {1 0 10303 214 3 1 1}'));
ENDSEC;

DATA;
#10=PROPERTY_DEFINITION_REPRESENTATION(#14,#12);
#11=PROPERTY_DEFINITION_REPRESENTATION(#15,#13);
#12=REPRESENTATION('',(#16),#394);
#13=REPRESENTATION('',(#17),#394);
#14=PROPERTY_DEFINITION('pmi validation property','',#404);
#15=PROPERTY_DEFINITION('pmi validation property','',#404);
#16=VALUE_REPRESENTATION_ITEM('number of annotations',COUNT_MEASURE(0.));
#17=VALUE_REPRESENTATION_ITEM('number of views',COUNT_MEASURE(0.));
#18=LINE('',#366,#30);
#19=LINE('',#369,#31);
#20=LINE('',#371,#32);
#21=LINE('',#373,#33);
#22=LINE('',#375,#34);
#23=LINE('',#377,#35);
#24=LINE('',#379,#36);
#25=LINE('',#381,#37);
#26=LINE('',#383,#38);
#27=LINE('',#385,#39);
#28=LINE('',#387,#40);
#29=LINE('',#388,#41);
#30=VECTOR('',#233,1.);
#31=VECTOR('',#234,1.);
#32=VECTOR('',#235,1.);
#33=VECTOR('',#236,1.);
#34=VECTOR('',#239,1.);
#35=VECTOR('',#240,1.);
#36=VECTOR('',#241,1.);
#37=VECTOR('',#244,1.);
#38=VECTOR('',#245,1.);
#39=VECTOR('',#246,1.);
#40=VECTOR('',#249,1.);
#41=VECTOR('',#250,1.);
#42=SHAPE_REPRESENTATION_RELATIONSHIP('','',#193,#44);
#43=SHAPE_REPRESENTATION_RELATIONSHIP('','',#194,#45);
#44=ADVANCED_BREP_SHAPE_REPRESENTATION('',(#189),#393);
#45=ADVANCED_BREP_SHAPE_REPRESENTATION('',(#190),#394);
#46=(
BOUNDED_SURFACE()
B_SPLINE_SURFACE(3,2,((#307,#308,#309),(#310,#311,#312),(#313,#314,#315),
(#316,#317,#318),(#319,#320,#321),(#322,#323,#324),(#325,#326,#327),(#328,
#329,#330),(#331,#332,#333),(#334,#335,#336),(#337,#338,#339),(#340,#341,
#342),(#343,#344,#345),(#346,#347,#348),(#349,#350,#351),(#352,#353,#354),
(#355,#356,#357),(#358,#359,#360),(#361,#362,#363)),.UNSPECIFIED.,.T.,.F.,
 .F.)
B_SPLINE_SURFACE_WITH_KNOTS((1,3,1,1,1,1,1,1,1,1,1,1,1,1,1,1,1,3,1),(3,
3),(-0.00198850109467372,0.,0.00198850109467372,0.00397700218934745,0.00596550328402117,
0.00795400437869489,0.00994250547336862,0.0119310065680423,0.0139195076627161,
0.0159080087573898,0.0178965098520635,0.0198850109467372,0.021873512041411,
0.0238620131360847,0.0258505142307584,0.0278390153254321,0.0298275164201059,
0.0318160175147796,0.0338045186094533),(0.,1.),.UNSPECIFIED.)
GEOMETRIC_REPRESENTATION_ITEM()
RATIONAL_B_SPLINE_SURFACE(((1.,0.736971000592494,1.),(1.,0.719263896809471,
1.),(1.,0.695703359699737,1.),(1.,0.728848799124352,1.),(1.,0.799367453375016,
1.),(1.,0.862955329256632,1.),(1.,0.89085202654473,1.),(1.,0.865079670575025,
1.),(1.,0.802116214355636,1.),(1.,0.731319301594824,1.),(1.,0.695637266061758,
1.),(1.,0.728841784130986,1.),(1.,0.799485641901277,1.),(1.,0.863188511114975,
1.),(1.,0.890798650293777,1.),(1.,0.865060218475642,1.),(1.,0.801945982397877,
1.),(1.,0.754678104375518,1.),(1.,0.736971000592494,1.)))
REPRESENTATION_ITEM('')
SURFACE()
);
#47=PLANE('',#199);
#48=PLANE('',#200);
#49=PLANE('',#203);
#50=PLANE('',#205);
#51=PLANE('',#206);
#52=PLANE('',#207);
#53=PLANE('',#208);
#54=PLANE('',#209);
#55=PLANE('',#210);
#56=CIRCLE('',#197,0.008);
#57=CIRCLE('',#198,0.008);
#58=CIRCLE('',#202,0.004);
#59=ORIENTED_EDGE('',*,*,#93,.T.);
#60=ORIENTED_EDGE('',*,*,#94,.F.);
#61=ORIENTED_EDGE('',*,*,#95,.T.);
#62=ORIENTED_EDGE('',*,*,#94,.T.);
#63=ORIENTED_EDGE('',*,*,#95,.F.);
#64=ORIENTED_EDGE('',*,*,#96,.T.);
#65=ORIENTED_EDGE('',*,*,#97,.F.);
#66=ORIENTED_EDGE('',*,*,#97,.T.);
#67=ORIENTED_EDGE('',*,*,#93,.F.);
#68=ORIENTED_EDGE('',*,*,#96,.F.);
#69=ORIENTED_EDGE('',*,*,#98,.F.);
#70=ORIENTED_EDGE('',*,*,#99,.F.);
#71=ORIENTED_EDGE('',*,*,#100,.T.);
#72=ORIENTED_EDGE('',*,*,#101,.T.);
#73=ORIENTED_EDGE('',*,*,#102,.T.);
#74=ORIENTED_EDGE('',*,*,#103,.F.);
#75=ORIENTED_EDGE('',*,*,#104,.F.);
#76=ORIENTED_EDGE('',*,*,#99,.T.);
#77=ORIENTED_EDGE('',*,*,#105,.T.);
#78=ORIENTED_EDGE('',*,*,#106,.F.);
#79=ORIENTED_EDGE('',*,*,#107,.F.);
#80=ORIENTED_EDGE('',*,*,#103,.T.);
#81=ORIENTED_EDGE('',*,*,#108,.F.);
#82=ORIENTED_EDGE('',*,*,#101,.F.);
#83=ORIENTED_EDGE('',*,*,#109,.T.);
#84=ORIENTED_EDGE('',*,*,#106,.T.);
#85=ORIENTED_EDGE('',*,*,#100,.F.);
#86=ORIENTED_EDGE('',*,*,#104,.T.);
#87=ORIENTED_EDGE('',*,*,#107,.T.);
#88=ORIENTED_EDGE('',*,*,#109,.F.);
#89=ORIENTED_EDGE('',*,*,#98,.T.);
#90=ORIENTED_EDGE('',*,*,#108,.T.);
#91=ORIENTED_EDGE('',*,*,#105,.F.);
#92=ORIENTED_EDGE('',*,*,#102,.F.);
#93=EDGE_CURVE('',#110,#110,#123,.T.);
#94=EDGE_CURVE('',#111,#111,#56,.T.);
#95=EDGE_CURVE('',#112,#112,#57,.T.);
#96=EDGE_CURVE('',#113,#113,#124,.T.);
#97=EDGE_CURVE('',#114,#114,#58,.T.);
#98=EDGE_CURVE('',#115,#116,#18,.T.);
#99=EDGE_CURVE('',#117,#115,#19,.T.);
#100=EDGE_CURVE('',#117,#118,#20,.T.);
#101=EDGE_CURVE('',#118,#116,#21,.T.);
#102=EDGE_CURVE('',#115,#119,#22,.T.);
#103=EDGE_CURVE('',#120,#119,#23,.F.);
#104=EDGE_CURVE('',#117,#120,#24,.T.);
#105=EDGE_CURVE('',#119,#121,#25,.F.);
#106=EDGE_CURVE('',#122,#121,#26,.F.);
#107=EDGE_CURVE('',#120,#122,#27,.F.);
#108=EDGE_CURVE('',#116,#121,#28,.T.);
#109=EDGE_CURVE('',#118,#122,#29,.T.);
#110=VERTEX_POINT('',#276);
#111=VERTEX_POINT('',#278);
#112=VERTEX_POINT('',#280);
#113=VERTEX_POINT('',#303);
#114=VERTEX_POINT('',#305);
#115=VERTEX_POINT('',#367);
#116=VERTEX_POINT('',#368);
#117=VERTEX_POINT('',#370);
#118=VERTEX_POINT('',#372);
#119=VERTEX_POINT('',#376);
#120=VERTEX_POINT('',#378);
#121=VERTEX_POINT('',#382);
#122=VERTEX_POINT('',#384);
#123=B_SPLINE_CURVE_WITH_KNOTS('',3,(#257,#258,#259,#260,#261,#262,#263,
#264,#265,#266,#267,#268,#269,#270,#271,#272,#273,#274,#275),
 .UNSPECIFIED.,.T.,.F.,(1,1,1,1,1,1,1,1,1,1,1,1,1,1,1,1,1,1,1,1,1,1,1),
(-0.00566886884344089,-0.00377924589562726,-0.00188962294781363,0.,0.00188962294781363,
0.00377924589562726,0.00566886884344089,0.00755849179125452,0.00944811473906815,
0.0113377376868818,0.0132273606346954,0.015116983582509,0.0170066065303227,
0.0188962294781363,0.0207858524259499,0.0226754753737635,0.0245650983215772,
0.0264547212693908,0.0283443442172044,0.0302339671650181,0.0321235901128317,
0.0340132130606453,0.0359028360084589),.UNSPECIFIED.);
#124=B_SPLINE_CURVE_WITH_KNOTS('',3,(#284,#285,#286,#287,#288,#289,#290,
#291,#292,#293,#294,#295,#296,#297,#298,#299,#300,#301,#302),
 .UNSPECIFIED.,.T.,.F.,(1,1,1,1,1,1,1,1,1,1,1,1,1,1,1,1,1,1,1,1,1,1,1),
(-0.00493314899606289,-0.00328876599737526,-0.00164438299868763,0.,0.00164438299868763,
0.00328876599737526,0.00493314899606289,0.00657753199475052,0.00822191499343815,
0.00986629799212578,0.0115106809908134,0.013155063989501,0.0147994469881887,
0.0164438299868763,0.0180882129855639,0.0197325959842516,0.0213769789829392,
0.0230213619816268,0.0246657449803144,0.0263101279790021,0.0279545109776897,
0.0295988939763773,0.031243276975065),.UNSPECIFIED.);
#125=EDGE_LOOP('',(#59));
#126=EDGE_LOOP('',(#60));
#127=EDGE_LOOP('',(#61));
#128=EDGE_LOOP('',(#62));
#129=EDGE_LOOP('',(#63));
#130=EDGE_LOOP('',(#64));
#131=EDGE_LOOP('',(#65));
#132=EDGE_LOOP('',(#66));
#133=EDGE_LOOP('',(#67));
#134=EDGE_LOOP('',(#68));
#135=EDGE_LOOP('',(#69,#70,#71,#72));
#136=EDGE_LOOP('',(#73,#74,#75,#76));
#137=EDGE_LOOP('',(#77,#78,#79,#80));
#138=EDGE_LOOP('',(#81,#82,#83,#84));
#139=EDGE_LOOP('',(#85,#86,#87,#88));
#140=EDGE_LOOP('',(#89,#90,#91,#92));
#141=FACE_BOUND('',#125,.T.);
#142=FACE_BOUND('',#126,.T.);
#143=FACE_BOUND('',#127,.T.);
#144=FACE_BOUND('',#128,.T.);
#145=FACE_BOUND('',#129,.T.);
#146=FACE_BOUND('',#130,.T.);
#147=FACE_BOUND('',#131,.T.);
#148=FACE_BOUND('',#132,.T.);
#149=FACE_BOUND('',#133,.T.);
#150=FACE_BOUND('',#134,.T.);
#151=FACE_BOUND('',#135,.T.);
#152=FACE_BOUND('',#136,.T.);
#153=FACE_BOUND('',#137,.T.);
#154=FACE_BOUND('',#138,.T.);
#155=FACE_BOUND('',#139,.T.);
#156=FACE_BOUND('',#140,.T.);
#157=CYLINDRICAL_SURFACE('',#196,0.008);
#158=CYLINDRICAL_SURFACE('',#201,0.004);
#159=ADVANCED_FACE('',(#141,#142,#143),#157,.T.);
#160=ADVANCED_FACE('',(#144),#47,.T.);
#161=ADVANCED_FACE('',(#145),#48,.F.);
#162=ADVANCED_FACE('',(#146,#147),#158,.T.);
#163=ADVANCED_FACE('',(#148),#49,.T.);
#164=ADVANCED_FACE('',(#149,#150),#46,.F.);
#165=ADVANCED_FACE('',(#151),#50,.T.);
#166=ADVANCED_FACE('',(#152),#51,.F.);
#167=ADVANCED_FACE('',(#153),#52,.T.);
#168=ADVANCED_FACE('',(#154),#53,.T.);
#169=ADVANCED_FACE('',(#155),#54,.T.);
#170=ADVANCED_FACE('',(#156),#55,.F.);
#171=CLOSED_SHELL('',(#159,#160,#161,#162,#163,#164));
#172=CLOSED_SHELL('',(#165,#166,#167,#168,#169,#170));
#173=STYLED_ITEM('',(#175),#189);
#174=STYLED_ITEM('',(#176),#190);
#175=PRESENTATION_STYLE_ASSIGNMENT((#177));
#176=PRESENTATION_STYLE_ASSIGNMENT((#178));
#177=SURFACE_STYLE_USAGE(.BOTH.,#179);
#178=SURFACE_STYLE_USAGE(.BOTH.,#180);
#179=SURFACE_SIDE_STYLE('',(#181));
#180=SURFACE_SIDE_STYLE('',(#182));
#181=SURFACE_STYLE_FILL_AREA(#183);
#182=SURFACE_STYLE_FILL_AREA(#184);
#183=FILL_AREA_STYLE('',(#185));
#184=FILL_AREA_STYLE('',(#186));
#185=FILL_AREA_STYLE_COLOUR('',#187);
#186=FILL_AREA_STYLE_COLOUR('',#188);
#187=COLOUR_RGB('',0.615686274509804,0.811764705882353,0.929411764705882);
#188=COLOUR_RGB('',0.647058823529412,0.647058823529412,0.647058823529412);
#189=MANIFOLD_SOLID_BREP('AC36_0_V3',#171);
#190=MANIFOLD_SOLID_BREP('AC38_0_V3',#172);
#191=SHAPE_DEFINITION_REPRESENTATION(#403,#193);
#192=SHAPE_DEFINITION_REPRESENTATION(#404,#194);
#193=SHAPE_REPRESENTATION('AC36_0_V3',(#195),#393);
#194=SHAPE_REPRESENTATION('AC38_0_V3',(#204),#394);
#195=AXIS2_PLACEMENT_3D('',#255,#211,#212);
#196=AXIS2_PLACEMENT_3D('',#256,#213,#214);
#197=AXIS2_PLACEMENT_3D('',#277,#215,#216);
#198=AXIS2_PLACEMENT_3D('',#279,#217,#218);
#199=AXIS2_PLACEMENT_3D('',#281,#219,#220);
#200=AXIS2_PLACEMENT_3D('',#282,#221,#222);
#201=AXIS2_PLACEMENT_3D('',#283,#223,#224);
#202=AXIS2_PLACEMENT_3D('',#304,#225,#226);
#203=AXIS2_PLACEMENT_3D('',#306,#227,#228);
#204=AXIS2_PLACEMENT_3D('',#364,#229,#230);
#205=AXIS2_PLACEMENT_3D('',#365,#231,#232);
#206=AXIS2_PLACEMENT_3D('',#374,#237,#238);
#207=AXIS2_PLACEMENT_3D('',#380,#242,#243);
#208=AXIS2_PLACEMENT_3D('',#386,#247,#248);
#209=AXIS2_PLACEMENT_3D('',#389,#251,#252);
#210=AXIS2_PLACEMENT_3D('',#390,#253,#254);
#211=DIRECTION('',(0.,0.,1.));
#212=DIRECTION('',(1.,0.,0.));
#213=DIRECTION('',(-0.0544337418466352,0.0245405308936886,-0.998215773313581));
#214=DIRECTION('',(-0.99536101061531,-0.0807584994267431,0.052292669822932));
#215=DIRECTION('',(0.0544337418466352,-0.0245405308936886,0.998215773313581));
#216=DIRECTION('',(0.99536101061531,0.0807584994267431,-0.052292669822932));
#217=DIRECTION('',(0.0544337418466352,-0.0245405308936886,0.998215773313581));
#218=DIRECTION('',(0.99536101061531,0.0807584994267431,-0.052292669822932));
#219=DIRECTION('',(0.0544337418466352,-0.0245405308936886,0.998215773313581));
#220=DIRECTION('',(0.99536101061531,0.0807584994267431,-0.052292669822932));
#221=DIRECTION('',(0.0544337418466352,-0.0245405308936886,0.998215773313581));
#222=DIRECTION('',(0.99536101061531,0.0807584994267431,-0.052292669822932));
#223=DIRECTION('',(-0.99536101061531,-0.0807584994267431,0.052292669822932));
#224=DIRECTION('',(0.0544337418466352,-0.0245405308936886,0.998215773313581));
#225=DIRECTION('',(0.99536101061531,0.0807584994267431,-0.052292669822932));
#226=DIRECTION('',(-0.0544337418466352,0.0245405308936886,-0.998215773313581));
#227=DIRECTION('',(0.99536101061531,0.0807584994267431,-0.052292669822932));
#228=DIRECTION('',(-0.0793311180776076,0.996431546627161,0.0288226749410951));
#229=DIRECTION('',(0.,0.,1.));
#230=DIRECTION('',(1.,0.,0.));
#231=DIRECTION('',(-0.99536101061531,-0.0807584994267431,0.052292669822932));
#232=DIRECTION('',(0.0544337418466352,-0.0245405308936886,0.998215773313581));
#233=DIRECTION('',(-0.0793311180776076,0.996431546627161,0.0288226749410951));
#234=DIRECTION('',(-0.0544337418466352,0.0245405308936886,-0.998215773313581));
#235=DIRECTION('',(-0.0793311180776076,0.996431546627161,0.0288226749410951));
#236=DIRECTION('',(-0.0544337418466352,0.0245405308936886,-0.998215773313581));
#237=DIRECTION('',(-0.0793311180776076,0.996431546627161,0.0288226749410951));
#238=DIRECTION('',(0.0544337418466352,-0.0245405308936886,0.998215773313581));
#239=DIRECTION('',(0.99536101061531,0.0807584994267431,-0.052292669822932));
#240=DIRECTION('',(-0.0694459409909571,-0.0343678849308343,0.99699353546814));
#241=DIRECTION('',(0.99536101061531,0.0807584994267431,-0.052292669822932));
#242=DIRECTION('',(0.994426384899575,0.0770909941016737,0.0719245691261236));
#243=DIRECTION('',(-0.0694459409909572,-0.0343678849308343,0.99699353546814));
#244=DIRECTION('',(0.0793311180776076,-0.996431546627161,-0.0288226749410951));
#245=DIRECTION('',(-0.0694459409909571,-0.0343678849308343,0.99699353546814));
#246=DIRECTION('',(0.0793311180776076,-0.996431546627161,-0.0288226749410951));
#247=DIRECTION('',(-0.0793311180776076,0.996431546627161,0.0288226749410951));
#248=DIRECTION('',(0.0544337418466352,-0.0245405308936886,0.998215773313581));
#249=DIRECTION('',(0.99536101061531,0.0807584994267431,-0.052292669822932));
#250=DIRECTION('',(0.99536101061531,0.0807584994267431,-0.052292669822932));
#251=DIRECTION('',(0.0544337418466352,-0.0245405308936886,0.998215773313581));
#252=DIRECTION('',(0.99536101061531,0.0807584994267431,-0.052292669822932));
#253=DIRECTION('',(0.0544337418466352,-0.0245405308936886,0.998215773313581));
#254=DIRECTION('',(0.99536101061531,0.0807584994267431,-0.052292669822932));
#255=CARTESIAN_POINT('',(0.,0.,0.));
#256=CARTESIAN_POINT('',(1.75023629092492,0.749578803878718,0.012202033772546));
#257=CARTESIAN_POINT('',(1.75778888761788,0.748499627276405,0.00442902231908792));
#258=CARTESIAN_POINT('',(1.75790725670215,0.750402196621379,0.00495138322040892));
#259=CARTESIAN_POINT('',(1.75749094247502,0.752271519780407,0.0045425368038816));
#260=CARTESIAN_POINT('',(1.75679206286215,0.753687262957329,0.00343266526962294));
#261=CARTESIAN_POINT('',(1.75612309893855,0.754588553751013,0.00187948238691237));
#262=CARTESIAN_POINT('',(1.75576755227228,0.754940570163775,1.06849353305987E-5));
#263=CARTESIAN_POINT('',(1.75591588502146,0.754683429292836,-0.00189436165643176));
#264=CARTESIAN_POINT('',(1.7564108679819,0.753858504777244,-0.00356030215138142));
#265=CARTESIAN_POINT('',(1.7569800235561,0.752505753445804,-0.00480451566214146));
#266=CARTESIAN_POINT('',(1.757344507473,0.750656632602555,-0.00534730032221512));
#267=CARTESIAN_POINT('',(1.75728221176771,0.748752204533138,-0.00492118576447809));
#268=CARTESIAN_POINT('',(1.75693882432932,0.747244007225876,-0.00375593677065018));
#269=CARTESIAN_POINT('',(1.75658829779449,0.746258387943803,-0.00214589025279098));
#270=CARTESIAN_POINT('',(1.75648946575,0.745869019202913,-0.000264036454027715));
#271=CARTESIAN_POINT('',(1.75679024126929,0.746158570403534,0.00162264016676443));
#272=CARTESIAN_POINT('',(1.7573172911274,0.747066423459276,0.00323745072675948));
#273=CARTESIAN_POINT('',(1.75778888761788,0.748499627276405,0.00442902231908792));
#274=CARTESIAN_POINT('',(1.75790725670215,0.750402196621379,0.00495138322040892));
#275=CARTESIAN_POINT('',(1.75749094247502,0.752271519780407,0.0045425368038816));
#276=CARTESIAN_POINT('',(1.75781814281692,0.750396655590388,0.00479618200076753));
#277=CARTESIAN_POINT('',(1.75023629092492,0.749578803878718,0.012202033772546));
#278=CARTESIAN_POINT('',(1.75819917900985,0.750224871874132,0.0117836924139626));
#279=CARTESIAN_POINT('',(1.74892988112061,0.750167776620167,-0.0117551447869799));
#280=CARTESIAN_POINT('',(1.75689276920553,0.750813844615581,-0.0121734861455634));
#281=CARTESIAN_POINT('',(1.75023629092492,0.749578803878718,0.012202033772546));
#282=CARTESIAN_POINT('',(1.74892988112061,0.750167776620167,-0.0117551447869799));
#283=CARTESIAN_POINT('',(1.76550886219261,0.75116542624027,-0.000613238224383829));
#284=CARTESIAN_POINT('',(1.75845516887414,0.752111050851951,0.00357241622831227));
#285=CARTESIAN_POINT('',(1.75884679697958,0.750506605641666,0.00385602130515478));
#286=CARTESIAN_POINT('',(1.75871206372166,0.748874254305633,0.00347753989685468));
#287=CARTESIAN_POINT('',(1.75821119603746,0.747576661248967,0.00258728997618089));
#288=CARTESIAN_POINT('',(1.75761511245422,0.746692580886366,0.00131880089336712));
#289=CARTESIAN_POINT('',(1.75725856912767,0.746370575748994,-0.000286430187933251));
#290=CARTESIAN_POINT('',(1.75744294213029,0.746777358341144,-0.00190412108352197));
#291=CARTESIAN_POINT('',(1.75789943334648,0.74772334017724,-0.00317887770887908));
#292=CARTESIAN_POINT('',(1.75830399310956,0.749072916695653,-0.00405377702118478));
#293=CARTESIAN_POINT('',(1.75839790408703,0.750712699579489,-0.00435787271803242));
#294=CARTESIAN_POINT('',(1.75804326564012,0.752299999004238,-0.00395403800541076));
#295=CARTESIAN_POINT('',(1.75743620872603,0.753506989483755,-0.00300634558124932));
#296=CARTESIAN_POINT('',(1.75684183971331,0.754293598543931,-0.00167662337828976));
#297=CARTESIAN_POINT('',(1.75660598656421,0.754568939470165,-4.30501344433122E-5));
#298=CARTESIAN_POINT('',(1.75702115868039,0.754210437431068,0.00154747490024053));
#299=CARTESIAN_POINT('',(1.75775133485963,0.753363908338964,0.00275527768762746));
#300=CARTESIAN_POINT('',(1.75845516887414,0.752111050851951,0.00357241622831227));
#301=CARTESIAN_POINT('',(1.75884679697958,0.750506605641666,0.00385602130515478));
#302=CARTESIAN_POINT('',(1.75871206372166,0.748874254305633,0.00347753989685468));
#303=CARTESIAN_POINT('',(1.75875907008569,0.750501954620708,0.00374567355763102));
#304=CARTESIAN_POINT('',(1.76550886219261,0.75116542624027,-0.000613238224383829));
#305=CARTESIAN_POINT('',(1.76529112722522,0.751263588363845,-0.00460610131763815));
#306=CARTESIAN_POINT('',(1.76550886219261,0.75116542624027,-0.00061323822438383));
#307=CARTESIAN_POINT('',(1.7577419253303,0.748645946578153,0.00435207691188802));
#308=CARTESIAN_POINT('',(1.75774558897064,0.749017090370863,0.00351336874815682));
#309=CARTESIAN_POINT('',(1.75864922305181,0.74892179828499,0.00338863949434369));
#310=CARTESIAN_POINT('',(1.75783245891911,0.749182409501947,0.00461813787893272));
#311=CARTESIAN_POINT('',(1.75779836959843,0.749484210838441,0.00369760689134969));
#312=CARTESIAN_POINT('',(1.75875607069111,0.749407418304588,0.00360099904901853));
#313=CARTESIAN_POINT('',(1.75789777534593,0.750363645763384,0.00492854881882459));
#314=CARTESIAN_POINT('',(1.75780369078622,0.750396951272166,0.00386701310580791));
#315=CARTESIAN_POINT('',(1.75884559637709,0.750473848707128,0.00385028085359345));
#316=CARTESIAN_POINT('',(1.75753329545356,0.752135125519674,0.00459341146577703));
#317=CARTESIAN_POINT('',(1.75759046294488,0.751739989399759,0.00371107940560304));
#318=CARTESIAN_POINT('',(1.75847444578137,0.752063529996113,0.00359075057115863));
#319=CARTESIAN_POINT('',(1.75686551034818,0.753569307951144,0.00356500893243431));
#320=CARTESIAN_POINT('',(1.75710174557833,0.753075404062241,0.00301959610228492));
#321=CARTESIAN_POINT('',(1.75776853882864,0.753342603298864,0.00278062880870489));
#322=CARTESIAN_POINT('',(1.75616546176833,0.754542823614817,0.00202440836394968));
#323=CARTESIAN_POINT('',(1.75647986315198,0.754098503545805,0.00176308212294591));
#324=CARTESIAN_POINT('',(1.75702680049566,0.754205072384229,0.00156011326027565));
#325=CARTESIAN_POINT('',(1.75575785939271,0.754953818365663,5.13805675212226E-5));
#326=CARTESIAN_POINT('',(1.75609292426951,0.754545977826451,1.92406069567152E-5));
#327=CARTESIAN_POINT('',(1.75661053324192,0.754565161001042,-1.26217610271411E-5));
#328=CARTESIAN_POINT('',(1.75592557096656,0.754669671405628,-0.00197010037149481));
#329=CARTESIAN_POINT('',(1.75626584124992,0.754216895029602,-0.00177761444626106));
#330=CARTESIAN_POINT('',(1.75682829078285,0.754309053404554,-0.00163507245341084));
#331=CARTESIAN_POINT('',(1.75644706350869,0.753791170344086,-0.00365082162220522));
#332=CARTESIAN_POINT('',(1.75674333581919,0.753272979691295,-0.00317172500188706));
#333=CARTESIAN_POINT('',(1.75742653886125,0.75352414757004,-0.00299154102028665));
#334=CARTESIAN_POINT('',(1.75699807257231,0.752431692188116,-0.00483329901781482));
#335=CARTESIAN_POINT('',(1.75715667257117,0.751984664236983,-0.00399701472377512));
#336=CARTESIAN_POINT('',(1.75804061707017,0.752306970411294,-0.00395015758757244));
#337=CARTESIAN_POINT('',(1.75733332246292,0.750685436188756,-0.00532662844150151));
#338=CARTESIAN_POINT('',(1.75735670912903,0.750646194041282,-0.00426107305333944));
#339=CARTESIAN_POINT('',(1.75839361703366,0.750738251158413,-0.00435366685724374));
#340=CARTESIAN_POINT('',(1.75729484211001,0.748882870202024,-0.0049692353732094));
#341=CARTESIAN_POINT('',(1.75737928005704,0.74928961787499,-0.00409431733834576));
#342=CARTESIAN_POINT('',(1.7583114480361,0.749113239972781,-0.00406944826225989));
#343=CARTESIAN_POINT('',(1.75697645721536,0.747365428161245,-0.00388827233285256));
#344=CARTESIAN_POINT('',(1.75718592880071,0.747895825603807,-0.0033669720947398));
#345=CARTESIAN_POINT('',(1.75790784171118,0.747741226701078,-0.00320044404583152));
#346=CARTESIAN_POINT('',(1.75660554253728,0.746304007719485,-0.00228200089812084));
#347=CARTESIAN_POINT('',(1.75687002484235,0.746795071203672,-0.0020524958999982));
#348=CARTESIAN_POINT('',(1.75744456666412,0.746780105187775,-0.00190909820625243));
#349=CARTESIAN_POINT('',(1.75647848783341,0.745854016799774,-0.00029437010135647));
#350=CARTESIAN_POINT('',(1.75674508285443,0.746310674038611,-0.000293193068766265));
#351=CARTESIAN_POINT('',(1.75725965578027,0.746375145613651,-0.000315558408867632));
#352=CARTESIAN_POINT('',(1.75680793848768,0.746178022747061,0.00170726870941503));
#353=CARTESIAN_POINT('',(1.75704907409149,0.746677966696482,0.00148385298038649));
#354=CARTESIAN_POINT('',(1.75760108941463,0.746676210907791,0.00128253525417139));
#355=CARTESIAN_POINT('',(1.75735457381306,0.747144868220619,0.00333218301655636));
#356=CARTESIAN_POINT('',(1.75751196030244,0.747700388891016,0.00282870480173415));
#357=CARTESIAN_POINT('',(1.75820451054128,0.747560128589535,0.00257612352554441));
#358=CARTESIAN_POINT('',(1.75765139174149,0.748109483654359,0.00408601594484331));
#359=CARTESIAN_POINT('',(1.75769528513937,0.748571890111519,0.00333777620870784));
#360=CARTESIAN_POINT('',(1.75854237541251,0.748436178265391,0.00317627993966885));
#361=CARTESIAN_POINT('',(1.7577419253303,0.748645946578153,0.00435207691188802));
#362=CARTESIAN_POINT('',(1.75774558897064,0.749017090370863,0.00351336874815682));
#363=CARTESIAN_POINT('',(1.75864922305181,0.74892179828499,0.00338863949434369));
#364=CARTESIAN_POINT('',(0.,0.,0.));
#365=CARTESIAN_POINT('',(2.24938390701292,0.75764841837531,0.00843975207882049));
#366=CARTESIAN_POINT('',(2.24894843707815,0.75784474262246,0.000454025892311843));
#367=CARTESIAN_POINT('',(2.24958308602276,0.749873290249443,0.000223444492783083));
#368=CARTESIAN_POINT('',(2.24831378813353,0.765816194995477,0.000684607291840603));
#369=CARTESIAN_POINT('',(2.25001855595754,0.749676966002293,0.00820917067929173));
#370=CARTESIAN_POINT('',(2.25001855595754,0.749676966002293,0.00820917067929173));
#371=CARTESIAN_POINT('',(2.24938390701292,0.75764841837531,0.00843975207882049));
#372=CARTESIAN_POINT('',(2.24874925806829,0.765619870748328,0.00867033347834925));
#373=CARTESIAN_POINT('',(2.24874925806829,0.765619870748328,0.00867033347834925));
#374=CARTESIAN_POINT('',(2.25798144404246,0.750323033997707,0.00779082932070827));
#375=CARTESIAN_POINT('',(2.25754597410769,0.750519358244856,-0.000194896865800374));
#376=CARTESIAN_POINT('',(2.26550886219261,0.75116542624027,-0.000613238224383832));
#377=CARTESIAN_POINT('',(2.26550886219261,0.75116542624027,-0.000613238224383838));
#378=CARTESIAN_POINT('',(2.26494897111677,0.750888343493694,0.00742478063194773));
#379=CARTESIAN_POINT('',(2.25798144404246,0.750323033997707,0.00779082932070827));
#380=CARTESIAN_POINT('',(2.26550886219261,0.75116542624027,-0.000613238224383839));
#381=CARTESIAN_POINT('',(2.26550886219261,0.75116542624027,-0.000613238224383836));
#382=CARTESIAN_POINT('',(2.26423956430337,0.767108330986305,-0.00015207542532632));
#383=CARTESIAN_POINT('',(2.26423956430337,0.767108330986305,-0.000152075425326318));
#384=CARTESIAN_POINT('',(2.26367967322753,0.766831248239729,0.00788594343100527));
#385=CARTESIAN_POINT('',(2.26494897111677,0.750888343493694,0.00742478063194775));
#386=CARTESIAN_POINT('',(2.25671214615322,0.766265938743742,0.00825199211976579));
#387=CARTESIAN_POINT('',(2.25627667621844,0.766462262990891,0.000266265933257148));
#388=CARTESIAN_POINT('',(2.25671214615322,0.766265938743742,0.00825199211976579));
#389=CARTESIAN_POINT('',(2.25734679509784,0.758294486370724,0.00802141072023703));
#390=CARTESIAN_POINT('',(2.25691132516307,0.758490810617874,3.56845337283869E-5));
#391=MECHANICAL_DESIGN_GEOMETRIC_PRESENTATION_REPRESENTATION('',(#173),
#393);
#392=MECHANICAL_DESIGN_GEOMETRIC_PRESENTATION_REPRESENTATION('',(#174),
#394);
#393=(
GEOMETRIC_REPRESENTATION_CONTEXT(3)
GLOBAL_UNCERTAINTY_ASSIGNED_CONTEXT((#395))
GLOBAL_UNIT_ASSIGNED_CONTEXT((#401,#399,#397))
REPRESENTATION_CONTEXT('AC36_0_V3','TOP_LEVEL_ASSEMBLY_PART')
);
#394=(
GEOMETRIC_REPRESENTATION_CONTEXT(3)
GLOBAL_UNCERTAINTY_ASSIGNED_CONTEXT((#396))
GLOBAL_UNIT_ASSIGNED_CONTEXT((#402,#400,#398))
REPRESENTATION_CONTEXT('AC38_0_V3','TOP_LEVEL_ASSEMBLY_PART')
);
#395=UNCERTAINTY_MEASURE_WITH_UNIT(LENGTH_MEASURE(2.E-5),#401,
'DISTANCE_ACCURACY_VALUE','Maximum Tolerance applied to model');
#396=UNCERTAINTY_MEASURE_WITH_UNIT(LENGTH_MEASURE(1.E-8),#402,
'DISTANCE_ACCURACY_VALUE','Maximum Tolerance applied to model');
#397=(
NAMED_UNIT(*)
SI_UNIT($,.STERADIAN.)
SOLID_ANGLE_UNIT()
);
#398=(
NAMED_UNIT(*)
SI_UNIT($,.STERADIAN.)
SOLID_ANGLE_UNIT()
);
#399=(
NAMED_UNIT(*)
PLANE_ANGLE_UNIT()
SI_UNIT($,.RADIAN.)
);
#400=(
NAMED_UNIT(*)
PLANE_ANGLE_UNIT()
SI_UNIT($,.RADIAN.)
);
#401=(
LENGTH_UNIT()
NAMED_UNIT(*)
SI_UNIT($,.METRE.)
);
#402=(
LENGTH_UNIT()
NAMED_UNIT(*)
SI_UNIT($,.METRE.)
);
#403=PRODUCT_DEFINITION_SHAPE('','',#405);
#404=PRODUCT_DEFINITION_SHAPE('','',#406);
#405=PRODUCT_DEFINITION('','',#409,#407);
#406=PRODUCT_DEFINITION('','',#410,#408);
#407=PRODUCT_DEFINITION_CONTEXT('',#421,'design');
#408=PRODUCT_DEFINITION_CONTEXT('',#422,'design');
#409=PRODUCT_DEFINITION_FORMATION_WITH_SPECIFIED_SOURCE('','',#413,
 .NOT_KNOWN.);
#410=PRODUCT_DEFINITION_FORMATION_WITH_SPECIFIED_SOURCE('','',#414,
 .NOT_KNOWN.);
#411=PRODUCT_RELATED_PRODUCT_CATEGORY('','',(#413));
#412=PRODUCT_RELATED_PRODUCT_CATEGORY('','',(#414));
#413=PRODUCT('AC36_0_V3','AC36_0_V3','AC36_0_V3',(#417));
#414=PRODUCT('AC38_0_V3','AC38_0_V3','AC38_0_V3',(#418));
#415=PRODUCT_CATEGORY('','');
#416=PRODUCT_CATEGORY('','');
#417=PRODUCT_CONTEXT('',#421,'mechanical');
#418=PRODUCT_CONTEXT('',#422,'mechanical');
#419=APPLICATION_PROTOCOL_DEFINITION('international standard',
'automotive_design',2010,#421);
#420=APPLICATION_PROTOCOL_DEFINITION('international standard',
'automotive_design',2010,#422);
#421=APPLICATION_CONTEXT(
'core data for automotive mechanical design processes');
#422=APPLICATION_CONTEXT(
'core data for automotive mechanical design processes');
ENDSEC;
END-ISO-10303-21;
