ISO-10303-21;
HEADER;
FILE_DESCRIPTION(('Open CASCADE Model'),'2;1');
FILE_NAME('Open CASCADE Shape Model','2026-09-26T10:56:48',('Author'),(
    'Open CASCADE'),'Open CASCADE STEP processor 7.8','Open CASCADE 7.8'
  ,'Unknown');
FILE_SCHEMA(('AUTOMOTIVE_DESIGN { 1 0 10303 214 1 1 1 1 }'));
ENDSEC;
DATA;
#1 = APPLICATION_PROTOCOL_DEFINITION('international standard',
  'automotive_design',2000,#2);
#2 = APPLICATION_CONTEXT(
  'core data for automotive mechanical design processes');
#3 = SHAPE_DEFINITION_REPRESENTATION(#4,#10);
#4 = PRODUCT_DEFINITION_SHAPE('','',#5);
#5 = PRODUCT_DEFINITION('design','',#6,#9);
#6 = PRODUCT_DEFINITION_FORMATION('','',#7);
#7 = PRODUCT('Open CASCADE STEP translator 7.8 19',
  'Open CASCADE STEP translator 7.8 19','',(#8));
#8 = PRODUCT_CONTEXT('',#2,'mechanical');
#9 = PRODUCT_DEFINITION_CONTEXT('part definition',#2,'design');
#10 = ADVANCED_BREP_SHAPE_REPRESENTATION('',(#11,#15),#207);
#11 = AXIS2_PLACEMENT_3D('',#12,#13,#14);
#12 = CARTESIAN_POINT('',(0.,0.,0.));
#13 = DIRECTION('',(0.,0.,1.));
#14 = DIRECTION('',(1.,0.,-0.));
#15 = MANIFOLD_SOLID_BREP('',#16);
#16 = CLOSED_SHELL('',(#17,#152));
#17 = ADVANCED_FACE('',(#18),#33,.T.);
#18 = FACE_BOUND('',#19,.T.);
#19 = EDGE_LOOP('',(#20,#51,#52,#93,#117,#118));
#20 = ORIENTED_EDGE('',*,*,#21,.T.);
#21 = EDGE_CURVE('',#22,#24,#26,.T.);
#22 = VERTEX_POINT('',#23);
#23 = CARTESIAN_POINT('',(5.999500249938,-9.794725711751E-16,
    7.743869187731E-02));
#24 = VERTEX_POINT('',#25);
#25 = CARTESIAN_POINT('',(3.673940397442E-16,-8.998558695971E-32,6.));
#26 = SEAM_CURVE('',#27,(#32,#44),.PCURVE_S1.);
#27 = CIRCLE('',#28,6.);
#28 = AXIS2_PLACEMENT_3D('',#29,#30,#31);
#29 = CARTESIAN_POINT('',(0.,0.,0.));
#30 = DIRECTION('',(-2.449293598295E-16,-1.,0.));
#31 = DIRECTION('',(1.,-2.449293598295E-16,0.));
#32 = PCURVE('',#33,#38);
#33 = SPHERICAL_SURFACE('',#34,6.);
#34 = AXIS2_PLACEMENT_3D('',#35,#36,#37);
#35 = CARTESIAN_POINT('',(0.,0.,0.));
#36 = DIRECTION('',(0.,0.,1.));
#37 = DIRECTION('',(1.,0.,-0.));
#38 = DEFINITIONAL_REPRESENTATION('',(#39),#43);
#39 = LINE('',#40,#41);
#40 = CARTESIAN_POINT('',(6.28318530718,-6.28318530718));
#41 = VECTOR('',#42,1.);
#42 = DIRECTION('',(0.,1.));
#43 = ( GEOMETRIC_REPRESENTATION_CONTEXT(2) 
PARAMETRIC_REPRESENTATION_CONTEXT() REPRESENTATION_CONTEXT('2D SPACE',''
  ) );
#44 = PCURVE('',#33,#45);
#45 = DEFINITIONAL_REPRESENTATION('',(#46),#50);
#46 = LINE('',#47,#48);
#47 = CARTESIAN_POINT('',(0.,-6.28318530718));
#48 = VECTOR('',#49,1.);
#49 = DIRECTION('',(0.,1.));
#50 = ( GEOMETRIC_REPRESENTATION_CONTEXT(2) 
PARAMETRIC_REPRESENTATION_CONTEXT() REPRESENTATION_CONTEXT('2D SPACE',''
  ) );
#51 = ORIENTED_EDGE('',*,*,#21,.F.);
#52 = ORIENTED_EDGE('',*,*,#53,.F.);
#53 = EDGE_CURVE('',#54,#22,#56,.T.);
#54 = VERTEX_POINT('',#55);
#55 = CARTESIAN_POINT('',(5.999500249938,-9.794725711751E-16,
    -7.743869187732E-02));
#56 = SURFACE_CURVE('',#57,(#62,#75),.PCURVE_S1.);
#57 = CIRCLE('',#58,7.743869187746E-02);
#58 = AXIS2_PLACEMENT_3D('',#59,#60,#61);
#59 = CARTESIAN_POINT('',(5.999500249938,0.,0.));
#60 = DIRECTION('',(1.,0.,0.));
#61 = DIRECTION('',(-0.,0.,1.));
#62 = PCURVE('',#33,#63);
#63 = DEFINITIONAL_REPRESENTATION('',(#64),#74);
#64 = B_SPLINE_CURVE_WITH_KNOTS('',8,(#65,#66,#67,#68,#69,#70,#71,#72,
    #73),.UNSPECIFIED.,.F.,.F.,(9,9),(3.14159265359,6.28318530718),
  .PIECEWISE_BEZIER_KNOTS.);
#65 = CARTESIAN_POINT('',(0.,-1.290680699143E-02));
#66 = CARTESIAN_POINT('',(5.068772717952E-03,-1.290680699143E-02));
#67 = CARTESIAN_POINT('',(1.013756772007E-02,-1.063158427189E-02));
#68 = CARTESIAN_POINT('',(1.401460536439E-02,-6.084419871393E-03));
#69 = CARTESIAN_POINT('',(1.551003398987E-02,-1.331015560062E-14));
#70 = CARTESIAN_POINT('',(1.401460536439E-02,6.084419871414E-03));
#71 = CARTESIAN_POINT('',(1.013756772008E-02,1.063158427188E-02));
#72 = CARTESIAN_POINT('',(5.068772717952E-03,1.290680699143E-02));
#73 = CARTESIAN_POINT('',(3.16143152553E-18,1.290680699143E-02));
#74 = ( GEOMETRIC_REPRESENTATION_CONTEXT(2) 
PARAMETRIC_REPRESENTATION_CONTEXT() REPRESENTATION_CONTEXT('2D SPACE',''
  ) );
#75 = PCURVE('',#76,#81);
#76 = SPHERICAL_SURFACE('',#77,2.);
#77 = AXIS2_PLACEMENT_3D('',#78,#79,#80);
#78 = CARTESIAN_POINT('',(4.001,0.,0.));
#79 = DIRECTION('',(0.,0.,1.));
#80 = DIRECTION('',(1.,0.,-0.));
#81 = DEFINITIONAL_REPRESENTATION('',(#82),#92);
#82 = B_SPLINE_CURVE_WITH_KNOTS('',8,(#83,#84,#85,#86,#87,#88,#89,#90,
    #91),.UNSPECIFIED.,.F.,.F.,(9,9),(3.14159265359,6.28318530718),
  .PIECEWISE_BEZIER_KNOTS.);
#83 = CARTESIAN_POINT('',(-8.881784197001E-16,-3.872902706623E-02));
#84 = CARTESIAN_POINT('',(1.521646203906E-02,-3.872902706623E-02));
#85 = CARTESIAN_POINT('',(3.043255952867E-02,-3.189944637087E-02));
#86 = CARTESIAN_POINT('',(4.206590835303E-02,-1.824466737207E-02));
#87 = CARTESIAN_POINT('',(4.650811037528E-02,4.459981455527E-15));
#88 = CARTESIAN_POINT('',(4.206590835305E-02,1.824466737207E-02));
#89 = CARTESIAN_POINT('',(3.043255952867E-02,3.189944637087E-02));
#90 = CARTESIAN_POINT('',(1.521646203906E-02,3.872902706623E-02));
#91 = CARTESIAN_POINT('',(9.490621393803E-18,3.872902706623E-02));
#92 = ( GEOMETRIC_REPRESENTATION_CONTEXT(2) 
PARAMETRIC_REPRESENTATION_CONTEXT() REPRESENTATION_CONTEXT('2D SPACE',''
  ) );
#93 = ORIENTED_EDGE('',*,*,#94,.F.);
#94 = EDGE_CURVE('',#95,#54,#97,.T.);
#95 = VERTEX_POINT('',#96);
#96 = CARTESIAN_POINT('',(3.673940397442E-16,-8.998558695971E-32,-6.));
#97 = SEAM_CURVE('',#98,(#103,#110),.PCURVE_S1.);
#98 = CIRCLE('',#99,6.);
#99 = AXIS2_PLACEMENT_3D('',#100,#101,#102);
#100 = CARTESIAN_POINT('',(0.,0.,0.));
#101 = DIRECTION('',(-2.449293598295E-16,-1.,0.));
#102 = DIRECTION('',(1.,-2.449293598295E-16,0.));
#103 = PCURVE('',#33,#104);
#104 = DEFINITIONAL_REPRESENTATION('',(#105),#109);
#105 = LINE('',#106,#107);
#106 = CARTESIAN_POINT('',(6.28318530718,-6.28318530718));
#107 = VECTOR('',#108,1.);
#108 = DIRECTION('',(0.,1.));
#109 = ( GEOMETRIC_REPRESENTATION_CONTEXT(2) 
PARAMETRIC_REPRESENTATION_CONTEXT() REPRESENTATION_CONTEXT('2D SPACE',''
  ) );
#110 = PCURVE('',#33,#111);
#111 = DEFINITIONAL_REPRESENTATION('',(#112),#116);
#112 = LINE('',#113,#114);
#113 = CARTESIAN_POINT('',(0.,-6.28318530718));
#114 = VECTOR('',#115,1.);
#115 = DIRECTION('',(0.,1.));
#116 = ( GEOMETRIC_REPRESENTATION_CONTEXT(2) 
PARAMETRIC_REPRESENTATION_CONTEXT() REPRESENTATION_CONTEXT('2D SPACE',''
  ) );
#117 = ORIENTED_EDGE('',*,*,#94,.T.);
#118 = ORIENTED_EDGE('',*,*,#119,.F.);
#119 = EDGE_CURVE('',#22,#54,#120,.T.);
#120 = SURFACE_CURVE('',#121,(#126,#139),.PCURVE_S1.);
#121 = CIRCLE('',#122,7.743869187746E-02);
#122 = AXIS2_PLACEMENT_3D('',#123,#124,#125);
#123 = CARTESIAN_POINT('',(5.999500249938,0.,0.));
#124 = DIRECTION('',(1.,0.,0.));
#125 = DIRECTION('',(-0.,0.,1.));
#126 = PCURVE('',#33,#127);
#127 = DEFINITIONAL_REPRESENTATION('',(#128),#138);
#128 = B_SPLINE_CURVE_WITH_KNOTS('',8,(#129,#130,#131,#132,#133,#134,
    #135,#136,#137),.UNSPECIFIED.,.F.,.F.,(9,9),(0.,3.14159265359),
  .PIECEWISE_BEZIER_KNOTS.);
#129 = CARTESIAN_POINT('',(6.28318530718,1.290680699143E-02));
#130 = CARTESIAN_POINT('',(6.278116534462,1.290680699143E-02));
#131 = CARTESIAN_POINT('',(6.27304773946,1.063158427188E-02));
#132 = CARTESIAN_POINT('',(6.269170701815,6.084419871405E-03));
#133 = CARTESIAN_POINT('',(6.26767527319,-3.482309652556E-15));
#134 = CARTESIAN_POINT('',(6.269170701815,-6.084419871402E-03));
#135 = CARTESIAN_POINT('',(6.273047739459,-1.063158427188E-02));
#136 = CARTESIAN_POINT('',(6.278116534462,-1.290680699143E-02));
#137 = CARTESIAN_POINT('',(6.28318530718,-1.290680699143E-02));
#138 = ( GEOMETRIC_REPRESENTATION_CONTEXT(2) 
PARAMETRIC_REPRESENTATION_CONTEXT() REPRESENTATION_CONTEXT('2D SPACE',''
  ) );
#139 = PCURVE('',#76,#140);
#140 = DEFINITIONAL_REPRESENTATION('',(#141),#151);
#141 = B_SPLINE_CURVE_WITH_KNOTS('',8,(#142,#143,#144,#145,#146,#147,
    #148,#149,#150),.UNSPECIFIED.,.F.,.F.,(9,9),(0.,3.14159265359),
  .PIECEWISE_BEZIER_KNOTS.);
#142 = CARTESIAN_POINT('',(6.28318530718,3.872902706623E-02));
#143 = CARTESIAN_POINT('',(6.267968845141,3.872902706623E-02));
#144 = CARTESIAN_POINT('',(6.252752747651,3.189944637087E-02));
#145 = CARTESIAN_POINT('',(6.241119398827,1.824466737206E-02));
#146 = CARTESIAN_POINT('',(6.236677196804,1.984431028136E-14));
#147 = CARTESIAN_POINT('',(6.241119398827,-1.824466737207E-02));
#148 = CARTESIAN_POINT('',(6.252752747651,-3.189944637087E-02));
#149 = CARTESIAN_POINT('',(6.267968845141,-3.872902706623E-02));
#150 = CARTESIAN_POINT('',(6.28318530718,-3.872902706623E-02));
#151 = ( GEOMETRIC_REPRESENTATION_CONTEXT(2) 
PARAMETRIC_REPRESENTATION_CONTEXT() REPRESENTATION_CONTEXT('2D SPACE',''
  ) );
#152 = ADVANCED_FACE('',(#153),#76,.F.);
#153 = FACE_BOUND('',#154,.F.);
#154 = EDGE_LOOP('',(#155,#179,#180,#181,#205,#206));
#155 = ORIENTED_EDGE('',*,*,#156,.T.);
#156 = EDGE_CURVE('',#22,#157,#159,.T.);
#157 = VERTEX_POINT('',#158);
#158 = CARTESIAN_POINT('',(4.001,-2.999519565324E-32,2.));
#159 = SEAM_CURVE('',#160,(#165,#172),.PCURVE_S1.);
#160 = CIRCLE('',#161,2.);
#161 = AXIS2_PLACEMENT_3D('',#162,#163,#164);
#162 = CARTESIAN_POINT('',(4.001,0.,0.));
#163 = DIRECTION('',(-2.449293598295E-16,-1.,0.));
#164 = DIRECTION('',(1.,-2.449293598295E-16,0.));
#165 = PCURVE('',#76,#166);
#166 = DEFINITIONAL_REPRESENTATION('',(#167),#171);
#167 = LINE('',#168,#169);
#168 = CARTESIAN_POINT('',(6.28318530718,-6.28318530718));
#169 = VECTOR('',#170,1.);
#170 = DIRECTION('',(0.,1.));
#171 = ( GEOMETRIC_REPRESENTATION_CONTEXT(2) 
PARAMETRIC_REPRESENTATION_CONTEXT() REPRESENTATION_CONTEXT('2D SPACE',''
  ) );
#172 = PCURVE('',#76,#173);
#173 = DEFINITIONAL_REPRESENTATION('',(#174),#178);
#174 = LINE('',#175,#176);
#175 = CARTESIAN_POINT('',(0.,-6.28318530718));
#176 = VECTOR('',#177,1.);
#177 = DIRECTION('',(0.,1.));
#178 = ( GEOMETRIC_REPRESENTATION_CONTEXT(2) 
PARAMETRIC_REPRESENTATION_CONTEXT() REPRESENTATION_CONTEXT('2D SPACE',''
  ) );
#179 = ORIENTED_EDGE('',*,*,#156,.F.);
#180 = ORIENTED_EDGE('',*,*,#53,.F.);
#181 = ORIENTED_EDGE('',*,*,#182,.F.);
#182 = EDGE_CURVE('',#183,#54,#185,.T.);
#183 = VERTEX_POINT('',#184);
#184 = CARTESIAN_POINT('',(4.001,-2.999519565324E-32,-2.));
#185 = SEAM_CURVE('',#186,(#191,#198),.PCURVE_S1.);
#186 = CIRCLE('',#187,2.);
#187 = AXIS2_PLACEMENT_3D('',#188,#189,#190);
#188 = CARTESIAN_POINT('',(4.001,0.,0.));
#189 = DIRECTION('',(-2.449293598295E-16,-1.,0.));
#190 = DIRECTION('',(1.,-2.449293598295E-16,0.));
#191 = PCURVE('',#76,#192);
#192 = DEFINITIONAL_REPRESENTATION('',(#193),#197);
#193 = LINE('',#194,#195);
#194 = CARTESIAN_POINT('',(6.28318530718,-6.28318530718));
#195 = VECTOR('',#196,1.);
#196 = DIRECTION('',(0.,1.));
#197 = ( GEOMETRIC_REPRESENTATION_CONTEXT(2) 
PARAMETRIC_REPRESENTATION_CONTEXT() REPRESENTATION_CONTEXT('2D SPACE',''
  ) );
#198 = PCURVE('',#76,#199);
#199 = DEFINITIONAL_REPRESENTATION('',(#200),#204);
#200 = LINE('',#201,#202);
#201 = CARTESIAN_POINT('',(0.,-6.28318530718));
#202 = VECTOR('',#203,1.);
#203 = DIRECTION('',(0.,1.));
#204 = ( GEOMETRIC_REPRESENTATION_CONTEXT(2) 
PARAMETRIC_REPRESENTATION_CONTEXT() REPRESENTATION_CONTEXT('2D SPACE',''
  ) );
#205 = ORIENTED_EDGE('',*,*,#182,.T.);
#206 = ORIENTED_EDGE('',*,*,#119,.F.);
#207 = ( GEOMETRIC_REPRESENTATION_CONTEXT(3) 
GLOBAL_UNCERTAINTY_ASSIGNED_CONTEXT((#211)) GLOBAL_UNIT_ASSIGNED_CONTEXT
((#208,#209,#210)) REPRESENTATION_CONTEXT('Context #1',
  '3D Context with UNIT and UNCERTAINTY') );
#208 = ( LENGTH_UNIT() NAMED_UNIT(*) SI_UNIT(.MILLI.,.METRE.) );
#209 = ( NAMED_UNIT(*) PLANE_ANGLE_UNIT() SI_UNIT($,.RADIAN.) );
#210 = ( NAMED_UNIT(*) SI_UNIT($,.STERADIAN.) SOLID_ANGLE_UNIT() );
#211 = UNCERTAINTY_MEASURE_WITH_UNIT(LENGTH_MEASURE(1.E-07),#208,
  'distance_accuracy_value','confusion accuracy');
#212 = PRODUCT_RELATED_PRODUCT_CATEGORY('part',$,(#7));
ENDSEC;
END-ISO-10303-21;
