solid 
 facet normal  9.999833e-01 -5.778465e-03  5.990245e-17
   outer loop
     vertex  5.999944e+00 -1.469563e-15 -2.581353e-02
     vertex  5.999500e+00 -7.687408e-02  9.334203e-03
     vertex  5.999500e+00 -7.687408e-02 -9.334203e-03
   endloop
 endfacet
 facet normal  9.999803e-01 -6.100795e-03 -1.503711e-03
   outer loop
     vertex  5.999944e+00 -1.469563e-15 -2.581353e-02
     vertex  5.999500e+00 -7.687408e-02 -9.334203e-03
     vertex  5.999500e+00 -7.240643e-02 -2.746014e-02
   endloop
 endfacet
 facet normal  9.999766e-01 -6.062608e-03 -3.181902e-03
   outer loop
     vertex  5.999944e+00 -1.469563e-15 -2.581353e-02
     vertex  5.999500e+00 -7.240643e-02 -2.746014e-02
     vertex  5.999500e+00 -6.373079e-02 -4.399019e-02
   endloop
 endfacet
 facet normal  9.999724e-01 -5.564169e-03 -4.929423e-03
   outer loop
     vertex  5.999944e+00 -1.469563e-15 -2.581353e-02
     vertex  5.999500e+00 -6.373079e-02 -4.399019e-02
     vertex  5.999500e+00 -5.135135e-02 -5.796369e-02
   endloop
 endfacet
 facet normal  9.999681e-01 -4.536020e-03 -6.571559e-03
   outer loop
     vertex  5.999944e+00 -1.469563e-15 -2.581353e-02
     vertex  5.999500e+00 -5.135135e-02 -5.796369e-02
     vertex  5.999500e+00 -3.598755e-02 -6.856856e-02
   endloop
 endfacet
 facet normal  9.999645e-01 -2.986794e-03 -7.875529e-03
   outer loop
     vertex  5.999944e+00 -1.469563e-15 -2.581353e-02
     vertex  5.999500e+00 -3.598755e-02 -6.856856e-02
     vertex  5.999500e+00 -1.853229e-02 -7.518846e-02
   endloop
 endfacet
 facet normal  9.999624e-01 -1.044767e-03 -8.604427e-03
   outer loop
     vertex  5.999944e+00 -1.469563e-15 -2.581353e-02
     vertex  5.999500e+00 -1.853229e-02 -7.518846e-02
     vertex  5.999500e+00 -9.794726e-16 -7.743869e-02
   endloop
 endfacet
 facet normal  9.999724e-01 -5.564169e-03  4.929423e-03
   outer loop
     vertex  5.999944e+00 -1.469563e-15  2.581353e-02
     vertex  5.999500e+00 -5.135135e-02  5.796369e-02
     vertex  5.999500e+00 -6.373079e-02  4.399019e-02
   endloop
 endfacet
 facet normal  9.999766e-01 -6.062608e-03  3.181902e-03
   outer loop
     vertex  5.999944e+00 -1.469563e-15  2.581353e-02
     vertex  5.999500e+00 -6.373079e-02  4.399019e-02
     vertex  5.999500e+00 -7.240643e-02  2.746014e-02
   endloop
 endfacet
 facet normal  9.999803e-01 -6.100795e-03  1.503711e-03
   outer loop
     vertex  5.999944e+00 -1.469563e-15  2.581353e-02
     vertex  5.999500e+00 -7.240643e-02  2.746014e-02
     vertex  5.999500e+00 -7.687408e-02  9.334203e-03
   endloop
 endfacet
 facet normal  9.999833e-01 -5.778465e-03  0.000000e+00
   outer loop
     vertex  5.999944e+00 -1.469563e-15  2.581353e-02
     vertex  5.999500e+00 -7.687408e-02  9.334203e-03
     vertex  5.999944e+00 -1.469563e-15 -2.581353e-02
   endloop
 endfacet
 facet normal  9.999681e-01 -4.536020e-03  6.571559e-03
   outer loop
     vertex  5.999500e+00 -3.598755e-02  6.856856e-02
     vertex  5.999500e+00 -5.135135e-02  5.796369e-02
     vertex  5.999944e+00 -1.469563e-15  2.581353e-02
   endloop
 endfacet
 facet normal  9.999645e-01 -2.986794e-03  7.875529e-03
   outer loop
     vertex  5.999500e+00 -1.853229e-02  7.518846e-02
     vertex  5.999500e+00 -3.598755e-02  6.856856e-02
     vertex  5.999944e+00 -1.469563e-15  2.581353e-02
   endloop
 endfacet
 facet normal  9.999624e-01 -1.044767e-03  8.604427e-03
   outer loop
     vertex  5.999500e+00 -9.794726e-16  7.743869e-02
     vertex  5.999500e+00 -1.853229e-02  7.518846e-02
     vertex  5.999944e+00 -1.469563e-15  2.581353e-02
   endloop
 endfacet
 facet normal  9.999624e-01  1.044767e-03 -8.604427e-03
   outer loop
     vertex  5.999944e+00 -1.469563e-15 -2.581353e-02
     vertex  5.999500e+00 -9.794726e-16 -7.743869e-02
     vertex  5.999500e+00  1.853229e-02 -7.518846e-02
   endloop
 endfacet
 facet normal  9.999645e-01  2.986794e-03 -7.875529e-03
   outer loop
     vertex  5.999944e+00 -1.469563e-15 -2.581353e-02
     vertex  5.999500e+00  1.853229e-02 -7.518846e-02
     vertex  5.999500e+00  3.598755e-02 -6.856856e-02
   endloop
 endfacet
 facet normal  9.999681e-01  4.536020e-03 -6.571559e-03
   outer loop
     vertex  5.999500e+00  5.135135e-02 -5.796369e-02
     vertex  5.999944e+00 -1.469563e-15 -2.581353e-02
     vertex  5.999500e+00  3.598755e-02 -6.856856e-02
   endloop
 endfacet
 facet normal  9.999724e-01  5.564169e-03 -4.929423e-03
   outer loop
     vertex  5.999500e+00  6.373079e-02 -4.399019e-02
     vertex  5.999944e+00 -1.469563e-15 -2.581353e-02
     vertex  5.999500e+00  5.135135e-02 -5.796369e-02
   endloop
 endfacet
 facet normal  9.999766e-01  6.062608e-03 -3.181902e-03
   outer loop
     vertex  5.999500e+00  7.240643e-02 -2.746014e-02
     vertex  5.999944e+00 -1.469563e-15 -2.581353e-02
     vertex  5.999500e+00  6.373079e-02 -4.399019e-02
   endloop
 endfacet
 facet normal  9.999833e-01  5.778465e-03  1.526942e-19
   outer loop
     vertex  5.999500e+00  7.687408e-02 -9.334203e-03
     vertex  5.999944e+00 -1.469563e-15  2.581353e-02
     vertex  5.999944e+00 -1.469563e-15 -2.581353e-02
   endloop
 endfacet
 facet normal  9.999803e-01  6.100795e-03 -1.503711e-03
   outer loop
     vertex  5.999500e+00  7.687408e-02 -9.334203e-03
     vertex  5.999944e+00 -1.469563e-15 -2.581353e-02
     vertex  5.999500e+00  7.240643e-02 -2.746014e-02
   endloop
 endfacet
 facet normal  9.999833e-01  5.778465e-03 -5.584302e-17
   outer loop
     vertex  5.999500e+00  7.687408e-02  9.334203e-03
     vertex  5.999944e+00 -1.469563e-15  2.581353e-02
     vertex  5.999500e+00  7.687408e-02 -9.334203e-03
   endloop
 endfacet
 facet normal  9.999624e-01  1.044767e-03  8.604427e-03
   outer loop
     vertex  5.999500e+00  1.853229e-02  7.518846e-02
     vertex  5.999500e+00 -9.794726e-16  7.743869e-02
     vertex  5.999944e+00 -1.469563e-15  2.581353e-02
   endloop
 endfacet
 facet normal  9.999803e-01  6.100795e-03  1.503711e-03
   outer loop
     vertex  5.999500e+00  7.240643e-02  2.746014e-02
     vertex  5.999944e+00 -1.469563e-15  2.581353e-02
     vertex  5.999500e+00  7.687408e-02  9.334203e-03
   endloop
 endfacet
 facet normal  9.999645e-01  2.986794e-03  7.875529e-03
   outer loop
     vertex  5.999500e+00  3.598755e-02  6.856856e-02
     vertex  5.999500e+00  1.853229e-02  7.518846e-02
     vertex  5.999944e+00 -1.469563e-15  2.581353e-02
   endloop
 endfacet
 facet normal  9.999766e-01  6.062608e-03  3.181902e-03
   outer loop
     vertex  5.999500e+00  6.373079e-02  4.399019e-02
     vertex  5.999944e+00 -1.469563e-15  2.581353e-02
     vertex  5.999500e+00  7.240643e-02  2.746014e-02
   endloop
 endfacet
 facet normal  9.999681e-01  4.536020e-03  6.571559e-03
   outer loop
     vertex  5.999500e+00  5.135135e-02  5.796369e-02
     vertex  5.999500e+00  3.598755e-02  6.856856e-02
     vertex  5.999944e+00 -1.469563e-15  2.581353e-02
   endloop
 endfacet
 facet normal  9.999724e-01  5.564169e-03  4.929423e-03
   outer loop
     vertex  5.999500e+00  5.135135e-02  5.796369e-02
     vertex  5.999944e+00 -1.469563e-15  2.581353e-02
     vertex  5.999500e+00  6.373079e-02  4.399019e-02
   endloop
 endfacet
 facet normal  3.216722e-01 -6.871732e-02 -9.443542e-01
   outer loop
     vertex  4.674648e+00  1.187823e-01 -1.879385e+00
     vertex  4.848776e+00 -2.076451e-16 -1.811429e+00
     vertex  4.435247e+00 -1.063599e-16 -1.952288e+00
   endloop
 endfacet
 facet normal  1.078201e-01  1.593171e-01 -9.813220e-01
   outer loop
     vertex  4.593396e+00  3.420201e-01 -1.879385e+00
     vertex  4.435247e+00 -1.063599e-16 -1.952288e+00
     vertex  4.001000e+00 -2.999520e-32 -2.000000e+00
   endloop
 endfacet
 facet normal  2.487403e-01  9.053407e-02 -9.643297e-01
   outer loop
     vertex  4.593396e+00  3.420201e-01 -1.879385e+00
     vertex  4.674648e+00  1.187823e-01 -1.879385e+00
     vertex  4.435247e+00 -1.063599e-16 -1.952288e+00
   endloop
 endfacet
 facet normal  4.544240e-01  1.653968e-01 -8.752958e-01
   outer loop
     vertex  4.593396e+00  3.420201e-01 -1.879385e+00
     vertex  4.848776e+00 -2.076451e-16 -1.811429e+00
     vertex  4.674648e+00  1.187823e-01 -1.879385e+00
   endloop
 endfacet
 facet normal  1.350110e-01  1.132877e-01 -9.843464e-01
   outer loop
     vertex  4.440693e+00  5.240053e-01 -1.879385e+00
     vertex  4.593396e+00  3.420201e-01 -1.879385e+00
     vertex  4.001000e+00 -2.999520e-32 -2.000000e+00
   endloop
 endfacet
 facet normal  8.812219e-02  1.526321e-01 -9.843464e-01
   outer loop
     vertex  4.234956e+00  6.427876e-01 -1.879385e+00
     vertex  4.440693e+00  5.240053e-01 -1.879385e+00
     vertex  4.001000e+00 -2.999520e-32 -2.000000e+00
   endloop
 endfacet
 facet normal  5.167889e-01  1.154846e-01 -8.482880e-01
   outer loop
     vertex  5.209046e+00  4.396926e-01 -1.532089e+00
     vertex  5.221855e+00 -2.990233e-16 -1.584144e+00
     vertex  4.848776e+00 -2.076451e-16 -1.811429e+00
   endloop
 endfacet
 facet normal  6.894548e-01  1.049347e-01 -7.166874e-01
   outer loop
     vertex  5.209046e+00  4.396926e-01 -1.532089e+00
     vertex  5.536686e+00 -3.761345e-16 -1.281277e+00
     vertex  5.221855e+00 -2.990233e-16 -1.584144e+00
   endloop
 endfacet
 facet normal  4.629657e-01  1.729586e-01 -8.693377e-01
   outer loop
     vertex  5.209046e+00  4.396926e-01 -1.532089e+00
     vertex  4.848776e+00 -2.076451e-16 -1.811429e+00
     vertex  4.593396e+00  3.420201e-01 -1.879385e+00
   endloop
 endfacet
 facet normal  3.060452e-02  1.735668e-01 -9.843464e-01
   outer loop
     vertex  4.001000e+00  6.840403e-01 -1.879385e+00
     vertex  4.234956e+00  6.427876e-01 -1.879385e+00
     vertex  4.001000e+00 -2.999520e-32 -2.000000e+00
   endloop
 endfacet
 facet normal  8.392186e-01  4.845231e-01 -2.468794e-01
   outer loop
     vertex  4.985808e+00  8.263518e-01 -1.532089e+00
     vertex  5.536686e+00 -3.761345e-16 -1.281277e+00
     vertex  5.209046e+00  4.396926e-01 -1.532089e+00
   endloop
 endfacet
 facet normal  4.437742e-01  2.562131e-01 -8.587312e-01
   outer loop
     vertex  4.985808e+00  8.263518e-01 -1.532089e+00
     vertex  5.209046e+00  4.396926e-01 -1.532089e+00
     vertex  4.593396e+00  3.420201e-01 -1.879385e+00
   endloop
 endfacet
 facet normal  3.781126e-01  3.172741e-01 -8.696942e-01
   outer loop
     vertex  4.985808e+00  8.263518e-01 -1.532089e+00
     vertex  4.593396e+00  3.420201e-01 -1.879385e+00
     vertex  4.440693e+00  5.240053e-01 -1.879385e+00
   endloop
 endfacet
 facet normal -3.060452e-02  1.735668e-01 -9.843464e-01
   outer loop
     vertex  3.767044e+00  6.427876e-01 -1.879385e+00
     vertex  4.001000e+00  6.840403e-01 -1.879385e+00
     vertex  4.001000e+00 -2.999520e-32 -2.000000e+00
   endloop
 endfacet
 facet normal  2.467955e-01  4.274623e-01 -8.696942e-01
   outer loop
     vertex  4.643788e+00  1.113341e+00 -1.532089e+00
     vertex  4.440693e+00  5.240053e-01 -1.879385e+00
     vertex  4.234956e+00  6.427876e-01 -1.879385e+00
   endloop
 endfacet
 facet normal  3.293813e-01  3.925413e-01 -8.587312e-01
   outer loop
     vertex  4.643788e+00  1.113341e+00 -1.532089e+00
     vertex  4.985808e+00  8.263518e-01 -1.532089e+00
     vertex  4.440693e+00  5.240053e-01 -1.879385e+00
   endloop
 endfacet
 facet normal -8.812219e-02  1.526321e-01 -9.843464e-01
   outer loop
     vertex  3.561307e+00  5.240053e-01 -1.879385e+00
     vertex  3.767044e+00  6.427876e-01 -1.879385e+00
     vertex  4.001000e+00 -2.999520e-32 -2.000000e+00
   endloop
 endfacet
 facet normal  8.323362e-01  4.597036e-02 -5.523615e-01
   outer loop
     vertex  5.706737e+00  3.007675e-01 -1.000000e+00
     vertex  5.778246e+00 -4.352997e-16 -9.172772e-01
     vertex  5.536686e+00 -3.761345e-16 -1.281277e+00
   endloop
 endfacet
 facet normal  8.571116e-02  4.860922e-01 -8.696942e-01
   outer loop
     vertex  4.224238e+00  1.266044e+00 -1.532089e+00
     vertex  4.234956e+00  6.427876e-01 -1.879385e+00
     vertex  4.001000e+00  6.840403e-01 -1.879385e+00
   endloop
 endfacet
 facet normal  1.752601e-01  4.815232e-01 -8.587312e-01
   outer loop
     vertex  4.224238e+00  1.266044e+00 -1.532089e+00
     vertex  4.643788e+00  1.113341e+00 -1.532089e+00
     vertex  4.234956e+00  6.427876e-01 -1.879385e+00
   endloop
 endfacet
 facet normal -1.350110e-01  1.132877e-01 -9.843464e-01
   outer loop
     vertex  3.408604e+00  3.420201e-01 -1.879385e+00
     vertex  3.561307e+00  5.240053e-01 -1.879385e+00
     vertex  4.001000e+00 -2.999520e-32 -2.000000e+00
   endloop
 endfacet
 facet normal  9.023579e-01  2.557402e-01 -3.469109e-01
   outer loop
     vertex  5.501000e+00  8.660254e-01 -1.000000e+00
     vertex  5.935011e+00 -4.736960e-16 -5.095128e-01
     vertex  5.778246e+00 -4.352997e-16 -9.172772e-01
   endloop
 endfacet
 facet normal  6.867969e-01  2.499736e-01 -6.825124e-01
   outer loop
     vertex  5.501000e+00  8.660254e-01 -1.000000e+00
     vertex  5.706737e+00  3.007675e-01 -1.000000e+00
     vertex  5.536686e+00 -3.761345e-16 -1.281277e+00
   endloop
 endfacet
 facet normal  8.628820e-01  3.140634e-01  3.959784e-01
   outer loop
     vertex  5.501000e+00  8.660254e-01 -1.000000e+00
     vertex  5.778246e+00 -4.352997e-16 -9.172772e-01
     vertex  5.706737e+00  3.007675e-01 -1.000000e+00
   endloop
 endfacet
 facet normal  6.861986e-01  2.501262e-01 -6.830581e-01
   outer loop
     vertex  5.501000e+00  8.660254e-01 -1.000000e+00
     vertex  5.536686e+00 -3.761345e-16 -1.281277e+00
     vertex  4.985808e+00  8.263518e-01 -1.532089e+00
   endloop
 endfacet
 facet normal -8.571116e-02  4.860922e-01 -8.696942e-01
   outer loop
     vertex  3.777762e+00  1.266044e+00 -1.532089e+00
     vertex  4.001000e+00  6.840403e-01 -1.879385e+00
     vertex  3.767044e+00  6.427876e-01 -1.879385e+00
   endloop
 endfacet
 facet normal  0.000000e+00  5.124263e-01 -8.587312e-01
   outer loop
     vertex  3.777762e+00  1.266044e+00 -1.532089e+00
     vertex  4.224238e+00  1.266044e+00 -1.532089e+00
     vertex  4.001000e+00  6.840403e-01 -1.879385e+00
   endloop
 endfacet
 facet normal -1.656155e-01  6.027913e-02 -9.843464e-01
   outer loop
     vertex  3.327352e+00  1.187823e-01 -1.879385e+00
     vertex  3.408604e+00  3.420201e-01 -1.879385e+00
     vertex  4.001000e+00 -2.999520e-32 -2.000000e+00
   endloop
 endfacet
 facet normal  4.835539e-01  5.762771e-01 -6.588477e-01
   outer loop
     vertex  5.114341e+00  1.326828e+00 -1.000000e+00
     vertex  4.985808e+00  8.263518e-01 -1.532089e+00
     vertex  4.643788e+00  1.113341e+00 -1.532089e+00
   endloop
 endfacet
 facet normal  6.012047e-01  5.044706e-01 -6.197276e-01
   outer loop
     vertex  5.114341e+00  1.326828e+00 -1.000000e+00
     vertex  5.501000e+00  8.660254e-01 -1.000000e+00
     vertex  4.985808e+00  8.263518e-01 -1.532089e+00
   endloop
 endfacet
 facet normal -1.752601e-01  4.815232e-01 -8.587312e-01
   outer loop
     vertex  3.358212e+00  1.113341e+00 -1.532089e+00
     vertex  3.777762e+00  1.266044e+00 -1.532089e+00
     vertex  3.767044e+00  6.427876e-01 -1.879385e+00
   endloop
 endfacet
 facet normal -2.467955e-01  4.274623e-01 -8.696942e-01
   outer loop
     vertex  3.358212e+00  1.113341e+00 -1.532089e+00
     vertex  3.767044e+00  6.427876e-01 -1.879385e+00
     vertex  3.561307e+00  5.240053e-01 -1.879385e+00
   endloop
 endfacet
 facet normal  1.054539e-01 -2.464081e-01  9.634119e-01
   outer loop
     vertex  3.327352e+00 -1.187823e-01 -1.879385e+00
     vertex  4.001000e+00 -2.999520e-32 -2.000000e+00
     vertex  4.001000e+00 -2.999520e-32 -2.000000e+00
   endloop
 endfacet
 facet normal -1.762444e-01  0.000000e+00 -9.843464e-01
   outer loop
     vertex  3.327352e+00 -1.187823e-01 -1.879385e+00
     vertex  3.327352e+00  1.187823e-01 -1.879385e+00
     vertex  4.001000e+00 -2.999520e-32 -2.000000e+00
   endloop
 endfacet
 facet normal  3.924085e-01  6.796715e-01 -6.197276e-01
   outer loop
     vertex  4.593396e+00  1.627595e+00 -1.000000e+00
     vertex  5.114341e+00  1.326828e+00 -1.000000e+00
     vertex  4.643788e+00  1.113341e+00 -1.532089e+00
   endloop
 endfacet
 facet normal  2.572937e-01  7.069085e-01 -6.588477e-01
   outer loop
     vertex  4.593396e+00  1.627595e+00 -1.000000e+00
     vertex  4.643788e+00  1.113341e+00 -1.532089e+00
     vertex  4.224238e+00  1.266044e+00 -1.532089e+00
   endloop
 endfacet
 facet normal -3.293813e-01  3.925413e-01 -8.587312e-01
   outer loop
     vertex  3.016192e+00  8.263518e-01 -1.532089e+00
     vertex  3.358212e+00  1.113341e+00 -1.532089e+00
     vertex  3.561307e+00  5.240053e-01 -1.879385e+00
   endloop
 endfacet
 facet normal -3.781126e-01  3.172741e-01 -8.696942e-01
   outer loop
     vertex  3.016192e+00  8.263518e-01 -1.532089e+00
     vertex  3.561307e+00  5.240053e-01 -1.879385e+00
     vertex  3.408604e+00  3.420201e-01 -1.879385e+00
   endloop
 endfacet
 facet normal  9.209905e-01  4.695928e-02 -3.867445e-01
   outer loop
     vertex  5.851833e+00  6.736482e-01 -3.472964e-01
     vertex  5.999500e+00  1.853229e-02 -7.518846e-02
     vertex  5.999500e+00 -9.794726e-16 -7.743869e-02
   endloop
 endfacet
 facet normal  9.569303e-01  1.029481e-01 -2.714518e-01
   outer loop
     vertex  5.851833e+00  6.736482e-01 -3.472964e-01
     vertex  5.999500e+00  3.598755e-02 -6.856856e-02
     vertex  5.999500e+00  1.853229e-02 -7.518846e-02
   endloop
 endfacet
 facet normal  9.702343e-01  1.375671e-01 -1.993004e-01
   outer loop
     vertex  5.851833e+00  6.736482e-01 -3.472964e-01
     vertex  5.999500e+00  5.135135e-02 -5.796369e-02
     vertex  5.999500e+00  3.598755e-02 -6.856856e-02
   endloop
 endfacet
 facet normal  9.757069e-01  1.639836e-01 -1.452768e-01
   outer loop
     vertex  5.851833e+00  6.736482e-01 -3.472964e-01
     vertex  5.999500e+00  6.373079e-02 -4.399019e-02
     vertex  5.999500e+00  5.135135e-02 -5.796369e-02
   endloop
 endfacet
 facet normal  9.772889e-01  1.876382e-01 -9.848011e-02
   outer loop
     vertex  5.851833e+00  6.736482e-01 -3.472964e-01
     vertex  5.999500e+00  7.240643e-02 -2.746014e-02
     vertex  5.999500e+00  6.373079e-02 -4.399019e-02
   endloop
 endfacet
 facet normal  9.769752e-01  1.557438e-01 -1.458196e-01
   outer loop
     vertex  5.851833e+00  6.736482e-01 -3.472964e-01
     vertex  5.999500e+00 -9.794726e-16 -7.743869e-02
     vertex  5.935011e+00 -4.736960e-16 -5.095128e-01
   endloop
 endfacet
 facet normal  8.857187e-01  2.091591e-01 -4.144332e-01
   outer loop
     vertex  5.851833e+00  6.736482e-01 -3.472964e-01
     vertex  5.935011e+00 -4.736960e-16 -5.095128e-01
     vertex  5.501000e+00  8.660254e-01 -1.000000e+00
   endloop
 endfacet
 facet normal -1.656155e-01 -6.027913e-02 -9.843464e-01
   outer loop
     vertex  3.408604e+00 -3.420201e-01 -1.879385e+00
     vertex  3.327352e+00 -1.187823e-01 -1.879385e+00
     vertex  4.001000e+00 -2.999520e-32 -2.000000e+00
   endloop
 endfacet
 facet normal  1.362820e-01  7.728939e-01 -6.197276e-01
   outer loop
     vertex  4.001000e+00  1.732051e+00 -1.000000e+00
     vertex  4.593396e+00  1.627595e+00 -1.000000e+00
     vertex  4.224238e+00  1.266044e+00 -1.532089e+00
   endloop
 endfacet
 facet normal  2.104559e-17  7.522763e-01 -6.588477e-01
   outer loop
     vertex  4.001000e+00  1.732051e+00 -1.000000e+00
     vertex  4.224238e+00  1.266044e+00 -1.532089e+00
     vertex  3.777762e+00  1.266044e+00 -1.532089e+00
   endloop
 endfacet
 facet normal -4.638237e-01  1.688180e-01 -8.696942e-01
   outer loop
     vertex  2.792954e+00  4.396926e-01 -1.532089e+00
     vertex  3.408604e+00  3.420201e-01 -1.879385e+00
     vertex  3.327352e+00  1.187823e-01 -1.879385e+00
   endloop
 endfacet
 facet normal -4.437742e-01  2.562131e-01 -8.587312e-01
   outer loop
     vertex  2.792954e+00  4.396926e-01 -1.532089e+00
     vertex  3.016192e+00  8.263518e-01 -1.532089e+00
     vertex  3.408604e+00  3.420201e-01 -1.879385e+00
   endloop
 endfacet
 facet normal  9.296424e-01  3.577561e-01 -8.817895e-02
   outer loop
     vertex  5.509813e+00  1.266044e+00 -3.472964e-01
     vertex  5.999500e+00  7.687408e-02 -9.334203e-03
     vertex  5.999500e+00  7.240643e-02 -2.746014e-02
   endloop
 endfacet
 facet normal  7.102001e-01  5.959287e-01 -3.748130e-01
   outer loop
     vertex  5.509813e+00  1.266044e+00 -3.472964e-01
     vertex  5.501000e+00  8.660254e-01 -1.000000e+00
     vertex  5.114341e+00  1.326828e+00 -1.000000e+00
   endloop
 endfacet
 facet normal  8.252713e-01  4.764706e-01 -3.031551e-01
   outer loop
     vertex  5.509813e+00  1.266044e+00 -3.472964e-01
     vertex  5.851833e+00  6.736482e-01 -3.472964e-01
     vertex  5.501000e+00  8.660254e-01 -1.000000e+00
   endloop
 endfacet
 facet normal  7.619947e-01  4.399378e-01  4.752040e-01
   outer loop
     vertex  5.509813e+00  1.266044e+00 -3.472964e-01
     vertex  5.999500e+00  7.240643e-02 -2.746014e-02
     vertex  5.851833e+00  6.736482e-01 -3.472964e-01
   endloop
 endfacet
 facet normal -1.350110e-01 -1.132877e-01 -9.843464e-01
   outer loop
     vertex  3.561307e+00 -5.240053e-01 -1.879385e+00
     vertex  3.408604e+00 -3.420201e-01 -1.879385e+00
     vertex  4.001000e+00 -2.999520e-32 -2.000000e+00
   endloop
 endfacet
 facet normal -1.362820e-01  7.728939e-01 -6.197276e-01
   outer loop
     vertex  3.408604e+00  1.627595e+00 -1.000000e+00
     vertex  4.001000e+00  1.732051e+00 -1.000000e+00
     vertex  3.777762e+00  1.266044e+00 -1.532089e+00
   endloop
 endfacet
 facet normal -2.572937e-01  7.069085e-01 -6.588477e-01
   outer loop
     vertex  3.408604e+00  1.627595e+00 -1.000000e+00
     vertex  3.777762e+00  1.266044e+00 -1.532089e+00
     vertex  3.358212e+00  1.113341e+00 -1.532089e+00
   endloop
 endfacet
 facet normal -5.046414e-01  8.898189e-02 -8.587312e-01
   outer loop
     vertex  2.715425e+00  1.574376e-16 -1.532089e+00
     vertex  2.792954e+00  4.396926e-01 -1.532089e+00
     vertex  3.327352e+00  1.187823e-01 -1.879385e+00
   endloop
 endfacet
 facet normal -4.935909e-01  8.010476e-17 -8.696942e-01
   outer loop
     vertex  2.715425e+00  1.574376e-16 -1.532089e+00
     vertex  3.327352e+00  1.187823e-01 -1.879385e+00
     vertex  3.327352e+00 -1.187823e-01 -1.879385e+00
   endloop
 endfacet
 facet normal  6.125388e-01  7.299953e-01 -3.031551e-01
   outer loop
     vertex  4.985808e+00  1.705737e+00 -3.472964e-01
     vertex  5.509813e+00  1.266044e+00 -3.472964e-01
     vertex  5.114341e+00  1.326828e+00 -1.000000e+00
   endloop
 endfacet
 facet normal  4.635502e-01  8.028925e-01 -3.748130e-01
   outer loop
     vertex  4.985808e+00  1.705737e+00 -3.472964e-01
     vertex  5.114341e+00  1.326828e+00 -1.000000e+00
     vertex  4.593396e+00  1.627595e+00 -1.000000e+00
   endloop
 endfacet
 facet normal -8.812219e-02 -1.526321e-01 -9.843464e-01
   outer loop
     vertex  3.767044e+00 -6.427876e-01 -1.879385e+00
     vertex  3.561307e+00 -5.240053e-01 -1.879385e+00
     vertex  4.001000e+00 -2.999520e-32 -2.000000e+00
   endloop
 endfacet
 facet normal -4.835539e-01  5.762771e-01 -6.588477e-01
   outer loop
     vertex  2.887659e+00  1.326828e+00 -1.000000e+00
     vertex  3.358212e+00  1.113341e+00 -1.532089e+00
     vertex  3.016192e+00  8.263518e-01 -1.532089e+00
   endloop
 endfacet
 facet normal -3.924085e-01  6.796715e-01 -6.197276e-01
   outer loop
     vertex  2.887659e+00  1.326828e+00 -1.000000e+00
     vertex  3.408604e+00  1.627595e+00 -1.000000e+00
     vertex  3.358212e+00  1.113341e+00 -1.532089e+00
   endloop
 endfacet
 facet normal  9.876272e-01  5.350692e-02  1.474095e-01
   outer loop
     vertex  5.940693e+00  3.420201e-01  3.472964e-01
     vertex  5.935011e+00 -4.736960e-16  5.095128e-01
     vertex  5.999500e+00 -9.794726e-16  7.743869e-02
   endloop
 endfacet
 facet normal  9.895321e-01  8.197914e-02  1.187673e-01
   outer loop
     vertex  5.940693e+00  3.420201e-01  3.472964e-01
     vertex  5.999500e+00  3.598755e-02  6.856856e-02
     vertex  5.999500e+00  5.135135e-02  5.796369e-02
   endloop
 endfacet
 facet normal  9.875465e-01  5.578917e-02  1.471040e-01
   outer loop
     vertex  5.940693e+00  3.420201e-01  3.472964e-01
     vertex  5.999500e+00  1.853229e-02  7.518846e-02
     vertex  5.999500e+00  3.598755e-02  6.856856e-02
   endloop
 endfacet
 facet normal  9.823804e-01  2.252740e-02  1.855298e-01
   outer loop
     vertex  5.940693e+00  3.420201e-01  3.472964e-01
     vertex  5.999500e+00 -9.794726e-16  7.743869e-02
     vertex  5.999500e+00  1.853229e-02  7.518846e-02
   endloop
 endfacet
 facet normal -4.638237e-01 -1.688180e-01 -8.696942e-01
   outer loop
     vertex  2.792954e+00 -4.396926e-01 -1.532089e+00
     vertex  3.327352e+00 -1.187823e-01 -1.879385e+00
     vertex  3.408604e+00 -3.420201e-01 -1.879385e+00
   endloop
 endfacet
 facet normal -5.046414e-01 -8.898189e-02 -8.587312e-01
   outer loop
     vertex  2.792954e+00 -4.396926e-01 -1.532089e+00
     vertex  2.715425e+00  1.574376e-16 -1.532089e+00
     vertex  3.327352e+00 -1.187823e-01 -1.879385e+00
   endloop
 endfacet
 facet normal  1.609893e-01  9.130157e-01 -3.748130e-01
   outer loop
     vertex  4.343020e+00  1.939693e+00 -3.472964e-01
     vertex  4.593396e+00  1.627595e+00 -1.000000e+00
     vertex  4.001000e+00  1.732051e+00 -1.000000e+00
   endloop
 endfacet
 facet normal  3.259251e-01  8.954718e-01 -3.031551e-01
   outer loop
     vertex  4.343020e+00  1.939693e+00 -3.472964e-01
     vertex  4.985808e+00  1.705737e+00 -3.472964e-01
     vertex  4.593396e+00  1.627595e+00 -1.000000e+00
   endloop
 endfacet
 facet normal -3.060452e-02 -1.735668e-01 -9.843464e-01
   outer loop
     vertex  4.001000e+00 -6.840403e-01 -1.879385e+00
     vertex  3.767044e+00 -6.427876e-01 -1.879385e+00
     vertex  4.001000e+00 -2.999520e-32 -2.000000e+00
   endloop
 endfacet
 facet normal -6.012047e-01  5.044706e-01 -6.197276e-01
   outer loop
     vertex  2.501000e+00  8.660254e-01 -1.000000e+00
     vertex  2.887659e+00  1.326828e+00 -1.000000e+00
     vertex  3.016192e+00  8.263518e-01 -1.532089e+00
   endloop
 endfacet
 facet normal -6.514904e-01  3.761382e-01 -6.588477e-01
   outer loop
     vertex  2.501000e+00  8.660254e-01 -1.000000e+00
     vertex  3.016192e+00  8.263518e-01 -1.532089e+00
     vertex  2.792954e+00  4.396926e-01 -1.532089e+00
   endloop
 endfacet
 facet normal  9.517449e-01  3.068901e-01 -4.323893e-15
   outer loop
     vertex  5.706737e+00  9.848078e-01  3.472964e-01
     vertex  5.999500e+00  7.687408e-02  9.334203e-03
     vertex  5.999500e+00  7.687408e-02 -9.334203e-03
   endloop
 endfacet
 facet normal  9.567155e-01  2.825681e-01  6.964678e-02
   outer loop
     vertex  5.706737e+00  9.848078e-01  3.472964e-01
     vertex  5.999500e+00  7.240643e-02  2.746014e-02
     vertex  5.999500e+00  7.687408e-02  9.334203e-03
   endloop
 endfacet
 facet normal  9.562142e-01  2.591443e-01  1.360094e-01
   outer loop
     vertex  5.706737e+00  9.848078e-01  3.472964e-01
     vertex  5.999500e+00  6.373079e-02  4.399019e-02
     vertex  5.999500e+00  7.240643e-02  2.746014e-02
   endloop
 endfacet
 facet normal  9.499846e-01  2.337574e-01  2.070910e-01
   outer loop
     vertex  5.706737e+00  9.848078e-01  3.472964e-01
     vertex  5.999500e+00  5.135135e-02  5.796369e-02
     vertex  5.999500e+00  6.373079e-02  4.399019e-02
   endloop
 endfacet
 facet normal  7.502977e-01  2.730860e-01  6.020609e-01
   outer loop
     vertex  5.706737e+00  9.848078e-01  3.472964e-01
     vertex  5.935011e+00 -4.736960e-16  5.095128e-01
     vertex  5.940693e+00  3.420201e-01  3.472964e-01
   endloop
 endfacet
 facet normal  9.294774e-01  3.478892e-01 -1.226579e-01
   outer loop
     vertex  5.706737e+00  9.848078e-01  3.472964e-01
     vertex  5.999500e+00  7.687408e-02 -9.334203e-03
     vertex  5.509813e+00  1.266044e+00 -3.472964e-01
   endloop
 endfacet
 facet normal  9.289382e-01  3.381059e-01 -1.508581e-01
   outer loop
     vertex  5.706737e+00  9.848078e-01  3.472964e-01
     vertex  5.940693e+00  3.420201e-01  3.472964e-01
     vertex  5.999500e+00  5.135135e-02  5.796369e-02
   endloop
 endfacet
 facet normal -4.437742e-01 -2.562131e-01 -8.587312e-01
   outer loop
     vertex  3.016192e+00 -8.263518e-01 -1.532089e+00
     vertex  2.792954e+00 -4.396926e-01 -1.532089e+00
     vertex  3.408604e+00 -3.420201e-01 -1.879385e+00
   endloop
 endfacet
 facet normal -3.781126e-01 -3.172741e-01 -8.696942e-01
   outer loop
     vertex  3.016192e+00 -8.263518e-01 -1.532089e+00
     vertex  3.408604e+00 -3.420201e-01 -1.879385e+00
     vertex  3.561307e+00 -5.240053e-01 -1.879385e+00
   endloop
 endfacet
 facet normal  0.000000e+00  9.529412e-01 -3.031551e-01
   outer loop
     vertex  3.658980e+00  1.939693e+00 -3.472964e-01
     vertex  4.343020e+00  1.939693e+00 -3.472964e-01
     vertex  4.001000e+00  1.732051e+00 -1.000000e+00
   endloop
 endfacet
 facet normal -1.609893e-01  9.130157e-01 -3.748130e-01
   outer loop
     vertex  3.658980e+00  1.939693e+00 -3.472964e-01
     vertex  4.001000e+00  1.732051e+00 -1.000000e+00
     vertex  3.408604e+00  1.627595e+00 -1.000000e+00
   endloop
 endfacet
 facet normal  3.060452e-02 -1.735668e-01 -9.843464e-01
   outer loop
     vertex  4.234956e+00 -6.427876e-01 -1.879385e+00
     vertex  4.001000e+00 -6.840403e-01 -1.879385e+00
     vertex  4.001000e+00 -2.999520e-32 -2.000000e+00
   endloop
 endfacet
 facet normal -7.374867e-01  2.684232e-01 -6.197276e-01
   outer loop
     vertex  2.295263e+00  3.007675e-01 -1.000000e+00
     vertex  2.501000e+00  8.660254e-01 -1.000000e+00
     vertex  2.792954e+00  4.396926e-01 -1.532089e+00
   endloop
 endfacet
 facet normal -7.408476e-01  1.306314e-01 -6.588477e-01
   outer loop
     vertex  2.295263e+00  3.007675e-01 -1.000000e+00
     vertex  2.792954e+00  4.396926e-01 -1.532089e+00
     vertex  2.715425e+00  1.574376e-16 -1.532089e+00
   endloop
 endfacet
 facet normal  7.653346e-01  6.421920e-01  4.303984e-02
   outer loop
     vertex  5.267044e+00  1.508813e+00  3.472964e-01
     vertex  5.706737e+00  9.848078e-01  3.472964e-01
     vertex  5.509813e+00  1.266044e+00 -3.472964e-01
   endloop
 endfacet
 facet normal  6.421920e-01  7.653346e-01 -4.303984e-02
   outer loop
     vertex  5.267044e+00  1.508813e+00  3.472964e-01
     vertex  5.509813e+00  1.266044e+00 -3.472964e-01
     vertex  4.985808e+00  1.705737e+00 -3.472964e-01
   endloop
 endfacet
 facet normal -3.293813e-01 -3.925413e-01 -8.587312e-01
   outer loop
     vertex  3.358212e+00 -1.113341e+00 -1.532089e+00
     vertex  3.016192e+00 -8.263518e-01 -1.532089e+00
     vertex  3.561307e+00 -5.240053e-01 -1.879385e+00
   endloop
 endfacet
 facet normal -2.467955e-01 -4.274623e-01 -8.696942e-01
   outer loop
     vertex  3.358212e+00 -1.113341e+00 -1.532089e+00
     vertex  3.561307e+00 -5.240053e-01 -1.879385e+00
     vertex  3.767044e+00 -6.427876e-01 -1.879385e+00
   endloop
 endfacet
 facet normal -4.635502e-01  8.028925e-01 -3.748130e-01
   outer loop
     vertex  3.016192e+00  1.705737e+00 -3.472964e-01
     vertex  3.408604e+00  1.627595e+00 -1.000000e+00
     vertex  2.887659e+00  1.326828e+00 -1.000000e+00
   endloop
 endfacet
 facet normal -3.259251e-01  8.954718e-01 -3.031551e-01
   outer loop
     vertex  3.016192e+00  1.705737e+00 -3.472964e-01
     vertex  3.658980e+00  1.939693e+00 -3.472964e-01
     vertex  3.408604e+00  1.627595e+00 -1.000000e+00
   endloop
 endfacet
 facet normal  8.812219e-02 -1.526321e-01 -9.843464e-01
   outer loop
     vertex  4.440693e+00 -5.240053e-01 -1.879385e+00
     vertex  4.234956e+00 -6.427876e-01 -1.879385e+00
     vertex  4.001000e+00 -2.999520e-32 -2.000000e+00
   endloop
 endfacet
 facet normal -7.848170e-01  0.000000e+00 -6.197276e-01
   outer loop
     vertex  2.295263e+00 -3.007675e-01 -1.000000e+00
     vertex  2.295263e+00  3.007675e-01 -1.000000e+00
     vertex  2.715425e+00  1.574376e-16 -1.532089e+00
   endloop
 endfacet
 facet normal -7.408476e-01 -1.306314e-01 -6.588477e-01
   outer loop
     vertex  2.295263e+00 -3.007675e-01 -1.000000e+00
     vertex  2.715425e+00  1.574376e-16 -1.532089e+00
     vertex  2.792954e+00 -4.396926e-01 -1.532089e+00
   endloop
 endfacet
 facet normal  4.995367e-01  8.652229e-01  4.303984e-02
   outer loop
     vertex  4.674648e+00  1.850833e+00  3.472964e-01
     vertex  5.267044e+00  1.508813e+00  3.472964e-01
     vertex  4.985808e+00  1.705737e+00 -3.472964e-01
   endloop
 endfacet
 facet normal  3.417032e-01  9.388219e-01 -4.303984e-02
   outer loop
     vertex  4.674648e+00  1.850833e+00  3.472964e-01
     vertex  4.985808e+00  1.705737e+00 -3.472964e-01
     vertex  4.343020e+00  1.939693e+00 -3.472964e-01
   endloop
 endfacet
 facet normal -8.571116e-02 -4.860922e-01 -8.696942e-01
   outer loop
     vertex  3.777762e+00 -1.266044e+00 -1.532089e+00
     vertex  3.767044e+00 -6.427876e-01 -1.879385e+00
     vertex  4.001000e+00 -6.840403e-01 -1.879385e+00
   endloop
 endfacet
 facet normal -1.752601e-01 -4.815232e-01 -8.587312e-01
   outer loop
     vertex  3.777762e+00 -1.266044e+00 -1.532089e+00
     vertex  3.358212e+00 -1.113341e+00 -1.532089e+00
     vertex  3.767044e+00 -6.427876e-01 -1.879385e+00
   endloop
 endfacet
 facet normal -7.102001e-01  5.959287e-01 -3.748130e-01
   outer loop
     vertex  2.492187e+00  1.266044e+00 -3.472964e-01
     vertex  2.887659e+00  1.326828e+00 -1.000000e+00
     vertex  2.501000e+00  8.660254e-01 -1.000000e+00
   endloop
 endfacet
 facet normal -6.125388e-01  7.299953e-01 -3.031551e-01
   outer loop
     vertex  2.492187e+00  1.266044e+00 -3.472964e-01
     vertex  3.016192e+00  1.705737e+00 -3.472964e-01
     vertex  2.887659e+00  1.326828e+00 -1.000000e+00
   endloop
 endfacet
 facet normal  9.282295e-01  2.591250e-01  2.669160e-01
   outer loop
     vertex  5.628595e+00  5.923963e-01  1.000000e+00
     vertex  5.935011e+00 -4.736960e-16  5.095128e-01
     vertex  5.706737e+00  9.848078e-01  3.472964e-01
   endloop
 endfacet
 facet normal  9.177109e-01  1.825638e-01  3.528133e-01
   outer loop
     vertex  5.628595e+00  5.923963e-01  1.000000e+00
     vertex  5.778246e+00 -4.352997e-16  9.172772e-01
     vertex  5.935011e+00 -4.736960e-16  5.095128e-01
   endloop
 endfacet
 facet normal  8.259146e-01  1.321043e-01  5.481000e-01
   outer loop
     vertex  5.628595e+00  5.923963e-01  1.000000e+00
     vertex  5.536686e+00 -3.761345e-16  1.281277e+00
     vertex  5.778246e+00 -4.352997e-16  9.172772e-01
   endloop
 endfacet
 facet normal  1.078201e-01 -1.593171e-01 -9.813220e-01
   outer loop
     vertex  4.593396e+00 -3.420201e-01 -1.879385e+00
     vertex  4.001000e+00 -2.999520e-32 -2.000000e+00
     vertex  4.435247e+00 -1.063599e-16 -1.952288e+00
   endloop
 endfacet
 facet normal  1.350110e-01 -1.132877e-01 -9.843464e-01
   outer loop
     vertex  4.593396e+00 -3.420201e-01 -1.879385e+00
     vertex  4.440693e+00 -5.240053e-01 -1.879385e+00
     vertex  4.001000e+00 -2.999520e-32 -2.000000e+00
   endloop
 endfacet
 facet normal -7.374867e-01 -2.684232e-01 -6.197276e-01
   outer loop
     vertex  2.501000e+00 -8.660254e-01 -1.000000e+00
     vertex  2.295263e+00 -3.007675e-01 -1.000000e+00
     vertex  2.792954e+00 -4.396926e-01 -1.532089e+00
   endloop
 endfacet
 facet normal -6.514904e-01 -3.761382e-01 -6.588477e-01
   outer loop
     vertex  2.501000e+00 -8.660254e-01 -1.000000e+00
     vertex  2.792954e+00 -4.396926e-01 -1.532089e+00
     vertex  3.016192e+00 -8.263518e-01 -1.532089e+00
   endloop
 endfacet
 facet normal  5.291043e-20  9.990734e-01 -4.303984e-02
   outer loop
     vertex  4.001000e+00  1.969616e+00  3.472964e-01
     vertex  4.343020e+00  1.939693e+00 -3.472964e-01
     vertex  3.658980e+00  1.939693e+00 -3.472964e-01
   endloop
 endfacet
 facet normal  1.734873e-01  9.838952e-01  4.303984e-02
   outer loop
     vertex  4.001000e+00  1.969616e+00  3.472964e-01
     vertex  4.674648e+00  1.850833e+00  3.472964e-01
     vertex  4.343020e+00  1.939693e+00 -3.472964e-01
   endloop
 endfacet
 facet normal  8.571116e-02 -4.860922e-01 -8.696942e-01
   outer loop
     vertex  4.224238e+00 -1.266044e+00 -1.532089e+00
     vertex  4.001000e+00 -6.840403e-01 -1.879385e+00
     vertex  4.234956e+00 -6.427876e-01 -1.879385e+00
   endloop
 endfacet
 facet normal -5.096874e-16 -5.124263e-01 -8.587312e-01
   outer loop
     vertex  4.224238e+00 -1.266044e+00 -1.532089e+00
     vertex  3.777762e+00 -1.266044e+00 -1.532089e+00
     vertex  4.001000e+00 -6.840403e-01 -1.879385e+00
   endloop
 endfacet
 facet normal -8.711894e-01  3.170870e-01 -3.748130e-01
   outer loop
     vertex  2.150167e+00  6.736482e-01 -3.472964e-01
     vertex  2.501000e+00  8.660254e-01 -1.000000e+00
     vertex  2.295263e+00  3.007675e-01 -1.000000e+00
   endloop
 endfacet
 facet normal -8.252713e-01  4.764706e-01 -3.031551e-01
   outer loop
     vertex  2.150167e+00  6.736482e-01 -3.472964e-01
     vertex  2.492187e+00  1.266044e+00 -3.472964e-01
     vertex  2.501000e+00  8.660254e-01 -1.000000e+00
   endloop
 endfacet
 facet normal  7.299953e-01  6.125388e-01  3.031551e-01
   outer loop
     vertex  5.327828e+00  1.113341e+00  1.000000e+00
     vertex  5.706737e+00  9.848078e-01  3.472964e-01
     vertex  5.267044e+00  1.508813e+00  3.472964e-01
   endloop
 endfacet
 facet normal  5.189430e-01  2.996119e-01  8.005816e-01
   outer loop
     vertex  5.327828e+00  1.113341e+00  1.000000e+00
     vertex  5.536686e+00 -3.761345e-16  1.281277e+00
     vertex  5.628595e+00  5.923963e-01  1.000000e+00
   endloop
 endfacet
 facet normal  8.028925e-01  4.635502e-01  3.748130e-01
   outer loop
     vertex  5.327828e+00  1.113341e+00  1.000000e+00
     vertex  5.628595e+00  5.923963e-01  1.000000e+00
     vertex  5.706737e+00  9.848078e-01  3.472964e-01
   endloop
 endfacet
 facet normal  3.216722e-01  6.871732e-02 -9.443542e-01
   outer loop
     vertex  4.674648e+00 -1.187823e-01 -1.879385e+00
     vertex  4.435247e+00 -1.063599e-16 -1.952288e+00
     vertex  4.848776e+00 -2.076451e-16 -1.811429e+00
   endloop
 endfacet
 facet normal  2.487403e-01 -9.053407e-02 -9.643297e-01
   outer loop
     vertex  4.674648e+00 -1.187823e-01 -1.879385e+00
     vertex  4.593396e+00 -3.420201e-01 -1.879385e+00
     vertex  4.435247e+00 -1.063599e-16 -1.952288e+00
   endloop
 endfacet
 facet normal  4.544240e-01 -1.653968e-01 -8.752958e-01
   outer loop
     vertex  4.674648e+00 -1.187823e-01 -1.879385e+00
     vertex  4.848776e+00 -2.076451e-16 -1.811429e+00
     vertex  4.593396e+00 -3.420201e-01 -1.879385e+00
   endloop
 endfacet
 facet normal -4.835539e-01 -5.762771e-01 -6.588477e-01
   outer loop
     vertex  2.887659e+00 -1.326828e+00 -1.000000e+00
     vertex  3.016192e+00 -8.263518e-01 -1.532089e+00
     vertex  3.358212e+00 -1.113341e+00 -1.532089e+00
   endloop
 endfacet
 facet normal -6.012047e-01 -5.044706e-01 -6.197276e-01
   outer loop
     vertex  2.887659e+00 -1.326828e+00 -1.000000e+00
     vertex  2.501000e+00 -8.660254e-01 -1.000000e+00
     vertex  3.016192e+00 -8.263518e-01 -1.532089e+00
   endloop
 endfacet
 facet normal -3.417032e-01  9.388219e-01 -4.303984e-02
   outer loop
     vertex  3.327352e+00  1.850833e+00  3.472964e-01
     vertex  3.658980e+00  1.939693e+00 -3.472964e-01
     vertex  3.016192e+00  1.705737e+00 -3.472964e-01
   endloop
 endfacet
 facet normal -1.734873e-01  9.838952e-01  4.303984e-02
   outer loop
     vertex  3.327352e+00  1.850833e+00  3.472964e-01
     vertex  4.001000e+00  1.969616e+00  3.472964e-01
     vertex  3.658980e+00  1.939693e+00 -3.472964e-01
   endloop
 endfacet
 facet normal  2.467955e-01 -4.274623e-01 -8.696942e-01
   outer loop
     vertex  4.643788e+00 -1.113341e+00 -1.532089e+00
     vertex  4.234956e+00 -6.427876e-01 -1.879385e+00
     vertex  4.440693e+00 -5.240053e-01 -1.879385e+00
   endloop
 endfacet
 facet normal  1.752601e-01 -4.815232e-01 -8.587312e-01
   outer loop
     vertex  4.643788e+00 -1.113341e+00 -1.532089e+00
     vertex  4.224238e+00 -1.266044e+00 -1.532089e+00
     vertex  4.234956e+00 -6.427876e-01 -1.879385e+00
   endloop
 endfacet
 facet normal -9.271004e-01 -9.658308e-18 -3.748130e-01
   outer loop
     vertex  2.031384e+00  2.412083e-16 -3.472964e-01
     vertex  2.295263e+00  3.007675e-01 -1.000000e+00
     vertex  2.295263e+00 -3.007675e-01 -1.000000e+00
   endloop
 endfacet
 facet normal -9.384639e-01  1.654765e-01 -3.031551e-01
   outer loop
     vertex  2.031384e+00  2.412083e-16 -3.472964e-01
     vertex  2.150167e+00  6.736482e-01 -3.472964e-01
     vertex  2.295263e+00  3.007675e-01 -1.000000e+00
   endloop
 endfacet
 facet normal  5.959287e-01  7.102001e-01  3.748130e-01
   outer loop
     vertex  4.867025e+00  1.500000e+00  1.000000e+00
     vertex  5.327828e+00  1.113341e+00  1.000000e+00
     vertex  5.267044e+00  1.508813e+00  3.472964e-01
   endloop
 endfacet
 facet normal  4.764706e-01  8.252713e-01  3.031551e-01
   outer loop
     vertex  4.867025e+00  1.500000e+00  1.000000e+00
     vertex  5.267044e+00  1.508813e+00  3.472964e-01
     vertex  4.674648e+00  1.850833e+00  3.472964e-01
   endloop
 endfacet
 facet normal -2.572937e-01 -7.069085e-01 -6.588477e-01
   outer loop
     vertex  3.408604e+00 -1.627595e+00 -1.000000e+00
     vertex  3.358212e+00 -1.113341e+00 -1.532089e+00
     vertex  3.777762e+00 -1.266044e+00 -1.532089e+00
   endloop
 endfacet
 facet normal -3.924085e-01 -6.796715e-01 -6.197276e-01
   outer loop
     vertex  3.408604e+00 -1.627595e+00 -1.000000e+00
     vertex  2.887659e+00 -1.326828e+00 -1.000000e+00
     vertex  3.358212e+00 -1.113341e+00 -1.532089e+00
   endloop
 endfacet
 facet normal -4.995367e-01  8.652229e-01  4.303984e-02
   outer loop
     vertex  2.734956e+00  1.508813e+00  3.472964e-01
     vertex  3.327352e+00  1.850833e+00  3.472964e-01
     vertex  3.016192e+00  1.705737e+00 -3.472964e-01
   endloop
 endfacet
 facet normal -6.421920e-01  7.653346e-01 -4.303984e-02
   outer loop
     vertex  2.734956e+00  1.508813e+00  3.472964e-01
     vertex  3.016192e+00  1.705737e+00 -3.472964e-01
     vertex  2.492187e+00  1.266044e+00 -3.472964e-01
   endloop
 endfacet
 facet normal  6.930163e-01  2.769761e-02  7.203896e-01
   outer loop
     vertex  5.267044e+00  2.232378e-01  1.532089e+00
     vertex  5.221855e+00 -2.990233e-16  1.584144e+00
     vertex  5.536686e+00 -3.761345e-16  1.281277e+00
   endloop
 endfacet
 facet normal  3.781126e-01 -3.172741e-01 -8.696942e-01
   outer loop
     vertex  4.985808e+00 -8.263518e-01 -1.532089e+00
     vertex  4.440693e+00 -5.240053e-01 -1.879385e+00
     vertex  4.593396e+00 -3.420201e-01 -1.879385e+00
   endloop
 endfacet
 facet normal  3.293813e-01 -3.925413e-01 -8.587312e-01
   outer loop
     vertex  4.985808e+00 -8.263518e-01 -1.532089e+00
     vertex  4.643788e+00 -1.113341e+00 -1.532089e+00
     vertex  4.440693e+00 -5.240053e-01 -1.879385e+00
   endloop
 endfacet
 facet normal -8.711894e-01 -3.170870e-01 -3.748130e-01
   outer loop
     vertex  2.150167e+00 -6.736482e-01 -3.472964e-01
     vertex  2.295263e+00 -3.007675e-01 -1.000000e+00
     vertex  2.501000e+00 -8.660254e-01 -1.000000e+00
   endloop
 endfacet
 facet normal -9.384639e-01 -1.654765e-01 -3.031551e-01
   outer loop
     vertex  2.150167e+00 -6.736482e-01 -3.472964e-01
     vertex  2.031384e+00  2.412083e-16 -3.472964e-01
     vertex  2.295263e+00 -3.007675e-01 -1.000000e+00
   endloop
 endfacet
 facet normal  1.654765e-01  9.384639e-01  3.031551e-01
   outer loop
     vertex  4.301767e+00  1.705737e+00  1.000000e+00
     vertex  4.674648e+00  1.850833e+00  3.472964e-01
     vertex  4.001000e+00  1.969616e+00  3.472964e-01
   endloop
 endfacet
 facet normal  3.170870e-01  8.711894e-01  3.748130e-01
   outer loop
     vertex  4.301767e+00  1.705737e+00  1.000000e+00
     vertex  4.867025e+00  1.500000e+00  1.000000e+00
     vertex  4.674648e+00  1.850833e+00  3.472964e-01
   endloop
 endfacet
 facet normal -7.467384e-16 -7.522763e-01 -6.588477e-01
   outer loop
     vertex  4.001000e+00 -1.732051e+00 -1.000000e+00
     vertex  3.777762e+00 -1.266044e+00 -1.532089e+00
     vertex  4.224238e+00 -1.266044e+00 -1.532089e+00
   endloop
 endfacet
 facet normal -1.362820e-01 -7.728939e-01 -6.197276e-01
   outer loop
     vertex  4.001000e+00 -1.732051e+00 -1.000000e+00
     vertex  3.408604e+00 -1.627595e+00 -1.000000e+00
     vertex  3.777762e+00 -1.266044e+00 -1.532089e+00
   endloop
 endfacet
 facet normal -8.652229e-01  4.995367e-01 -4.303984e-02
   outer loop
     vertex  2.295263e+00  9.848078e-01  3.472964e-01
     vertex  2.492187e+00  1.266044e+00 -3.472964e-01
     vertex  2.150167e+00  6.736482e-01 -3.472964e-01
   endloop
 endfacet
 facet normal -7.653346e-01  6.421920e-01  4.303984e-02
   outer loop
     vertex  2.295263e+00  9.848078e-01  3.472964e-01
     vertex  2.734956e+00  1.508813e+00  3.472964e-01
     vertex  2.492187e+00  1.266044e+00 -3.472964e-01
   endloop
 endfacet
 facet normal  5.140382e-01  1.543112e-01  8.437729e-01
   outer loop
     vertex  5.114341e+00  6.427876e-01  1.532089e+00
     vertex  4.848776e+00 -2.076451e-16  1.811429e+00
     vertex  5.221855e+00 -2.990233e-16  1.584144e+00
   endloop
 endfacet
 facet normal  7.677217e-01  2.794279e-01  5.766484e-01
   outer loop
     vertex  5.114341e+00  6.427876e-01  1.532089e+00
     vertex  5.267044e+00  2.232378e-01  1.532089e+00
     vertex  5.536686e+00 -3.761345e-16  1.281277e+00
   endloop
 endfacet
 facet normal  3.770924e-01  1.372504e-01  9.159496e-01
   outer loop
     vertex  5.114341e+00  6.427876e-01  1.532089e+00
     vertex  5.221855e+00 -2.990233e-16  1.584144e+00
     vertex  5.267044e+00  2.232378e-01  1.532089e+00
   endloop
 endfacet
 facet normal  7.734116e-01  2.877842e-01  5.648139e-01
   outer loop
     vertex  5.114341e+00  6.427876e-01  1.532089e+00
     vertex  5.536686e+00 -3.761345e-16  1.281277e+00
     vertex  5.327828e+00  1.113341e+00  1.000000e+00
   endloop
 endfacet
 facet normal  4.437742e-01 -2.562131e-01 -8.587312e-01
   outer loop
     vertex  5.209046e+00 -4.396926e-01 -1.532089e+00
     vertex  4.985808e+00 -8.263518e-01 -1.532089e+00
     vertex  4.593396e+00 -3.420201e-01 -1.879385e+00
   endloop
 endfacet
 facet normal  8.392186e-01 -4.845231e-01 -2.468794e-01
   outer loop
     vertex  5.209046e+00 -4.396926e-01 -1.532089e+00
     vertex  5.536686e+00 -3.761345e-16 -1.281277e+00
     vertex  4.985808e+00 -8.263518e-01 -1.532089e+00
   endloop
 endfacet
 facet normal  5.167889e-01 -1.154846e-01 -8.482880e-01
   outer loop
     vertex  5.209046e+00 -4.396926e-01 -1.532089e+00
     vertex  4.848776e+00 -2.076451e-16 -1.811429e+00
     vertex  5.221855e+00 -2.990233e-16 -1.584144e+00
   endloop
 endfacet
 facet normal  6.894548e-01 -1.049347e-01 -7.166874e-01
   outer loop
     vertex  5.209046e+00 -4.396926e-01 -1.532089e+00
     vertex  5.221855e+00 -2.990233e-16 -1.584144e+00
     vertex  5.536686e+00 -3.761345e-16 -1.281277e+00
   endloop
 endfacet
 facet normal  4.629657e-01 -1.729586e-01 -8.693377e-01
   outer loop
     vertex  5.209046e+00 -4.396926e-01 -1.532089e+00
     vertex  4.593396e+00 -3.420201e-01 -1.879385e+00
     vertex  4.848776e+00 -2.076451e-16 -1.811429e+00
   endloop
 endfacet
 facet normal -8.252713e-01 -4.764706e-01 -3.031551e-01
   outer loop
     vertex  2.492187e+00 -1.266044e+00 -3.472964e-01
     vertex  2.150167e+00 -6.736482e-01 -3.472964e-01
     vertex  2.501000e+00 -8.660254e-01 -1.000000e+00
   endloop
 endfacet
 facet normal -7.102001e-01 -5.959287e-01 -3.748130e-01
   outer loop
     vertex  2.492187e+00 -1.266044e+00 -3.472964e-01
     vertex  2.501000e+00 -8.660254e-01 -1.000000e+00
     vertex  2.887659e+00 -1.326828e+00 -1.000000e+00
   endloop
 endfacet
 facet normal -0.000000e+00  9.271004e-01  3.748130e-01
   outer loop
     vertex  3.700233e+00  1.705737e+00  1.000000e+00
     vertex  4.301767e+00  1.705737e+00  1.000000e+00
     vertex  4.001000e+00  1.969616e+00  3.472964e-01
   endloop
 endfacet
 facet normal -1.654765e-01  9.384639e-01  3.031551e-01
   outer loop
     vertex  3.700233e+00  1.705737e+00  1.000000e+00
     vertex  4.001000e+00  1.969616e+00  3.472964e-01
     vertex  3.327352e+00  1.850833e+00  3.472964e-01
   endloop
 endfacet
 facet normal  1.362820e-01 -7.728939e-01 -6.197276e-01
   outer loop
     vertex  4.593396e+00 -1.627595e+00 -1.000000e+00
     vertex  4.001000e+00 -1.732051e+00 -1.000000e+00
     vertex  4.224238e+00 -1.266044e+00 -1.532089e+00
   endloop
 endfacet
 facet normal  2.572937e-01 -7.069085e-01 -6.588477e-01
   outer loop
     vertex  4.593396e+00 -1.627595e+00 -1.000000e+00
     vertex  4.224238e+00 -1.266044e+00 -1.532089e+00
     vertex  4.643788e+00 -1.113341e+00 -1.532089e+00
   endloop
 endfacet
 facet normal -9.388219e-01  3.417032e-01  4.303984e-02
   outer loop
     vertex  2.061307e+00  3.420201e-01  3.472964e-01
     vertex  2.295263e+00  9.848078e-01  3.472964e-01
     vertex  2.150167e+00  6.736482e-01 -3.472964e-01
   endloop
 endfacet
 facet normal -9.838952e-01  1.734873e-01 -4.303984e-02
   outer loop
     vertex  2.061307e+00  3.420201e-01  3.472964e-01
     vertex  2.150167e+00  6.736482e-01 -3.472964e-01
     vertex  2.031384e+00  2.412083e-16 -3.472964e-01
   endloop
 endfacet
 facet normal  5.762771e-01  4.835539e-01  6.588477e-01
   outer loop
     vertex  4.827352e+00  9.848078e-01  1.532089e+00
     vertex  5.114341e+00  6.427876e-01  1.532089e+00
     vertex  5.327828e+00  1.113341e+00  1.000000e+00
   endloop
 endfacet
 facet normal  5.044706e-01  6.012047e-01  6.197276e-01
   outer loop
     vertex  4.827352e+00  9.848078e-01  1.532089e+00
     vertex  5.327828e+00  1.113341e+00  1.000000e+00
     vertex  4.867025e+00  1.500000e+00  1.000000e+00
   endloop
 endfacet
 facet normal -6.125388e-01 -7.299953e-01 -3.031551e-01
   outer loop
     vertex  3.016192e+00 -1.705737e+00 -3.472964e-01
     vertex  2.492187e+00 -1.266044e+00 -3.472964e-01
     vertex  2.887659e+00 -1.326828e+00 -1.000000e+00
   endloop
 endfacet
 facet normal -4.635502e-01 -8.028925e-01 -3.748130e-01
   outer loop
     vertex  3.016192e+00 -1.705737e+00 -3.472964e-01
     vertex  2.887659e+00 -1.326828e+00 -1.000000e+00
     vertex  3.408604e+00 -1.627595e+00 -1.000000e+00
   endloop
 endfacet
 facet normal -3.170870e-01  8.711894e-01  3.748130e-01
   outer loop
     vertex  3.134975e+00  1.500000e+00  1.000000e+00
     vertex  3.700233e+00  1.705737e+00  1.000000e+00
     vertex  3.327352e+00  1.850833e+00  3.472964e-01
   endloop
 endfacet
 facet normal -4.764706e-01  8.252713e-01  3.031551e-01
   outer loop
     vertex  3.134975e+00  1.500000e+00  1.000000e+00
     vertex  3.327352e+00  1.850833e+00  3.472964e-01
     vertex  2.734956e+00  1.508813e+00  3.472964e-01
   endloop
 endfacet
 facet normal  4.835539e-01 -5.762771e-01 -6.588477e-01
   outer loop
     vertex  5.114341e+00 -1.326828e+00 -1.000000e+00
     vertex  4.643788e+00 -1.113341e+00 -1.532089e+00
     vertex  4.985808e+00 -8.263518e-01 -1.532089e+00
   endloop
 endfacet
 facet normal  3.924085e-01 -6.796715e-01 -6.197276e-01
   outer loop
     vertex  5.114341e+00 -1.326828e+00 -1.000000e+00
     vertex  4.593396e+00 -1.627595e+00 -1.000000e+00
     vertex  4.643788e+00 -1.113341e+00 -1.532089e+00
   endloop
 endfacet
 facet normal -9.990734e-01  0.000000e+00  4.303984e-02
   outer loop
     vertex  2.061307e+00 -3.420201e-01  3.472964e-01
     vertex  2.061307e+00  3.420201e-01  3.472964e-01
     vertex  2.031384e+00  2.412083e-16 -3.472964e-01
   endloop
 endfacet
 facet normal -9.838952e-01 -1.734873e-01 -4.303984e-02
   outer loop
     vertex  2.061307e+00 -3.420201e-01  3.472964e-01
     vertex  2.031384e+00  2.412083e-16 -3.472964e-01
     vertex  2.150167e+00 -6.736482e-01 -3.472964e-01
   endloop
 endfacet
 facet normal  3.761382e-01  6.514904e-01  6.588477e-01
   outer loop
     vertex  4.440693e+00  1.208046e+00  1.532089e+00
     vertex  4.827352e+00  9.848078e-01  1.532089e+00
     vertex  4.867025e+00  1.500000e+00  1.000000e+00
   endloop
 endfacet
 facet normal  2.684232e-01  7.374867e-01  6.197276e-01
   outer loop
     vertex  4.440693e+00  1.208046e+00  1.532089e+00
     vertex  4.867025e+00  1.500000e+00  1.000000e+00
     vertex  4.301767e+00  1.705737e+00  1.000000e+00
   endloop
 endfacet
 facet normal -3.259251e-01 -8.954718e-01 -3.031551e-01
   outer loop
     vertex  3.658980e+00 -1.939693e+00 -3.472964e-01
     vertex  3.016192e+00 -1.705737e+00 -3.472964e-01
     vertex  3.408604e+00 -1.627595e+00 -1.000000e+00
   endloop
 endfacet
 facet normal -1.609893e-01 -9.130157e-01 -3.748130e-01
   outer loop
     vertex  3.658980e+00 -1.939693e+00 -3.472964e-01
     vertex  3.408604e+00 -1.627595e+00 -1.000000e+00
     vertex  4.001000e+00 -1.732051e+00 -1.000000e+00
   endloop
 endfacet
 facet normal -5.959287e-01  7.102001e-01  3.748130e-01
   outer loop
     vertex  2.674172e+00  1.113341e+00  1.000000e+00
     vertex  3.134975e+00  1.500000e+00  1.000000e+00
     vertex  2.734956e+00  1.508813e+00  3.472964e-01
   endloop
 endfacet
 facet normal -7.299953e-01  6.125388e-01  3.031551e-01
   outer loop
     vertex  2.674172e+00  1.113341e+00  1.000000e+00
     vertex  2.734956e+00  1.508813e+00  3.472964e-01
     vertex  2.295263e+00  9.848078e-01  3.472964e-01
   endloop
 endfacet
 facet normal  4.827120e-01  1.736096e-01  8.583990e-01
   outer loop
     vertex  4.643788e+00  2.339556e-01  1.879385e+00
     vertex  4.848776e+00 -2.076451e-16  1.811429e+00
     vertex  5.114341e+00  6.427876e-01  1.532089e+00
   endloop
 endfacet
 facet normal  3.224252e-01  7.560043e-03  9.465648e-01
   outer loop
     vertex  4.643788e+00  2.339556e-01  1.879385e+00
     vertex  4.435247e+00 -1.063599e-16  1.952288e+00
     vertex  4.848776e+00 -2.076451e-16  1.811429e+00
   endloop
 endfacet
 facet normal  6.861986e-01 -2.501262e-01 -6.830581e-01
   outer loop
     vertex  5.501000e+00 -8.660254e-01 -1.000000e+00
     vertex  4.985808e+00 -8.263518e-01 -1.532089e+00
     vertex  5.536686e+00 -3.761345e-16 -1.281277e+00
   endloop
 endfacet
 facet normal  9.023579e-01 -2.557402e-01 -3.469109e-01
   outer loop
     vertex  5.501000e+00 -8.660254e-01 -1.000000e+00
     vertex  5.778246e+00 -4.352997e-16 -9.172772e-01
     vertex  5.935011e+00 -4.736960e-16 -5.095128e-01
   endloop
 endfacet
 facet normal  6.012047e-01 -5.044706e-01 -6.197276e-01
   outer loop
     vertex  5.501000e+00 -8.660254e-01 -1.000000e+00
     vertex  5.114341e+00 -1.326828e+00 -1.000000e+00
     vertex  4.985808e+00 -8.263518e-01 -1.532089e+00
   endloop
 endfacet
 facet normal -9.388219e-01 -3.417032e-01  4.303984e-02
   outer loop
     vertex  2.295263e+00 -9.848078e-01  3.472964e-01
     vertex  2.061307e+00 -3.420201e-01  3.472964e-01
     vertex  2.150167e+00 -6.736482e-01 -3.472964e-01
   endloop
 endfacet
 facet normal -8.652229e-01 -4.995367e-01 -4.303984e-02
   outer loop
     vertex  2.295263e+00 -9.848078e-01  3.472964e-01
     vertex  2.150167e+00 -6.736482e-01 -3.472964e-01
     vertex  2.492187e+00 -1.266044e+00 -3.472964e-01
   endloop
 endfacet
 facet normal  1.306314e-01  7.408476e-01  6.588477e-01
   outer loop
     vertex  4.001000e+00  1.285575e+00  1.532089e+00
     vertex  4.440693e+00  1.208046e+00  1.532089e+00
     vertex  4.301767e+00  1.705737e+00  1.000000e+00
   endloop
 endfacet
 facet normal -1.725361e-17  7.848170e-01  6.197276e-01
   outer loop
     vertex  4.001000e+00  1.285575e+00  1.532089e+00
     vertex  4.301767e+00  1.705737e+00  1.000000e+00
     vertex  3.700233e+00  1.705737e+00  1.000000e+00
   endloop
 endfacet
 facet normal  1.609893e-01 -9.130157e-01 -3.748130e-01
   outer loop
     vertex  4.343020e+00 -1.939693e+00 -3.472964e-01
     vertex  4.001000e+00 -1.732051e+00 -1.000000e+00
     vertex  4.593396e+00 -1.627595e+00 -1.000000e+00
   endloop
 endfacet
 facet normal -9.279956e-16 -9.529412e-01 -3.031551e-01
   outer loop
     vertex  4.343020e+00 -1.939693e+00 -3.472964e-01
     vertex  3.658980e+00 -1.939693e+00 -3.472964e-01
     vertex  4.001000e+00 -1.732051e+00 -1.000000e+00
   endloop
 endfacet
 facet normal -8.954718e-01  3.259251e-01  3.031551e-01
   outer loop
     vertex  2.373405e+00  5.923963e-01  1.000000e+00
     vertex  2.295263e+00  9.848078e-01  3.472964e-01
     vertex  2.061307e+00  3.420201e-01  3.472964e-01
   endloop
 endfacet
 facet normal -8.028925e-01  4.635502e-01  3.748130e-01
   outer loop
     vertex  2.373405e+00  5.923963e-01  1.000000e+00
     vertex  2.674172e+00  1.113341e+00  1.000000e+00
     vertex  2.295263e+00  9.848078e-01  3.472964e-01
   endloop
 endfacet
 facet normal  1.081226e-01  1.410920e-01  9.840745e-01
   outer loop
     vertex  4.525005e+00  4.396926e-01  1.879385e+00
     vertex  4.001000e+00 -2.999520e-32  2.000000e+00
     vertex  4.435247e+00 -1.063599e-16  1.952288e+00
   endloop
 endfacet
 facet normal  4.274623e-01  2.467955e-01  8.696942e-01
   outer loop
     vertex  4.525005e+00  4.396926e-01  1.879385e+00
     vertex  4.643788e+00  2.339556e-01  1.879385e+00
     vertex  5.114341e+00  6.427876e-01  1.532089e+00
   endloop
 endfacet
 facet normal  2.060710e-01  1.189752e-01  9.712773e-01
   outer loop
     vertex  4.525005e+00  4.396926e-01  1.879385e+00
     vertex  4.435247e+00 -1.063599e-16  1.952288e+00
     vertex  4.643788e+00  2.339556e-01  1.879385e+00
   endloop
 endfacet
 facet normal  3.925413e-01  3.293813e-01  8.587312e-01
   outer loop
     vertex  4.525005e+00  4.396926e-01  1.879385e+00
     vertex  5.114341e+00  6.427876e-01  1.532089e+00
     vertex  4.827352e+00  9.848078e-01  1.532089e+00
   endloop
 endfacet
 facet normal  6.867969e-01 -2.499736e-01 -6.825124e-01
   outer loop
     vertex  5.706737e+00 -3.007675e-01 -1.000000e+00
     vertex  5.501000e+00 -8.660254e-01 -1.000000e+00
     vertex  5.536686e+00 -3.761345e-16 -1.281277e+00
   endloop
 endfacet
 facet normal  8.323362e-01 -4.597036e-02 -5.523615e-01
   outer loop
     vertex  5.706737e+00 -3.007675e-01 -1.000000e+00
     vertex  5.536686e+00 -3.761345e-16 -1.281277e+00
     vertex  5.778246e+00 -4.352997e-16 -9.172772e-01
   endloop
 endfacet
 facet normal  8.628820e-01 -3.140634e-01  3.959784e-01
   outer loop
     vertex  5.706737e+00 -3.007675e-01 -1.000000e+00
     vertex  5.778246e+00 -4.352997e-16 -9.172772e-01
     vertex  5.501000e+00 -8.660254e-01 -1.000000e+00
   endloop
 endfacet
 facet normal -6.421920e-01 -7.653346e-01 -4.303984e-02
   outer loop
     vertex  2.734956e+00 -1.508813e+00  3.472964e-01
     vertex  2.492187e+00 -1.266044e+00 -3.472964e-01
     vertex  3.016192e+00 -1.705737e+00 -3.472964e-01
   endloop
 endfacet
 facet normal -7.653346e-01 -6.421920e-01  4.303984e-02
   outer loop
     vertex  2.734956e+00 -1.508813e+00  3.472964e-01
     vertex  2.295263e+00 -9.848078e-01  3.472964e-01
     vertex  2.492187e+00 -1.266044e+00 -3.472964e-01
   endloop
 endfacet
 facet normal -2.684232e-01  7.374867e-01  6.197276e-01
   outer loop
     vertex  3.561307e+00  1.208046e+00  1.532089e+00
     vertex  3.700233e+00  1.705737e+00  1.000000e+00
     vertex  3.134975e+00  1.500000e+00  1.000000e+00
   endloop
 endfacet
 facet normal -1.306314e-01  7.408476e-01  6.588477e-01
   outer loop
     vertex  3.561307e+00  1.208046e+00  1.532089e+00
     vertex  4.001000e+00  1.285575e+00  1.532089e+00
     vertex  3.700233e+00  1.705737e+00  1.000000e+00
   endloop
 endfacet
 facet normal  3.259251e-01 -8.954718e-01 -3.031551e-01
   outer loop
     vertex  4.985808e+00 -1.705737e+00 -3.472964e-01
     vertex  4.343020e+00 -1.939693e+00 -3.472964e-01
     vertex  4.593396e+00 -1.627595e+00 -1.000000e+00
   endloop
 endfacet
 facet normal  4.635502e-01 -8.028925e-01 -3.748130e-01
   outer loop
     vertex  4.985808e+00 -1.705737e+00 -3.472964e-01
     vertex  4.593396e+00 -1.627595e+00 -1.000000e+00
     vertex  5.114341e+00 -1.326828e+00 -1.000000e+00
   endloop
 endfacet
 facet normal -9.529412e-01  1.278720e-17  3.031551e-01
   outer loop
     vertex  2.268949e+00  2.121150e-16  1.000000e+00
     vertex  2.061307e+00  3.420201e-01  3.472964e-01
     vertex  2.061307e+00 -3.420201e-01  3.472964e-01
   endloop
 endfacet
 facet normal -9.130157e-01  1.609893e-01  3.748130e-01
   outer loop
     vertex  2.268949e+00  2.121150e-16  1.000000e+00
     vertex  2.373405e+00  5.923963e-01  1.000000e+00
     vertex  2.061307e+00  3.420201e-01  3.472964e-01
   endloop
 endfacet
 facet normal  1.132877e-01  1.350110e-01  9.843464e-01
   outer loop
     vertex  4.343020e+00  5.923963e-01  1.879385e+00
     vertex  4.001000e+00 -2.999520e-32  2.000000e+00
     vertex  4.525005e+00  4.396926e-01  1.879385e+00
   endloop
 endfacet
 facet normal  2.562131e-01  4.437742e-01  8.587312e-01
   outer loop
     vertex  4.343020e+00  5.923963e-01  1.879385e+00
     vertex  4.827352e+00  9.848078e-01  1.532089e+00
     vertex  4.440693e+00  1.208046e+00  1.532089e+00
   endloop
 endfacet
 facet normal  3.172741e-01  3.781126e-01  8.696942e-01
   outer loop
     vertex  4.343020e+00  5.923963e-01  1.879385e+00
     vertex  4.525005e+00  4.396926e-01  1.879385e+00
     vertex  4.827352e+00  9.848078e-01  1.532089e+00
   endloop
 endfacet
 facet normal -4.995367e-01 -8.652229e-01  4.303984e-02
   outer loop
     vertex  3.327352e+00 -1.850833e+00  3.472964e-01
     vertex  2.734956e+00 -1.508813e+00  3.472964e-01
     vertex  3.016192e+00 -1.705737e+00 -3.472964e-01
   endloop
 endfacet
 facet normal -3.417032e-01 -9.388219e-01 -4.303984e-02
   outer loop
     vertex  3.327352e+00 -1.850833e+00  3.472964e-01
     vertex  3.016192e+00 -1.705737e+00 -3.472964e-01
     vertex  3.658980e+00 -1.939693e+00 -3.472964e-01
   endloop
 endfacet
 facet normal -5.044706e-01  6.012047e-01  6.197276e-01
   outer loop
     vertex  3.174648e+00  9.848078e-01  1.532089e+00
     vertex  3.134975e+00  1.500000e+00  1.000000e+00
     vertex  2.674172e+00  1.113341e+00  1.000000e+00
   endloop
 endfacet
 facet normal -3.761382e-01  6.514904e-01  6.588477e-01
   outer loop
     vertex  3.174648e+00  9.848078e-01  1.532089e+00
     vertex  3.561307e+00  1.208046e+00  1.532089e+00
     vertex  3.134975e+00  1.500000e+00  1.000000e+00
   endloop
 endfacet
 facet normal  9.296424e-01 -3.577561e-01 -8.817895e-02
   outer loop
     vertex  5.509813e+00 -1.266044e+00 -3.472964e-01
     vertex  5.999500e+00 -7.240643e-02 -2.746014e-02
     vertex  5.999500e+00 -7.687408e-02 -9.334203e-03
   endloop
 endfacet
 facet normal  6.125388e-01 -7.299953e-01 -3.031551e-01
   outer loop
     vertex  5.509813e+00 -1.266044e+00 -3.472964e-01
     vertex  4.985808e+00 -1.705737e+00 -3.472964e-01
     vertex  5.114341e+00 -1.326828e+00 -1.000000e+00
   endloop
 endfacet
 facet normal  7.102001e-01 -5.959287e-01 -3.748130e-01
   outer loop
     vertex  5.509813e+00 -1.266044e+00 -3.472964e-01
     vertex  5.114341e+00 -1.326828e+00 -1.000000e+00
     vertex  5.501000e+00 -8.660254e-01 -1.000000e+00
   endloop
 endfacet
 facet normal -8.954718e-01 -3.259251e-01  3.031551e-01
   outer loop
     vertex  2.373405e+00 -5.923963e-01  1.000000e+00
     vertex  2.061307e+00 -3.420201e-01  3.472964e-01
     vertex  2.295263e+00 -9.848078e-01  3.472964e-01
   endloop
 endfacet
 facet normal -9.130157e-01 -1.609893e-01  3.748130e-01
   outer loop
     vertex  2.373405e+00 -5.923963e-01  1.000000e+00
     vertex  2.268949e+00  2.121150e-16  1.000000e+00
     vertex  2.061307e+00 -3.420201e-01  3.472964e-01
   endloop
 endfacet
 facet normal  8.898189e-02  5.046414e-01  8.587312e-01
   outer loop
     vertex  4.119782e+00  6.736482e-01  1.879385e+00
     vertex  4.440693e+00  1.208046e+00  1.532089e+00
     vertex  4.001000e+00  1.285575e+00  1.532089e+00
   endloop
 endfacet
 facet normal  6.027913e-02  1.656155e-01  9.843464e-01
   outer loop
     vertex  4.119782e+00  6.736482e-01  1.879385e+00
     vertex  4.001000e+00 -2.999520e-32  2.000000e+00
     vertex  4.343020e+00  5.923963e-01  1.879385e+00
   endloop
 endfacet
 facet normal  1.688180e-01  4.638237e-01  8.696942e-01
   outer loop
     vertex  4.119782e+00  6.736482e-01  1.879385e+00
     vertex  4.343020e+00  5.923963e-01  1.879385e+00
     vertex  4.440693e+00  1.208046e+00  1.532089e+00
   endloop
 endfacet
 facet normal -1.734873e-01 -9.838952e-01  4.303984e-02
   outer loop
     vertex  4.001000e+00 -1.969616e+00  3.472964e-01
     vertex  3.327352e+00 -1.850833e+00  3.472964e-01
     vertex  3.658980e+00 -1.939693e+00 -3.472964e-01
   endloop
 endfacet
 facet normal -9.736452e-16 -9.990734e-01 -4.303984e-02
   outer loop
     vertex  4.001000e+00 -1.969616e+00  3.472964e-01
     vertex  3.658980e+00 -1.939693e+00 -3.472964e-01
     vertex  4.343020e+00 -1.939693e+00 -3.472964e-01
   endloop
 endfacet
 facet normal -5.762771e-01  4.835539e-01  6.588477e-01
   outer loop
     vertex  2.887659e+00  6.427876e-01  1.532089e+00
     vertex  3.174648e+00  9.848078e-01  1.532089e+00
     vertex  2.674172e+00  1.113341e+00  1.000000e+00
   endloop
 endfacet
 facet normal -6.796715e-01  3.924085e-01  6.197276e-01
   outer loop
     vertex  2.887659e+00  6.427876e-01  1.532089e+00
     vertex  2.674172e+00  1.113341e+00  1.000000e+00
     vertex  2.373405e+00  5.923963e-01  1.000000e+00
   endloop
 endfacet
 facet normal  8.252713e-01 -4.764706e-01 -3.031551e-01
   outer loop
     vertex  5.851833e+00 -6.736482e-01 -3.472964e-01
     vertex  5.509813e+00 -1.266044e+00 -3.472964e-01
     vertex  5.501000e+00 -8.660254e-01 -1.000000e+00
   endloop
 endfacet
 facet normal  7.619947e-01 -4.399378e-01  4.752040e-01
   outer loop
     vertex  5.851833e+00 -6.736482e-01 -3.472964e-01
     vertex  5.999500e+00 -7.240643e-02 -2.746014e-02
     vertex  5.509813e+00 -1.266044e+00 -3.472964e-01
   endloop
 endfacet
 facet normal  9.769752e-01 -1.557438e-01 -1.458196e-01
   outer loop
     vertex  5.851833e+00 -6.736482e-01 -3.472964e-01
     vertex  5.935011e+00 -4.736960e-16 -5.095128e-01
     vertex  5.999500e+00 -9.794726e-16 -7.743869e-02
   endloop
 endfacet
 facet normal  9.772889e-01 -1.876382e-01 -9.848011e-02
   outer loop
     vertex  5.851833e+00 -6.736482e-01 -3.472964e-01
     vertex  5.999500e+00 -6.373079e-02 -4.399019e-02
     vertex  5.999500e+00 -7.240643e-02 -2.746014e-02
   endloop
 endfacet
 facet normal  9.757069e-01 -1.639836e-01 -1.452768e-01
   outer loop
     vertex  5.851833e+00 -6.736482e-01 -3.472964e-01
     vertex  5.999500e+00 -5.135135e-02 -5.796369e-02
     vertex  5.999500e+00 -6.373079e-02 -4.399019e-02
   endloop
 endfacet
 facet normal  9.702343e-01 -1.375671e-01 -1.993004e-01
   outer loop
     vertex  5.851833e+00 -6.736482e-01 -3.472964e-01
     vertex  5.999500e+00 -3.598755e-02 -6.856856e-02
     vertex  5.999500e+00 -5.135135e-02 -5.796369e-02
   endloop
 endfacet
 facet normal  9.569303e-01 -1.029481e-01 -2.714518e-01
   outer loop
     vertex  5.851833e+00 -6.736482e-01 -3.472964e-01
     vertex  5.999500e+00 -1.853229e-02 -7.518846e-02
     vertex  5.999500e+00 -3.598755e-02 -6.856856e-02
   endloop
 endfacet
 facet normal  9.209905e-01 -4.695928e-02 -3.867445e-01
   outer loop
     vertex  5.851833e+00 -6.736482e-01 -3.472964e-01
     vertex  5.999500e+00 -9.794726e-16 -7.743869e-02
     vertex  5.999500e+00 -1.853229e-02 -7.518846e-02
   endloop
 endfacet
 facet normal  8.857187e-01 -2.091591e-01 -4.144332e-01
   outer loop
     vertex  5.851833e+00 -6.736482e-01 -3.472964e-01
     vertex  5.501000e+00 -8.660254e-01 -1.000000e+00
     vertex  5.935011e+00 -4.736960e-16 -5.095128e-01
   endloop
 endfacet
 facet normal -8.028925e-01 -4.635502e-01  3.748130e-01
   outer loop
     vertex  2.674172e+00 -1.113341e+00  1.000000e+00
     vertex  2.373405e+00 -5.923963e-01  1.000000e+00
     vertex  2.295263e+00 -9.848078e-01  3.472964e-01
   endloop
 endfacet
 facet normal -7.299953e-01 -6.125388e-01  3.031551e-01
   outer loop
     vertex  2.674172e+00 -1.113341e+00  1.000000e+00
     vertex  2.295263e+00 -9.848078e-01  3.472964e-01
     vertex  2.734956e+00 -1.508813e+00  3.472964e-01
   endloop
 endfacet
 facet normal -0.000000e+00  4.935909e-01  8.696942e-01
   outer loop
     vertex  3.882218e+00  6.736482e-01  1.879385e+00
     vertex  4.119782e+00  6.736482e-01  1.879385e+00
     vertex  4.001000e+00  1.285575e+00  1.532089e+00
   endloop
 endfacet
 facet normal -0.000000e+00  1.762444e-01  9.843464e-01
   outer loop
     vertex  3.882218e+00  6.736482e-01  1.879385e+00
     vertex  4.001000e+00 -2.999520e-32  2.000000e+00
     vertex  4.119782e+00  6.736482e-01  1.879385e+00
   endloop
 endfacet
 facet normal -8.898189e-02  5.046414e-01  8.587312e-01
   outer loop
     vertex  3.882218e+00  6.736482e-01  1.879385e+00
     vertex  4.001000e+00  1.285575e+00  1.532089e+00
     vertex  3.561307e+00  1.208046e+00  1.532089e+00
   endloop
 endfacet
 facet normal  1.734873e-01 -9.838952e-01  4.303984e-02
   outer loop
     vertex  4.674648e+00 -1.850833e+00  3.472964e-01
     vertex  4.001000e+00 -1.969616e+00  3.472964e-01
     vertex  4.343020e+00 -1.939693e+00 -3.472964e-01
   endloop
 endfacet
 facet normal  3.417032e-01 -9.388219e-01 -4.303984e-02
   outer loop
     vertex  4.674648e+00 -1.850833e+00  3.472964e-01
     vertex  4.343020e+00 -1.939693e+00 -3.472964e-01
     vertex  4.985808e+00 -1.705737e+00 -3.472964e-01
   endloop
 endfacet
 facet normal -7.728939e-01  1.362820e-01  6.197276e-01
   outer loop
     vertex  2.734956e+00  2.232378e-01  1.532089e+00
     vertex  2.373405e+00  5.923963e-01  1.000000e+00
     vertex  2.268949e+00  2.121150e-16  1.000000e+00
   endloop
 endfacet
 facet normal -7.069085e-01  2.572937e-01  6.588477e-01
   outer loop
     vertex  2.734956e+00  2.232378e-01  1.532089e+00
     vertex  2.887659e+00  6.427876e-01  1.532089e+00
     vertex  2.373405e+00  5.923963e-01  1.000000e+00
   endloop
 endfacet
 facet normal -5.959287e-01 -7.102001e-01  3.748130e-01
   outer loop
     vertex  3.134975e+00 -1.500000e+00  1.000000e+00
     vertex  2.674172e+00 -1.113341e+00  1.000000e+00
     vertex  2.734956e+00 -1.508813e+00  3.472964e-01
   endloop
 endfacet
 facet normal -4.764706e-01 -8.252713e-01  3.031551e-01
   outer loop
     vertex  3.134975e+00 -1.500000e+00  1.000000e+00
     vertex  2.734956e+00 -1.508813e+00  3.472964e-01
     vertex  3.327352e+00 -1.850833e+00  3.472964e-01
   endloop
 endfacet
 facet normal -6.027913e-02  1.656155e-01  9.843464e-01
   outer loop
     vertex  3.658980e+00  5.923963e-01  1.879385e+00
     vertex  4.001000e+00 -2.999520e-32  2.000000e+00
     vertex  3.882218e+00  6.736482e-01  1.879385e+00
   endloop
 endfacet
 facet normal -2.562131e-01  4.437742e-01  8.587312e-01
   outer loop
     vertex  3.658980e+00  5.923963e-01  1.879385e+00
     vertex  3.561307e+00  1.208046e+00  1.532089e+00
     vertex  3.174648e+00  9.848078e-01  1.532089e+00
   endloop
 endfacet
 facet normal -1.688180e-01  4.638237e-01  8.696942e-01
   outer loop
     vertex  3.658980e+00  5.923963e-01  1.879385e+00
     vertex  3.882218e+00  6.736482e-01  1.879385e+00
     vertex  3.561307e+00  1.208046e+00  1.532089e+00
   endloop
 endfacet
 facet normal  4.995367e-01 -8.652229e-01  4.303984e-02
   outer loop
     vertex  5.267044e+00 -1.508813e+00  3.472964e-01
     vertex  4.674648e+00 -1.850833e+00  3.472964e-01
     vertex  4.985808e+00 -1.705737e+00 -3.472964e-01
   endloop
 endfacet
 facet normal  6.421920e-01 -7.653346e-01 -4.303984e-02
   outer loop
     vertex  5.267044e+00 -1.508813e+00  3.472964e-01
     vertex  4.985808e+00 -1.705737e+00 -3.472964e-01
     vertex  5.509813e+00 -1.266044e+00 -3.472964e-01
   endloop
 endfacet
 facet normal -7.728939e-01 -1.362820e-01  6.197276e-01
   outer loop
     vertex  2.734956e+00 -2.232378e-01  1.532089e+00
     vertex  2.268949e+00  2.121150e-16  1.000000e+00
     vertex  2.373405e+00 -5.923963e-01  1.000000e+00
   endloop
 endfacet
 facet normal -7.522763e-01  0.000000e+00  6.588477e-01
   outer loop
     vertex  2.734956e+00 -2.232378e-01  1.532089e+00
     vertex  2.734956e+00  2.232378e-01  1.532089e+00
     vertex  2.268949e+00  2.121150e-16  1.000000e+00
   endloop
 endfacet
 facet normal -3.170870e-01 -8.711894e-01  3.748130e-01
   outer loop
     vertex  3.700233e+00 -1.705737e+00  1.000000e+00
     vertex  3.134975e+00 -1.500000e+00  1.000000e+00
     vertex  3.327352e+00 -1.850833e+00  3.472964e-01
   endloop
 endfacet
 facet normal -1.654765e-01 -9.384639e-01  3.031551e-01
   outer loop
     vertex  3.700233e+00 -1.705737e+00  1.000000e+00
     vertex  3.327352e+00 -1.850833e+00  3.472964e-01
     vertex  4.001000e+00 -1.969616e+00  3.472964e-01
   endloop
 endfacet
 facet normal -3.925413e-01  3.293813e-01  8.587312e-01
   outer loop
     vertex  3.476995e+00  4.396926e-01  1.879385e+00
     vertex  3.174648e+00  9.848078e-01  1.532089e+00
     vertex  2.887659e+00  6.427876e-01  1.532089e+00
   endloop
 endfacet
 facet normal -1.132877e-01  1.350110e-01  9.843464e-01
   outer loop
     vertex  3.476995e+00  4.396926e-01  1.879385e+00
     vertex  4.001000e+00 -2.999520e-32  2.000000e+00
     vertex  3.658980e+00  5.923963e-01  1.879385e+00
   endloop
 endfacet
 facet normal -3.172741e-01  3.781126e-01  8.696942e-01
   outer loop
     vertex  3.476995e+00  4.396926e-01  1.879385e+00
     vertex  3.658980e+00  5.923963e-01  1.879385e+00
     vertex  3.174648e+00  9.848078e-01  1.532089e+00
   endloop
 endfacet
 facet normal  9.499846e-01 -2.337574e-01  2.070910e-01
   outer loop
     vertex  5.706737e+00 -9.848078e-01  3.472964e-01
     vertex  5.999500e+00 -6.373079e-02  4.399019e-02
     vertex  5.999500e+00 -5.135135e-02  5.796369e-02
   endloop
 endfacet
 facet normal  9.562142e-01 -2.591443e-01  1.360094e-01
   outer loop
     vertex  5.706737e+00 -9.848078e-01  3.472964e-01
     vertex  5.999500e+00 -7.240643e-02  2.746014e-02
     vertex  5.999500e+00 -6.373079e-02  4.399019e-02
   endloop
 endfacet
 facet normal  9.567155e-01 -2.825681e-01  6.964678e-02
   outer loop
     vertex  5.706737e+00 -9.848078e-01  3.472964e-01
     vertex  5.999500e+00 -7.687408e-02  9.334203e-03
     vertex  5.999500e+00 -7.240643e-02  2.746014e-02
   endloop
 endfacet
 facet normal  9.517449e-01 -3.068901e-01  3.263377e-15
   outer loop
     vertex  5.706737e+00 -9.848078e-01  3.472964e-01
     vertex  5.999500e+00 -7.687408e-02 -9.334203e-03
     vertex  5.999500e+00 -7.687408e-02  9.334203e-03
   endloop
 endfacet
 facet normal  9.294774e-01 -3.478892e-01 -1.226579e-01
   outer loop
     vertex  5.706737e+00 -9.848078e-01  3.472964e-01
     vertex  5.509813e+00 -1.266044e+00 -3.472964e-01
     vertex  5.999500e+00 -7.687408e-02 -9.334203e-03
   endloop
 endfacet
 facet normal  7.653346e-01 -6.421920e-01  4.303984e-02
   outer loop
     vertex  5.706737e+00 -9.848078e-01  3.472964e-01
     vertex  5.267044e+00 -1.508813e+00  3.472964e-01
     vertex  5.509813e+00 -1.266044e+00 -3.472964e-01
   endloop
 endfacet
 facet normal -7.069085e-01 -2.572937e-01  6.588477e-01
   outer loop
     vertex  2.887659e+00 -6.427876e-01  1.532089e+00
     vertex  2.734956e+00 -2.232378e-01  1.532089e+00
     vertex  2.373405e+00 -5.923963e-01  1.000000e+00
   endloop
 endfacet
 facet normal -6.796715e-01 -3.924085e-01  6.197276e-01
   outer loop
     vertex  2.887659e+00 -6.427876e-01  1.532089e+00
     vertex  2.373405e+00 -5.923963e-01  1.000000e+00
     vertex  2.674172e+00 -1.113341e+00  1.000000e+00
   endloop
 endfacet
 facet normal  1.654765e-01 -9.384639e-01  3.031551e-01
   outer loop
     vertex  4.301767e+00 -1.705737e+00  1.000000e+00
     vertex  4.001000e+00 -1.969616e+00  3.472964e-01
     vertex  4.674648e+00 -1.850833e+00  3.472964e-01
   endloop
 endfacet
 facet normal -6.844412e-16 -9.271004e-01  3.748130e-01
   outer loop
     vertex  4.301767e+00 -1.705737e+00  1.000000e+00
     vertex  3.700233e+00 -1.705737e+00  1.000000e+00
     vertex  4.001000e+00 -1.969616e+00  3.472964e-01
   endloop
 endfacet
 facet normal -4.815232e-01  1.752601e-01  8.587312e-01
   outer loop
     vertex  3.358212e+00  2.339556e-01  1.879385e+00
     vertex  2.887659e+00  6.427876e-01  1.532089e+00
     vertex  2.734956e+00  2.232378e-01  1.532089e+00
   endloop
 endfacet
 facet normal -4.274623e-01  2.467955e-01  8.696942e-01
   outer loop
     vertex  3.358212e+00  2.339556e-01  1.879385e+00
     vertex  3.476995e+00  4.396926e-01  1.879385e+00
     vertex  2.887659e+00  6.427876e-01  1.532089e+00
   endloop
 endfacet
 facet normal -1.526321e-01  8.812219e-02  9.843464e-01
   outer loop
     vertex  3.358212e+00  2.339556e-01  1.879385e+00
     vertex  4.001000e+00 -2.999520e-32  2.000000e+00
     vertex  3.476995e+00  4.396926e-01  1.879385e+00
   endloop
 endfacet
 facet normal  9.876272e-01 -5.350692e-02  1.474095e-01
   outer loop
     vertex  5.940693e+00 -3.420201e-01  3.472964e-01
     vertex  5.999500e+00 -9.794726e-16  7.743869e-02
     vertex  5.935011e+00 -4.736960e-16  5.095128e-01
   endloop
 endfacet
 facet normal  9.289382e-01 -3.381059e-01 -1.508581e-01
   outer loop
     vertex  5.940693e+00 -3.420201e-01  3.472964e-01
     vertex  5.706737e+00 -9.848078e-01  3.472964e-01
     vertex  5.999500e+00 -5.135135e-02  5.796369e-02
   endloop
 endfacet
 facet normal  7.502977e-01 -2.730860e-01  6.020609e-01
   outer loop
     vertex  5.940693e+00 -3.420201e-01  3.472964e-01
     vertex  5.935011e+00 -4.736960e-16  5.095128e-01
     vertex  5.706737e+00 -9.848078e-01  3.472964e-01
   endloop
 endfacet
 facet normal  9.823804e-01 -2.252740e-02  1.855298e-01
   outer loop
     vertex  5.940693e+00 -3.420201e-01  3.472964e-01
     vertex  5.999500e+00 -1.853229e-02  7.518846e-02
     vertex  5.999500e+00 -9.794726e-16  7.743869e-02
   endloop
 endfacet
 facet normal  9.875465e-01 -5.578917e-02  1.471040e-01
   outer loop
     vertex  5.940693e+00 -3.420201e-01  3.472964e-01
     vertex  5.999500e+00 -3.598755e-02  6.856856e-02
     vertex  5.999500e+00 -1.853229e-02  7.518846e-02
   endloop
 endfacet
 facet normal  9.895321e-01 -8.197914e-02  1.187673e-01
   outer loop
     vertex  5.940693e+00 -3.420201e-01  3.472964e-01
     vertex  5.999500e+00 -5.135135e-02  5.796369e-02
     vertex  5.999500e+00 -3.598755e-02  6.856856e-02
   endloop
 endfacet
 facet normal -5.044706e-01 -6.012047e-01  6.197276e-01
   outer loop
     vertex  3.174648e+00 -9.848078e-01  1.532089e+00
     vertex  2.674172e+00 -1.113341e+00  1.000000e+00
     vertex  3.134975e+00 -1.500000e+00  1.000000e+00
   endloop
 endfacet
 facet normal -5.762771e-01 -4.835539e-01  6.588477e-01
   outer loop
     vertex  3.174648e+00 -9.848078e-01  1.532089e+00
     vertex  2.887659e+00 -6.427876e-01  1.532089e+00
     vertex  2.674172e+00 -1.113341e+00  1.000000e+00
   endloop
 endfacet
 facet normal  4.764706e-01 -8.252713e-01  3.031551e-01
   outer loop
     vertex  4.867025e+00 -1.500000e+00  1.000000e+00
     vertex  4.674648e+00 -1.850833e+00  3.472964e-01
     vertex  5.267044e+00 -1.508813e+00  3.472964e-01
   endloop
 endfacet
 facet normal  3.170870e-01 -8.711894e-01  3.748130e-01
   outer loop
     vertex  4.867025e+00 -1.500000e+00  1.000000e+00
     vertex  4.301767e+00 -1.705737e+00  1.000000e+00
     vertex  4.674648e+00 -1.850833e+00  3.472964e-01
   endloop
 endfacet
 facet normal  3.802099e-17  1.000000e+00  2.006985e-16
   outer loop
     vertex  3.316960e+00  8.377077e-17  1.879385e+00
     vertex  4.001000e+00 -2.999520e-32  2.000000e+00
     vertex  4.001000e+00 -2.999520e-32  2.000000e+00
   endloop
 endfacet
 facet normal -4.860922e-01  8.571116e-02  8.696942e-01
   outer loop
     vertex  3.316960e+00  8.377077e-17  1.879385e+00
     vertex  3.358212e+00  2.339556e-01  1.879385e+00
     vertex  2.734956e+00  2.232378e-01  1.532089e+00
   endloop
 endfacet
 facet normal -5.124263e-01 -4.140390e-17  8.587312e-01
   outer loop
     vertex  3.316960e+00  8.377077e-17  1.879385e+00
     vertex  2.734956e+00  2.232378e-01  1.532089e+00
     vertex  2.734956e+00 -2.232378e-01  1.532089e+00
   endloop
 endfacet
 facet normal -1.735668e-01  3.060452e-02  9.843464e-01
   outer loop
     vertex  3.316960e+00  8.377077e-17  1.879385e+00
     vertex  4.001000e+00 -2.999520e-32  2.000000e+00
     vertex  3.358212e+00  2.339556e-01  1.879385e+00
   endloop
 endfacet
 facet normal -2.684232e-01 -7.374867e-01  6.197276e-01
   outer loop
     vertex  3.561307e+00 -1.208046e+00  1.532089e+00
     vertex  3.134975e+00 -1.500000e+00  1.000000e+00
     vertex  3.700233e+00 -1.705737e+00  1.000000e+00
   endloop
 endfacet
 facet normal -3.761382e-01 -6.514904e-01  6.588477e-01
   outer loop
     vertex  3.561307e+00 -1.208046e+00  1.532089e+00
     vertex  3.174648e+00 -9.848078e-01  1.532089e+00
     vertex  3.134975e+00 -1.500000e+00  1.000000e+00
   endloop
 endfacet
 facet normal  5.959287e-01 -7.102001e-01  3.748130e-01
   outer loop
     vertex  5.327828e+00 -1.113341e+00  1.000000e+00
     vertex  4.867025e+00 -1.500000e+00  1.000000e+00
     vertex  5.267044e+00 -1.508813e+00  3.472964e-01
   endloop
 endfacet
 facet normal  7.299953e-01 -6.125388e-01  3.031551e-01
   outer loop
     vertex  5.327828e+00 -1.113341e+00  1.000000e+00
     vertex  5.267044e+00 -1.508813e+00  3.472964e-01
     vertex  5.706737e+00 -9.848078e-01  3.472964e-01
   endloop
 endfacet
 facet normal -4.815232e-01 -1.752601e-01  8.587312e-01
   outer loop
     vertex  3.358212e+00 -2.339556e-01  1.879385e+00
     vertex  2.734956e+00 -2.232378e-01  1.532089e+00
     vertex  2.887659e+00 -6.427876e-01  1.532089e+00
   endloop
 endfacet
 facet normal -1.735668e-01 -3.060452e-02  9.843464e-01
   outer loop
     vertex  3.358212e+00 -2.339556e-01  1.879385e+00
     vertex  4.001000e+00 -2.999520e-32  2.000000e+00
     vertex  3.316960e+00  8.377077e-17  1.879385e+00
   endloop
 endfacet
 facet normal -4.860922e-01 -8.571116e-02  8.696942e-01
   outer loop
     vertex  3.358212e+00 -2.339556e-01  1.879385e+00
     vertex  3.316960e+00  8.377077e-17  1.879385e+00
     vertex  2.734956e+00 -2.232378e-01  1.532089e+00
   endloop
 endfacet
 facet normal -6.127315e-16 -7.848170e-01  6.197276e-01
   outer loop
     vertex  4.001000e+00 -1.285575e+00  1.532089e+00
     vertex  3.700233e+00 -1.705737e+00  1.000000e+00
     vertex  4.301767e+00 -1.705737e+00  1.000000e+00
   endloop
 endfacet
 facet normal -1.306314e-01 -7.408476e-01  6.588477e-01
   outer loop
     vertex  4.001000e+00 -1.285575e+00  1.532089e+00
     vertex  3.561307e+00 -1.208046e+00  1.532089e+00
     vertex  3.700233e+00 -1.705737e+00  1.000000e+00
   endloop
 endfacet
 facet normal  9.177109e-01 -1.825638e-01  3.528133e-01
   outer loop
     vertex  5.628595e+00 -5.923963e-01  1.000000e+00
     vertex  5.935011e+00 -4.736960e-16  5.095128e-01
     vertex  5.778246e+00 -4.352997e-16  9.172772e-01
   endloop
 endfacet
 facet normal  8.259146e-01 -1.321043e-01  5.481000e-01
   outer loop
     vertex  5.628595e+00 -5.923963e-01  1.000000e+00
     vertex  5.778246e+00 -4.352997e-16  9.172772e-01
     vertex  5.536686e+00 -3.761345e-16  1.281277e+00
   endloop
 endfacet
 facet normal  9.282295e-01 -2.591250e-01  2.669160e-01
   outer loop
     vertex  5.628595e+00 -5.923963e-01  1.000000e+00
     vertex  5.706737e+00 -9.848078e-01  3.472964e-01
     vertex  5.935011e+00 -4.736960e-16  5.095128e-01
   endloop
 endfacet
 facet normal  5.189430e-01 -2.996119e-01  8.005816e-01
   outer loop
     vertex  5.628595e+00 -5.923963e-01  1.000000e+00
     vertex  5.536686e+00 -3.761345e-16  1.281277e+00
     vertex  5.327828e+00 -1.113341e+00  1.000000e+00
   endloop
 endfacet
 facet normal  8.028925e-01 -4.635502e-01  3.748130e-01
   outer loop
     vertex  5.628595e+00 -5.923963e-01  1.000000e+00
     vertex  5.327828e+00 -1.113341e+00  1.000000e+00
     vertex  5.706737e+00 -9.848078e-01  3.472964e-01
   endloop
 endfacet
 facet normal -4.274623e-01 -2.467955e-01  8.696942e-01
   outer loop
     vertex  3.476995e+00 -4.396926e-01  1.879385e+00
     vertex  3.358212e+00 -2.339556e-01  1.879385e+00
     vertex  2.887659e+00 -6.427876e-01  1.532089e+00
   endloop
 endfacet
 facet normal -3.925413e-01 -3.293813e-01  8.587312e-01
   outer loop
     vertex  3.476995e+00 -4.396926e-01  1.879385e+00
     vertex  2.887659e+00 -6.427876e-01  1.532089e+00
     vertex  3.174648e+00 -9.848078e-01  1.532089e+00
   endloop
 endfacet
 facet normal -1.526321e-01 -8.812219e-02  9.843464e-01
   outer loop
     vertex  3.476995e+00 -4.396926e-01  1.879385e+00
     vertex  4.001000e+00 -2.999520e-32  2.000000e+00
     vertex  3.358212e+00 -2.339556e-01  1.879385e+00
   endloop
 endfacet
 facet normal  2.684232e-01 -7.374867e-01  6.197276e-01
   outer loop
     vertex  4.440693e+00 -1.208046e+00  1.532089e+00
     vertex  4.301767e+00 -1.705737e+00  1.000000e+00
     vertex  4.867025e+00 -1.500000e+00  1.000000e+00
   endloop
 endfacet
 facet normal  1.306314e-01 -7.408476e-01  6.588477e-01
   outer loop
     vertex  4.440693e+00 -1.208046e+00  1.532089e+00
     vertex  4.001000e+00 -1.285575e+00  1.532089e+00
     vertex  4.301767e+00 -1.705737e+00  1.000000e+00
   endloop
 endfacet
 facet normal -2.562131e-01 -4.437742e-01  8.587312e-01
   outer loop
     vertex  3.658980e+00 -5.923963e-01  1.879385e+00
     vertex  3.174648e+00 -9.848078e-01  1.532089e+00
     vertex  3.561307e+00 -1.208046e+00  1.532089e+00
   endloop
 endfacet
 facet normal -1.132877e-01 -1.350110e-01  9.843464e-01
   outer loop
     vertex  3.658980e+00 -5.923963e-01  1.879385e+00
     vertex  4.001000e+00 -2.999520e-32  2.000000e+00
     vertex  3.476995e+00 -4.396926e-01  1.879385e+00
   endloop
 endfacet
 facet normal -3.172741e-01 -3.781126e-01  8.696942e-01
   outer loop
     vertex  3.658980e+00 -5.923963e-01  1.879385e+00
     vertex  3.476995e+00 -4.396926e-01  1.879385e+00
     vertex  3.174648e+00 -9.848078e-01  1.532089e+00
   endloop
 endfacet
 facet normal  5.044706e-01 -6.012047e-01  6.197276e-01
   outer loop
     vertex  4.827352e+00 -9.848078e-01  1.532089e+00
     vertex  4.867025e+00 -1.500000e+00  1.000000e+00
     vertex  5.327828e+00 -1.113341e+00  1.000000e+00
   endloop
 endfacet
 facet normal  3.761382e-01 -6.514904e-01  6.588477e-01
   outer loop
     vertex  4.827352e+00 -9.848078e-01  1.532089e+00
     vertex  4.440693e+00 -1.208046e+00  1.532089e+00
     vertex  4.867025e+00 -1.500000e+00  1.000000e+00
   endloop
 endfacet
 facet normal -8.898189e-02 -5.046414e-01  8.587312e-01
   outer loop
     vertex  3.882218e+00 -6.736482e-01  1.879385e+00
     vertex  3.561307e+00 -1.208046e+00  1.532089e+00
     vertex  4.001000e+00 -1.285575e+00  1.532089e+00
   endloop
 endfacet
 facet normal -6.027913e-02 -1.656155e-01  9.843464e-01
   outer loop
     vertex  3.882218e+00 -6.736482e-01  1.879385e+00
     vertex  4.001000e+00 -2.999520e-32  2.000000e+00
     vertex  3.658980e+00 -5.923963e-01  1.879385e+00
   endloop
 endfacet
 facet normal -1.688180e-01 -4.638237e-01  8.696942e-01
   outer loop
     vertex  3.882218e+00 -6.736482e-01  1.879385e+00
     vertex  3.658980e+00 -5.923963e-01  1.879385e+00
     vertex  3.561307e+00 -1.208046e+00  1.532089e+00
   endloop
 endfacet
 facet normal  5.762771e-01 -4.835539e-01  6.588477e-01
   outer loop
     vertex  5.114341e+00 -6.427876e-01  1.532089e+00
     vertex  4.827352e+00 -9.848078e-01  1.532089e+00
     vertex  5.327828e+00 -1.113341e+00  1.000000e+00
   endloop
 endfacet
 facet normal  5.140382e-01 -1.543112e-01  8.437729e-01
   outer loop
     vertex  5.114341e+00 -6.427876e-01  1.532089e+00
     vertex  5.221855e+00 -2.990233e-16  1.584144e+00
     vertex  4.848776e+00 -2.076451e-16  1.811429e+00
   endloop
 endfacet
 facet normal  7.734116e-01 -2.877842e-01  5.648139e-01
   outer loop
     vertex  5.114341e+00 -6.427876e-01  1.532089e+00
     vertex  5.327828e+00 -1.113341e+00  1.000000e+00
     vertex  5.536686e+00 -3.761345e-16  1.281277e+00
   endloop
 endfacet
 facet normal -4.613446e-16 -4.935909e-01  8.696942e-01
   outer loop
     vertex  4.119782e+00 -6.736482e-01  1.879385e+00
     vertex  3.882218e+00 -6.736482e-01  1.879385e+00
     vertex  4.001000e+00 -1.285575e+00  1.532089e+00
   endloop
 endfacet
 facet normal -1.647303e-16 -1.762444e-01  9.843464e-01
   outer loop
     vertex  4.119782e+00 -6.736482e-01  1.879385e+00
     vertex  4.001000e+00 -2.999520e-32  2.000000e+00
     vertex  3.882218e+00 -6.736482e-01  1.879385e+00
   endloop
 endfacet
 facet normal  8.898189e-02 -5.046414e-01  8.587312e-01
   outer loop
     vertex  4.119782e+00 -6.736482e-01  1.879385e+00
     vertex  4.001000e+00 -1.285575e+00  1.532089e+00
     vertex  4.440693e+00 -1.208046e+00  1.532089e+00
   endloop
 endfacet
 facet normal  6.930163e-01 -2.769761e-02  7.203896e-01
   outer loop
     vertex  5.267044e+00 -2.232378e-01  1.532089e+00
     vertex  5.536686e+00 -3.761345e-16  1.281277e+00
     vertex  5.221855e+00 -2.990233e-16  1.584144e+00
   endloop
 endfacet
 facet normal  7.677217e-01 -2.794279e-01  5.766484e-01
   outer loop
     vertex  5.267044e+00 -2.232378e-01  1.532089e+00
     vertex  5.114341e+00 -6.427876e-01  1.532089e+00
     vertex  5.536686e+00 -3.761345e-16  1.281277e+00
   endloop
 endfacet
 facet normal  3.770924e-01 -1.372504e-01  9.159496e-01
   outer loop
     vertex  5.267044e+00 -2.232378e-01  1.532089e+00
     vertex  5.221855e+00 -2.990233e-16  1.584144e+00
     vertex  5.114341e+00 -6.427876e-01  1.532089e+00
   endloop
 endfacet
 facet normal  2.562131e-01 -4.437742e-01  8.587312e-01
   outer loop
     vertex  4.343020e+00 -5.923963e-01  1.879385e+00
     vertex  4.440693e+00 -1.208046e+00  1.532089e+00
     vertex  4.827352e+00 -9.848078e-01  1.532089e+00
   endloop
 endfacet
 facet normal  6.027913e-02 -1.656155e-01  9.843464e-01
   outer loop
     vertex  4.343020e+00 -5.923963e-01  1.879385e+00
     vertex  4.001000e+00 -2.999520e-32  2.000000e+00
     vertex  4.119782e+00 -6.736482e-01  1.879385e+00
   endloop
 endfacet
 facet normal  1.688180e-01 -4.638237e-01  8.696942e-01
   outer loop
     vertex  4.343020e+00 -5.923963e-01  1.879385e+00
     vertex  4.119782e+00 -6.736482e-01  1.879385e+00
     vertex  4.440693e+00 -1.208046e+00  1.532089e+00
   endloop
 endfacet
 facet normal  1.081226e-01 -1.410920e-01  9.840745e-01
   outer loop
     vertex  4.525005e+00 -4.396926e-01  1.879385e+00
     vertex  4.435247e+00 -1.063599e-16  1.952288e+00
     vertex  4.001000e+00 -2.999520e-32  2.000000e+00
   endloop
 endfacet
 facet normal  3.925413e-01 -3.293813e-01  8.587312e-01
   outer loop
     vertex  4.525005e+00 -4.396926e-01  1.879385e+00
     vertex  4.827352e+00 -9.848078e-01  1.532089e+00
     vertex  5.114341e+00 -6.427876e-01  1.532089e+00
   endloop
 endfacet
 facet normal  3.172741e-01 -3.781126e-01  8.696942e-01
   outer loop
     vertex  4.525005e+00 -4.396926e-01  1.879385e+00
     vertex  4.343020e+00 -5.923963e-01  1.879385e+00
     vertex  4.827352e+00 -9.848078e-01  1.532089e+00
   endloop
 endfacet
 facet normal  1.132877e-01 -1.350110e-01  9.843464e-01
   outer loop
     vertex  4.525005e+00 -4.396926e-01  1.879385e+00
     vertex  4.001000e+00 -2.999520e-32  2.000000e+00
     vertex  4.343020e+00 -5.923963e-01  1.879385e+00
   endloop
 endfacet
 facet normal  3.224252e-01 -7.560043e-03  9.465648e-01
   outer loop
     vertex  4.643788e+00 -2.339556e-01  1.879385e+00
     vertex  4.848776e+00 -2.076451e-16  1.811429e+00
     vertex  4.435247e+00 -1.063599e-16  1.952288e+00
   endloop
 endfacet
 facet normal  4.827120e-01 -1.736096e-01  8.583990e-01
   outer loop
     vertex  4.643788e+00 -2.339556e-01  1.879385e+00
     vertex  5.114341e+00 -6.427876e-01  1.532089e+00
     vertex  4.848776e+00 -2.076451e-16  1.811429e+00
   endloop
 endfacet
 facet normal  2.060710e-01 -1.189752e-01  9.712773e-01
   outer loop
     vertex  4.643788e+00 -2.339556e-01  1.879385e+00
     vertex  4.435247e+00 -1.063599e-16  1.952288e+00
     vertex  4.525005e+00 -4.396926e-01  1.879385e+00
   endloop
 endfacet
 facet normal  4.274623e-01 -2.467955e-01  8.696942e-01
   outer loop
     vertex  4.643788e+00 -2.339556e-01  1.879385e+00
     vertex  4.525005e+00 -4.396926e-01  1.879385e+00
     vertex  5.114341e+00 -6.427876e-01  1.532089e+00
   endloop
 endfacet
endsolid
