ISO-10303-21;
HEADER;
FILE_DESCRIPTION(('Open CASCADE Model'),'2;1');
FILE_NAME('Open CASCADE Shape Model','2026-09-26T10:56:48',('Author'),(
    'Open CASCADE'),'Open CASCADE STEP processor 7.8','Open CASCADE 7.8'
  ,'Unknown');
FILE_SCHEMA(('AUTOMOTIVE_DESIGN { 1 0 10303 214 1 1 1 1 }'));
ENDSEC;
DATA;
#1 = APPLICATION_PROTOCOL_DEFINITION('international standard',
  'automotive_design',2000,#2);
#2 = APPLICATION_CONTEXT(
  'core data for automotive mechanical design processes');
#3 = SHAPE_DEFINITION_REPRESENTATION(#4,#10);
#4 = PRODUCT_DEFINITION_SHAPE('','',#5);
#5 = PRODUCT_DEFINITION('design','',#6,#9);
#6 = PRODUCT_DEFINITION_FORMATION('','',#7);
#7 = PRODUCT('Open CASCADE STEP translator 7.8 18',
  'Open CASCADE STEP translator 7.8 18','',(#8));
#8 = PRODUCT_CONTEXT('',#2,'mechanical');
#9 = PRODUCT_DEFINITION_CONTEXT('part definition',#2,'design');
#10 = ADVANCED_BREP_SHAPE_REPRESENTATION('',(#11,#15),#188);
#11 = AXIS2_PLACEMENT_3D('',#12,#13,#14);
#12 = CARTESIAN_POINT('',(0.,0.,0.));
#13 = DIRECTION('',(0.,0.,1.));
#14 = DIRECTION('',(1.,0.,-0.));
#15 = MANIFOLD_SOLID_BREP('',#16);
#16 = CLOSED_SHELL('',(#17,#157,#183));
#17 = ADVANCED_FACE('',(#18),#33,.T.);
#18 = FACE_BOUND('',#19,.T.);
#19 = EDGE_LOOP('',(#20,#51,#52,#93,#117,#118));
#20 = ORIENTED_EDGE('',*,*,#21,.T.);
#21 = EDGE_CURVE('',#22,#24,#26,.T.);
#22 = VERTEX_POINT('',#23);
#23 = CARTESIAN_POINT('',(5.999500249938,-9.794725711751E-16,
    7.743869187731E-02));
#24 = VERTEX_POINT('',#25);
#25 = CARTESIAN_POINT('',(3.673940397442E-16,-8.998558695971E-32,6.));
#26 = SEAM_CURVE('',#27,(#32,#44),.PCURVE_S1.);
#27 = CIRCLE('',#28,6.);
#28 = AXIS2_PLACEMENT_3D('',#29,#30,#31);
#29 = CARTESIAN_POINT('',(0.,0.,0.));
#30 = DIRECTION('',(-2.449293598295E-16,-1.,0.));
#31 = DIRECTION('',(1.,-2.449293598295E-16,0.));
#32 = PCURVE('',#33,#38);
#33 = SPHERICAL_SURFACE('',#34,6.);
#34 = AXIS2_PLACEMENT_3D('',#35,#36,#37);
#35 = CARTESIAN_POINT('',(0.,0.,0.));
#36 = DIRECTION('',(0.,0.,1.));
#37 = DIRECTION('',(1.,0.,-0.));
#38 = DEFINITIONAL_REPRESENTATION('',(#39),#43);
#39 = LINE('',#40,#41);
#40 = CARTESIAN_POINT('',(6.28318530718,-6.28318530718));
#41 = VECTOR('',#42,1.);
#42 = DIRECTION('',(0.,1.));
#43 = ( GEOMETRIC_REPRESENTATION_CONTEXT(2) 
PARAMETRIC_REPRESENTATION_CONTEXT() REPRESENTATION_CONTEXT('2D SPACE',''
  ) );
#44 = PCURVE('',#33,#45);
#45 = DEFINITIONAL_REPRESENTATION('',(#46),#50);
#46 = LINE('',#47,#48);
#47 = CARTESIAN_POINT('',(0.,-6.28318530718));
#48 = VECTOR('',#49,1.);
#49 = DIRECTION('',(0.,1.));
#50 = ( GEOMETRIC_REPRESENTATION_CONTEXT(2) 
PARAMETRIC_REPRESENTATION_CONTEXT() REPRESENTATION_CONTEXT('2D SPACE',''
  ) );
#51 = ORIENTED_EDGE('',*,*,#21,.F.);
#52 = ORIENTED_EDGE('',*,*,#53,.F.);
#53 = EDGE_CURVE('',#54,#22,#56,.T.);
#54 = VERTEX_POINT('',#55);
#55 = CARTESIAN_POINT('',(5.999500249938,-9.794725711751E-16,
    -7.743869187732E-02));
#56 = SURFACE_CURVE('',#57,(#62,#75),.PCURVE_S1.);
#57 = CIRCLE('',#58,7.743869187746E-02);
#58 = AXIS2_PLACEMENT_3D('',#59,#60,#61);
#59 = CARTESIAN_POINT('',(5.999500249938,0.,0.));
#60 = DIRECTION('',(1.,0.,0.));
#61 = DIRECTION('',(-0.,0.,1.));
#62 = PCURVE('',#33,#63);
#63 = DEFINITIONAL_REPRESENTATION('',(#64),#74);
#64 = B_SPLINE_CURVE_WITH_KNOTS('',8,(#65,#66,#67,#68,#69,#70,#71,#72,
    #73),.UNSPECIFIED.,.F.,.F.,(9,9),(3.14159265359,6.28318530718),
  .PIECEWISE_BEZIER_KNOTS.);
#65 = CARTESIAN_POINT('',(0.,-1.290680699143E-02));
#66 = CARTESIAN_POINT('',(5.068772717952E-03,-1.290680699143E-02));
#67 = CARTESIAN_POINT('',(1.013756772007E-02,-1.063158427189E-02));
#68 = CARTESIAN_POINT('',(1.401460536439E-02,-6.084419871393E-03));
#69 = CARTESIAN_POINT('',(1.551003398987E-02,-1.331015560062E-14));
#70 = CARTESIAN_POINT('',(1.401460536439E-02,6.084419871414E-03));
#71 = CARTESIAN_POINT('',(1.013756772008E-02,1.063158427188E-02));
#72 = CARTESIAN_POINT('',(5.068772717952E-03,1.290680699143E-02));
#73 = CARTESIAN_POINT('',(3.16143152553E-18,1.290680699143E-02));
#74 = ( GEOMETRIC_REPRESENTATION_CONTEXT(2) 
PARAMETRIC_REPRESENTATION_CONTEXT() REPRESENTATION_CONTEXT('2D SPACE',''
  ) );
#75 = PCURVE('',#76,#81);
#76 = SPHERICAL_SURFACE('',#77,2.);
#77 = AXIS2_PLACEMENT_3D('',#78,#79,#80);
#78 = CARTESIAN_POINT('',(4.001,0.,0.));
#79 = DIRECTION('',(0.,0.,1.));
#80 = DIRECTION('',(1.,0.,-0.));
#81 = DEFINITIONAL_REPRESENTATION('',(#82),#92);
#82 = B_SPLINE_CURVE_WITH_KNOTS('',8,(#83,#84,#85,#86,#87,#88,#89,#90,
    #91),.UNSPECIFIED.,.F.,.F.,(9,9),(3.14159265359,6.28318530718),
  .PIECEWISE_BEZIER_KNOTS.);
#83 = CARTESIAN_POINT('',(-8.881784197001E-16,-3.872902706623E-02));
#84 = CARTESIAN_POINT('',(1.521646203906E-02,-3.872902706623E-02));
#85 = CARTESIAN_POINT('',(3.043255952867E-02,-3.189944637087E-02));
#86 = CARTESIAN_POINT('',(4.206590835303E-02,-1.824466737207E-02));
#87 = CARTESIAN_POINT('',(4.650811037528E-02,4.459981455527E-15));
#88 = CARTESIAN_POINT('',(4.206590835305E-02,1.824466737207E-02));
#89 = CARTESIAN_POINT('',(3.043255952867E-02,3.189944637087E-02));
#90 = CARTESIAN_POINT('',(1.521646203906E-02,3.872902706623E-02));
#91 = CARTESIAN_POINT('',(9.490621393803E-18,3.872902706623E-02));
#92 = ( GEOMETRIC_REPRESENTATION_CONTEXT(2) 
PARAMETRIC_REPRESENTATION_CONTEXT() REPRESENTATION_CONTEXT('2D SPACE',''
  ) );
#93 = ORIENTED_EDGE('',*,*,#94,.F.);
#94 = EDGE_CURVE('',#95,#54,#97,.T.);
#95 = VERTEX_POINT('',#96);
#96 = CARTESIAN_POINT('',(3.673940397442E-16,-8.998558695971E-32,-6.));
#97 = SEAM_CURVE('',#98,(#103,#110),.PCURVE_S1.);
#98 = CIRCLE('',#99,6.);
#99 = AXIS2_PLACEMENT_3D('',#100,#101,#102);
#100 = CARTESIAN_POINT('',(0.,0.,0.));
#101 = DIRECTION('',(-2.449293598295E-16,-1.,0.));
#102 = DIRECTION('',(1.,-2.449293598295E-16,0.));
#103 = PCURVE('',#33,#104);
#104 = DEFINITIONAL_REPRESENTATION('',(#105),#109);
#105 = LINE('',#106,#107);
#106 = CARTESIAN_POINT('',(6.28318530718,-6.28318530718));
#107 = VECTOR('',#108,1.);
#108 = DIRECTION('',(0.,1.));
#109 = ( GEOMETRIC_REPRESENTATION_CONTEXT(2) 
PARAMETRIC_REPRESENTATION_CONTEXT() REPRESENTATION_CONTEXT('2D SPACE',''
  ) );
#110 = PCURVE('',#33,#111);
#111 = DEFINITIONAL_REPRESENTATION('',(#112),#116);
#112 = LINE('',#113,#114);
#113 = CARTESIAN_POINT('',(0.,-6.28318530718));
#114 = VECTOR('',#115,1.);
#115 = DIRECTION('',(0.,1.));
#116 = ( GEOMETRIC_REPRESENTATION_CONTEXT(2) 
PARAMETRIC_REPRESENTATION_CONTEXT() REPRESENTATION_CONTEXT('2D SPACE',''
  ) );
#117 = ORIENTED_EDGE('',*,*,#94,.T.);
#118 = ORIENTED_EDGE('',*,*,#119,.F.);
#119 = EDGE_CURVE('',#22,#54,#120,.T.);
#120 = SURFACE_CURVE('',#121,(#126,#139),.PCURVE_S1.);
#121 = CIRCLE('',#122,7.743869187746E-02);
#122 = AXIS2_PLACEMENT_3D('',#123,#124,#125);
#123 = CARTESIAN_POINT('',(5.999500249938,0.,0.));
#124 = DIRECTION('',(1.,0.,0.));
#125 = DIRECTION('',(-0.,0.,1.));
#126 = PCURVE('',#33,#127);
#127 = DEFINITIONAL_REPRESENTATION('',(#128),#138);
#128 = B_SPLINE_CURVE_WITH_KNOTS('',8,(#129,#130,#131,#132,#133,#134,
    #135,#136,#137),.UNSPECIFIED.,.F.,.F.,(9,9),(0.,3.14159265359),
  .PIECEWISE_BEZIER_KNOTS.);
#129 = CARTESIAN_POINT('',(6.28318530718,1.290680699143E-02));
#130 = CARTESIAN_POINT('',(6.278116534462,1.290680699143E-02));
#131 = CARTESIAN_POINT('',(6.27304773946,1.063158427188E-02));
#132 = CARTESIAN_POINT('',(6.269170701815,6.084419871405E-03));
#133 = CARTESIAN_POINT('',(6.26767527319,-3.482309652556E-15));
#134 = CARTESIAN_POINT('',(6.269170701815,-6.084419871402E-03));
#135 = CARTESIAN_POINT('',(6.273047739459,-1.063158427188E-02));
#136 = CARTESIAN_POINT('',(6.278116534462,-1.290680699143E-02));
#137 = CARTESIAN_POINT('',(6.28318530718,-1.290680699143E-02));
#138 = ( GEOMETRIC_REPRESENTATION_CONTEXT(2) 
PARAMETRIC_REPRESENTATION_CONTEXT() REPRESENTATION_CONTEXT('2D SPACE',''
  ) );
#139 = PCURVE('',#140,#145);
#140 = SPHERICAL_SURFACE('',#141,2.);
#141 = AXIS2_PLACEMENT_3D('',#142,#143,#144);
#142 = CARTESIAN_POINT('',(4.001,0.,0.));
#143 = DIRECTION('',(0.,0.,1.));
#144 = DIRECTION('',(1.,0.,-0.));
#145 = DEFINITIONAL_REPRESENTATION('',(#146),#156);
#146 = B_SPLINE_CURVE_WITH_KNOTS('',8,(#147,#148,#149,#150,#151,#152,
    #153,#154,#155),.UNSPECIFIED.,.F.,.F.,(9,9),(0.,3.14159265359),
  .PIECEWISE_BEZIER_KNOTS.);
#147 = CARTESIAN_POINT('',(6.28318530718,3.872902706623E-02));
#148 = CARTESIAN_POINT('',(6.267968845141,3.872902706623E-02));
#149 = CARTESIAN_POINT('',(6.252752747651,3.189944637087E-02));
#150 = CARTESIAN_POINT('',(6.241119398827,1.824466737206E-02));
#151 = CARTESIAN_POINT('',(6.236677196804,1.984431028136E-14));
#152 = CARTESIAN_POINT('',(6.241119398827,-1.824466737207E-02));
#153 = CARTESIAN_POINT('',(6.252752747651,-3.189944637087E-02));
#154 = CARTESIAN_POINT('',(6.267968845141,-3.872902706623E-02));
#155 = CARTESIAN_POINT('',(6.28318530718,-3.872902706623E-02));
#156 = ( GEOMETRIC_REPRESENTATION_CONTEXT(2) 
PARAMETRIC_REPRESENTATION_CONTEXT() REPRESENTATION_CONTEXT('2D SPACE',''
  ) );
#157 = ADVANCED_FACE('',(#158),#140,.T.);
#158 = FACE_BOUND('',#159,.T.);
#159 = EDGE_LOOP('',(#160,#182));
#160 = ORIENTED_EDGE('',*,*,#161,.T.);
#161 = EDGE_CURVE('',#54,#22,#162,.T.);
#162 = SURFACE_CURVE('',#163,(#168,#175),.PCURVE_S1.);
#163 = CIRCLE('',#164,2.);
#164 = AXIS2_PLACEMENT_3D('',#165,#166,#167);
#165 = CARTESIAN_POINT('',(4.001,0.,0.));
#166 = DIRECTION('',(-2.449293598295E-16,-1.,0.));
#167 = DIRECTION('',(1.,-2.449293598295E-16,0.));
#168 = PCURVE('',#140,#169);
#169 = DEFINITIONAL_REPRESENTATION('',(#170),#174);
#170 = LINE('',#171,#172);
#171 = CARTESIAN_POINT('',(6.28318530718,-6.28318530718));
#172 = VECTOR('',#173,1.);
#173 = DIRECTION('',(0.,1.));
#174 = ( GEOMETRIC_REPRESENTATION_CONTEXT(2) 
PARAMETRIC_REPRESENTATION_CONTEXT() REPRESENTATION_CONTEXT('2D SPACE',''
  ) );
#175 = PCURVE('',#76,#176);
#176 = DEFINITIONAL_REPRESENTATION('',(#177),#181);
#177 = LINE('',#178,#179);
#178 = CARTESIAN_POINT('',(0.,-6.28318530718));
#179 = VECTOR('',#180,1.);
#180 = DIRECTION('',(0.,1.));
#181 = ( GEOMETRIC_REPRESENTATION_CONTEXT(2) 
PARAMETRIC_REPRESENTATION_CONTEXT() REPRESENTATION_CONTEXT('2D SPACE',''
  ) );
#182 = ORIENTED_EDGE('',*,*,#119,.T.);
#183 = ADVANCED_FACE('',(#184),#76,.T.);
#184 = FACE_BOUND('',#185,.T.);
#185 = EDGE_LOOP('',(#186,#187));
#186 = ORIENTED_EDGE('',*,*,#53,.T.);
#187 = ORIENTED_EDGE('',*,*,#161,.F.);
#188 = ( GEOMETRIC_REPRESENTATION_CONTEXT(3) 
GLOBAL_UNCERTAINTY_ASSIGNED_CONTEXT((#192)) GLOBAL_UNIT_ASSIGNED_CONTEXT
((#189,#190,#191)) REPRESENTATION_CONTEXT('Context #1',
  '3D Context with UNIT and UNCERTAINTY') );
#189 = ( LENGTH_UNIT() NAMED_UNIT(*) SI_UNIT(.MILLI.,.METRE.) );
#190 = ( NAMED_UNIT(*) PLANE_ANGLE_UNIT() SI_UNIT($,.RADIAN.) );
#191 = ( NAMED_UNIT(*) SI_UNIT($,.STERADIAN.) SOLID_ANGLE_UNIT() );
#192 = UNCERTAINTY_MEASURE_WITH_UNIT(LENGTH_MEASURE(1.E-07),#189,
  'distance_accuracy_value','confusion accuracy');
#193 = PRODUCT_RELATED_PRODUCT_CATEGORY('part',$,(#7));
ENDSEC;
END-ISO-10303-21;
