ISO-10303-21;
HEADER;
FILE_DESCRIPTION(('Open CASCADE Model'),'2;1');
FILE_NAME('Open CASCADE Shape Model','2026-09-26T10:56:48',('Author'),(
    'Open CASCADE'),'Open CASCADE STEP processor 7.8','Open CASCADE 7.8'
  ,'Unknown');
FILE_SCHEMA(('AUTOMOTIVE_DESIGN { 1 0 10303 214 1 1 1 1 }'));
ENDSEC;
DATA;
#1 = APPLICATION_PROTOCOL_DEFINITION('international standard',
  'automotive_design',2000,#2);
#2 = APPLICATION_CONTEXT(
  'core data for automotive mechanical design processes');
#3 = SHAPE_DEFINITION_REPRESENTATION(#4,#10);
#4 = PRODUCT_DEFINITION_SHAPE('','',#5);
#5 = PRODUCT_DEFINITION('design','',#6,#9);
#6 = PRODUCT_DEFINITION_FORMATION('','',#7);
#7 = PRODUCT('Open CASCADE STEP translator 7.8 20',
  'Open CASCADE STEP translator 7.8 20','',(#8));
#8 = PRODUCT_CONTEXT('',#2,'mechanical');
#9 = PRODUCT_DEFINITION_CONTEXT('part definition',#2,'design');
#10 = ADVANCED_BREP_SHAPE_REPRESENTATION('',(#11,#15),#188);
#11 = AXIS2_PLACEMENT_3D('',#12,#13,#14);
#12 = CARTESIAN_POINT('',(0.,0.,0.));
#13 = DIRECTION('',(0.,0.,1.));
#14 = DIRECTION('',(1.,0.,-0.));
#15 = MANIFOLD_SOLID_BREP('',#16);
#16 = CLOSED_SHELL('',(#17,#95,#133));
#17 = ADVANCED_FACE('',(#18),#33,.T.);
#18 = FACE_BOUND('',#19,.T.);
#19 = EDGE_LOOP('',(#20,#56));
#20 = ORIENTED_EDGE('',*,*,#21,.T.);
#21 = EDGE_CURVE('',#22,#24,#26,.T.);
#22 = VERTEX_POINT('',#23);
#23 = CARTESIAN_POINT('',(5.999500249938,-9.794725711751E-16,
    -7.743869187732E-02));
#24 = VERTEX_POINT('',#25);
#25 = CARTESIAN_POINT('',(5.999500249938,-9.794725711751E-16,
    7.743869187731E-02));
#26 = SURFACE_CURVE('',#27,(#32,#44),.PCURVE_S1.);
#27 = CIRCLE('',#28,6.);
#28 = AXIS2_PLACEMENT_3D('',#29,#30,#31);
#29 = CARTESIAN_POINT('',(0.,0.,0.));
#30 = DIRECTION('',(-2.449293598295E-16,-1.,0.));
#31 = DIRECTION('',(1.,-2.449293598295E-16,0.));
#32 = PCURVE('',#33,#38);
#33 = SPHERICAL_SURFACE('',#34,6.);
#34 = AXIS2_PLACEMENT_3D('',#35,#36,#37);
#35 = CARTESIAN_POINT('',(0.,0.,0.));
#36 = DIRECTION('',(0.,0.,1.));
#37 = DIRECTION('',(1.,0.,-0.));
#38 = DEFINITIONAL_REPRESENTATION('',(#39),#43);
#39 = LINE('',#40,#41);
#40 = CARTESIAN_POINT('',(6.28318530718,-6.28318530718));
#41 = VECTOR('',#42,1.);
#42 = DIRECTION('',(0.,1.));
#43 = ( GEOMETRIC_REPRESENTATION_CONTEXT(2) 
PARAMETRIC_REPRESENTATION_CONTEXT() REPRESENTATION_CONTEXT('2D SPACE',''
  ) );
#44 = PCURVE('',#45,#50);
#45 = SPHERICAL_SURFACE('',#46,6.);
#46 = AXIS2_PLACEMENT_3D('',#47,#48,#49);
#47 = CARTESIAN_POINT('',(0.,0.,0.));
#48 = DIRECTION('',(0.,0.,1.));
#49 = DIRECTION('',(1.,0.,-0.));
#50 = DEFINITIONAL_REPRESENTATION('',(#51),#55);
#51 = LINE('',#52,#53);
#52 = CARTESIAN_POINT('',(0.,-6.28318530718));
#53 = VECTOR('',#54,1.);
#54 = DIRECTION('',(0.,1.));
#55 = ( GEOMETRIC_REPRESENTATION_CONTEXT(2) 
PARAMETRIC_REPRESENTATION_CONTEXT() REPRESENTATION_CONTEXT('2D SPACE',''
  ) );
#56 = ORIENTED_EDGE('',*,*,#57,.T.);
#57 = EDGE_CURVE('',#24,#22,#58,.T.);
#58 = SURFACE_CURVE('',#59,(#64,#77),.PCURVE_S1.);
#59 = CIRCLE('',#60,7.743869187746E-02);
#60 = AXIS2_PLACEMENT_3D('',#61,#62,#63);
#61 = CARTESIAN_POINT('',(5.999500249938,0.,0.));
#62 = DIRECTION('',(1.,0.,0.));
#63 = DIRECTION('',(-0.,0.,1.));
#64 = PCURVE('',#33,#65);
#65 = DEFINITIONAL_REPRESENTATION('',(#66),#76);
#66 = B_SPLINE_CURVE_WITH_KNOTS('',8,(#67,#68,#69,#70,#71,#72,#73,#74,
    #75),.UNSPECIFIED.,.F.,.F.,(9,9),(0.,3.14159265359),
  .PIECEWISE_BEZIER_KNOTS.);
#67 = CARTESIAN_POINT('',(6.28318530718,1.290680699143E-02));
#68 = CARTESIAN_POINT('',(6.278116534462,1.290680699143E-02));
#69 = CARTESIAN_POINT('',(6.27304773946,1.063158427188E-02));
#70 = CARTESIAN_POINT('',(6.269170701815,6.084419871405E-03));
#71 = CARTESIAN_POINT('',(6.26767527319,-3.482309652556E-15));
#72 = CARTESIAN_POINT('',(6.269170701815,-6.084419871402E-03));
#73 = CARTESIAN_POINT('',(6.273047739459,-1.063158427188E-02));
#74 = CARTESIAN_POINT('',(6.278116534462,-1.290680699143E-02));
#75 = CARTESIAN_POINT('',(6.28318530718,-1.290680699143E-02));
#76 = ( GEOMETRIC_REPRESENTATION_CONTEXT(2) 
PARAMETRIC_REPRESENTATION_CONTEXT() REPRESENTATION_CONTEXT('2D SPACE',''
  ) );
#77 = PCURVE('',#78,#83);
#78 = SPHERICAL_SURFACE('',#79,2.);
#79 = AXIS2_PLACEMENT_3D('',#80,#81,#82);
#80 = CARTESIAN_POINT('',(4.001,0.,0.));
#81 = DIRECTION('',(0.,0.,1.));
#82 = DIRECTION('',(1.,0.,-0.));
#83 = DEFINITIONAL_REPRESENTATION('',(#84),#94);
#84 = B_SPLINE_CURVE_WITH_KNOTS('',8,(#85,#86,#87,#88,#89,#90,#91,#92,
    #93),.UNSPECIFIED.,.F.,.F.,(9,9),(0.,3.14159265359),
  .PIECEWISE_BEZIER_KNOTS.);
#85 = CARTESIAN_POINT('',(6.28318530718,3.872902706623E-02));
#86 = CARTESIAN_POINT('',(6.267968845141,3.872902706623E-02));
#87 = CARTESIAN_POINT('',(6.252752747651,3.189944637087E-02));
#88 = CARTESIAN_POINT('',(6.241119398827,1.824466737206E-02));
#89 = CARTESIAN_POINT('',(6.236677196804,1.984431028136E-14));
#90 = CARTESIAN_POINT('',(6.241119398827,-1.824466737207E-02));
#91 = CARTESIAN_POINT('',(6.252752747651,-3.189944637087E-02));
#92 = CARTESIAN_POINT('',(6.267968845141,-3.872902706623E-02));
#93 = CARTESIAN_POINT('',(6.28318530718,-3.872902706623E-02));
#94 = ( GEOMETRIC_REPRESENTATION_CONTEXT(2) 
PARAMETRIC_REPRESENTATION_CONTEXT() REPRESENTATION_CONTEXT('2D SPACE',''
  ) );
#95 = ADVANCED_FACE('',(#96),#45,.T.);
#96 = FACE_BOUND('',#97,.T.);
#97 = EDGE_LOOP('',(#98,#132));
#98 = ORIENTED_EDGE('',*,*,#99,.T.);
#99 = EDGE_CURVE('',#22,#24,#100,.T.);
#100 = SURFACE_CURVE('',#101,(#106,#119),.PCURVE_S1.);
#101 = CIRCLE('',#102,7.743869187746E-02);
#102 = AXIS2_PLACEMENT_3D('',#103,#104,#105);
#103 = CARTESIAN_POINT('',(5.999500249938,0.,0.));
#104 = DIRECTION('',(1.,0.,0.));
#105 = DIRECTION('',(-0.,0.,1.));
#106 = PCURVE('',#45,#107);
#107 = DEFINITIONAL_REPRESENTATION('',(#108),#118);
#108 = B_SPLINE_CURVE_WITH_KNOTS('',8,(#109,#110,#111,#112,#113,#114,
    #115,#116,#117),.UNSPECIFIED.,.F.,.F.,(9,9),(3.14159265359,
    6.28318530718),.PIECEWISE_BEZIER_KNOTS.);
#109 = CARTESIAN_POINT('',(0.,-1.290680699143E-02));
#110 = CARTESIAN_POINT('',(5.068772717952E-03,-1.290680699143E-02));
#111 = CARTESIAN_POINT('',(1.013756772007E-02,-1.063158427189E-02));
#112 = CARTESIAN_POINT('',(1.401460536439E-02,-6.084419871393E-03));
#113 = CARTESIAN_POINT('',(1.551003398987E-02,-1.331015560062E-14));
#114 = CARTESIAN_POINT('',(1.401460536439E-02,6.084419871414E-03));
#115 = CARTESIAN_POINT('',(1.013756772008E-02,1.063158427188E-02));
#116 = CARTESIAN_POINT('',(5.068772717952E-03,1.290680699143E-02));
#117 = CARTESIAN_POINT('',(3.16143152553E-18,1.290680699143E-02));
#118 = ( GEOMETRIC_REPRESENTATION_CONTEXT(2) 
PARAMETRIC_REPRESENTATION_CONTEXT() REPRESENTATION_CONTEXT('2D SPACE',''
  ) );
#119 = PCURVE('',#78,#120);
#120 = DEFINITIONAL_REPRESENTATION('',(#121),#131);
#121 = B_SPLINE_CURVE_WITH_KNOTS('',8,(#122,#123,#124,#125,#126,#127,
    #128,#129,#130),.UNSPECIFIED.,.F.,.F.,(9,9),(3.14159265359,
    6.28318530718),.PIECEWISE_BEZIER_KNOTS.);
#122 = CARTESIAN_POINT('',(-8.881784197001E-16,-3.872902706623E-02));
#123 = CARTESIAN_POINT('',(1.521646203906E-02,-3.872902706623E-02));
#124 = CARTESIAN_POINT('',(3.043255952867E-02,-3.189944637087E-02));
#125 = CARTESIAN_POINT('',(4.206590835303E-02,-1.824466737207E-02));
#126 = CARTESIAN_POINT('',(4.650811037528E-02,4.459981455527E-15));
#127 = CARTESIAN_POINT('',(4.206590835305E-02,1.824466737207E-02));
#128 = CARTESIAN_POINT('',(3.043255952867E-02,3.189944637087E-02));
#129 = CARTESIAN_POINT('',(1.521646203906E-02,3.872902706623E-02));
#130 = CARTESIAN_POINT('',(9.490621393803E-18,3.872902706623E-02));
#131 = ( GEOMETRIC_REPRESENTATION_CONTEXT(2) 
PARAMETRIC_REPRESENTATION_CONTEXT() REPRESENTATION_CONTEXT('2D SPACE',''
  ) );
#132 = ORIENTED_EDGE('',*,*,#21,.F.);
#133 = ADVANCED_FACE('',(#134),#78,.T.);
#134 = FACE_BOUND('',#135,.T.);
#135 = EDGE_LOOP('',(#136,#160,#161,#162,#186,#187));
#136 = ORIENTED_EDGE('',*,*,#137,.T.);
#137 = EDGE_CURVE('',#24,#138,#140,.T.);
#138 = VERTEX_POINT('',#139);
#139 = CARTESIAN_POINT('',(4.001,-2.999519565324E-32,2.));
#140 = SEAM_CURVE('',#141,(#146,#153),.PCURVE_S1.);
#141 = CIRCLE('',#142,2.);
#142 = AXIS2_PLACEMENT_3D('',#143,#144,#145);
#143 = CARTESIAN_POINT('',(4.001,0.,0.));
#144 = DIRECTION('',(-2.449293598295E-16,-1.,0.));
#145 = DIRECTION('',(1.,-2.449293598295E-16,0.));
#146 = PCURVE('',#78,#147);
#147 = DEFINITIONAL_REPRESENTATION('',(#148),#152);
#148 = LINE('',#149,#150);
#149 = CARTESIAN_POINT('',(6.28318530718,-6.28318530718));
#150 = VECTOR('',#151,1.);
#151 = DIRECTION('',(0.,1.));
#152 = ( GEOMETRIC_REPRESENTATION_CONTEXT(2) 
PARAMETRIC_REPRESENTATION_CONTEXT() REPRESENTATION_CONTEXT('2D SPACE',''
  ) );
#153 = PCURVE('',#78,#154);
#154 = DEFINITIONAL_REPRESENTATION('',(#155),#159);
#155 = LINE('',#156,#157);
#156 = CARTESIAN_POINT('',(0.,-6.28318530718));
#157 = VECTOR('',#158,1.);
#158 = DIRECTION('',(0.,1.));
#159 = ( GEOMETRIC_REPRESENTATION_CONTEXT(2) 
PARAMETRIC_REPRESENTATION_CONTEXT() REPRESENTATION_CONTEXT('2D SPACE',''
  ) );
#160 = ORIENTED_EDGE('',*,*,#137,.F.);
#161 = ORIENTED_EDGE('',*,*,#99,.F.);
#162 = ORIENTED_EDGE('',*,*,#163,.F.);
#163 = EDGE_CURVE('',#164,#22,#166,.T.);
#164 = VERTEX_POINT('',#165);
#165 = CARTESIAN_POINT('',(4.001,-2.999519565324E-32,-2.));
#166 = SEAM_CURVE('',#167,(#172,#179),.PCURVE_S1.);
#167 = CIRCLE('',#168,2.);
#168 = AXIS2_PLACEMENT_3D('',#169,#170,#171);
#169 = CARTESIAN_POINT('',(4.001,0.,0.));
#170 = DIRECTION('',(-2.449293598295E-16,-1.,0.));
#171 = DIRECTION('',(1.,-2.449293598295E-16,0.));
#172 = PCURVE('',#78,#173);
#173 = DEFINITIONAL_REPRESENTATION('',(#174),#178);
#174 = LINE('',#175,#176);
#175 = CARTESIAN_POINT('',(6.28318530718,-6.28318530718));
#176 = VECTOR('',#177,1.);
#177 = DIRECTION('',(0.,1.));
#178 = ( GEOMETRIC_REPRESENTATION_CONTEXT(2) 
PARAMETRIC_REPRESENTATION_CONTEXT() REPRESENTATION_CONTEXT('2D SPACE',''
  ) );
#179 = PCURVE('',#78,#180);
#180 = DEFINITIONAL_REPRESENTATION('',(#181),#185);
#181 = LINE('',#182,#183);
#182 = CARTESIAN_POINT('',(0.,-6.28318530718));
#183 = VECTOR('',#184,1.);
#184 = DIRECTION('',(0.,1.));
#185 = ( GEOMETRIC_REPRESENTATION_CONTEXT(2) 
PARAMETRIC_REPRESENTATION_CONTEXT() REPRESENTATION_CONTEXT('2D SPACE',''
  ) );
#186 = ORIENTED_EDGE('',*,*,#163,.T.);
#187 = ORIENTED_EDGE('',*,*,#57,.F.);
#188 = ( GEOMETRIC_REPRESENTATION_CONTEXT(3) 
GLOBAL_UNCERTAINTY_ASSIGNED_CONTEXT((#192)) GLOBAL_UNIT_ASSIGNED_CONTEXT
((#189,#190,#191)) REPRESENTATION_CONTEXT('Context #1',
  '3D Context with UNIT and UNCERTAINTY') );
#189 = ( LENGTH_UNIT() NAMED_UNIT(*) SI_UNIT(.MILLI.,.METRE.) );
#190 = ( NAMED_UNIT(*) PLANE_ANGLE_UNIT() SI_UNIT($,.RADIAN.) );
#191 = ( NAMED_UNIT(*) SI_UNIT($,.STERADIAN.) SOLID_ANGLE_UNIT() );
#192 = UNCERTAINTY_MEASURE_WITH_UNIT(LENGTH_MEASURE(1.E-07),#189,
  'distance_accuracy_value','confusion accuracy');
#193 = PRODUCT_RELATED_PRODUCT_CATEGORY('part',$,(#7));
ENDSEC;
END-ISO-10303-21;
