ISO-10303-21;
HEADER;
/* Generated by software containing ST-Developer
 * from STEP Tools, Inc. (www.steptools.com) 
 */
/* OPTION: using custom renumber hook */

FILE_DESCRIPTION(
/* description */ ('STEP AP214',
'CAx-IF Rec.Pracs.---User Defined Attributes---1.5---2016-08-15'),
/* implementation_level */ '2;1');

FILE_NAME(
/* name */ '6ac0305ab4d7d497553efc82',
/* time_stamp */ '2026-10-02T22:29:47Z',
/* author */ (''),
/* organization */ (''),
/* preprocessor_version */ 'ST-DEVELOPER v20',
/* originating_system */ 'ONSHAPE BY PTC INC, 1.221',
/* authorisation */ '  ');

FILE_SCHEMA (('AUTOMOTIVE_DESIGN {1 0 10303 214 3 1 1}'));
ENDSEC;

DATA;
#10=PROPERTY_DEFINITION_REPRESENTATION(#14,#12);
#11=PROPERTY_DEFINITION_REPRESENTATION(#15,#13);
#12=REPRESENTATION('',(#16),#394);
#13=REPRESENTATION('',(#17),#394);
#14=PROPERTY_DEFINITION('pmi validation property','',#404);
#15=PROPERTY_DEFINITION('pmi validation property','',#404);
#16=VALUE_REPRESENTATION_ITEM('number of annotations',COUNT_MEASURE(0.));
#17=VALUE_REPRESENTATION_ITEM('number of views',COUNT_MEASURE(0.));
#18=LINE('',#366,#30);
#19=LINE('',#369,#31);
#20=LINE('',#371,#32);
#21=LINE('',#373,#33);
#22=LINE('',#375,#34);
#23=LINE('',#377,#35);
#24=LINE('',#379,#36);
#25=LINE('',#381,#37);
#26=LINE('',#383,#38);
#27=LINE('',#385,#39);
#28=LINE('',#387,#40);
#29=LINE('',#388,#41);
#30=VECTOR('',#233,1.);
#31=VECTOR('',#234,1.);
#32=VECTOR('',#235,1.);
#33=VECTOR('',#236,1.);
#34=VECTOR('',#239,1.);
#35=VECTOR('',#240,1.);
#36=VECTOR('',#241,1.);
#37=VECTOR('',#244,1.);
#38=VECTOR('',#245,1.);
#39=VECTOR('',#246,1.);
#40=VECTOR('',#249,1.);
#41=VECTOR('',#250,1.);
#42=SHAPE_REPRESENTATION_RELATIONSHIP('','',#193,#44);
#43=SHAPE_REPRESENTATION_RELATIONSHIP('','',#194,#45);
#44=ADVANCED_BREP_SHAPE_REPRESENTATION('',(#189),#393);
#45=ADVANCED_BREP_SHAPE_REPRESENTATION('',(#190),#394);
#46=(
BOUNDED_SURFACE()
B_SPLINE_SURFACE(3,2,((#307,#308,#309),(#310,#311,#312),(#313,#314,#315),
(#316,#317,#318),(#319,#320,#321),(#322,#323,#324),(#325,#326,#327),(#328,
#329,#330),(#331,#332,#333),(#334,#335,#336),(#337,#338,#339),(#340,#341,
#342),(#343,#344,#345),(#346,#347,#348),(#349,#350,#351),(#352,#353,#354),
(#355,#356,#357),(#358,#359,#360),(#361,#362,#363)),.UNSPECIFIED.,.T.,.F.,
 .F.)
B_SPLINE_SURFACE_WITH_KNOTS((1,3,1,1,1,1,1,1,1,1,1,1,1,1,1,1,1,3,1),(3,
3),(-0.00198850109468933,0.,0.00198850109468933,0.00397700218937866,0.00596550328406799,
0.00795400437875732,0.00994250547344665,0.011931006568136,0.0139195076628253,
0.0159080087575146,0.017896509852204,0.0198850109468933,0.0218735120415826,
0.023862013136272,0.0258505142309613,0.0278390153256506,0.02982751642034,
0.0318160175150293,0.0338045186097186),(0.,1.),.UNSPECIFIED.)
GEOMETRIC_REPRESENTATION_ITEM()
RATIONAL_B_SPLINE_SURFACE(((1.,0.736971000591789,1.),(1.,0.719263896809083,
1.),(1.,0.695703359699531,1.),(1.,0.728848799125627,1.),(1.,0.799367453375557,
1.),(1.,0.862955329258711,1.),(1.,0.890852026542535,1.),(1.,0.865079670574101,
1.),(1.,0.802116214352283,1.),(1.,0.731319301592991,1.),(1.,0.69563726606155,
1.),(1.,0.7288417841335,1.),(1.,0.799485641903697,1.),(1.,0.863188511117545,
1.),(1.,0.89079865029301,1.),(1.,0.865060218475146,1.),(1.,0.801945982395764,
1.),(1.,0.754678104374494,1.),(1.,0.736971000591789,1.)))
REPRESENTATION_ITEM('')
SURFACE()
);
#47=PLANE('',#199);
#48=PLANE('',#200);
#49=PLANE('',#203);
#50=PLANE('',#205);
#51=PLANE('',#206);
#52=PLANE('',#207);
#53=PLANE('',#208);
#54=PLANE('',#209);
#55=PLANE('',#210);
#56=CIRCLE('',#197,0.008);
#57=CIRCLE('',#198,0.008);
#58=CIRCLE('',#202,0.004);
#59=ORIENTED_EDGE('',*,*,#93,.T.);
#60=ORIENTED_EDGE('',*,*,#94,.F.);
#61=ORIENTED_EDGE('',*,*,#95,.T.);
#62=ORIENTED_EDGE('',*,*,#94,.T.);
#63=ORIENTED_EDGE('',*,*,#95,.F.);
#64=ORIENTED_EDGE('',*,*,#96,.T.);
#65=ORIENTED_EDGE('',*,*,#97,.F.);
#66=ORIENTED_EDGE('',*,*,#97,.T.);
#67=ORIENTED_EDGE('',*,*,#93,.F.);
#68=ORIENTED_EDGE('',*,*,#96,.F.);
#69=ORIENTED_EDGE('',*,*,#98,.F.);
#70=ORIENTED_EDGE('',*,*,#99,.F.);
#71=ORIENTED_EDGE('',*,*,#100,.T.);
#72=ORIENTED_EDGE('',*,*,#101,.T.);
#73=ORIENTED_EDGE('',*,*,#102,.T.);
#74=ORIENTED_EDGE('',*,*,#103,.F.);
#75=ORIENTED_EDGE('',*,*,#104,.F.);
#76=ORIENTED_EDGE('',*,*,#99,.T.);
#77=ORIENTED_EDGE('',*,*,#105,.T.);
#78=ORIENTED_EDGE('',*,*,#106,.F.);
#79=ORIENTED_EDGE('',*,*,#107,.F.);
#80=ORIENTED_EDGE('',*,*,#103,.T.);
#81=ORIENTED_EDGE('',*,*,#108,.F.);
#82=ORIENTED_EDGE('',*,*,#101,.F.);
#83=ORIENTED_EDGE('',*,*,#109,.T.);
#84=ORIENTED_EDGE('',*,*,#106,.T.);
#85=ORIENTED_EDGE('',*,*,#100,.F.);
#86=ORIENTED_EDGE('',*,*,#104,.T.);
#87=ORIENTED_EDGE('',*,*,#107,.T.);
#88=ORIENTED_EDGE('',*,*,#109,.F.);
#89=ORIENTED_EDGE('',*,*,#98,.T.);
#90=ORIENTED_EDGE('',*,*,#108,.T.);
#91=ORIENTED_EDGE('',*,*,#105,.F.);
#92=ORIENTED_EDGE('',*,*,#102,.F.);
#93=EDGE_CURVE('',#110,#110,#123,.T.);
#94=EDGE_CURVE('',#111,#111,#56,.T.);
#95=EDGE_CURVE('',#112,#112,#57,.T.);
#96=EDGE_CURVE('',#113,#113,#124,.T.);
#97=EDGE_CURVE('',#114,#114,#58,.T.);
#98=EDGE_CURVE('',#115,#116,#18,.T.);
#99=EDGE_CURVE('',#117,#115,#19,.T.);
#100=EDGE_CURVE('',#117,#118,#20,.T.);
#101=EDGE_CURVE('',#118,#116,#21,.T.);
#102=EDGE_CURVE('',#115,#119,#22,.T.);
#103=EDGE_CURVE('',#120,#119,#23,.F.);
#104=EDGE_CURVE('',#117,#120,#24,.T.);
#105=EDGE_CURVE('',#119,#121,#25,.F.);
#106=EDGE_CURVE('',#122,#121,#26,.F.);
#107=EDGE_CURVE('',#120,#122,#27,.F.);
#108=EDGE_CURVE('',#116,#121,#28,.T.);
#109=EDGE_CURVE('',#118,#122,#29,.T.);
#110=VERTEX_POINT('',#276);
#111=VERTEX_POINT('',#278);
#112=VERTEX_POINT('',#280);
#113=VERTEX_POINT('',#303);
#114=VERTEX_POINT('',#305);
#115=VERTEX_POINT('',#367);
#116=VERTEX_POINT('',#368);
#117=VERTEX_POINT('',#370);
#118=VERTEX_POINT('',#372);
#119=VERTEX_POINT('',#376);
#120=VERTEX_POINT('',#378);
#121=VERTEX_POINT('',#382);
#122=VERTEX_POINT('',#384);
#123=B_SPLINE_CURVE_WITH_KNOTS('',3,(#257,#258,#259,#260,#261,#262,#263,
#264,#265,#266,#267,#268,#269,#270,#271,#272,#273,#274,#275),
 .UNSPECIFIED.,.T.,.F.,(1,1,1,1,1,1,1,1,1,1,1,1,1,1,1,1,1,1,1,1,1,1,1),
(-0.00566886884341687,-0.00377924589561125,-0.00188962294780562,0.,0.00188962294780562,
0.00377924589561125,0.00566886884341687,0.00755849179122249,0.00944811473902811,
0.0113377376868337,0.0132273606346394,0.015116983582445,0.0170066065302506,
0.0188962294780562,0.0207858524258618,0.0226754753736675,0.0245650983214731,
0.0264547212692787,0.0283443442170843,0.03023396716489,0.0321235901126956,
0.0340132130605012,0.0359028360083068),.UNSPECIFIED.);
#124=B_SPLINE_CURVE_WITH_KNOTS('',3,(#284,#285,#286,#287,#288,#289,#290,
#291,#292,#293,#294,#295,#296,#297,#298,#299,#300,#301,#302),
 .UNSPECIFIED.,.T.,.F.,(1,1,1,1,1,1,1,1,1,1,1,1,1,1,1,1,1,1,1,1,1,1,1),
(-0.00493314899603858,-0.00328876599735905,-0.00164438299867952,0.,0.00164438299867952,
0.00328876599735905,0.00493314899603857,0.0065775319947181,0.00822191499339762,
0.00986629799207715,0.0115106809907567,0.0131550639894362,0.0147994469881157,
0.0164438299867952,0.0180882129854748,0.0197325959841543,0.0213769789828338,
0.0230213619815133,0.0246657449801929,0.0263101279788724,0.0279545109775519,
0.0295988939762314,0.031243276974911),.UNSPECIFIED.);
#125=EDGE_LOOP('',(#59));
#126=EDGE_LOOP('',(#60));
#127=EDGE_LOOP('',(#61));
#128=EDGE_LOOP('',(#62));
#129=EDGE_LOOP('',(#63));
#130=EDGE_LOOP('',(#64));
#131=EDGE_LOOP('',(#65));
#132=EDGE_LOOP('',(#66));
#133=EDGE_LOOP('',(#67));
#134=EDGE_LOOP('',(#68));
#135=EDGE_LOOP('',(#69,#70,#71,#72));
#136=EDGE_LOOP('',(#73,#74,#75,#76));
#137=EDGE_LOOP('',(#77,#78,#79,#80));
#138=EDGE_LOOP('',(#81,#82,#83,#84));
#139=EDGE_LOOP('',(#85,#86,#87,#88));
#140=EDGE_LOOP('',(#89,#90,#91,#92));
#141=FACE_BOUND('',#125,.T.);
#142=FACE_BOUND('',#126,.T.);
#143=FACE_BOUND('',#127,.T.);
#144=FACE_BOUND('',#128,.T.);
#145=FACE_BOUND('',#129,.T.);
#146=FACE_BOUND('',#130,.T.);
#147=FACE_BOUND('',#131,.T.);
#148=FACE_BOUND('',#132,.T.);
#149=FACE_BOUND('',#133,.T.);
#150=FACE_BOUND('',#134,.T.);
#151=FACE_BOUND('',#135,.T.);
#152=FACE_BOUND('',#136,.T.);
#153=FACE_BOUND('',#137,.T.);
#154=FACE_BOUND('',#138,.T.);
#155=FACE_BOUND('',#139,.T.);
#156=FACE_BOUND('',#140,.T.);
#157=CYLINDRICAL_SURFACE('',#196,0.008);
#158=CYLINDRICAL_SURFACE('',#201,0.004);
#159=ADVANCED_FACE('',(#141,#142,#143),#157,.T.);
#160=ADVANCED_FACE('',(#144),#47,.T.);
#161=ADVANCED_FACE('',(#145),#48,.F.);
#162=ADVANCED_FACE('',(#146,#147),#158,.T.);
#163=ADVANCED_FACE('',(#148),#49,.T.);
#164=ADVANCED_FACE('',(#149,#150),#46,.F.);
#165=ADVANCED_FACE('',(#151),#50,.T.);
#166=ADVANCED_FACE('',(#152),#51,.F.);
#167=ADVANCED_FACE('',(#153),#52,.T.);
#168=ADVANCED_FACE('',(#154),#53,.T.);
#169=ADVANCED_FACE('',(#155),#54,.T.);
#170=ADVANCED_FACE('',(#156),#55,.F.);
#171=CLOSED_SHELL('',(#159,#160,#161,#162,#163,#164));
#172=CLOSED_SHELL('',(#165,#166,#167,#168,#169,#170));
#173=STYLED_ITEM('',(#175),#189);
#174=STYLED_ITEM('',(#176),#190);
#175=PRESENTATION_STYLE_ASSIGNMENT((#177));
#176=PRESENTATION_STYLE_ASSIGNMENT((#178));
#177=SURFACE_STYLE_USAGE(.BOTH.,#179);
#178=SURFACE_STYLE_USAGE(.BOTH.,#180);
#179=SURFACE_SIDE_STYLE('',(#181));
#180=SURFACE_SIDE_STYLE('',(#182));
#181=SURFACE_STYLE_FILL_AREA(#183);
#182=SURFACE_STYLE_FILL_AREA(#184);
#183=FILL_AREA_STYLE('',(#185));
#184=FILL_AREA_STYLE('',(#186));
#185=FILL_AREA_STYLE_COLOUR('',#187);
#186=FILL_AREA_STYLE_COLOUR('',#188);
#187=COLOUR_RGB('',0.615686274509804,0.811764705882353,0.929411764705882);
#188=COLOUR_RGB('',0.647058823529412,0.647058823529412,0.647058823529412);
#189=MANIFOLD_SOLID_BREP('AC36_0_V1',#171);
#190=MANIFOLD_SOLID_BREP('AC38_0_V1',#172);
#191=SHAPE_DEFINITION_REPRESENTATION(#403,#193);
#192=SHAPE_DEFINITION_REPRESENTATION(#404,#194);
#193=SHAPE_REPRESENTATION('AC36_0_V1',(#195),#393);
#194=SHAPE_REPRESENTATION('AC38_0_V1',(#204),#394);
#195=AXIS2_PLACEMENT_3D('',#255,#211,#212);
#196=AXIS2_PLACEMENT_3D('',#256,#213,#214);
#197=AXIS2_PLACEMENT_3D('',#277,#215,#216);
#198=AXIS2_PLACEMENT_3D('',#279,#217,#218);
#199=AXIS2_PLACEMENT_3D('',#281,#219,#220);
#200=AXIS2_PLACEMENT_3D('',#282,#221,#222);
#201=AXIS2_PLACEMENT_3D('',#283,#223,#224);
#202=AXIS2_PLACEMENT_3D('',#304,#225,#226);
#203=AXIS2_PLACEMENT_3D('',#306,#227,#228);
#204=AXIS2_PLACEMENT_3D('',#364,#229,#230);
#205=AXIS2_PLACEMENT_3D('',#365,#231,#232);
#206=AXIS2_PLACEMENT_3D('',#374,#237,#238);
#207=AXIS2_PLACEMENT_3D('',#380,#242,#243);
#208=AXIS2_PLACEMENT_3D('',#386,#247,#248);
#209=AXIS2_PLACEMENT_3D('',#389,#251,#252);
#210=AXIS2_PLACEMENT_3D('',#390,#253,#254);
#211=DIRECTION('',(0.,0.,1.));
#212=DIRECTION('',(1.,0.,0.));
#213=DIRECTION('',(0.,0.,-1.));
#214=DIRECTION('',(-1.,0.,0.));
#215=DIRECTION('',(0.,0.,1.));
#216=DIRECTION('',(1.,0.,0.));
#217=DIRECTION('',(0.,0.,1.));
#218=DIRECTION('',(1.,0.,0.));
#219=DIRECTION('',(0.,0.,1.));
#220=DIRECTION('',(1.,0.,0.));
#221=DIRECTION('',(0.,0.,1.));
#222=DIRECTION('',(1.,0.,0.));
#223=DIRECTION('',(-1.,0.,0.));
#224=DIRECTION('',(0.,0.,1.));
#225=DIRECTION('',(1.,0.,0.));
#226=DIRECTION('',(0.,0.,-1.));
#227=DIRECTION('',(1.,0.,0.));
#228=DIRECTION('',(0.,1.,0.));
#229=DIRECTION('',(0.,0.,1.));
#230=DIRECTION('',(1.,0.,0.));
#231=DIRECTION('',(-1.,0.,0.));
#232=DIRECTION('',(0.,0.,1.));
#233=DIRECTION('',(0.,1.,0.));
#234=DIRECTION('',(0.,0.,-1.));
#235=DIRECTION('',(0.,1.,0.));
#236=DIRECTION('',(0.,0.,-1.));
#237=DIRECTION('',(0.,1.,0.));
#238=DIRECTION('',(0.,0.,1.));
#239=DIRECTION('',(1.,0.,0.));
#240=DIRECTION('',(-0.124034734589208,0.,0.992277876713668));
#241=DIRECTION('',(1.,0.,0.));
#242=DIRECTION('',(0.992277876713668,0.,0.124034734589208));
#243=DIRECTION('',(-0.124034734589208,0.,0.992277876713668));
#244=DIRECTION('',(0.,-1.,0.));
#245=DIRECTION('',(-0.124034734589208,0.,0.992277876713668));
#246=DIRECTION('',(0.,-1.,0.));
#247=DIRECTION('',(0.,1.,0.));
#248=DIRECTION('',(0.,0.,1.));
#249=DIRECTION('',(1.,0.,0.));
#250=DIRECTION('',(1.,0.,0.));
#251=DIRECTION('',(0.,0.,1.));
#252=DIRECTION('',(1.,0.,0.));
#253=DIRECTION('',(0.,0.,1.));
#254=DIRECTION('',(1.,0.,0.));
#255=CARTESIAN_POINT('',(0.,0.,0.));
#256=CARTESIAN_POINT('',(67.28625,-32.0185,16.396125));
#257=CARTESIAN_POINT('',(67.2940868791155,-32.0203985205334,16.3888034570264));
#258=CARTESIAN_POINT('',(67.2943310320861,-32.0184970749318,16.3892846391279));
#259=CARTESIAN_POINT('',(67.2940889925402,-32.0166131797396,16.3888079864621));
#260=CARTESIAN_POINT('',(67.2935657264626,-32.0151790351415,16.3876273094687));
#261=CARTESIAN_POINT('',(67.2930538728273,-32.0142726577913,16.3860183654523));
#262=CARTESIAN_POINT('',(67.2928261282636,-32.0139475553596,16.3841249099539));
#263=CARTESIAN_POINT('',(67.2930526265602,-32.0142704545768,16.3822376470771));
#264=CARTESIAN_POINT('',(67.2935658101102,-32.0151797198008,16.3806218668579));
#265=CARTESIAN_POINT('',(67.2940881424564,-32.0166086572118,16.3794440518095));
#266=CARTESIAN_POINT('',(67.2943299869708,-32.018495738976,16.3789674542309));
#267=CARTESIAN_POINT('',(67.2940918988336,-32.0203761474333,16.3794361531912));
#268=CARTESIAN_POINT('',(67.2935673706336,-32.0218181359064,16.3806176432161));
#269=CARTESIAN_POINT('',(67.2930546794225,-32.0227260245427,16.3822299241955));
#270=CARTESIAN_POINT('',(67.2928264538642,-32.0230519233225,16.3841125958582));
#271=CARTESIAN_POINT('',(67.2930505584519,-32.0227328871631,16.386005172817));
#272=CARTESIAN_POINT('',(67.2935640374263,-32.0218235420334,16.3876235122888));
#273=CARTESIAN_POINT('',(67.2940868791155,-32.0203985205334,16.3888034570264));
#274=CARTESIAN_POINT('',(67.2943310320861,-32.0184970749318,16.3892846391279));
#275=CARTESIAN_POINT('',(67.2940889925402,-32.0166131797396,16.3888079864621));
#276=CARTESIAN_POINT('',(67.29425,-32.0185,16.389125));
#277=CARTESIAN_POINT('',(67.28625,-32.0185,16.396125));
#278=CARTESIAN_POINT('',(67.29425,-32.0185,16.396125));
#279=CARTESIAN_POINT('',(67.28625,-32.0185,16.372125));
#280=CARTESIAN_POINT('',(67.29425,-32.0185,16.372125));
#281=CARTESIAN_POINT('',(67.28625,-32.0185,16.396125));
#282=CARTESIAN_POINT('',(67.28625,-32.0185,16.372125));
#283=CARTESIAN_POINT('',(67.30225,-32.0185,16.384125));
#284=CARTESIAN_POINT('',(67.2950865168683,-32.0168775306704,16.3878960212452));
#285=CARTESIAN_POINT('',(67.2953319251609,-32.0184991445313,16.3882398120267));
#286=CARTESIAN_POINT('',(67.295085782488,-32.0201258912043,16.387894730648));
#287=CARTESIAN_POINT('',(67.2945290002007,-32.0214047788513,16.3870106486553));
#288=CARTESIAN_POINT('',(67.2939306175202,-32.0222749776858,16.3857336715862));
#289=CARTESIAN_POINT('',(67.2936336653616,-32.0226138158357,16.3841197987906));
#290=CARTESIAN_POINT('',(67.2939346275874,-32.0222697375236,16.382505047674));
#291=CARTESIAN_POINT('',(67.2945320576466,-32.021400087234,16.3812341991319));
#292=CARTESIAN_POINT('',(67.2950894812566,-32.0201126377333,16.3803497632158));
#293=CARTESIAN_POINT('',(67.295331284963,-32.0184949212525,16.380011080878));
#294=CARTESIAN_POINT('',(67.2950853620045,-32.0168735125706,16.3803559375896));
#295=CARTESIAN_POINT('',(67.2945290385939,-32.0155953556459,16.3812392745492));
#296=CARTESIAN_POINT('',(67.2939314174959,-32.0147260754543,16.3825149666929));
#297=CARTESIAN_POINT('',(67.2936334706808,-32.0143859226247,16.3841260298899));
#298=CARTESIAN_POINT('',(67.2939345919308,-32.0147302382481,16.3857451142695));
#299=CARTESIAN_POINT('',(67.2945298571789,-32.0155968601261,16.3870112825579));
#300=CARTESIAN_POINT('',(67.2950865168683,-32.0168775306704,16.3878960212452));
#301=CARTESIAN_POINT('',(67.2953319251609,-32.0184991445313,16.3882398120267));
#302=CARTESIAN_POINT('',(67.295085782488,-32.0201258912043,16.387894730648));
#303=CARTESIAN_POINT('',(67.29525,-32.0185,16.388125));
#304=CARTESIAN_POINT('',(67.30225,-32.0185,16.384125));
#305=CARTESIAN_POINT('',(67.30225,-32.0185,16.380125));
#306=CARTESIAN_POINT('',(67.30225,-32.0185,16.384125));
#307=CARTESIAN_POINT('',(67.2940559748935,-32.0202512155669,16.3887205018209));
#308=CARTESIAN_POINT('',(67.2941334528431,-32.019905860637,16.3878743814626));
#309=CARTESIAN_POINT('',(67.2950317217552,-32.0200760940102,16.3878014014567));
#310=CARTESIAN_POINT('',(67.2941754994004,-32.0197161805281,16.3889778510719));
#311=CARTESIAN_POINT('',(67.2942140782658,-32.0194392839771,16.388049700546));
#312=CARTESIAN_POINT('',(67.2951661868254,-32.0195945624753,16.3880072808575));
#313=CARTESIAN_POINT('',(67.2943196754762,-32.0185353942047,16.3892622754209));
#314=CARTESIAN_POINT('',(67.2942842276131,-32.0185253400106,16.3881966950187));
#315=CARTESIAN_POINT('',(67.2953283849107,-32.0185318547843,16.3882348203367));
#316=CARTESIAN_POINT('',(67.2941174736759,-32.016750980849,16.3888644229707));
#317=CARTESIAN_POINT('',(67.2941886048669,-32.0171746732752,16.3879964738816));
#318=CARTESIAN_POINT('',(67.2951009078854,-32.0169258827641,16.3879165383766));
#319=CARTESIAN_POINT('',(67.2936223867538,-32.0152985814035,16.3877663097003));
#320=CARTESIAN_POINT('',(67.2938461602473,-32.0158251838811,16.3872468498415));
#321=CARTESIAN_POINT('',(67.294543935098,-32.0156187232632,16.3870380477603));
#322=CARTESIAN_POINT('',(67.2930847674729,-32.014317408278,16.3861664610576));
#323=CARTESIAN_POINT('',(67.2933754931766,-32.0147926167461,16.3859336189759));
#324=CARTESIAN_POINT('',(67.293939113407,-32.0147356674502,16.385758168846));
#325=CARTESIAN_POINT('',(67.2928154221708,-32.0139324125294,16.3841646802381));
#326=CARTESIAN_POINT('',(67.2931176767796,-32.0143663051396,16.3841608450809));
#327=CARTESIAN_POINT('',(67.2936360999422,-32.0143891712764,16.3841567441905));
#328=CARTESIAN_POINT('',(67.2930651170857,-32.0142871147589,16.3821629083651));
#329=CARTESIAN_POINT('',(67.2933571777152,-32.0147597214863,16.3823846844092));
#330=CARTESIAN_POINT('',(67.2939170067214,-32.014708403283,16.3825553266921));
#331=CARTESIAN_POINT('',(67.2936011334034,-32.0152522943991,16.380535131575));
#332=CARTESIAN_POINT('',(67.2938291297689,-32.0157783306802,16.3810422172625));
#333=CARTESIAN_POINT('',(67.2945200250788,-32.0155770649592,16.38125310526));
#334=CARTESIAN_POINT('',(67.294101631826,-32.0166847156474,16.3794181197879));
#335=CARTESIAN_POINT('',(67.2941796632361,-32.017118626365,16.3802725154558));
#336=CARTESIAN_POINT('',(67.2950830858042,-32.0168662440826,16.3803594958303));
#337=CARTESIAN_POINT('',(67.2943200989944,-32.0184655550359,16.3789867735311));
#338=CARTESIAN_POINT('',(67.294284487297,-32.0184758002834,16.3800526637738));
#339=CARTESIAN_POINT('',(67.2953288613687,-32.0184689995323,16.3800144188249));
#340=CARTESIAN_POINT('',(67.2941175355895,-32.0202483349363,16.3793856702258));
#341=CARTESIAN_POINT('',(67.2941886783616,-32.0198245198021,16.3802536416782));
#342=CARTESIAN_POINT('',(67.2951009775382,-32.0200735014427,16.3803335361807));
#343=CARTESIAN_POINT('',(67.2936215548935,-32.0217039479799,16.3804846125352));
#344=CARTESIAN_POINT('',(67.2938456286627,-32.0211770355836,16.3810033687429));
#345=CARTESIAN_POINT('',(67.2945429992551,-32.0213835531819,16.3812126900282));
#346=CARTESIAN_POINT('',(67.2930826459407,-32.0226858586767,16.3820938755649));
#347=CARTESIAN_POINT('',(67.2933735574362,-32.0222109142587,16.382325316877));
#348=CARTESIAN_POINT('',(67.2939367266833,-32.0222672728091,16.3825001004519));
#349=CARTESIAN_POINT('',(67.2928159015298,-32.0230668755967,16.3840820869309));
#350=CARTESIAN_POINT('',(67.2931180772226,-32.0226329632738,16.3840865670168));
#351=CARTESIAN_POINT('',(67.2936366392211,-32.0226101880371,16.3840906695447));
#352=CARTESIAN_POINT('',(67.2930653190627,-32.0227124689535,16.3860901363182));
#353=CARTESIAN_POINT('',(67.2933573937691,-32.0222398780267,16.3858679762367));
#354=CARTESIAN_POINT('',(67.2939172339456,-32.0222912220582,16.3856971090545));
#355=CARTESIAN_POINT('',(67.2936025284349,-32.0217456044376,16.3877181799148));
#356=CARTESIAN_POINT('',(67.2938303760458,-32.0212190633519,16.3872105343826));
#357=CARTESIAN_POINT('',(67.2945215944893,-32.0214210439938,16.3869995439318));
#358=CARTESIAN_POINT('',(67.2939364503866,-32.0207862506057,16.3884631525699));
#359=CARTESIAN_POINT('',(67.2940566108686,-32.0203505426075,16.387707289445));
#360=CARTESIAN_POINT('',(67.294897256685,-32.0205576255452,16.3875955220559));
#361=CARTESIAN_POINT('',(67.2940559748935,-32.0202512155669,16.3887205018209));
#362=CARTESIAN_POINT('',(67.2941334528431,-32.019905860637,16.3878743814626));
#363=CARTESIAN_POINT('',(67.2950317217552,-32.0200760940102,16.3878014014567));
#364=CARTESIAN_POINT('',(0.,0.,0.));
#365=CARTESIAN_POINT('',(67.78625,-32.0105,16.392125));
#366=CARTESIAN_POINT('',(67.78625,-32.0105,16.384125));
#367=CARTESIAN_POINT('',(67.78625,-32.0185,16.384125));
#368=CARTESIAN_POINT('',(67.78625,-32.0025,16.384125));
#369=CARTESIAN_POINT('',(67.78625,-32.0185,16.392125));
#370=CARTESIAN_POINT('',(67.78625,-32.0185,16.392125));
#371=CARTESIAN_POINT('',(67.78625,-32.0105,16.392125));
#372=CARTESIAN_POINT('',(67.78625,-32.0025,16.392125));
#373=CARTESIAN_POINT('',(67.78625,-32.0025,16.392125));
#374=CARTESIAN_POINT('',(67.79425,-32.0185,16.392125));
#375=CARTESIAN_POINT('',(67.79425,-32.0185,16.384125));
#376=CARTESIAN_POINT('',(67.80225,-32.0185,16.384125));
#377=CARTESIAN_POINT('',(67.80225,-32.0185,16.384125));
#378=CARTESIAN_POINT('',(67.80125,-32.0185,16.392125));
#379=CARTESIAN_POINT('',(67.79425,-32.0185,16.392125));
#380=CARTESIAN_POINT('',(67.80225,-32.0185,16.384125));
#381=CARTESIAN_POINT('',(67.80225,-32.0185,16.384125));
#382=CARTESIAN_POINT('',(67.80225,-32.0025,16.384125));
#383=CARTESIAN_POINT('',(67.80225,-32.0025,16.384125));
#384=CARTESIAN_POINT('',(67.80125,-32.0025,16.392125));
#385=CARTESIAN_POINT('',(67.80125,-32.0185,16.392125));
#386=CARTESIAN_POINT('',(67.79425,-32.0025,16.392125));
#387=CARTESIAN_POINT('',(67.79425,-32.0025,16.384125));
#388=CARTESIAN_POINT('',(67.79425,-32.0025,16.392125));
#389=CARTESIAN_POINT('',(67.79425,-32.0105,16.392125));
#390=CARTESIAN_POINT('',(67.79425,-32.0105,16.384125));
#391=MECHANICAL_DESIGN_GEOMETRIC_PRESENTATION_REPRESENTATION('',(#173),
#393);
#392=MECHANICAL_DESIGN_GEOMETRIC_PRESENTATION_REPRESENTATION('',(#174),
#394);
#393=(
GEOMETRIC_REPRESENTATION_CONTEXT(3)
GLOBAL_UNCERTAINTY_ASSIGNED_CONTEXT((#395))
GLOBAL_UNIT_ASSIGNED_CONTEXT((#401,#399,#397))
REPRESENTATION_CONTEXT('AC36_0_V1','TOP_LEVEL_ASSEMBLY_PART')
);
#394=(
GEOMETRIC_REPRESENTATION_CONTEXT(3)
GLOBAL_UNCERTAINTY_ASSIGNED_CONTEXT((#396))
GLOBAL_UNIT_ASSIGNED_CONTEXT((#402,#400,#398))
REPRESENTATION_CONTEXT('AC38_0_V1','TOP_LEVEL_ASSEMBLY_PART')
);
#395=UNCERTAINTY_MEASURE_WITH_UNIT(LENGTH_MEASURE(2.E-5),#401,
'DISTANCE_ACCURACY_VALUE','Maximum Tolerance applied to model');
#396=UNCERTAINTY_MEASURE_WITH_UNIT(LENGTH_MEASURE(1.E-8),#402,
'DISTANCE_ACCURACY_VALUE','Maximum Tolerance applied to model');
#397=(
NAMED_UNIT(*)
SI_UNIT($,.STERADIAN.)
SOLID_ANGLE_UNIT()
);
#398=(
NAMED_UNIT(*)
SI_UNIT($,.STERADIAN.)
SOLID_ANGLE_UNIT()
);
#399=(
NAMED_UNIT(*)
PLANE_ANGLE_UNIT()
SI_UNIT($,.RADIAN.)
);
#400=(
NAMED_UNIT(*)
PLANE_ANGLE_UNIT()
SI_UNIT($,.RADIAN.)
);
#401=(
LENGTH_UNIT()
NAMED_UNIT(*)
SI_UNIT($,.METRE.)
);
#402=(
LENGTH_UNIT()
NAMED_UNIT(*)
SI_UNIT($,.METRE.)
);
#403=PRODUCT_DEFINITION_SHAPE('','',#405);
#404=PRODUCT_DEFINITION_SHAPE('','',#406);
#405=PRODUCT_DEFINITION('','',#409,#407);
#406=PRODUCT_DEFINITION('','',#410,#408);
#407=PRODUCT_DEFINITION_CONTEXT('',#421,'design');
#408=PRODUCT_DEFINITION_CONTEXT('',#422,'design');
#409=PRODUCT_DEFINITION_FORMATION_WITH_SPECIFIED_SOURCE('','',#413,
 .NOT_KNOWN.);
#410=PRODUCT_DEFINITION_FORMATION_WITH_SPECIFIED_SOURCE('','',#414,
 .NOT_KNOWN.);
#411=PRODUCT_RELATED_PRODUCT_CATEGORY('','',(#413));
#412=PRODUCT_RELATED_PRODUCT_CATEGORY('','',(#414));
#413=PRODUCT('AC36_0_V1','AC36_0_V1','AC36_0_V1',(#417));
#414=PRODUCT('AC38_0_V1','AC38_0_V1','AC38_0_V1',(#418));
#415=PRODUCT_CATEGORY('','');
#416=PRODUCT_CATEGORY('','');
#417=PRODUCT_CONTEXT('',#421,'mechanical');
#418=PRODUCT_CONTEXT('',#422,'mechanical');
#419=APPLICATION_PROTOCOL_DEFINITION('international standard',
'automotive_design',2010,#421);
#420=APPLICATION_PROTOCOL_DEFINITION('international standard',
'automotive_design',2010,#422);
#421=APPLICATION_CONTEXT(
'core data for automotive mechanical design processes');
#422=APPLICATION_CONTEXT(
'core data for automotive mechanical design processes');
ENDSEC;
END-ISO-10303-21;
