ISO-10303-21;
HEADER;
FILE_DESCRIPTION(('Open CASCADE Model'),'2;1');
FILE_NAME('Open CASCADE Shape Model','2026-10-03T01:23:26',('Author'),(
    'Open CASCADE'),'Open CASCADE STEP processor 7.8','Open CASCADE 7.8'
  ,'Unknown');
FILE_SCHEMA(('AUTOMOTIVE_DESIGN { 1 0 10303 214 1 1 1 1 }'));
ENDSEC;
DATA;
#1 = APPLICATION_PROTOCOL_DEFINITION('international standard',
  'automotive_design',2000,#2);
#2 = APPLICATION_CONTEXT(
  'core data for automotive mechanical design processes');
#3 = SHAPE_DEFINITION_REPRESENTATION(#4,#10);
#4 = PRODUCT_DEFINITION_SHAPE('','',#5);
#5 = PRODUCT_DEFINITION('design','',#6,#9);
#6 = PRODUCT_DEFINITION_FORMATION('','',#7);
#7 = PRODUCT('Open CASCADE STEP translator 7.8 1',
  'Open CASCADE STEP translator 7.8 1','',(#8));
#8 = PRODUCT_CONTEXT('',#2,'mechanical');
#9 = PRODUCT_DEFINITION_CONTEXT('part definition',#2,'design');
#10 = ADVANCED_BREP_SHAPE_REPRESENTATION('',(#11,#15),#848);
#11 = AXIS2_PLACEMENT_3D('',#12,#13,#14);
#12 = CARTESIAN_POINT('',(0,0,0));
#13 = DIRECTION('',(0,0,1));
#14 = DIRECTION('',(1,0,-0));
#15 = MANIFOLD_SOLID_BREP('',#16);
#16 = CLOSED_SHELL('',(#17,#553,#781,#785,#789,#844));
#17 = ADVANCED_FACE('',(#18,#471),#109,.T.);
#18 = FACE_BOUND('',#19,.T.);
#19 = EDGE_LOOP('',(#20));
#20 = ORIENTED_EDGE('',*,*,#21,.F.);
#21 = EDGE_CURVE('',#22,#22,#24,.T.);
#22 = VERTEX_POINT('',#23);
#23 = CARTESIAN_POINT('',(1756.6518353542649,754.44444444444434,
    -1.7763568394002505e-15));
#24 = SURFACE_CURVE('',#25,(#108,#217),.PCURVE_S1.);
#25 = ( BOUNDED_CURVE() B_SPLINE_CURVE(9,(#26,#27,#28,#29,#30,#31,#32,
    #33,#34,#35,#36,#37,#38,#39,#40,#41,#42,#43,#44,#45,#46,#47,#48,#49,
    #50,#51,#52,#53,#54,#55,#56,#57,#58,#59,#60,#61,#62,#63,#64,#65,#66,
    #67,#68,#69,#70,#71,#72,#73,#74,#75,#76,#77,#78,#79,#80,#81,#82,#83,
    #84,#85,#86,#87,#88,#89,#90,#91,#92,#93,#94,#95,#96,#97,#98,#99,#100
    ,#101,#102,#103,#104,#105,#106,#107),.UNSPECIFIED.,.T.,.F.) 
B_SPLINE_CURVE_WITH_KNOTS((10,8,8,8,8,8,8,8,8,8,10),(
    1.5332198350056357e-15,3.303020558319977,5.5146852877943662,
    7.0480141230547719,9.5471189032995323,12.81631558224959,
    17.026490547715319,18.306817883378717,19.833743339330386,
22.322411534941331,25.5779556629486),.UNSPECIFIED.) CURVE() 
GEOMETRIC_REPRESENTATION_ITEM() RATIONAL_B_SPLINE_CURVE((1,
    1.0000000000000082,0.99999999999997702,1.000000000000036,
    0.99999999999996136,1.0000000000000291,0.99999999999998568,
    1.0000000000000027,1.0000000000000024,0.99999999999999434,
    1.0000000000000278,0.99999999999995004,1.0000000000000506,
    0.99999999999997014,1.0000000000000069,1.0000000000000044,
    0.99999999999999467,1.0000000000000078,0.99999999999996869,
    1.0000000000000533,0.9999999999999476,1.0000000000000373,
    0.99999999999998035,1.0000000000000051,1.0000000000000024,
    0.99999999999998779,1.0000000000000586,0.99999999999988609,
    1.0000000000001392,0.99999999999987965,1.0000000000000753,
    0.99999999999996758,1.0000000000000091,0.99999999999998612,
    1.0000000000000548,0.99999999999988187,1.0000000000001621,
    0.99999999999984235,1.0000000000001117,0.99999999999994482,
    1.0000000000000167,0.99999999999997546,1.0000000000000928,
    0.99999999999981837,1.0000000000002252,0.99999999999981437,
    1.0000000000001028,0.99999999999996392,1.0000000000000049,
    1.000000000000002,0.99999999999998823,1.0000000000000202,
    0.99999999999998468,1.0000000000000033,1.000000000000006,
    0.99999999999999312,1.0000000000000033,0.99999999999999412,
    1.0000000000000335,0.99999999999992428,1.0000000000001017,
    0.9999999999999043,1.0000000000000657,0.99999999999996714,
    1.0000000000000111,0.99999999999997635,1.0000000000000977,
    0.99999999999980305,1.0000000000002525,0.99999999999977829,
    1.0000000000001359,0.9999999999999426,1.0000000000000147,
    0.99999999999998002,1.0000000000000726,0.99999999999986278,
    1.0000000000001756,0.99999999999983924,1.0000000000001048,
0.99999999999995348,1.0000000000000115,1)) REPRESENTATION_ITEM('') );
#26 = CARTESIAN_POINT('',(1756.6518353542649,754.44444444444434,
    -1.7763568394002505e-15));
#27 = CARTESIAN_POINT('',(1756.6518353542647,754.44444444444446,
    0.36705455541653437));
#28 = CARTESIAN_POINT('',(1756.6698631379106,754.41745875144818,
    0.73354890836046971));
#29 = CARTESIAN_POINT('',(1756.7056441102914,754.3639103417712,
    1.0979680188140497));
#30 = CARTESIAN_POINT('',(1756.7588173817062,754.28313475777452,
    1.459686594359344));
#31 = CARTESIAN_POINT('',(1756.8279883974678,754.17475392231233,
    1.8168460579401342));
#32 = CARTESIAN_POINT('',(1756.9110556779517,754.03842275384659,
    2.1671717576432052));
#33 = CARTESIAN_POINT('',(1757.005918418417,753.87285427015354,
    2.5094701961473214));
#34 = CARTESIAN_POINT('',(1757.1106716981299,753.67502886855686,
    2.8435460574852636));
#35 = CARTESIAN_POINT('',(1757.2972053933825,753.28345125477063,
    3.3823769620961079));
#36 = CARTESIAN_POINT('',(1757.3751600686137,753.10992843926795,
    3.5934086312874851));
#37 = CARTESIAN_POINT('',(1757.4552039622711,752.91891180957566,
    3.7982627476362421));
#38 = CARTESIAN_POINT('',(1757.5365019535482,752.70850918066685,
    3.9961356259323515));
#39 = CARTESIAN_POINT('',(1757.6178218745881,752.47652160003713,
    4.1854549382219055));
#40 = CARTESIAN_POINT('',(1757.6971817308377,752.22098355690628,
    4.3632876521158668));
#41 = CARTESIAN_POINT('',(1757.7717621797315,751.94067119758859,
    4.5252319336744069));
#42 = CARTESIAN_POINT('',(1757.8380842677077,751.63557854704561,
    4.6657930148346214));
#43 = CARTESIAN_POINT('',(1757.930145418999,751.07981174091765,
    4.8578969779110643));
#44 = CARTESIAN_POINT('',(1757.9622247167472,750.84084806910039,
    4.9237277575024212));
#45 = CARTESIAN_POINT('',(1757.9870172970873,750.59225191339237,
    4.9739901363374077));
#46 = CARTESIAN_POINT('',(1758.0032578742105,750.336677377667,
    5.006640655286466));
#47 = CARTESIAN_POINT('',(1758.010130231829,750.07734111866955,
    5.0203853038015485));
#48 = CARTESIAN_POINT('',(1758.007308556796,749.81771198725141,
    5.0147271997873588));
#49 = CARTESIAN_POINT('',(1757.9949987727243,749.56120066960466,
    4.9900142694633889));
#50 = CARTESIAN_POINT('',(1757.9739798736043,749.31084932849649,
    4.9474869272337489));
#51 = CARTESIAN_POINT('',(1757.8994639210289,748.67487635737564,
    4.79453143692235));
#52 = CARTESIAN_POINT('',(1757.8336136066716,748.30337210582991,
    4.6578635251480041));
#53 = CARTESIAN_POINT('',(1757.7534114869734,747.96518223644489,
    4.4880567878135516));
#54 = CARTESIAN_POINT('',(1757.6648541883746,747.65956458181961,
    4.2941286537868137));
#55 = CARTESIAN_POINT('',(1757.5730480879115,747.38600293777961,
    4.084682064049078));
#56 = CARTESIAN_POINT('',(1757.4806158669892,747.14100962859209,
    3.8634872979839954));
#57 = CARTESIAN_POINT('',(1757.3888955394109,746.91969460619669,
    3.6314952533645952));
#58 = CARTESIAN_POINT('',(1757.3002987619532,746.72219874150562,
    3.3925316699216403));
#59 = CARTESIAN_POINT('',(1757.105138149607,746.31453850008972,
    2.8258518461658064));
#60 = CARTESIAN_POINT('',(1757.0014900872375,746.11937868248856,
    2.4936770886348842));
#61 = CARTESIAN_POINT('',(1756.9074197664115,745.95565027916768,
    2.1515624582570418));
#62 = CARTESIAN_POINT('',(1756.8260034914672,745.82216997607532,
    1.8060188666708774));
#63 = CARTESIAN_POINT('',(1756.7577499063925,745.7152550911444,
    1.4519513128954418));
#64 = CARTESIAN_POINT('',(1756.7046671019332,745.6345911879506,
    1.0901232953444948));
#65 = CARTESIAN_POINT('',(1756.6696271182661,745.58219869201969,
    0.72822700364786064));
#66 = CARTESIAN_POINT('',(1756.6518375655014,745.55555886503157,
    0.36420833173234574));
#67 = CARTESIAN_POINT('',(1756.6518325106242,745.55555129958395,
    -0.46891932134071884));
#68 = CARTESIAN_POINT('',(1756.681066528268,745.59929681393328,
    -0.93837138760838901));
#69 = CARTESIAN_POINT('',(1756.7408837824034,745.68885183887153,
    -1.4097073050427711));
#70 = CARTESIAN_POINT('',(1756.8255525302113,745.81881134583534,
    -1.8559903411750212));
#71 = CARTESIAN_POINT('',(1756.9376711929729,745.99948804161102,
    -2.3181806016342921));
#72 = CARTESIAN_POINT('',(1757.0657063038329,746.22353471339568,
    -2.7444666447253825));
#73 = CARTESIAN_POINT('',(1757.210227242178,746.50153788911905,
    -3.1691565000579152));
#74 = CARTESIAN_POINT('',(1757.3647380333005,746.84399116638474,
    -3.5723535839404001));
#75 = CARTESIAN_POINT('',(1757.5640773046005,747.39170402431694,
    -4.0536150948547025));
#76 = CARTESIAN_POINT('',(1757.6104020489161,747.52660116181698,
    -4.1626346262966898));
#77 = CARTESIAN_POINT('',(1757.656239542252,747.66900838659103,
    -4.2679760711838881));
#78 = CARTESIAN_POINT('',(1757.7011722485295,747.81923570254071,
    -4.3690175813309189));
#79 = CARTESIAN_POINT('',(1757.7447016637061,747.97753581714153,
    -4.4650017379855935));
#80 = CARTESIAN_POINT('',(1757.786256708127,748.14407066335298,
    -4.5550493293387611));
#81 = CARTESIAN_POINT('',(1757.8252021188796,748.31887792151417,
    -4.6381731280379181));
#82 = CARTESIAN_POINT('',(1757.860846842146,748.50183754125453,
    -4.7132916686975399));
#83 = CARTESIAN_POINT('',(1757.9301454189904,748.92018825903074,
    -4.8578969778936276));
#84 = CARTESIAN_POINT('',(1757.9622247167406,749.15915193084095,
    -4.9237277574893366));
#85 = CARTESIAN_POINT('',(1757.9870172970855,749.4077480865634,
    -4.97399013633318));
#86 = CARTESIAN_POINT('',(1758.0032578742112,749.66332262230901,
    -5.0066406552881606));
#87 = CARTESIAN_POINT('',(1758.0101302318301,749.92265888132272,
    -5.0203853038035895));
#88 = CARTESIAN_POINT('',(1758.0073085567963,750.18228801274938,
    -5.014727199787961));
#89 = CARTESIAN_POINT('',(1757.9949987727241,750.43879933039705,
    -4.9900142694623941));
#90 = CARTESIAN_POINT('',(1757.9739798736045,750.68915067150192,
    -4.947486927233907));
#91 = CARTESIAN_POINT('',(1757.8994639210339,751.32512364258514,
    -4.794531436932127));
#92 = CARTESIAN_POINT('',(1757.8336136066275,751.69662789419306,
    -4.6578635250126528));
#93 = CARTESIAN_POINT('',(1757.7534114872087,752.03481776305568,
    -4.4880567884501215));
#94 = CARTESIAN_POINT('',(1757.6648541881136,752.34043541869164,
    -4.2941286530833995));
#95 = CARTESIAN_POINT('',(1757.5730480879629,752.61399706201178,
    -4.0846820641163273));
#96 = CARTESIAN_POINT('',(1757.4806158675201,752.85899037030345,
    -3.8634872994088769));
#97 = CARTESIAN_POINT('',(1757.3888955388595,753.08030539513629,
    -3.6314952520412653));
#98 = CARTESIAN_POINT('',(1757.3002987616167,753.27780125910942,
    -3.3925316688244385));
#99 = CARTESIAN_POINT('',(1757.1051381503389,753.68546149849647,
    -2.8258518484585182));
#100 = CARTESIAN_POINT('',(1757.0014867488676,753.88062712850228,
    -2.4936739444073326));
#101 = CARTESIAN_POINT('',(1756.9074263625378,754.04433695128535,
    -2.1515529796770236));
#102 = CARTESIAN_POINT('',(1756.8260094760403,754.17782452278084,
    -1.8060818918763037));
#103 = CARTESIAN_POINT('',(1756.7577207347472,754.28479169665286,
    -1.4518798088531439));
#104 = CARTESIAN_POINT('',(1756.7046420292199,754.36544288548998,
    -1.0898882213167067));
#105 = CARTESIAN_POINT('',(1756.6696723797772,754.41773423558766,
    -0.72827476091680721));
#106 = CARTESIAN_POINT('',(1756.6518353542647,754.44444444444446,
    -0.36462827462892339));
#107 = CARTESIAN_POINT('',(1756.6518353542649,754.44444444444434,
    -1.7763568394002505e-15));
#108 = PCURVE('',#109,#114);
#109 = CYLINDRICAL_SURFACE('',#110,8);
#110 = AXIS2_PLACEMENT_3D('',#111,#112,#113);
#111 = CARTESIAN_POINT('',(1750,750,-12));
#112 = DIRECTION('',(0,0,1));
#113 = DIRECTION('',(-1,0,0));
#114 = DEFINITIONAL_REPRESENTATION('',(#115),#216);
#115 = B_SPLINE_CURVE_WITH_KNOTS('',8,(#116,#117,#118,#119,#120,#121,
    #122,#123,#124,#125,#126,#127,#128,#129,#130,#131,#132,#133,#134,
    #135,#136,#137,#138,#139,#140,#141,#142,#143,#144,#145,#146,#147,
    #148,#149,#150,#151,#152,#153,#154,#155,#156,#157,#158,#159,#160,
    #161,#162,#163,#164,#165,#166,#167,#168,#169,#170,#171,#172,#173,
    #174,#175,#176,#177,#178,#179,#180,#181,#182,#183,#184,#185,#186,
    #187,#188,#189,#190,#191,#192,#193,#194,#195,#196,#197,#198,#199,
    #200,#201,#202,#203,#204,#205,#206,#207,#208,#209,#210,#211,#212,
    #213,#214,#215),.UNSPECIFIED.,.F.,.F.,(9,7,7,7,7,7,7,7,7,7,7,7,7,7,9
    ),(1.5332198350056357e-15,3.1972444578685764,4.7958666868028637,
    5.5951778012700073,6.3944889157371509,7.9931111446714382,
    9.5917333736057255,12.7889778314743,15.986222289342876,
    17.584844518277166,18.38415563274431,19.183466747211451,
    20.782088976145737,22.380711205080026,25.5779556629486),
  .UNSPECIFIED.);
#116 = CARTESIAN_POINT('',(3.7306236238060744,12.000000000000004));
#117 = CARTESIAN_POINT('',(3.7306236238061037,12.399712479111075));
#118 = CARTESIAN_POINT('',(3.7257368386783276,12.798750353837193));
#119 = CARTESIAN_POINT('',(3.7160476007187468,13.195051021256351));
#120 = CARTESIAN_POINT('',(3.7014759901133414,13.587962482031855));
#121 = CARTESIAN_POINT('',(3.6821642074913759,13.974173775397738));
#122 = CARTESIAN_POINT('',(3.6582365210910881,14.350918075425383));
#123 = CARTESIAN_POINT('',(3.6294617649777301,14.71833163542426));
#124 = CARTESIAN_POINT('',(3.5782901646807774,15.250111833377359));
#125 = CARTESIAN_POINT('',(3.5598915108829012,15.424149075637311));
#126 = CARTESIAN_POINT('',(3.5401170224508745,15.594452399230748));
#127 = CARTESIAN_POINT('',(3.5188796035770937,15.760496903099419));
#128 = CARTESIAN_POINT('',(3.4960655204468307,15.921548020936211));
#129 = CARTESIAN_POINT('',(3.471560478107806,16.076465662074288));
#130 = CARTESIAN_POINT('',(3.4452756973348637,16.223508352350425));
#131 = CARTESIAN_POINT('',(3.4031231385809675,16.428451886313777));
#132 = CARTESIAN_POINT('',(3.3886181703088454,16.494183637837153));
#133 = CARTESIAN_POINT('',(3.3736536238934502,16.557013849991453));
#134 = CARTESIAN_POINT('',(3.3582276953632615,16.616603944398658));
#135 = CARTESIAN_POINT('',(3.3423422395688172,16.672595543907221));
#136 = CARTESIAN_POINT('',(3.3260027701774573,16.724610472549262));
#137 = CARTESIAN_POINT('',(3.3092184596777465,16.772250755581574));
#138 = CARTESIAN_POINT('',(3.2747858190759689,16.857946483331361));
#139 = CARTESIAN_POINT('',(3.2571450570726572,16.895980053279185));
#140 = CARTESIAN_POINT('',(3.23913716134052,16.928655111377633));
#141 = CARTESIAN_POINT('',(3.2208242983721136,16.955530651522519));
#142 = CARTESIAN_POINT('',(3.2022734931853138,16.976268879440941));
#143 = CARTESIAN_POINT('',(3.1835566293150852,16.990635212675347));
#144 = CARTESIAN_POINT('',(3.1647504488214016,16.998498280597204));
#145 = CARTESIAN_POINT('',(3.1083087592077328,17.002493212000594));
#146 = CARTESIAN_POINT('',(3.0706296757700517,16.979042464124845));
#147 = CARTESIAN_POINT('',(3.0335928508576826,16.929446598776529));
#148 = CARTESIAN_POINT('',(2.9974877101880799,16.854443484253419));
#149 = CARTESIAN_POINT('',(2.9635273425578812,16.760407994057736));
#150 = CARTESIAN_POINT('',(2.9312065660810442,16.64937878581101));
#151 = CARTESIAN_POINT('',(2.9008329196215281,16.525230131636885));
#152 = CARTESIAN_POINT('',(2.8437580743577655,16.255312706683522));
#153 = CARTESIAN_POINT('',(2.8170618227739097,16.109536202959504));
#154 = CARTESIAN_POINT('',(2.7921857806293962,15.955590439147375));
#155 = CARTESIAN_POINT('',(2.7690001283807408,15.795085877593463));
#156 = CARTESIAN_POINT('',(2.7473781686478653,15.629173238730507));
#157 = CARTESIAN_POINT('',(2.7272430756006805,15.458827401162765));
#158 = CARTESIAN_POINT('',(2.7085494136451791,15.284836874987954));
#159 = CARTESIAN_POINT('',(2.6564994489046008,14.752822794951548));
#160 = CARTESIAN_POINT('',(2.627190637414861,14.384759696131745));
#161 = CARTESIAN_POINT('',(2.6027479869517758,14.005370067274947));
#162 = CARTESIAN_POINT('',(2.5832921262496602,13.623861276358669));
#163 = CARTESIAN_POINT('',(2.5680500246409745,13.225957367062755));
#164 = CARTESIAN_POINT('',(2.5580767659330772,12.828442683509586));
#165 = CARTESIAN_POINT('',(2.5528667674997609,12.42810292334245));
#166 = CARTESIAN_POINT('',(2.5522768204400723,11.626813599180084));
#167 = CARTESIAN_POINT('',(2.5568648732387382,11.225797434527857));
#168 = CARTESIAN_POINT('',(2.5664996052997773,10.823495893049889));
#169 = CARTESIAN_POINT('',(2.5807683488648334,10.433873611020235));
#170 = CARTESIAN_POINT('',(2.5999941957412025,10.043529431264776));
#171 = CARTESIAN_POINT('',(2.6238426592141648,9.6650479665480233));
#172 = CARTESIAN_POINT('',(2.6525834085372284,9.2955456460051753));
#173 = CARTESIAN_POINT('',(2.7037491831947182,8.7608445289138821));
#174 = CARTESIAN_POINT('',(2.722144840178335,8.5858889628039403));
#175 = CARTESIAN_POINT('',(2.7419545190983183,8.4143556869249814));
#176 = CARTESIAN_POINT('',(2.7632341993044265,8.2473100656792138));
#177 = CARTESIAN_POINT('',(2.7860882346010674,8.085363680684738));
#178 = CARTESIAN_POINT('',(2.8106421120298313,7.9294046779288125));
#179 = CARTESIAN_POINT('',(2.8369863031782483,7.7814989861058113));
#180 = CARTESIAN_POINT('',(2.8792401884428243,7.5752924073748478));
#181 = CARTESIAN_POINT('',(2.8937809854500234,7.5091572307925247));
#182 = CARTESIAN_POINT('',(2.9087843809615803,7.4459360883321546));
#183 = CARTESIAN_POINT('',(2.9242529517265585,7.3859654772859287));
#184 = CARTESIAN_POINT('',(2.9401854213240379,7.3296047077767357));
#185 = CARTESIAN_POINT('',(2.956576660163547,7.2772359027595241));
#186 = CARTESIAN_POINT('',(2.9734176854846384,7.2292639980196496));
#187 = CARTESIAN_POINT('',(3.0079736372298278,7.142969486329255));
#188 = CARTESIAN_POINT('',(3.0256807686428266,7.1046654053067098));
#189 = CARTESIAN_POINT('',(3.0437591683506655,7.0717573650554897));
#190 = CARTESIAN_POINT('',(3.0621459895704866,7.0446933046389599));
#191 = CARTESIAN_POINT('',(3.0807734259838599,7.0238162362438139));
#192 = CARTESIAN_POINT('',(3.0995687117343524,7.0093642451684444));
#193 = CARTESIAN_POINT('',(3.1184541214300809,7.001470489834607));
#194 = CARTESIAN_POINT('',(3.1751326675650113,6.9975486256670196));
#195 = CARTESIAN_POINT('',(3.212968575330081,7.0212667931672144));
#196 = CARTESIAN_POINT('',(3.2501543703747289,7.0713538638706606));
#197 = CARTESIAN_POINT('',(3.2863928422141622,7.1470329099175123));
#198 = CARTESIAN_POINT('',(3.3204583979642992,7.2418359625272029));
#199 = CARTESIAN_POINT('',(3.3528734760158665,7.3537154368297681));
#200 = CARTESIAN_POINT('',(3.3833221556626287,7.4787484766628971));
#201 = CARTESIAN_POINT('',(3.4405191414634264,7.7504810269767388));
#202 = CARTESIAN_POINT('',(3.4672618935007127,7.8971875231364432));
#203 = CARTESIAN_POINT('',(3.4921721998920239,8.052068218985605));
#204 = CARTESIAN_POINT('',(3.5153822811577973,8.2135135060691393));
#205 = CARTESIAN_POINT('',(3.5370198593088382,8.3803715960711518));
#206 = CARTESIAN_POINT('',(3.5571614143665045,8.551659520563085));
#207 = CARTESIAN_POINT('',(3.5758521212101302,8.7265837232555832));
#208 = CARTESIAN_POINT('',(3.6278731578568477,9.2614432876491239));
#209 = CARTESIAN_POINT('',(3.6571314896004488,9.6314629379707384));
#210 = CARTESIAN_POINT('',(3.6814806479297908,10.012681107219473));
#211 = CARTESIAN_POINT('',(3.7008206378645383,10.396038817222903));
#212 = CARTESIAN_POINT('',(3.7159240221469871,10.796563110302731));
#213 = CARTESIAN_POINT('',(3.7256449055475658,11.195495764064821));
#214 = CARTESIAN_POINT('',(3.730623623806109,11.597139097198403));
#215 = CARTESIAN_POINT('',(3.7306236238060744,11.999999999999995));
#216 = ( GEOMETRIC_REPRESENTATION_CONTEXT(2) 
PARAMETRIC_REPRESENTATION_CONTEXT() REPRESENTATION_CONTEXT('2D SPACE',''
  ) );
#217 = PCURVE('',#218,#465);
#218 = ( BOUNDED_SURFACE() B_SPLINE_SURFACE(2,9,(
    (#219,#220,#221,#222,#223,#224,#225,#226,#227,#228,#229,#230,#231
      ,#232,#233,#234,#235,#236,#237,#238,#239,#240,#241,#242,#243,#244
      ,#245,#246,#247,#248,#249,#250,#251,#252,#253,#254,#255,#256,#257
      ,#258,#259,#260,#261,#262,#263,#264,#265,#266,#267,#268,#269,#270
      ,#271,#272,#273,#274,#275,#276,#277,#278,#279,#280,#281,#282,#283
      ,#284,#285,#286,#287,#288,#289,#290,#291,#292,#293,#294,#295,#296
      ,#297,#298,#299,#300)
    ,(#301,#302,#303,#304,#305,#306,#307,#308,#309,#310,#311,#312,#313
      ,#314,#315,#316,#317,#318,#319,#320,#321,#322,#323,#324,#325,#326
      ,#327,#328,#329,#330,#331,#332,#333,#334,#335,#336,#337,#338,#339
      ,#340,#341,#342,#343,#344,#345,#346,#347,#348,#349,#350,#351,#352
      ,#353,#354,#355,#356,#357,#358,#359,#360,#361,#362,#363,#364,#365
      ,#366,#367,#368,#369,#370,#371,#372,#373,#374,#375,#376,#377,#378
      ,#379,#380,#381,#382)
    ,(#383,#384,#385,#386,#387,#388,#389,#390,#391,#392,#393,#394,#395
      ,#396,#397,#398,#399,#400,#401,#402,#403,#404,#405,#406,#407,#408
      ,#409,#410,#411,#412,#413,#414,#415,#416,#417,#418,#419,#420,#421
      ,#422,#423,#424,#425,#426,#427,#428,#429,#430,#431,#432,#433,#434
      ,#435,#436,#437,#438,#439,#440,#441,#442,#443,#444,#445,#446,#447
      ,#448,#449,#450,#451,#452,#453,#454,#455,#456,#457,#458,#459,#460
      ,#461,#462,#463,#464
)),.UNSPECIFIED.,.F.,.F.,.F.) B_SPLINE_SURFACE_WITH_KNOTS((3,3),(10,8,8,
    8,8,8,8,8,8,8,10),(0,25.5779556629486),(1.5332198350056357e-15,
    3.303020558319977,5.5146852877943662,7.0480141230547719,
    9.5471189032995323,12.81631558224959,17.026490547715319,
    18.306817883378717,19.833743339330386,22.322411534941331,
25.5779556629486),.UNSPECIFIED.) GEOMETRIC_REPRESENTATION_ITEM() 
RATIONAL_B_SPLINE_SURFACE((
    (1,1.0000000000000082,0.99999999999997702,1.000000000000036
      ,0.99999999999996136,1.0000000000000291,0.99999999999998568
      ,1.0000000000000027,1.0000000000000024,0.99999999999999434
      ,1.0000000000000278,0.99999999999995004,1.0000000000000506
      ,0.99999999999997014,1.0000000000000069,1.0000000000000044
      ,0.99999999999999467,1.0000000000000078,0.99999999999996869
      ,1.0000000000000533,0.9999999999999476,1.0000000000000373
      ,0.99999999999998035,1.0000000000000051,1.0000000000000024
      ,0.99999999999998779,1.0000000000000586,0.99999999999988609
      ,1.0000000000001392,0.99999999999987965,1.0000000000000753
      ,0.99999999999996758,1.0000000000000091,0.99999999999998612
      ,1.0000000000000548,0.99999999999988187,1.0000000000001621
      ,0.99999999999984235,1.0000000000001117,0.99999999999994482
      ,1.0000000000000167,0.99999999999997546,1.0000000000000928
      ,0.99999999999981837,1.0000000000002252,0.99999999999981437
      ,1.0000000000001028,0.99999999999996392,1.0000000000000049
      ,1.000000000000002,0.99999999999998823,1.0000000000000202
      ,0.99999999999998468,1.0000000000000033,1.000000000000006
      ,0.99999999999999312,1.0000000000000033,0.99999999999999412
      ,1.0000000000000335,0.99999999999992428,1.0000000000001017
      ,0.9999999999999043,1.0000000000000657,0.99999999999996714
      ,1.0000000000000111,0.99999999999997635,1.0000000000000977
      ,0.99999999999980305,1.0000000000002525,0.99999999999977829
      ,1.0000000000001359,0.9999999999999426,1.0000000000000147
      ,0.99999999999998002,1.0000000000000726,0.99999999999986278
      ,1.0000000000001756,0.99999999999983924,1.0000000000001048
      ,0.99999999999995348,1.0000000000000115,1)
    ,(0.88191710368819853,0.88191710368820253,0.87999505758712404
      ,0.8761822793913373,0.8704639583091226,0.86289247515364143
      ,0.85356401108867808,0.84255929856453993,0.82994936428922839
      ,0.80660475951081856,0.7966225535862842,0.78612191026669298
      ,0.77516958655066359,0.76390487701587872,0.75260574988165163
      ,0.74171392459007501,0.73181889091064389,0.7179033834444738
      ,0.71298347189101274,0.70914069395596324,0.70660481069516645
      ,0.70552639846244758,0.70596746220416451,0.70789204875247702
      ,0.71115686012021839,0.72258360079665584,0.73257860381308859
      ,0.74454955375663112,0.75736742774081578,0.77023559997697355
      ,0.78279725744890383,0.79488419710006253,0.80623704366002924
      ,0.83061536778887612,0.84307561654390084,0.85396641573034049
      ,0.86311062950476147,0.8705822292390144,0.87628540895851881
      ,0.88001922491307727,0.88191694975257673,0.88191730178714334
      ,0.878799466703169,0.87243047181198641,0.86326672132661797
      ,0.85077747386991198,0.83589604145953544,0.81824971152804216
      ,0.79823223890207251,0.77109554984013706,0.76469512903251524
      ,0.75826592412351801,0.75186888540914343,0.74558139522678502
      ,0.73949639619698582,0.73372151946593256,0.72837821294732308
      ,0.71790338344550464,0.71298347189193334,0.70914069395635659
      ,0.70660481069522552,0.70552639846231457,0.70596746220406659
      ,0.70789204875245537,0.71115686012020984,0.72258360079591999
      ,0.7325786038171731,0.74454955372921328,0.75736742777145571
      ,0.7702355999675381,0.78279725738494577,0.79488419717147751
      ,0.80623704370164317,0.83061536770260791,0.84307583545051112
      ,0.85396603237925583,0.86310999222342122,0.87058466915854782
      ,0.87628772508443387,0.88001501089716727,0.88191710368820164
      ,0.88191710368819831)
    ,(1,1.0000000000000082,0.99999999999997702,1.000000000000036
      ,0.99999999999996136,1.0000000000000291,0.99999999999998568
      ,1.0000000000000027,1.0000000000000024,0.99999999999999434
      ,1.0000000000000278,0.99999999999995004,1.0000000000000506
      ,0.99999999999997014,1.0000000000000069,1.0000000000000044
      ,0.99999999999999467,1.0000000000000078,0.99999999999996869
      ,1.0000000000000533,0.9999999999999476,1.0000000000000373
      ,0.99999999999998035,1.0000000000000051,1.0000000000000024
      ,0.99999999999998779,1.0000000000000586,0.99999999999988609
      ,1.0000000000001392,0.99999999999987965,1.0000000000000753
      ,0.99999999999996758,1.0000000000000091,0.99999999999998612
      ,1.0000000000000548,0.99999999999988187,1.0000000000001621
      ,0.99999999999984235,1.0000000000001117,0.99999999999994482
      ,1.0000000000000167,0.99999999999997546,1.0000000000000928
      ,0.99999999999981837,1.0000000000002252,0.99999999999981437
      ,1.0000000000001028,0.99999999999996392,1.0000000000000049
      ,1.000000000000002,0.99999999999998823,1.0000000000000202
      ,0.99999999999998468,1.0000000000000033,1.000000000000006
      ,0.99999999999999312,1.0000000000000033,0.99999999999999412
      ,1.0000000000000335,0.99999999999992428,1.0000000000001017
      ,0.9999999999999043,1.0000000000000657,0.99999999999996714
      ,1.0000000000000111,0.99999999999997635,1.0000000000000977
      ,0.99999999999980305,1.0000000000002525,0.99999999999977829
      ,1.0000000000001359,0.9999999999999426,1.0000000000000147
      ,0.99999999999998002,1.0000000000000726,0.99999999999986278
      ,1.0000000000001756,0.99999999999983924,1.0000000000001048
,0.99999999999995348,1.0000000000000115,1
))) REPRESENTATION_ITEM('') SURFACE() );
#219 = CARTESIAN_POINT('',(1756.6518353542649,754.44444444444434,
    -1.7763568394002505e-15));
#220 = CARTESIAN_POINT('',(1756.6518353542647,754.44444444444446,
    0.36705455541653437));
#221 = CARTESIAN_POINT('',(1756.6698631379106,754.41745875144818,
    0.73354890836046971));
#222 = CARTESIAN_POINT('',(1756.7056441102914,754.3639103417712,
    1.0979680188140497));
#223 = CARTESIAN_POINT('',(1756.7588173817062,754.28313475777452,
    1.459686594359344));
#224 = CARTESIAN_POINT('',(1756.8279883974678,754.17475392231233,
    1.8168460579401342));
#225 = CARTESIAN_POINT('',(1756.9110556779517,754.03842275384659,
    2.1671717576432052));
#226 = CARTESIAN_POINT('',(1757.005918418417,753.87285427015354,
    2.5094701961473214));
#227 = CARTESIAN_POINT('',(1757.1106716981299,753.67502886855686,
    2.8435460574852636));
#228 = CARTESIAN_POINT('',(1757.2972053933825,753.28345125477063,
    3.3823769620961079));
#229 = CARTESIAN_POINT('',(1757.3751600686137,753.10992843926795,
    3.5934086312874851));
#230 = CARTESIAN_POINT('',(1757.4552039622711,752.91891180957566,
    3.7982627476362421));
#231 = CARTESIAN_POINT('',(1757.5365019535482,752.70850918066685,
    3.9961356259323515));
#232 = CARTESIAN_POINT('',(1757.6178218745881,752.47652160003713,
    4.1854549382219055));
#233 = CARTESIAN_POINT('',(1757.6971817308377,752.22098355690628,
    4.3632876521158668));
#234 = CARTESIAN_POINT('',(1757.7717621797315,751.94067119758859,
    4.5252319336744069));
#235 = CARTESIAN_POINT('',(1757.8380842677077,751.63557854704561,
    4.6657930148346214));
#236 = CARTESIAN_POINT('',(1757.930145418999,751.07981174091765,
    4.8578969779110643));
#237 = CARTESIAN_POINT('',(1757.9622247167472,750.84084806910039,
    4.9237277575024212));
#238 = CARTESIAN_POINT('',(1757.9870172970873,750.59225191339237,
    4.9739901363374077));
#239 = CARTESIAN_POINT('',(1758.0032578742105,750.336677377667,
    5.006640655286466));
#240 = CARTESIAN_POINT('',(1758.010130231829,750.07734111866955,
    5.0203853038015485));
#241 = CARTESIAN_POINT('',(1758.007308556796,749.81771198725141,
    5.0147271997873588));
#242 = CARTESIAN_POINT('',(1757.9949987727243,749.56120066960466,
    4.9900142694633889));
#243 = CARTESIAN_POINT('',(1757.9739798736043,749.31084932849649,
    4.9474869272337489));
#244 = CARTESIAN_POINT('',(1757.8994639210289,748.67487635737564,
    4.79453143692235));
#245 = CARTESIAN_POINT('',(1757.8336136066716,748.30337210582991,
    4.6578635251480041));
#246 = CARTESIAN_POINT('',(1757.7534114869734,747.96518223644489,
    4.4880567878135516));
#247 = CARTESIAN_POINT('',(1757.6648541883746,747.65956458181961,
    4.2941286537868137));
#248 = CARTESIAN_POINT('',(1757.5730480879115,747.38600293777961,
    4.084682064049078));
#249 = CARTESIAN_POINT('',(1757.4806158669892,747.14100962859209,
    3.8634872979839954));
#250 = CARTESIAN_POINT('',(1757.3888955394109,746.91969460619669,
    3.6314952533645952));
#251 = CARTESIAN_POINT('',(1757.3002987619532,746.72219874150562,
    3.3925316699216403));
#252 = CARTESIAN_POINT('',(1757.105138149607,746.31453850008972,
    2.8258518461658064));
#253 = CARTESIAN_POINT('',(1757.0014900872375,746.11937868248856,
    2.4936770886348842));
#254 = CARTESIAN_POINT('',(1756.9074197664115,745.95565027916768,
    2.1515624582570418));
#255 = CARTESIAN_POINT('',(1756.8260034914672,745.82216997607532,
    1.8060188666708774));
#256 = CARTESIAN_POINT('',(1756.7577499063925,745.7152550911444,
    1.4519513128954418));
#257 = CARTESIAN_POINT('',(1756.7046671019332,745.6345911879506,
    1.0901232953444948));
#258 = CARTESIAN_POINT('',(1756.6696271182661,745.58219869201969,
    0.72822700364786064));
#259 = CARTESIAN_POINT('',(1756.6518375655014,745.55555886503157,
    0.36420833173234574));
#260 = CARTESIAN_POINT('',(1756.6518325106242,745.55555129958395,
    -0.46891932134071884));
#261 = CARTESIAN_POINT('',(1756.681066528268,745.59929681393328,
    -0.93837138760838901));
#262 = CARTESIAN_POINT('',(1756.7408837824034,745.68885183887153,
    -1.4097073050427711));
#263 = CARTESIAN_POINT('',(1756.8255525302113,745.81881134583534,
    -1.8559903411750212));
#264 = CARTESIAN_POINT('',(1756.9376711929729,745.99948804161102,
    -2.3181806016342921));
#265 = CARTESIAN_POINT('',(1757.0657063038329,746.22353471339568,
    -2.7444666447253825));
#266 = CARTESIAN_POINT('',(1757.210227242178,746.50153788911905,
    -3.1691565000579152));
#267 = CARTESIAN_POINT('',(1757.3647380333005,746.84399116638474,
    -3.5723535839404001));
#268 = CARTESIAN_POINT('',(1757.5640773046005,747.39170402431694,
    -4.0536150948547025));
#269 = CARTESIAN_POINT('',(1757.6104020489161,747.52660116181698,
    -4.1626346262966898));
#270 = CARTESIAN_POINT('',(1757.656239542252,747.66900838659103,
    -4.2679760711838881));
#271 = CARTESIAN_POINT('',(1757.7011722485295,747.81923570254071,
    -4.3690175813309189));
#272 = CARTESIAN_POINT('',(1757.7447016637061,747.97753581714153,
    -4.4650017379855935));
#273 = CARTESIAN_POINT('',(1757.786256708127,748.14407066335298,
    -4.5550493293387611));
#274 = CARTESIAN_POINT('',(1757.8252021188796,748.31887792151417,
    -4.6381731280379181));
#275 = CARTESIAN_POINT('',(1757.860846842146,748.50183754125453,
    -4.7132916686975399));
#276 = CARTESIAN_POINT('',(1757.9301454189904,748.92018825903074,
    -4.8578969778936276));
#277 = CARTESIAN_POINT('',(1757.9622247167406,749.15915193084095,
    -4.9237277574893366));
#278 = CARTESIAN_POINT('',(1757.9870172970855,749.4077480865634,
    -4.97399013633318));
#279 = CARTESIAN_POINT('',(1758.0032578742112,749.66332262230901,
    -5.0066406552881606));
#280 = CARTESIAN_POINT('',(1758.0101302318301,749.92265888132272,
    -5.0203853038035895));
#281 = CARTESIAN_POINT('',(1758.0073085567963,750.18228801274938,
    -5.014727199787961));
#282 = CARTESIAN_POINT('',(1757.9949987727241,750.43879933039705,
    -4.9900142694623941));
#283 = CARTESIAN_POINT('',(1757.9739798736045,750.68915067150192,
    -4.947486927233907));
#284 = CARTESIAN_POINT('',(1757.8994639210339,751.32512364258514,
    -4.794531436932127));
#285 = CARTESIAN_POINT('',(1757.8336136066275,751.69662789419306,
    -4.6578635250126528));
#286 = CARTESIAN_POINT('',(1757.7534114872087,752.03481776305568,
    -4.4880567884501215));
#287 = CARTESIAN_POINT('',(1757.6648541881136,752.34043541869164,
    -4.2941286530833995));
#288 = CARTESIAN_POINT('',(1757.5730480879629,752.61399706201178,
    -4.0846820641163273));
#289 = CARTESIAN_POINT('',(1757.4806158675201,752.85899037030345,
    -3.8634872994088769));
#290 = CARTESIAN_POINT('',(1757.3888955388595,753.08030539513629,
    -3.6314952520412653));
#291 = CARTESIAN_POINT('',(1757.3002987616167,753.27780125910942,
    -3.3925316688244385));
#292 = CARTESIAN_POINT('',(1757.1051381503389,753.68546149849647,
    -2.8258518484585182));
#293 = CARTESIAN_POINT('',(1757.0014867488676,753.88062712850228,
    -2.4936739444073326));
#294 = CARTESIAN_POINT('',(1756.9074263625378,754.04433695128535,
    -2.1515529796770236));
#295 = CARTESIAN_POINT('',(1756.8260094760403,754.17782452278084,
    -1.8060818918763037));
#296 = CARTESIAN_POINT('',(1756.7577207347472,754.28479169665286,
    -1.4518798088531439));
#297 = CARTESIAN_POINT('',(1756.7046420292199,754.36544288548998,
    -1.0898882213167067));
#298 = CARTESIAN_POINT('',(1756.6696723797772,754.41773423558766,
    -0.72827476091680721));
#299 = CARTESIAN_POINT('',(1756.6518353542647,754.44444444444446,
    -0.36462827462892339));
#300 = CARTESIAN_POINT('',(1756.6518353542649,754.44444444444434,
    -1.7763568394002505e-15));
#301 = CARTESIAN_POINT('',(1756.9487922897229,753.99999999999989,
    6.9388939039072284e-18));
#302 = CARTESIAN_POINT('',(1756.9487922897229,753.99999999999989,
    0.31795326898636933));
#303 = CARTESIAN_POINT('',(1756.9651226813223,753.97164076281274,
    0.63671667113475972));
#304 = CARTESIAN_POINT('',(1756.9978133786537,753.91491497873858,
    0.95388527188103589));
#305 = CARTESIAN_POINT('',(1757.046315558084,753.82931583639765,
    1.2670942806977061));
#306 = CARTESIAN_POINT('',(1757.1088069173486,753.71510777537605,
    1.573225067832436));
#307 = CARTESIAN_POINT('',(1757.1825334593209,753.5730723011344,
    1.8690568877761395));
#308 = CARTESIAN_POINT('',(1757.2645299414066,753.40361947216866,
    2.1523106438089861));
#309 = CARTESIAN_POINT('',(1757.352004340398,753.20623702392197,
    2.4216751580731173));
#310 = CARTESIAN_POINT('',(1757.5031612678656,752.82504417565826,
    2.8477650124067342));
#311 = CARTESIAN_POINT('',(1757.5660808856098,752.65527303803253,
    3.0143037921686116));
#312 = CARTESIAN_POINT('',(1757.6290828743097,752.47152844787854,
    3.1723994785129062));
#313 = CARTESIAN_POINT('',(1757.6910423356867,752.27298679751357,
    3.3209763950648221));
#314 = CARTESIAN_POINT('',(1757.7506639287456,752.05900362651471,
    3.4586543655903483));
#315 = CARTESIAN_POINT('',(1757.8063811776178,751.82981419025919,
    3.5835325042262638));
#316 = CARTESIAN_POINT('',(1757.8564236847737,751.58652523734952,
    3.693258908447949));
#317 = CARTESIAN_POINT('',(1757.8991085252985,751.33023855876343,
    3.7854972195178833));
#318 = CARTESIAN_POINT('',(1757.957648946207,750.86920898429469,
    3.9107562225582848));
#319 = CARTESIAN_POINT('',(1757.9775196226458,750.67227449298832,
    3.952835301421127));
#320 = CARTESIAN_POINT('',(1757.9924516727663,750.47108693152916,
    3.9842238981850278));
#321 = CARTESIAN_POINT('',(1758.0020341087468,750.26711442309113,
    4.0042739683931323));
#322 = CARTESIAN_POINT('',(1758.006025488939,750.06164683667157,
    4.0126114093776071));
#323 = CARTESIAN_POINT('',(1758.0043553927935,749.85590548876428,
    4.0091353049245058));
#324 = CARTESIAN_POINT('',(1757.9971114543232,749.65113365399395,
    3.993989070144349));
#325 = CARTESIAN_POINT('',(1757.9845100153707,749.44866948001516,
    3.9674999745230517));
#326 = CARTESIAN_POINT('',(1757.9385240524098,748.93133072596777,
    3.8700748815413841));
#327 = CARTESIAN_POINT('',(1757.897541563771,748.62605597195591,
    3.7827215470838507));
#328 = CARTESIAN_POINT('',(1757.8462158570396,748.3396552238919,
    3.6720246972643551));
#329 = CARTESIAN_POINT('',(1757.7856472785538,748.0686032530183,
    3.5387954347528594));
#330 = CARTESIAN_POINT('',(1757.7193419013058,747.81786731992736,
    3.3885420876018424));
#331 = CARTESIAN_POINT('',(1757.6496120872516,747.58786735480726,
    3.2239793301331163));
#332 = CARTESIAN_POINT('',(1757.5775311798213,747.37444112009302,
    3.0452512288498523));
#333 = CARTESIAN_POINT('',(1757.5059928700309,747.18116390960381,
    2.8566719148105939));
#334 = CARTESIAN_POINT('',(1757.3472857643446,746.78314087476792,
    2.407124611809552));
#335 = CARTESIAN_POINT('',(1757.2605366661876,746.58813257920997,
    2.1387050369122034));
#336 = CARTESIAN_POINT('',(1757.17960797928,746.42127161299675,
    1.8567135546457769));
#337 = CARTESIAN_POINT('',(1757.1068022711736,746.28127846085067,
    1.563508814940207));
#338 = CARTESIAN_POINT('',(1757.0450353737899,746.16846182406709,
    1.2591786161752108));
#339 = CARTESIAN_POINT('',(1756.9971606885481,746.08392540670616,
    0.94727418483504322));
#340 = CARTESIAN_POINT('',(1756.9649073448336,746.02797425430617,
    0.63267973569677982));
#341 = CARTESIAN_POINT('',(1756.9487914081019,745.99999915920228,
    0.31565488867141456));
#342 = CARTESIAN_POINT('',(1756.9487934244682,746.00000108273537,
    -0.40653135457681144));
#343 = CARTESIAN_POINT('',(1756.9754891260473,746.04630391085732,
    -0.81601386403060761));
#344 = CARTESIAN_POINT('',(1757.0296305863474,746.14048155059379,
    -1.2238324435974752));
#345 = CARTESIAN_POINT('',(1757.1087316554358,746.28123770577042,
    -1.6180382373468321));
#346 = CARTESIAN_POINT('',(1757.2082386449267,746.46990875206393,
    -2.0020770048040171));
#347 = CARTESIAN_POINT('',(1757.3210085488859,746.70348034189715,
    -2.3612937073347986));
#348 = CARTESIAN_POINT('',(1757.44114776468,746.98346730485196,
    -2.6984066726060814));
#349 = CARTESIAN_POINT('',(1757.5611777866798,747.31163742685715,
    -3.004370921877054));
#350 = CARTESIAN_POINT('',(1757.7076532318831,747.80889658520721,
    -3.3551598670091027));
#351 = CARTESIAN_POINT('',(1757.741919286168,747.93304308575205,
    -3.4353856108821148));
#352 = CARTESIAN_POINT('',(1757.7750932745694,748.06235771487832,
    -3.5114997447222764));
#353 = CARTESIAN_POINT('',(1757.8068612172167,748.1967735510583,
    -3.5831102675537574));
#354 = CARTESIAN_POINT('',(1757.8368942505526,748.33613132664334,
    -3.6497950180907073));
#355 = CARTESIAN_POINT('',(1757.8648622906417,748.48023730703915,
    -3.711119478458043));
#356 = CARTESIAN_POINT('',(1757.8904499294536,748.62892401807255,
    -3.7666585665498236));
#357 = CARTESIAN_POINT('',(1757.9133747766498,748.78211396087147,
    -3.8160227332334085));
#358 = CARTESIAN_POINT('',(1757.957648946197,749.13079101563653,
    -3.9107562225390375));
#359 = CARTESIAN_POINT('',(1757.9775196226403,749.3277255069554,
    -3.9528353014104685));
#360 = CARTESIAN_POINT('',(1757.9924516727667,749.52891306844708,
    -3.9842238981853453));
#361 = CARTESIAN_POINT('',(1758.0020341087497,749.73288557690762,
    -4.0042739683992199));
#362 = CARTESIAN_POINT('',(1758.0060254889404,749.93835316333252,
    -4.0126114093800052));
#363 = CARTESIAN_POINT('',(1758.0043553927924,750.14409451123527,
    -4.0091353049229852));
#364 = CARTESIAN_POINT('',(1757.9971114543212,750.34886634600252,
    -3.9939890701409206));
#365 = CARTESIAN_POINT('',(1757.9845100153707,750.55133051998462,
    -3.967499974523057));
#366 = CARTESIAN_POINT('',(1757.9385240524125,751.06866927400233,
    -3.8700748815471289));
#367 = CARTESIAN_POINT('',(1757.8975415636576,751.37394402827783,
    -3.7827215468219606));
#368 = CARTESIAN_POINT('',(1757.8462158574237,751.66034477509425,
    -3.6720246981452167));
#369 = CARTESIAN_POINT('',(1757.7856472782116,751.93139674787653,
    -3.5387954339673127));
#370 = CARTESIAN_POINT('',(1757.7193419011871,752.18213268024522,
    -3.3885420873094181));
#371 = CARTESIAN_POINT('',(1757.6496120878937,752.41213264349335,
    -3.2239793316348995));
#372 = CARTESIAN_POINT('',(1757.5775311795155,752.62555888099689,
    -3.0452512282096342));
#373 = CARTESIAN_POINT('',(1757.5059928695268,752.81883609149816,
    -2.8566719134012124));
#374 = CARTESIAN_POINT('',(1757.3472857649285,753.21685912385919,
    -2.4071246135808497));
#375 = CARTESIAN_POINT('',(1757.2605392928876,753.4118642662479,
    -2.1387067324567264));
#376 = CARTESIAN_POINT('',(1757.179599949412,753.57873895495857,
    -1.8567099903995614));
#377 = CARTESIAN_POINT('',(1757.106809755476,753.71870890637058,
    -1.5635057807834367));
#378 = CARTESIAN_POINT('',(1757.0450407504829,753.83153623741748,
    -1.259197252761332));
#379 = CARTESIAN_POINT('',(1756.9971550862515,753.91608810777905,
    -0.9472725476287579));
#380 = CARTESIAN_POINT('',(1756.9649216741352,753.97199445535125,
    -0.6326547934102571));
#381 = CARTESIAN_POINT('',(1756.9487922897229,753.99999999999989,
    -0.31585154878245469));
#382 = CARTESIAN_POINT('',(1756.9487922897229,753.99999999999989,
    -4.6627198629911604e-15));
#383 = CARTESIAN_POINT('',(1757.483314773548,754,0));
#384 = CARTESIAN_POINT('',(1757.4833147735478,754,0.29335004319807323));
#385 = CARTESIAN_POINT('',(1757.5035785635705,753.97576507098267,
    0.58616672343758314));
#386 = CARTESIAN_POINT('',(1757.5438399236907,753.9276194490842,
    0.877558758877654));
#387 = CARTESIAN_POINT('',(1757.6036799188719,753.85498110573053,
    1.1668143250579561));
#388 = CARTESIAN_POINT('',(1757.681529305713,753.75752693013885,
    1.4523615929759379));
#389 = CARTESIAN_POINT('',(1757.7750529203615,753.63491594580455,
    1.732497006697008));
#390 = CARTESIAN_POINT('',(1757.8819222933826,753.48591455987685,
    2.0063736105438466));
#391 = CARTESIAN_POINT('',(1757.9999827373813,753.30776784436682,
    2.2737417359096277));
#392 = CARTESIAN_POINT('',(1758.2100811148932,752.95530602163228,
    2.7048171796991496));
#393 = CARTESIAN_POINT('',(1758.2978914254288,752.79903858182513,
    2.8736991827949638));
#394 = CARTESIAN_POINT('',(1758.3880038419315,752.62716904092588,
    3.0375714716757125));
#395 = CARTESIAN_POINT('',(1758.4794951839262,752.43786625153734,
    3.195862996496194));
#396 = CARTESIAN_POINT('',(1758.5709941620185,752.22901870491523,
    3.3473970824857977));
#397 = CARTESIAN_POINT('',(1758.6602509823813,751.99888462481908,
    3.48982693114987));
#398 = CARTESIAN_POINT('',(1758.7440497270181,751.74653085689476,
    3.6195500931052451));
#399 = CARTESIAN_POINT('',(1758.8184635097987,751.47206055359993,
    3.732101912550231));
#400 = CARTESIAN_POINT('',(1758.9217355063447,750.97180985981595,
    3.886066207290451));
#401 = CARTESIAN_POINT('',(1758.9576896137301,750.75678241001924,
    3.9388293640850636));
#402 = CARTESIAN_POINT('',(1758.9854615897805,750.53308141907803,
    3.9791265146679899));
#403 = CARTESIAN_POINT('',(1759.0036484938455,750.30306894668058,
    4.0053156708091766));
#404 = CARTESIAN_POINT('',(1759.0113442423576,750.06964249685734,
    4.0163486908851471));
#405 = CARTESIAN_POINT('',(1759.0081862659151,749.83594251643694,
    4.0118162156459611));
#406 = CARTESIAN_POINT('',(1758.9944021663705,749.60505989350395,
    3.9919926039650004));
#407 = CARTESIAN_POINT('',(1758.9708563739132,749.3797434558544,
    3.9578808686063001));
#408 = CARTESIAN_POINT('',(1758.8873332875678,748.80739221108411,
    3.8352684302506743));
#409 = CARTESIAN_POINT('',(1758.8134487800601,748.47283114001925,
    3.7256536908083291));
#410 = CARTESIAN_POINT('',(1758.7235122054858,748.16889764194457,
    3.5898275138505875));
#411 = CARTESIAN_POINT('',(1758.6239073079232,747.89350391744165,
    3.4343686906636006));
#412 = CARTESIAN_POINT('',(1758.5206381491412,747.64718544523168,
    3.266736579283827));
#413 = CARTESIAN_POINT('',(1758.4166729620422,747.42694793836051,
    3.0898860159428891));
#414 = CARTESIAN_POINT('',(1758.3132915326164,747.22742142879542,
    2.9040012765274388));
#415 = CARTESIAN_POINT('',(1758.2135715789182,747.04978938676584,
    2.7129568799033836));
#416 = CARTESIAN_POINT('',(1757.9937166725472,746.68278168394693,
    2.2595073079672465));
#417 = CARTESIAN_POINT('',(1757.8767867002709,746.50686951343289,
    1.9932767952101611));
#418 = CARTESIAN_POINT('',(1757.7713629821249,746.36038694863839,
    1.72117404013499));
#419 = CARTESIAN_POINT('',(1757.6790868222504,746.23937491283777,
    1.443382607431658));
#420 = CARTESIAN_POINT('',(1757.6021348001884,746.14304628799516,
    1.1593131753314387));
#421 = CARTESIAN_POINT('',(1757.5430041649922,746.07146289158061,
    0.87144438176029615));
#422 = CARTESIAN_POINT('',(1757.5033197708442,746.0239116479147,
    0.58266151669320576));
#423 = CARTESIAN_POINT('',(1757.483313481614,745.99999800085538,
    0.29127004094006914));
#424 = CARTESIAN_POINT('',(1757.4833164363913,746.00000257477723,
    -0.37516958607867279));
#425 = CARTESIAN_POINT('',(1757.5163678126287,746.03955794815556,
    -0.75023312534450559));
#426 = CARTESIAN_POINT('',(1757.582791932608,746.11883156877445,
    -1.1230839138586852));
#427 = CARTESIAN_POINT('',(1757.6796735397527,746.23798541692145,
    -1.4894535684065227));
#428 = CARTESIAN_POINT('',(1757.8042959733259,746.39808359774111,
    -1.8484481855364545));
#429 = CARTESIAN_POINT('',(1757.9496565910426,746.60143889745723,
    -2.1968598711233662));
#430 = CARTESIAN_POINT('',(1758.1121016319016,746.85107826163699,
    -2.5337085896503573));
#431 = CARTESIAN_POINT('',(1758.2861679150728,747.15938007084515,
    -2.8567518391285422));
#432 = CARTESIAN_POINT('',(1758.5104885848591,747.65239509191804,
    -3.2419184775601302));
#433 = CARTESIAN_POINT('',(1758.5626046078492,747.77380549985537,
    -3.3291761003045361));
#434 = CARTESIAN_POINT('',(1758.614162486577,747.90200634241876,
    -3.4135127788794635));
#435 = CARTESIAN_POINT('',(1758.6646887038025,748.03727321517545,
    -3.4944292567938313));
#436 = CARTESIAN_POINT('',(1758.7136153041856,748.17980383443228,
    -3.5713079725777974));
#437 = CARTESIAN_POINT('',(1758.7602940248446,748.32971050182221,
    -3.6434322496552558));
#438 = CARTESIAN_POINT('',(1758.8040104259153,748.48701256889126,
    -3.71000548620054));
#439 = CARTESIAN_POINT('',(1758.8439980211092,748.65162890168506,
    -3.77017034501098));
#440 = CARTESIAN_POINT('',(1758.9217355063331,749.02819014012368,
    -3.8860662072718379));
#441 = CARTESIAN_POINT('',(1758.9576896137221,749.24321758992357,
    -3.9388293640731096));
#442 = CARTESIAN_POINT('',(1758.9854615897789,749.46691858088843,
    -3.9791265146666674));
#443 = CARTESIAN_POINT('',(1759.0036484938475,749.69693105330703,
    -4.0053156708127542));
#444 = CARTESIAN_POINT('',(1759.011344242359,749.93035750314107,
    -4.0163486908879502));
#445 = CARTESIAN_POINT('',(1759.0081862659147,750.1640574835634,
    -4.0118162156449984));
#446 = CARTESIAN_POINT('',(1758.9944021663694,750.3949401064956,
    -3.9919926039628026));
#447 = CARTESIAN_POINT('',(1758.9708563739132,750.62025654414504,
    -3.9578808686062685));
#448 = CARTESIAN_POINT('',(1758.8873332875728,751.19260778888167,
    -3.8352684302581475));
#449 = CARTESIAN_POINT('',(1758.8134487799609,751.52716886013297,
    -3.725653690593461));
#450 = CARTESIAN_POINT('',(1758.7235122058808,751.83110235724621,
    -3.5898275146308349));
#451 = CARTESIAN_POINT('',(1758.6239073075531,752.10649608326412,
    -3.434368689963343));
#452 = CARTESIAN_POINT('',(1758.5206381490739,752.352814554872,
    -3.2667365790494531));
#453 = CARTESIAN_POINT('',(1758.4166729627932,752.5730520601835,
    -3.0898860173752531));
#454 = CARTESIAN_POINT('',(1758.3132915321214,752.77257857223822,
    -2.9040012758243003));
#455 = CARTESIAN_POINT('',(1758.2135715783261,752.9502106142221,
    -2.7129568785250719));
#456 = CARTESIAN_POINT('',(1757.9937166733216,753.31721831484629,
    -2.2595073096646674));
#457 = CARTESIAN_POINT('',(1757.8767901802776,753.49312515102588,
    -1.9932781133308));
#458 = CARTESIAN_POINT('',(1757.7713526431344,753.63962862119388,
    -1.7211789436772877));
#459 = CARTESIAN_POINT('',(1757.6790957494604,753.76061302525454,
    -1.4433511757063004));
#460 = CARTESIAN_POINT('',(1757.6021417953025,753.8569387386591,
    -1.1593557329290709));
#461 = CARTESIAN_POINT('',(1757.5429968099743,753.92854360599972,
    -0.87151746635959715));
#462 = CARTESIAN_POINT('',(1757.5033372985849,753.97607153847662,
    -0.5825974256360823));
#463 = CARTESIAN_POINT('',(1757.4833147735478,754,-0.29141095010096107)
  );
#464 = CARTESIAN_POINT('',(1757.483314773548,754,-9.7971743931788257e-16
    ));
#465 = DEFINITIONAL_REPRESENTATION('',(#466),#470);
#466 = LINE('',#467,#468);
#467 = CARTESIAN_POINT('',(0,0));
#468 = VECTOR('',#469,1);
#469 = DIRECTION('',(0,1));
#470 = ( GEOMETRIC_REPRESENTATION_CONTEXT(2) 
PARAMETRIC_REPRESENTATION_CONTEXT() REPRESENTATION_CONTEXT('2D SPACE',''
  ) );
#471 = FACE_BOUND('',#472,.T.);
#472 = EDGE_LOOP('',(#473,#498,#525,#526));
#473 = ORIENTED_EDGE('',*,*,#474,.T.);
#474 = EDGE_CURVE('',#475,#477,#479,.T.);
#475 = VERTEX_POINT('',#476);
#476 = CARTESIAN_POINT('',(1742,750,-12));
#477 = VERTEX_POINT('',#478);
#478 = CARTESIAN_POINT('',(1742,750,12));
#479 = SEAM_CURVE('',#480,(#484,#491),.PCURVE_S1.);
#480 = LINE('',#481,#482);
#481 = CARTESIAN_POINT('',(1742,750,-12));
#482 = VECTOR('',#483,1);
#483 = DIRECTION('',(0,0,1));
#484 = PCURVE('',#109,#485);
#485 = DEFINITIONAL_REPRESENTATION('',(#486),#490);
#486 = LINE('',#487,#488);
#487 = CARTESIAN_POINT('',(6.2831853071795862,-0));
#488 = VECTOR('',#489,1);
#489 = DIRECTION('',(0,1));
#490 = ( GEOMETRIC_REPRESENTATION_CONTEXT(2) 
PARAMETRIC_REPRESENTATION_CONTEXT() REPRESENTATION_CONTEXT('2D SPACE',''
  ) );
#491 = PCURVE('',#109,#492);
#492 = DEFINITIONAL_REPRESENTATION('',(#493),#497);
#493 = LINE('',#494,#495);
#494 = CARTESIAN_POINT('',(0,-0));
#495 = VECTOR('',#496,1);
#496 = DIRECTION('',(0,1));
#497 = ( GEOMETRIC_REPRESENTATION_CONTEXT(2) 
PARAMETRIC_REPRESENTATION_CONTEXT() REPRESENTATION_CONTEXT('2D SPACE',''
  ) );
#498 = ORIENTED_EDGE('',*,*,#499,.F.);
#499 = EDGE_CURVE('',#477,#477,#500,.T.);
#500 = SURFACE_CURVE('',#501,(#506,#513),.PCURVE_S1.);
#501 = CIRCLE('',#502,8);
#502 = AXIS2_PLACEMENT_3D('',#503,#504,#505);
#503 = CARTESIAN_POINT('',(1750,750,12));
#504 = DIRECTION('',(0,0,1));
#505 = DIRECTION('',(-1,0,0));
#506 = PCURVE('',#109,#507);
#507 = DEFINITIONAL_REPRESENTATION('',(#508),#512);
#508 = LINE('',#509,#510);
#509 = CARTESIAN_POINT('',(0,24));
#510 = VECTOR('',#511,1);
#511 = DIRECTION('',(1,0));
#512 = ( GEOMETRIC_REPRESENTATION_CONTEXT(2) 
PARAMETRIC_REPRESENTATION_CONTEXT() REPRESENTATION_CONTEXT('2D SPACE',''
  ) );
#513 = PCURVE('',#514,#519);
#514 = PLANE('',#515);
#515 = AXIS2_PLACEMENT_3D('',#516,#517,#518);
#516 = CARTESIAN_POINT('',(1750,750,12));
#517 = DIRECTION('',(0,0,1));
#518 = DIRECTION('',(-1,0,0));
#519 = DEFINITIONAL_REPRESENTATION('',(#520),#524);
#520 = CIRCLE('',#521,8);
#521 = AXIS2_PLACEMENT_2D('',#522,#523);
#522 = CARTESIAN_POINT('',(0,0));
#523 = DIRECTION('',(1,0));
#524 = ( GEOMETRIC_REPRESENTATION_CONTEXT(2) 
PARAMETRIC_REPRESENTATION_CONTEXT() REPRESENTATION_CONTEXT('2D SPACE',''
  ) );
#525 = ORIENTED_EDGE('',*,*,#474,.F.);
#526 = ORIENTED_EDGE('',*,*,#527,.T.);
#527 = EDGE_CURVE('',#475,#475,#528,.T.);
#528 = SURFACE_CURVE('',#529,(#534,#541),.PCURVE_S1.);
#529 = CIRCLE('',#530,8);
#530 = AXIS2_PLACEMENT_3D('',#531,#532,#533);
#531 = CARTESIAN_POINT('',(1750,750,-12));
#532 = DIRECTION('',(0,0,1));
#533 = DIRECTION('',(-1,0,0));
#534 = PCURVE('',#109,#535);
#535 = DEFINITIONAL_REPRESENTATION('',(#536),#540);
#536 = LINE('',#537,#538);
#537 = CARTESIAN_POINT('',(0,0));
#538 = VECTOR('',#539,1);
#539 = DIRECTION('',(1,0));
#540 = ( GEOMETRIC_REPRESENTATION_CONTEXT(2) 
PARAMETRIC_REPRESENTATION_CONTEXT() REPRESENTATION_CONTEXT('2D SPACE',''
  ) );
#541 = PCURVE('',#542,#547);
#542 = PLANE('',#543);
#543 = AXIS2_PLACEMENT_3D('',#544,#545,#546);
#544 = CARTESIAN_POINT('',(1750,750,-12));
#545 = DIRECTION('',(0,0,1));
#546 = DIRECTION('',(-1,0,0));
#547 = DEFINITIONAL_REPRESENTATION('',(#548),#552);
#548 = CIRCLE('',#549,8);
#549 = AXIS2_PLACEMENT_2D('',#550,#551);
#550 = CARTESIAN_POINT('',(0,0));
#551 = DIRECTION('',(1,0));
#552 = ( GEOMETRIC_REPRESENTATION_CONTEXT(2) 
PARAMETRIC_REPRESENTATION_CONTEXT() REPRESENTATION_CONTEXT('2D SPACE',''
  ) );
#553 = ADVANCED_FACE('',(#554),#218,.F.);
#554 = FACE_BOUND('',#555,.F.);
#555 = EDGE_LOOP('',(#556,#577,#779,#780));
#556 = ORIENTED_EDGE('',*,*,#557,.T.);
#557 = EDGE_CURVE('',#22,#558,#560,.T.);
#558 = VERTEX_POINT('',#559);
#559 = CARTESIAN_POINT('',(1757.483314773548,754,0));
#560 = SEAM_CURVE('',#561,(#565,#571),.PCURVE_S1.);
#561 = ( BOUNDED_CURVE() B_SPLINE_CURVE(2,(#562,#563,#564),
.UNSPECIFIED.,.F.,.F.) B_SPLINE_CURVE_WITH_KNOTS((3,3),(0,
25.5779556629486),.PIECEWISE_BEZIER_KNOTS.) CURVE() 
GEOMETRIC_REPRESENTATION_ITEM() RATIONAL_B_SPLINE_CURVE((1,
0.88191710368819853,1)) REPRESENTATION_ITEM('') );
#562 = CARTESIAN_POINT('',(1756.6518353542649,754.44444444444434,
    -1.7763568394002505e-15));
#563 = CARTESIAN_POINT('',(1756.9487922897229,753.99999999999989,
    6.9388939039072284e-18));
#564 = CARTESIAN_POINT('',(1757.483314773548,754,0));
#565 = PCURVE('',#218,#566);
#566 = DEFINITIONAL_REPRESENTATION('',(#567),#570);
#567 = B_SPLINE_CURVE_WITH_KNOTS('',1,(#568,#569),.UNSPECIFIED.,.F.,.F.,
  (2,2),(0,25.5779556629486),.PIECEWISE_BEZIER_KNOTS.);
#568 = CARTESIAN_POINT('',(0,1.5332198350056357e-15));
#569 = CARTESIAN_POINT('',(25.5779556629486,1.5332198350056357e-15));
#570 = ( GEOMETRIC_REPRESENTATION_CONTEXT(2) 
PARAMETRIC_REPRESENTATION_CONTEXT() REPRESENTATION_CONTEXT('2D SPACE',''
  ) );
#571 = PCURVE('',#218,#572);
#572 = DEFINITIONAL_REPRESENTATION('',(#573),#576);
#573 = B_SPLINE_CURVE_WITH_KNOTS('',1,(#574,#575),.UNSPECIFIED.,.F.,.F.,
  (2,2),(0,25.5779556629486),.PIECEWISE_BEZIER_KNOTS.);
#574 = CARTESIAN_POINT('',(0,25.5779556629486));
#575 = CARTESIAN_POINT('',(25.5779556629486,25.5779556629486));
#576 = ( GEOMETRIC_REPRESENTATION_CONTEXT(2) 
PARAMETRIC_REPRESENTATION_CONTEXT() REPRESENTATION_CONTEXT('2D SPACE',''
  ) );
#577 = ORIENTED_EDGE('',*,*,#578,.T.);
#578 = EDGE_CURVE('',#558,#558,#579,.T.);
#579 = SURFACE_CURVE('',#580,(#663,#670),.PCURVE_S1.);
#580 = ( BOUNDED_CURVE() B_SPLINE_CURVE(9,(#581,#582,#583,#584,#585,#586
    ,#587,#588,#589,#590,#591,#592,#593,#594,#595,#596,#597,#598,#599,
    #600,#601,#602,#603,#604,#605,#606,#607,#608,#609,#610,#611,#612,
    #613,#614,#615,#616,#617,#618,#619,#620,#621,#622,#623,#624,#625,
    #626,#627,#628,#629,#630,#631,#632,#633,#634,#635,#636,#637,#638,
    #639,#640,#641,#642,#643,#644,#645,#646,#647,#648,#649,#650,#651,
    #652,#653,#654,#655,#656,#657,#658,#659,#660,#661,#662),
.UNSPECIFIED.,.T.,.F.) B_SPLINE_CURVE_WITH_KNOTS((10,8,8,8,8,8,8,8,8,8,
    10),(1.5332198350056357e-15,3.303020558319977,5.5146852877943662,
    7.0480141230547719,9.5471189032995323,12.81631558224959,
    17.026490547715319,18.306817883378717,19.833743339330386,
22.322411534941331,25.5779556629486),.UNSPECIFIED.) CURVE() 
GEOMETRIC_REPRESENTATION_ITEM() RATIONAL_B_SPLINE_CURVE((1,
    1.0000000000000082,0.99999999999997702,1.000000000000036,
    0.99999999999996136,1.0000000000000291,0.99999999999998568,
    1.0000000000000027,1.0000000000000024,0.99999999999999434,
    1.0000000000000278,0.99999999999995004,1.0000000000000506,
    0.99999999999997014,1.0000000000000069,1.0000000000000044,
    0.99999999999999467,1.0000000000000078,0.99999999999996869,
    1.0000000000000533,0.9999999999999476,1.0000000000000373,
    0.99999999999998035,1.0000000000000051,1.0000000000000024,
    0.99999999999998779,1.0000000000000586,0.99999999999988609,
    1.0000000000001392,0.99999999999987965,1.0000000000000753,
    0.99999999999996758,1.0000000000000091,0.99999999999998612,
    1.0000000000000548,0.99999999999988187,1.0000000000001621,
    0.99999999999984235,1.0000000000001117,0.99999999999994482,
    1.0000000000000167,0.99999999999997546,1.0000000000000928,
    0.99999999999981837,1.0000000000002252,0.99999999999981437,
    1.0000000000001028,0.99999999999996392,1.0000000000000049,
    1.000000000000002,0.99999999999998823,1.0000000000000202,
    0.99999999999998468,1.0000000000000033,1.000000000000006,
    0.99999999999999312,1.0000000000000033,0.99999999999999412,
    1.0000000000000335,0.99999999999992428,1.0000000000001017,
    0.9999999999999043,1.0000000000000657,0.99999999999996714,
    1.0000000000000111,0.99999999999997635,1.0000000000000977,
    0.99999999999980305,1.0000000000002525,0.99999999999977829,
    1.0000000000001359,0.9999999999999426,1.0000000000000147,
    0.99999999999998002,1.0000000000000726,0.99999999999986278,
    1.0000000000001756,0.99999999999983924,1.0000000000001048,
0.99999999999995348,1.0000000000000115,1)) REPRESENTATION_ITEM('') );
#581 = CARTESIAN_POINT('',(1757.483314773548,754,0));
#582 = CARTESIAN_POINT('',(1757.4833147735478,754,0.29335004319807323));
#583 = CARTESIAN_POINT('',(1757.5035785635705,753.97576507098267,
    0.58616672343758314));
#584 = CARTESIAN_POINT('',(1757.5438399236907,753.9276194490842,
    0.877558758877654));
#585 = CARTESIAN_POINT('',(1757.6036799188719,753.85498110573053,
    1.1668143250579561));
#586 = CARTESIAN_POINT('',(1757.681529305713,753.75752693013885,
    1.4523615929759379));
#587 = CARTESIAN_POINT('',(1757.7750529203615,753.63491594580455,
    1.732497006697008));
#588 = CARTESIAN_POINT('',(1757.8819222933826,753.48591455987685,
    2.0063736105438466));
#589 = CARTESIAN_POINT('',(1757.9999827373813,753.30776784436682,
    2.2737417359096277));
#590 = CARTESIAN_POINT('',(1758.2100811148932,752.95530602163228,
    2.7048171796991496));
#591 = CARTESIAN_POINT('',(1758.2978914254288,752.79903858182513,
    2.8736991827949638));
#592 = CARTESIAN_POINT('',(1758.3880038419315,752.62716904092588,
    3.0375714716757125));
#593 = CARTESIAN_POINT('',(1758.4794951839262,752.43786625153734,
    3.195862996496194));
#594 = CARTESIAN_POINT('',(1758.5709941620185,752.22901870491523,
    3.3473970824857977));
#595 = CARTESIAN_POINT('',(1758.6602509823813,751.99888462481908,
    3.48982693114987));
#596 = CARTESIAN_POINT('',(1758.7440497270181,751.74653085689476,
    3.6195500931052451));
#597 = CARTESIAN_POINT('',(1758.8184635097987,751.47206055359993,
    3.732101912550231));
#598 = CARTESIAN_POINT('',(1758.9217355063447,750.97180985981595,
    3.886066207290451));
#599 = CARTESIAN_POINT('',(1758.9576896137301,750.75678241001924,
    3.9388293640850636));
#600 = CARTESIAN_POINT('',(1758.9854615897805,750.53308141907803,
    3.9791265146679899));
#601 = CARTESIAN_POINT('',(1759.0036484938455,750.30306894668058,
    4.0053156708091766));
#602 = CARTESIAN_POINT('',(1759.0113442423576,750.06964249685734,
    4.0163486908851471));
#603 = CARTESIAN_POINT('',(1759.0081862659151,749.83594251643694,
    4.0118162156459611));
#604 = CARTESIAN_POINT('',(1758.9944021663705,749.60505989350395,
    3.9919926039650004));
#605 = CARTESIAN_POINT('',(1758.9708563739132,749.3797434558544,
    3.9578808686063001));
#606 = CARTESIAN_POINT('',(1758.8873332875678,748.80739221108411,
    3.8352684302506743));
#607 = CARTESIAN_POINT('',(1758.8134487800601,748.47283114001925,
    3.7256536908083291));
#608 = CARTESIAN_POINT('',(1758.7235122054858,748.16889764194457,
    3.5898275138505875));
#609 = CARTESIAN_POINT('',(1758.6239073079232,747.89350391744165,
    3.4343686906636006));
#610 = CARTESIAN_POINT('',(1758.5206381491412,747.64718544523168,
    3.266736579283827));
#611 = CARTESIAN_POINT('',(1758.4166729620422,747.42694793836051,
    3.0898860159428891));
#612 = CARTESIAN_POINT('',(1758.3132915326164,747.22742142879542,
    2.9040012765274388));
#613 = CARTESIAN_POINT('',(1758.2135715789182,747.04978938676584,
    2.7129568799033836));
#614 = CARTESIAN_POINT('',(1757.9937166725472,746.68278168394693,
    2.2595073079672465));
#615 = CARTESIAN_POINT('',(1757.8767867002709,746.50686951343289,
    1.9932767952101611));
#616 = CARTESIAN_POINT('',(1757.7713629821249,746.36038694863839,
    1.72117404013499));
#617 = CARTESIAN_POINT('',(1757.6790868222504,746.23937491283777,
    1.443382607431658));
#618 = CARTESIAN_POINT('',(1757.6021348001884,746.14304628799516,
    1.1593131753314387));
#619 = CARTESIAN_POINT('',(1757.5430041649922,746.07146289158061,
    0.87144438176029615));
#620 = CARTESIAN_POINT('',(1757.5033197708442,746.0239116479147,
    0.58266151669320576));
#621 = CARTESIAN_POINT('',(1757.483313481614,745.99999800085538,
    0.29127004094006914));
#622 = CARTESIAN_POINT('',(1757.4833164363913,746.00000257477723,
    -0.37516958607867279));
#623 = CARTESIAN_POINT('',(1757.5163678126287,746.03955794815556,
    -0.75023312534450559));
#624 = CARTESIAN_POINT('',(1757.582791932608,746.11883156877445,
    -1.1230839138586852));
#625 = CARTESIAN_POINT('',(1757.6796735397527,746.23798541692145,
    -1.4894535684065227));
#626 = CARTESIAN_POINT('',(1757.8042959733259,746.39808359774111,
    -1.8484481855364545));
#627 = CARTESIAN_POINT('',(1757.9496565910426,746.60143889745723,
    -2.1968598711233662));
#628 = CARTESIAN_POINT('',(1758.1121016319016,746.85107826163699,
    -2.5337085896503573));
#629 = CARTESIAN_POINT('',(1758.2861679150728,747.15938007084515,
    -2.8567518391285422));
#630 = CARTESIAN_POINT('',(1758.5104885848591,747.65239509191804,
    -3.2419184775601302));
#631 = CARTESIAN_POINT('',(1758.5626046078492,747.77380549985537,
    -3.3291761003045361));
#632 = CARTESIAN_POINT('',(1758.614162486577,747.90200634241876,
    -3.4135127788794635));
#633 = CARTESIAN_POINT('',(1758.6646887038025,748.03727321517545,
    -3.4944292567938313));
#634 = CARTESIAN_POINT('',(1758.7136153041856,748.17980383443228,
    -3.5713079725777974));
#635 = CARTESIAN_POINT('',(1758.7602940248446,748.32971050182221,
    -3.6434322496552558));
#636 = CARTESIAN_POINT('',(1758.8040104259153,748.48701256889126,
    -3.71000548620054));
#637 = CARTESIAN_POINT('',(1758.8439980211092,748.65162890168506,
    -3.77017034501098));
#638 = CARTESIAN_POINT('',(1758.9217355063331,749.02819014012368,
    -3.8860662072718379));
#639 = CARTESIAN_POINT('',(1758.9576896137221,749.24321758992357,
    -3.9388293640731096));
#640 = CARTESIAN_POINT('',(1758.9854615897789,749.46691858088843,
    -3.9791265146666674));
#641 = CARTESIAN_POINT('',(1759.0036484938475,749.69693105330703,
    -4.0053156708127542));
#642 = CARTESIAN_POINT('',(1759.011344242359,749.93035750314107,
    -4.0163486908879502));
#643 = CARTESIAN_POINT('',(1759.0081862659147,750.1640574835634,
    -4.0118162156449984));
#644 = CARTESIAN_POINT('',(1758.9944021663694,750.3949401064956,
    -3.9919926039628026));
#645 = CARTESIAN_POINT('',(1758.9708563739132,750.62025654414504,
    -3.9578808686062685));
#646 = CARTESIAN_POINT('',(1758.8873332875728,751.19260778888167,
    -3.8352684302581475));
#647 = CARTESIAN_POINT('',(1758.8134487799609,751.52716886013297,
    -3.725653690593461));
#648 = CARTESIAN_POINT('',(1758.7235122058808,751.83110235724621,
    -3.5898275146308349));
#649 = CARTESIAN_POINT('',(1758.6239073075531,752.10649608326412,
    -3.434368689963343));
#650 = CARTESIAN_POINT('',(1758.5206381490739,752.352814554872,
    -3.2667365790494531));
#651 = CARTESIAN_POINT('',(1758.4166729627932,752.5730520601835,
    -3.0898860173752531));
#652 = CARTESIAN_POINT('',(1758.3132915321214,752.77257857223822,
    -2.9040012758243003));
#653 = CARTESIAN_POINT('',(1758.2135715783261,752.9502106142221,
    -2.7129568785250719));
#654 = CARTESIAN_POINT('',(1757.9937166733216,753.31721831484629,
    -2.2595073096646674));
#655 = CARTESIAN_POINT('',(1757.8767901802776,753.49312515102588,
    -1.9932781133308));
#656 = CARTESIAN_POINT('',(1757.7713526431344,753.63962862119388,
    -1.7211789436772877));
#657 = CARTESIAN_POINT('',(1757.6790957494604,753.76061302525454,
    -1.4433511757063004));
#658 = CARTESIAN_POINT('',(1757.6021417953025,753.8569387386591,
    -1.1593557329290709));
#659 = CARTESIAN_POINT('',(1757.5429968099743,753.92854360599972,
    -0.87151746635959715));
#660 = CARTESIAN_POINT('',(1757.5033372985849,753.97607153847662,
    -0.5825974256360823));
#661 = CARTESIAN_POINT('',(1757.4833147735478,754,-0.29141095010096107)
  );
#662 = CARTESIAN_POINT('',(1757.483314773548,754,-9.7971743931788257e-16
    ));
#663 = PCURVE('',#218,#664);
#664 = DEFINITIONAL_REPRESENTATION('',(#665),#669);
#665 = LINE('',#666,#667);
#666 = CARTESIAN_POINT('',(25.5779556629486,0));
#667 = VECTOR('',#668,1);
#668 = DIRECTION('',(0,1));
#669 = ( GEOMETRIC_REPRESENTATION_CONTEXT(2) 
PARAMETRIC_REPRESENTATION_CONTEXT() REPRESENTATION_CONTEXT('2D SPACE',''
  ) );
#670 = PCURVE('',#671,#676);
#671 = CYLINDRICAL_SURFACE('',#672,4);
#672 = AXIS2_PLACEMENT_3D('',#673,#674,#675);
#673 = CARTESIAN_POINT('',(1750,750,0));
#674 = DIRECTION('',(1,0,0));
#675 = DIRECTION('',(-0,1,0));
#676 = DEFINITIONAL_REPRESENTATION('',(#677),#778);
#677 = B_SPLINE_CURVE_WITH_KNOTS('',8,(#678,#679,#680,#681,#682,#683,
    #684,#685,#686,#687,#688,#689,#690,#691,#692,#693,#694,#695,#696,
    #697,#698,#699,#700,#701,#702,#703,#704,#705,#706,#707,#708,#709,
    #710,#711,#712,#713,#714,#715,#716,#717,#718,#719,#720,#721,#722,
    #723,#724,#725,#726,#727,#728,#729,#730,#731,#732,#733,#734,#735,
    #736,#737,#738,#739,#740,#741,#742,#743,#744,#745,#746,#747,#748,
    #749,#750,#751,#752,#753,#754,#755,#756,#757,#758,#759,#760,#761,
    #762,#763,#764,#765,#766,#767,#768,#769,#770,#771,#772,#773,#774,
    #775,#776,#777),.UNSPECIFIED.,.F.,.F.,(9,7,7,7,7,7,7,7,7,7,7,7,7,7,9
    ),(1.5332198350056357e-15,3.1972444578685764,4.7958666868028637,
    5.5951778012700073,6.3944889157371509,7.9931111446714382,
    9.5917333736057255,12.7889778314743,15.986222289342876,
    17.584844518277166,18.38415563274431,19.183466747211451,
    20.782088976145737,22.380711205080026,25.5779556629486),
  .UNSPECIFIED.);
#678 = CARTESIAN_POINT('',(-5.5511151231257747e-17,7.4833147735479191));
#679 = CARTESIAN_POINT('',(0.0798625648992351,7.483314773547951));
#680 = CARTESIAN_POINT('',(0.15953359998377198,7.5076282923655855));
#681 = CARTESIAN_POINT('',(0.2396261187891629,7.5563437232698831));
#682 = CARTESIAN_POINT('',(0.32043769973323333,7.6280938805780307));
#683 = CARTESIAN_POINT('',(0.40227488884230811,7.7205370598819707));
#684 = CARTESIAN_POINT('',(0.48568982963095869,7.8306865639194907));
#685 = CARTESIAN_POINT('',(0.57162912013360978,7.955088694046947));
#686 = CARTESIAN_POINT('',(0.70642778556771491,8.1572294640107543));
#687 = CARTESIAN_POINT('',(0.75235071543928067,8.2271950729306198));
#688 = CARTESIAN_POINT('',(0.79938038707793491,8.2991434424099992));
#689 = CARTESIAN_POINT('',(0.84772451980189312,8.3724874788579999));
#690 = CARTESIAN_POINT('',(0.89763448336392049,8.4465240324041435));
#691 = CARTESIAN_POINT('',(0.94935792944247921,8.5203023425170947));
#692 = CARTESIAN_POINT('',(1.0030914231313899,8.5924924836075718));
#693 = CARTESIAN_POINT('',(1.0868539000805963,8.6956344741647591));
#694 = CARTESIAN_POINT('',(1.1153053602380061,8.7291623767940685));
#695 = CARTESIAN_POINT('',(1.1442962667542331,8.7616218344814136));
#696 = CARTESIAN_POINT('',(1.1738388223973215,8.7927683045250085));
#697 = CARTESIAN_POINT('',(1.2039452112992264,8.8223365245807646));
#698 = CARTESIAN_POINT('',(1.2346241894000176,8.85004865164953));
#699 = CARTESIAN_POINT('',(1.2658776748948697,8.8756224010840672));
#700 = CARTESIAN_POINT('',(1.3295170024632732,8.9219359700792431));
#701 = CARTESIAN_POINT('',(1.3618863882145609,8.9426567409045781));
#702 = CARTESIAN_POINT('',(1.3947286149780993,8.9605701793992214));
#703 = CARTESIAN_POINT('',(1.4279615160018251,8.9753745282572641));
#704 = CARTESIAN_POINT('',(1.4614976387394909,8.9868375915372845));
#705 = CARTESIAN_POINT('',(1.495244244846766,8.9947967346474638));
#706 = CARTESIAN_POINT('',(1.5291033101849512,8.9991588843592627));
#707 = CARTESIAN_POINT('',(1.6307079540850355,9.0013838176753627));
#708 = CARTESIAN_POINT('',(1.6985140480335181,8.9884137265351587));
#709 = CARTESIAN_POINT('',(1.765453980427047,8.9608468789709406));
#710 = CARTESIAN_POINT('',(1.8312989150849142,8.9194940009865569));
#711 = CARTESIAN_POINT('',(1.8943173451973561,8.8684127310371252));
#712 = CARTESIAN_POINT('',(1.9552201853117803,8.809272926691138));
#713 = CARTESIAN_POINT('',(2.0137947778029677,8.7447196892997745));
#714 = CARTESIAN_POINT('',(2.1266149072808624,8.6081946459441649));
#715 = CARTESIAN_POINT('',(2.1808712807394595,8.5362180510349521));
#716 = CARTESIAN_POINT('',(2.233040570043257,8.4624423160152435));
#717 = CARTESIAN_POINT('',(2.2834211478568318,8.3881241859958706));
#718 = CARTESIAN_POINT('',(2.3322842923731444,8.3142404751662564));
#719 = CARTESIAN_POINT('',(2.3797816182361062,8.2416648855191799));
#720 = CARTESIAN_POINT('',(2.4260187984129256,8.1711433872329344));
#721 = CARTESIAN_POINT('',(2.5618491341728307,7.9669177076108744));
#722 = CARTESIAN_POINT('',(2.6484960429076327,7.8406477498162301));
#723 = CARTESIAN_POINT('',(2.7319861586929939,7.7293727611737122));
#724 = CARTESIAN_POINT('',(2.8143210996893218,7.6349749697037943));
#725 = CARTESIAN_POINT('',(2.8956812923632884,7.5610505672055348));
#726 = CARTESIAN_POINT('',(2.975869056850144,7.5108897932454441));
#727 = CARTESIAN_POINT('',(3.0559929644934729,7.484835527711776));
#728 = CARTESIAN_POINT('',(3.2162444355349913,7.4818945246251474));
#729 = CARTESIAN_POINT('',(3.2963487794839628,7.5049319098126022));
#730 = CARTESIAN_POINT('',(3.376796389843268,7.5527029408935453));
#731 = CARTESIAN_POINT('',(3.4578761309487351,7.623773266118965));
#732 = CARTESIAN_POINT('',(3.5399657864610594,7.7157576528134824));
#733 = CARTESIAN_POINT('',(3.6236683576294255,7.8257202880725139));
#734 = CARTESIAN_POINT('',(3.7099199468410351,7.9502661501862244));
#735 = CARTESIAN_POINT('',(3.8451438662716031,8.1528521010667916));
#736 = CARTESIAN_POINT('',(3.8912018842383511,8.2230076201228517));
#737 = CARTESIAN_POINT('',(3.9383904540233776,8.2952239082236883));
#738 = CARTESIAN_POINT('',(3.9869158631029693,8.368904198914338));
#739 = CARTESIAN_POINT('',(4.0370121482511028,8.4433121333650245));
#740 = CARTESIAN_POINT('',(4.0889097310247848,8.5174628347311145));
#741 = CARTESIAN_POINT('',(4.1428040532466337,8.5900139825164423));
#742 = CARTESIAN_POINT('',(4.2268342921116941,8.6937283391415932));
#743 = CARTESIAN_POINT('',(4.2553770110880045,8.7274468165406631));
#744 = CARTESIAN_POINT('',(4.2844594454171148,8.7600933936869456));
#745 = CARTESIAN_POINT('',(4.3140951505372191,8.7914233829436501));
#746 = CARTESIAN_POINT('',(4.344299171681274,8.8211724160688156));
#747 = CARTESIAN_POINT('',(4.3750830542341328,8.8490625258150963));
#748 = CARTESIAN_POINT('',(4.4064498540863353,8.8748082275161053));
#749 = CARTESIAN_POINT('',(4.470328441896279,8.9214369738533481));
#750 = CARTESIAN_POINT('',(4.5028236338112997,8.9423027551010801));
#751 = CARTESIAN_POINT('',(4.5357970682165805,8.9603427638025899));
#752 = CARTESIAN_POINT('',(4.569165675988704,8.9752505259040269));
#753 = CARTESIAN_POINT('',(4.6028409744024854,8.9867902739269319));
#754 = CARTESIAN_POINT('',(4.6367290671287105,8.9947969469632501));
#755 = CARTESIAN_POINT('',(4.6707306442361363,8.9991761906801759));
#756 = CARTESIAN_POINT('',(4.7727616580983865,9.0013606905894115));
#757 = CARTESIAN_POINT('',(4.8408509723780337,8.9882426764856849));
#758 = CARTESIAN_POINT('',(4.9080612203081815,8.9604017186187619));
#759 = CARTESIAN_POINT('',(4.9741644945868497,8.9186822069604208));
#760 = CARTESIAN_POINT('',(5.037392987082046,8.8671940736908823));
#761 = CARTESIAN_POINT('',(5.0985019685499591,8.8076266444021716));
#762 = CARTESIAN_POINT('',(5.1572581671899709,8.7426520868719209));
#763 = CARTESIAN_POINT('',(5.2704138462178483,8.605321389666365));
#764 = CARTESIAN_POINT('',(5.3248224011528524,8.5329615793732856));
#765 = CARTESIAN_POINT('',(5.3771344799870304,8.4588326339883384));
#766 = CARTESIAN_POINT('',(5.4276517716154746,8.384197960804924));
#767 = CARTESIAN_POINT('',(5.4766469159841069,8.3100397919967754));
#768 = CARTESIAN_POINT('',(5.5242723128133973,8.237236481051287));
#769 = CARTESIAN_POINT('',(5.5706356684319811,8.1665363514593476));
#770 = CARTESIAN_POINT('',(5.7068555052428529,7.9619115900524156));
#771 = CARTESIAN_POINT('',(5.7937479837666555,7.8355884936299196));
#772 = CARTESIAN_POINT('',(5.8775261227224567,7.7244838156661784));
#773 = CARTESIAN_POINT('',(5.960132705897168,7.630480252109721));
#774 = CARTESIAN_POINT('',(6.0417815142616789,7.5572642221181336));
#775 = CARTESIAN_POINT('',(6.1222914530088675,7.5081415244309753));
#776 = CARTESIAN_POINT('',(6.202693689679986,7.4833147735481038));
#777 = CARTESIAN_POINT('',(6.2831853071795853,7.4833147735479164));
#778 = ( GEOMETRIC_REPRESENTATION_CONTEXT(2) 
PARAMETRIC_REPRESENTATION_CONTEXT() REPRESENTATION_CONTEXT('2D SPACE',''
  ) );
#779 = ORIENTED_EDGE('',*,*,#557,.F.);
#780 = ORIENTED_EDGE('',*,*,#21,.F.);
#781 = ADVANCED_FACE('',(#782),#542,.F.);
#782 = FACE_BOUND('',#783,.T.);
#783 = EDGE_LOOP('',(#784));
#784 = ORIENTED_EDGE('',*,*,#527,.F.);
#785 = ADVANCED_FACE('',(#786),#514,.T.);
#786 = FACE_BOUND('',#787,.T.);
#787 = EDGE_LOOP('',(#788));
#788 = ORIENTED_EDGE('',*,*,#499,.T.);
#789 = ADVANCED_FACE('',(#790),#671,.T.);
#790 = FACE_BOUND('',#791,.T.);
#791 = EDGE_LOOP('',(#792,#815,#842,#843));
#792 = ORIENTED_EDGE('',*,*,#793,.T.);
#793 = EDGE_CURVE('',#558,#794,#796,.T.);
#794 = VERTEX_POINT('',#795);
#795 = CARTESIAN_POINT('',(1766,754,-9.7971743931788119e-16));
#796 = SEAM_CURVE('',#797,(#801,#808),.PCURVE_S1.);
#797 = LINE('',#798,#799);
#798 = CARTESIAN_POINT('',(1750,754,-9.7971743931788119e-16));
#799 = VECTOR('',#800,1);
#800 = DIRECTION('',(1,0,0));
#801 = PCURVE('',#671,#802);
#802 = DEFINITIONAL_REPRESENTATION('',(#803),#807);
#803 = LINE('',#804,#805);
#804 = CARTESIAN_POINT('',(6.2831853071795862,-0));
#805 = VECTOR('',#806,1);
#806 = DIRECTION('',(0,1));
#807 = ( GEOMETRIC_REPRESENTATION_CONTEXT(2) 
PARAMETRIC_REPRESENTATION_CONTEXT() REPRESENTATION_CONTEXT('2D SPACE',''
  ) );
#808 = PCURVE('',#671,#809);
#809 = DEFINITIONAL_REPRESENTATION('',(#810),#814);
#810 = LINE('',#811,#812);
#811 = CARTESIAN_POINT('',(0,-0));
#812 = VECTOR('',#813,1);
#813 = DIRECTION('',(0,1));
#814 = ( GEOMETRIC_REPRESENTATION_CONTEXT(2) 
PARAMETRIC_REPRESENTATION_CONTEXT() REPRESENTATION_CONTEXT('2D SPACE',''
  ) );
#815 = ORIENTED_EDGE('',*,*,#816,.F.);
#816 = EDGE_CURVE('',#794,#794,#817,.T.);
#817 = SURFACE_CURVE('',#818,(#823,#830),.PCURVE_S1.);
#818 = CIRCLE('',#819,4);
#819 = AXIS2_PLACEMENT_3D('',#820,#821,#822);
#820 = CARTESIAN_POINT('',(1766,750,0));
#821 = DIRECTION('',(1,0,0));
#822 = DIRECTION('',(-0,1,0));
#823 = PCURVE('',#671,#824);
#824 = DEFINITIONAL_REPRESENTATION('',(#825),#829);
#825 = LINE('',#826,#827);
#826 = CARTESIAN_POINT('',(0,16));
#827 = VECTOR('',#828,1);
#828 = DIRECTION('',(1,0));
#829 = ( GEOMETRIC_REPRESENTATION_CONTEXT(2) 
PARAMETRIC_REPRESENTATION_CONTEXT() REPRESENTATION_CONTEXT('2D SPACE',''
  ) );
#830 = PCURVE('',#831,#836);
#831 = PLANE('',#832);
#832 = AXIS2_PLACEMENT_3D('',#833,#834,#835);
#833 = CARTESIAN_POINT('',(1766,750,0));
#834 = DIRECTION('',(1,0,0));
#835 = DIRECTION('',(-0,1,0));
#836 = DEFINITIONAL_REPRESENTATION('',(#837),#841);
#837 = CIRCLE('',#838,4);
#838 = AXIS2_PLACEMENT_2D('',#839,#840);
#839 = CARTESIAN_POINT('',(0,0));
#840 = DIRECTION('',(1,0));
#841 = ( GEOMETRIC_REPRESENTATION_CONTEXT(2) 
PARAMETRIC_REPRESENTATION_CONTEXT() REPRESENTATION_CONTEXT('2D SPACE',''
  ) );
#842 = ORIENTED_EDGE('',*,*,#793,.F.);
#843 = ORIENTED_EDGE('',*,*,#578,.T.);
#844 = ADVANCED_FACE('',(#845),#831,.T.);
#845 = FACE_BOUND('',#846,.T.);
#846 = EDGE_LOOP('',(#847));
#847 = ORIENTED_EDGE('',*,*,#816,.T.);
#848 = ( GEOMETRIC_REPRESENTATION_CONTEXT(3) 
GLOBAL_UNCERTAINTY_ASSIGNED_CONTEXT((#852)) GLOBAL_UNIT_ASSIGNED_CONTEXT
((#849,#850,#851)) REPRESENTATION_CONTEXT('Context #1',
  '3D Context with UNIT and UNCERTAINTY') );
#849 = ( LENGTH_UNIT() NAMED_UNIT(*) SI_UNIT(.MILLI.,.METRE.) );
#850 = ( NAMED_UNIT(*) PLANE_ANGLE_UNIT() SI_UNIT($,.RADIAN.) );
#851 = ( NAMED_UNIT(*) SI_UNIT($,.STERADIAN.) SOLID_ANGLE_UNIT() );
#852 = UNCERTAINTY_MEASURE_WITH_UNIT(LENGTH_MEASURE(
    5.0000000000000002e-05),#849,'distance_accuracy_value',
  'confusion accuracy');
#853 = PRODUCT_RELATED_PRODUCT_CATEGORY('part',$,(#7));
ENDSEC;
END-ISO-10303-21;
