ISO-10303-21;
HEADER;
FILE_DESCRIPTION(('Planar tetrahedron exact import test'),'2;1');
FILE_NAME('tetrahedron','2026-10-01T00:00:00',('Wonky'),('Wonky'),'owned fixture writer/1','Wonky','');
FILE_SCHEMA(('AUTOMOTIVE_DESIGN'));
ENDSEC;
DATA;
#1=CARTESIAN_POINT('',(0.0,0.0,0.0));
#2=VERTEX_POINT('',#1);
#3=CARTESIAN_POINT('',(1984.375,0.0,0.0));
#4=VERTEX_POINT('',#3);
#5=CARTESIAN_POINT('',(0.0,1984.375,0.0));
#6=VERTEX_POINT('',#5);
#7=CARTESIAN_POINT('',(0.0,0.0,1984.375));
#8=VERTEX_POINT('',#7);
#9=DIRECTION('',(1.,0.,0.));
#10=VECTOR('',#9,1.);
#11=CARTESIAN_POINT('',(0.0,0.0,0.0));
#12=LINE('',#11,#10);
#13=EDGE_CURVE('',#2,#4,#2061,.T.);
#14=DIRECTION('',(0.,1.,0.));
#15=VECTOR('',#14,1.);
#16=CARTESIAN_POINT('',(0.0,0.0,0.0));
#17=LINE('',#16,#15);
#18=EDGE_CURVE('',#2,#6,#2062,.T.);
#19=DIRECTION('',(0.,0.,1.));
#20=VECTOR('',#19,1.);
#21=CARTESIAN_POINT('',(0.0,0.0,0.0));
#22=LINE('',#21,#20);
#23=EDGE_CURVE('',#2,#8,#2063,.T.);
#24=DIRECTION('',(-1.,1.,0.));
#25=VECTOR('',#24,1.);
#26=CARTESIAN_POINT('',(1984.375,0.0,0.0));
#27=LINE('',#26,#25);
#28=EDGE_CURVE('',#4,#6,#2064,.T.);
#29=DIRECTION('',(-1.,0.,1.));
#30=VECTOR('',#29,1.);
#31=CARTESIAN_POINT('',(1984.375,0.0,0.0));
#32=LINE('',#31,#30);
#33=EDGE_CURVE('',#4,#8,#2065,.T.);
#34=DIRECTION('',(0.,-1.,1.));
#35=VECTOR('',#34,1.);
#36=CARTESIAN_POINT('',(0.0,1984.375,0.0));
#37=LINE('',#36,#35);
#38=EDGE_CURVE('',#6,#8,#2066,.T.);
#39=CARTESIAN_POINT('',(0.0,0.0,0.0));
#40=DIRECTION('',(0.,0.,-7.));
#41=DIRECTION('',(1.,0.,0.));
#42=AXIS2_PLACEMENT_3D('',#39,#40,#41);
#43=(B_SPLINE_SURFACE(1,1,((#2067,#2068),(#2069,#2070)),.UNSPECIFIED.,.F.,.F.,.F.) B_SPLINE_SURFACE_WITH_KNOTS((2,2),(2,2),(0.,1.),(0.,1.),.UNSPECIFIED.) GEOMETRIC_REPRESENTATION_ITEM() RATIONAL_B_SPLINE_SURFACE(((1.,1.),(1.,1.))) REPRESENTATION_ITEM('flat rational tensor patch') SURFACE());
#44=ORIENTED_EDGE('',*,*,#18,.T.);
#45=ORIENTED_EDGE('',*,*,#28,.F.);
#46=ORIENTED_EDGE('',*,*,#13,.F.);
#47=EDGE_LOOP('',(#44,#45,#46));
#48=FACE_OUTER_BOUND('',#47,.T.);
#49=ADVANCED_FACE('spline-trim triangle',(#48),#43,.F.);
#50=CARTESIAN_POINT('',(0.0,0.0,0.0));
#51=DIRECTION('',(0.,-3.,0.));
#52=DIRECTION('',(1.,0.,0.));
#53=AXIS2_PLACEMENT_3D('',#50,#51,#52);
#54=PLANE('',#53);
#55=ORIENTED_EDGE('',*,*,#13,.T.);
#56=ORIENTED_EDGE('',*,*,#33,.T.);
#57=ORIENTED_EDGE('',*,*,#23,.F.);
#58=EDGE_LOOP('',(#55,#56,#57));
#59=FACE_OUTER_BOUND('',#58,.T.);
#60=ADVANCED_FACE('',(#59),#54,.T.);
#61=CARTESIAN_POINT('',(0.0,0.0,0.0));
#62=DIRECTION('',(-5.,0.,0.));
#63=DIRECTION('',(0.,1.,0.));
#64=AXIS2_PLACEMENT_3D('',#61,#62,#63);
#65=PLANE('',#64);
#66=ORIENTED_EDGE('',*,*,#23,.T.);
#67=ORIENTED_EDGE('',*,*,#38,.F.);
#68=ORIENTED_EDGE('',*,*,#18,.F.);
#69=EDGE_LOOP('',(#66,#67,#68));
#70=FACE_OUTER_BOUND('',#69,.T.);
#71=ADVANCED_FACE('',(#70),#65,.T.);
#72=CARTESIAN_POINT('',(1984.375,0.0,0.0));
#73=DIRECTION('',(2.,2.,2.));
#74=DIRECTION('',(1.,0.,0.));
#75=AXIS2_PLACEMENT_3D('',#72,#73,#74);
#76=PLANE('',#75);
#77=ORIENTED_EDGE('',*,*,#28,.T.);
#78=ORIENTED_EDGE('',*,*,#38,.T.);
#79=ORIENTED_EDGE('',*,*,#33,.F.);
#80=EDGE_LOOP('',(#77,#78,#79));
#81=FACE_OUTER_BOUND('',#80,.T.);
#82=ADVANCED_FACE('',(#81),#76,.T.);
#83=CLOSED_SHELL('',(#49,#60,#71,#82));
#84=MANIFOLD_SOLID_BREP('tetrahedron',#83);
#85=(LENGTH_UNIT() NAMED_UNIT(*) SI_UNIT(.MILLI.,.METRE.));
#86=(GEOMETRIC_REPRESENTATION_CONTEXT(3) GLOBAL_UNCERTAINTY_ASSIGNED_CONTEXT((#1000)) GLOBAL_UNIT_ASSIGNED_CONTEXT((#85)) REPRESENTATION_CONTEXT('','3D'));
#87=ADVANCED_BREP_SHAPE_REPRESENTATION('tetrahedron',(#84),#86);
#1000=UNCERTAINTY_MEASURE_WITH_UNIT(LENGTH_MEASURE(0.000001),#85,'exact owned observations','not manufacturing accuracy');
#2000=(GEOMETRIC_REPRESENTATION_CONTEXT(2) PARAMETRIC_REPRESENTATION_CONTEXT() REPRESENTATION_CONTEXT('',''));
#2001=CARTESIAN_POINT('',(0,0));
#2002=CARTESIAN_POINT('',(0,1));
#2003=B_SPLINE_CURVE_WITH_KNOTS('',1,(#2001,#2002),.UNSPECIFIED.,.F.,.F.,(2,2),(0.,1.),.UNSPECIFIED.);
#2004=DEFINITIONAL_REPRESENTATION('',(#2003),#2000);
#2005=PCURVE('',#43,#2004);
#2006=CARTESIAN_POINT('',(1,0));
#2007=CARTESIAN_POINT('',(0,1));
#2008=B_SPLINE_CURVE_WITH_KNOTS('',1,(#2006,#2007),.UNSPECIFIED.,.F.,.F.,(2,2),(0.,1.),.UNSPECIFIED.);
#2009=DEFINITIONAL_REPRESENTATION('',(#2008),#2000);
#2010=PCURVE('',#43,#2009);
#2011=CARTESIAN_POINT('',(0,0));
#2012=CARTESIAN_POINT('',(1,0));
#2013=B_SPLINE_CURVE_WITH_KNOTS('',1,(#2011,#2012),.UNSPECIFIED.,.F.,.F.,(2,2),(0.,1.),.UNSPECIFIED.);
#2014=DEFINITIONAL_REPRESENTATION('',(#2013),#2000);
#2015=PCURVE('',#43,#2014);
#2016=CARTESIAN_POINT('',(0,0));
#2017=CARTESIAN_POINT('',(1984.375,0));
#2018=B_SPLINE_CURVE_WITH_KNOTS('',1,(#2016,#2017),.UNSPECIFIED.,.F.,.F.,(2,2),(0.,1.),.UNSPECIFIED.);
#2019=DEFINITIONAL_REPRESENTATION('',(#2018),#2000);
#2020=PCURVE('',#54,#2019);
#2021=CARTESIAN_POINT('',(1984.375,0));
#2022=CARTESIAN_POINT('',(0,1984.375));
#2023=B_SPLINE_CURVE_WITH_KNOTS('',1,(#2021,#2022),.UNSPECIFIED.,.F.,.F.,(2,2),(0.,1.),.UNSPECIFIED.);
#2024=DEFINITIONAL_REPRESENTATION('',(#2023),#2000);
#2025=PCURVE('',#54,#2024);
#2026=CARTESIAN_POINT('',(0,0));
#2027=CARTESIAN_POINT('',(0,1984.375));
#2028=B_SPLINE_CURVE_WITH_KNOTS('',1,(#2026,#2027),.UNSPECIFIED.,.F.,.F.,(2,2),(0.,1.),.UNSPECIFIED.);
#2029=DEFINITIONAL_REPRESENTATION('',(#2028),#2000);
#2030=PCURVE('',#54,#2029);
#2031=CARTESIAN_POINT('',(0,0));
#2032=CARTESIAN_POINT('',(0,-1984.375));
#2033=B_SPLINE_CURVE_WITH_KNOTS('',1,(#2031,#2032),.UNSPECIFIED.,.F.,.F.,(2,2),(0.,1.),.UNSPECIFIED.);
#2034=DEFINITIONAL_REPRESENTATION('',(#2033),#2000);
#2035=PCURVE('',#65,#2034);
#2036=CARTESIAN_POINT('',(1984.375,0));
#2037=CARTESIAN_POINT('',(0,-1984.375));
#2038=B_SPLINE_CURVE_WITH_KNOTS('',1,(#2036,#2037),.UNSPECIFIED.,.F.,.F.,(2,2),(0.,1.),.UNSPECIFIED.);
#2039=DEFINITIONAL_REPRESENTATION('',(#2038),#2000);
#2040=PCURVE('',#65,#2039);
#2041=CARTESIAN_POINT('',(0,0));
#2042=CARTESIAN_POINT('',(1984.375,0));
#2043=B_SPLINE_CURVE_WITH_KNOTS('',1,(#2041,#2042),.UNSPECIFIED.,.F.,.F.,(2,2),(0.,1.),.UNSPECIFIED.);
#2044=DEFINITIONAL_REPRESENTATION('',(#2043),#2000);
#2045=PCURVE('',#65,#2044);
#2046=CARTESIAN_POINT('',(0,0));
#2047=CARTESIAN_POINT('',(-2430.3531041676843,1403.1650189170552));
#2048=B_SPLINE_CURVE_WITH_KNOTS('',1,(#2046,#2047),.UNSPECIFIED.,.F.,.F.,(2,2),(0.,1.),.UNSPECIFIED.);
#2049=DEFINITIONAL_REPRESENTATION('',(#2048),#2000);
#2050=PCURVE('',#76,#2049);
#2051=CARTESIAN_POINT('',(-2430.3531041676843,1403.1650189170552));
#2052=CARTESIAN_POINT('',(-2430.3531041676843,-1403.1650189170552));
#2053=B_SPLINE_CURVE_WITH_KNOTS('',1,(#2051,#2052),.UNSPECIFIED.,.F.,.F.,(2,2),(0.,1.),.UNSPECIFIED.);
#2054=DEFINITIONAL_REPRESENTATION('',(#2053),#2000);
#2055=PCURVE('',#76,#2054);
#2056=CARTESIAN_POINT('',(0,0));
#2057=CARTESIAN_POINT('',(-2430.3531041676843,-1403.1650189170552));
#2058=B_SPLINE_CURVE_WITH_KNOTS('',1,(#2056,#2057),.UNSPECIFIED.,.F.,.F.,(2,2),(0.,1.),.UNSPECIFIED.);
#2059=DEFINITIONAL_REPRESENTATION('',(#2058),#2000);
#2060=PCURVE('',#76,#2059);
#2061=SURFACE_CURVE('',#12,(#2015,#2020),.CURVE_3D.);
#2062=SURFACE_CURVE('',#17,(#2005,#2045),.CURVE_3D.);
#2063=SURFACE_CURVE('',#22,(#2030,#2035),.CURVE_3D.);
#2064=SURFACE_CURVE('',#27,(#2010,#2050),.CURVE_3D.);
#2065=SURFACE_CURVE('',#32,(#2025,#2060),.CURVE_3D.);
#2066=SURFACE_CURVE('',#37,(#2040,#2055),.CURVE_3D.);
#2067=CARTESIAN_POINT('',(0,0,0));
#2068=CARTESIAN_POINT('',(0,1984.375,0));
#2069=CARTESIAN_POINT('',(1984.375,0,0));
#2070=CARTESIAN_POINT('',(1984.375,1984.375,0));
ENDSEC;
END-ISO-10303-21;
